<?xml version="1.0" encoding="UTF-8" standalone="no"?>
<!--part of the matt icon theme by sixsixfive released under CC0 (https://creativecommons.org/publicdomain/zero/1.0/) on openclipart-->
<svg xmlns="http://www.w3.org/2000/svg" xmlns:xlink="http://www.w3.org/1999/xlink" viewBox="0 0 128 128">
 <defs id="0">
  <linearGradient id="7">
   <stop id="R" stop-color="#00c4cc" stop-opacity="0.476"/>
   <stop id="S" offset="0.5" stop-color="#00c4cc" stop-opacity="0.661"/>
   <stop offset="0.75" id="T" stop-color="#00c4cc" stop-opacity="0.767"/>
   <stop offset="1" id="U" stop-color="#a1fbff"/>
  </linearGradient>
  <linearGradient id="8">
   <stop id="V" stop-color="#6193cf"/>
   <stop offset="1" id="W" stop-color="#4681c7"/>
  </linearGradient>
  <linearGradient id="9">
   <stop id="X" stop-color="#8bb300"/>
   <stop offset="1" id="Y" stop-color="#799b00"/>
  </linearGradient>
  <linearGradient id="A">
   <stop id="Z" stop-color="#bf0303"/>
   <stop offset="1" id="a" stop-color="#a20303"/>
  </linearGradient>
  <linearGradient id="B">
   <stop id="b" stop-color="#eee"/>
   <stop offset="1" id="c" stop-color="#d2d2d2"/>
  </linearGradient>
  <linearGradient id="C">
   <stop id="d"/>
   <stop offset="1" id="e" stop-opacity="0.536"/>
  </linearGradient>
  <linearGradient id="D">
   <stop id="f"/>
   <stop offset="1" id="g" stop-color="#ddd" stop-opacity="0"/>
  </linearGradient>
  <filter id="E" x="-0.147" width="1.294" y="-0.145" height="1.29">
   <feGaussianBlur stdDeviation="1.81881" id="h"/>
  </filter>
  <filter id="F">
   <feGaussianBlur stdDeviation="2.58594" id="i"/>
  </filter>
  <radialGradient xlink:href="#C" r="18.279" cy="22.254" cx="89.51" gradientTransform="matrix(1,0,0,0.97467889,0,0.43910718)" gradientUnits="userSpaceOnUse" id="G"/>
  <linearGradient xlink:href="#D" id="H" gradientUnits="userSpaceOnUse" gradientTransform="matrix(0.96714879,0,0,0.96714879,1.5886796,3.2231964)" x1="98.33" y1="14.793" x2="86.82" y2="25.1"/>
  <radialGradient xlink:href="#B" id="I" gradientUnits="userSpaceOnUse" gradientTransform="matrix(2.0026052,-1.5970314,1.7773333,2.2286954,-278.10308,27.013826)" cx="81.79" cy="100.32" r="44.42"/>
  <radialGradient xlink:href="#A" id="J" cx="36.889" cy="88.24" r="9.199" gradientTransform="matrix(4.861897,-5.5979101,3.7120439,3.2239841,-470.0245,25.923978)" gradientUnits="userSpaceOnUse"/>
  <radialGradient xlink:href="#9" id="K" cx="64.59" cy="100.29" r="9.199" gradientTransform="matrix(2.3091359,-0.59535469,1.0000016,3.8785958,-184.84649,-241.60168)" gradientUnits="userSpaceOnUse"/>
  <radialGradient xlink:href="#8" id="L" cx="94.57" cy="80.6" r="9.199" gradientTransform="matrix(1.7214899,-5.8871165,4.5519031,1.3310518,-435.11799,558.3993)" gradientUnits="userSpaceOnUse"/>
  <filter id="M">
   <feGaussianBlur stdDeviation="0.58297" id="j"/>
  </filter>
  <linearGradient xlink:href="#O" x1="54.21" y1="9.898" x2="5.931" y2="55.56" id="N" gradientUnits="userSpaceOnUse"/>
  <linearGradient id="O">
   <stop id="k" stop-color="#e9e9e9"/>
   <stop offset="1" id="l" stop-color="#d7d7d7"/>
  </linearGradient>
  <linearGradient xlink:href="#O" gradientTransform="translate(226.89963,134.22817)" y2="55.56" x2="5.931" y1="9.898" x1="54.21" gradientUnits="userSpaceOnUse" id="P"/>
  <linearGradient xlink:href="#7" gradientTransform="translate(1.4382054,-2.5648401)" gradientUnits="userSpaceOnUse" x2="99.32" x1="25.769" id="Q"/>
 </defs>
 <path d="m 20.09375,4.1185004 0,117.9999996 88.84375,0 0,-86.15625 -0.59375,-0.625 c 0.21045,0.144391 0.41688,0.302162 0.625,0.4375 L 78.09375,4.1497504 c 0.05654,0.079597 0.09993,0.1703021 0.15625,0.25 l -0.25,-0.28125 -57.90625,0 z" id="1" transform="matrix(0.96714879,0,0,0.97126149,1.5886796,2.6954315)" opacity="0.809" filter="url(#F)"/>
 <path d="m 21.022325,5.8526322 0,114.1235578 85.925125,0 0,-83.325913 -29.921165,-30.7976448 -56.00396,0 z" id="2" fill="url(#I)"/>
 <path id="3" d="m 81.698039,28.309502 0.135161,-8.351 C 81.901124,13.359407 80.956142,8.4107397 77.785779,3.9471419 L 80.362343,3.9159389 107.86271,29.53084 c -4.06802,-2.645393 -9.621189,-0.791242 -16.861906,-1.025606 l -9.302765,-0.195732 z" transform="matrix(1.016085,0,0,1.112241,-3.7922382,2.9647584)" opacity="0.505" fill="url(#G)" filter="url(#E)"/>
 <path d="m 82.748319,29.121681 0.130721,-8.07666 c 0.06569,-6.382306 -2.691577,-10.83607 -5.75779,-15.1530328 l 29.86674,30.5881668 c -3.93438,-2.558489 -8.23966,-6.942507 -15.242513,-7.169171 l -8.997158,-0.189303 z" id="4" fill="#eee"/>
 <path id="5" d="m 82.748319,29.121681 0.130721,-8.07666 c 0.06569,-6.382306 -2.691577,-10.83607 -5.75779,-15.1530328 l 29.86674,30.5881668 c -3.93438,-2.558489 -8.23966,-6.942507 -15.242513,-7.169171 l -8.997158,-0.189303 z" fill="url(#H)"/>
 <path d="m 60.171098,35.28277 c -1.011111,4.64e-4 -2.117224,2.34158 -2.355699,3.324196 L 51.24382,65.513122 c -0.341823,-0.173994 -0.719374,-0.310665 -1.11288,-0.373307 -1.95472,-0.311147 -4.120262,-1.119407 -5.430531,-1.986256 -0.385726,-0.255187 -0.662332,-0.502197 -0.873393,-0.718446 -0.0018,-0.729937 -0.138783,-1.473649 -0.450788,-2.176447 -0.364222,-0.816351 -1.246512,-1.372173 -2.140121,-1.34823 -0.893608,0.02388 -1.744861,0.626245 -2.064854,1.460939 -0.344709,0.903417 -0.317262,1.881241 -0.08451,2.761041 -0.01907,0.02164 -0.01374,0.02508 -0.03521,0.0493 -0.401872,0.463379 0.327481,2.457571 -0.914994,2.859408 -1.242457,0.40182 -2.334124,1.428304 -3.602278,1.9226 -1.603484,1.528253 -8.013023,1.7265 -7.267422,1.624268 1.880468,1.219888 8.264294,0.073 10.523909,-0.574252 1.504979,-0.486739 2.940463,-1.191908 4.113408,-2.282099 0.0979,0.06853 0.181501,0.15201 0.281741,0.218362 1.973855,1.305854 4.442504,2.18744 6.909677,2.620178 0.03143,0.04741 0.03624,0.04277 0.112675,0.190174 0.257643,0.496323 0.562572,1.632735 1.922876,2.535671 0.605615,0.403074 1.409753,0.490209 2.087647,0.226194 0.67791,-0.263999 1.211299,-0.872053 1.384796,-1.578545 l 5.029054,-20.581145 6.212373,36.407859 c 0.179526,1.083456 0.664857,3.819659 1.762175,3.775156 1.097319,-0.04449 1.941323,-3.440014 2.032511,-4.534431 0.357523,-4.10099 0.713998,-7.674274 0.987855,-11.242853 0.226194,-2.947677 0.816832,-5.343189 2.345479,-7.26184 1.518273,0.738061 3.369936,1.227721 5.493928,0.809996 0.707127,-0.138269 1.334916,-0.63351 1.634109,-1.288954 l 1.986256,-4.338793 c 0.975797,-0.498523 1.715044,-0.460477 3.085052,0.556439 0.974921,1.502385 1.463411,1.495618 2.282098,5.979911 0.196358,1.082823 1.275092,1.931069 2.373665,1.866538 1.60381,-0.09344 3.003413,-0.80017 3.972529,-1.669303 0.540741,-0.48497 0.959565,-0.997216 1.331228,-1.507315 0.410296,0.07283 0.756784,0.159911 0.950869,0.253573 0.06714,0.03247 0.101172,0.02628 0.133804,0.02817 -0.002,0.0103 -0.0068,0.0068 -0.0068,0.02113 -0.04349,0.594743 0.158188,1.203691 0.548127,1.654909 0.389861,0.451237 0.963106,0.739162 1.557851,0.782514 0.594755,0.04329 1.203672,-0.158365 1.654822,-0.548402 0.451187,-0.389934 0.739027,-0.963223 0.782257,-1.557967 0.14548,-2.008602 -1.288567,-3.805988 -2.683577,-4.479656 -1.394981,-0.673702 -2.786356,-0.794536 -3.965488,-0.838181 -0.789694,-0.03075 -1.581998,0.383441 -2.0074,1.049482 -0.307352,0.481209 -0.586516,0.865234 -0.852249,1.197388 -0.896907,-3.049291 -1.903587,-4.021274 -2.444105,-4.979741 -0.147715,-0.260975 -0.347749,-0.492253 -0.584608,-0.676192 -2.909768,-2.278252 -6.499663,-2.298829 -9.072023,-0.725489 -0.382788,0.234541 -0.693489,0.585005 -0.880452,0.993145 l -1.760887,3.845768 c -0.93904,-0.04517 -1.64201,-0.463568 -2.641303,-1.162176 -0.827035,-0.577034 -2.04493,-0.509721 -2.803312,0.154929 -1.800907,1.580194 -3.118304,5.480359 -3.877097,7.489339 l -4.913193,-31.6556 c -0.178289,-1.047559 -1.033183,-3.476995 -2.095787,-3.479142 z" id="6" color="#000" stroke-width="20.2" fill="url(#Q)"/>
</svg>