<?xml version="1.0" encoding="UTF-8" standalone="no"?>
<!--part of the matt icon theme by sixsixfive released under CC0 (https://creativecommons.org/publicdomain/zero/1.0/) on openclipart-->
<svg xmlns="http://www.w3.org/2000/svg" xmlns:xlink="http://www.w3.org/1999/xlink" viewBox="0 0 128 128">
 <defs id="0">
  <linearGradient id="I">
   <stop id="c"/>
   <stop offset="1" id="d" stop-opacity="0"/>
  </linearGradient>
  <linearGradient id="J">
   <stop id="e" stop-color="#737373"/>
   <stop offset="1" id="f" stop-color="#737373" stop-opacity="0"/>
  </linearGradient>
  <linearGradient id="K">
   <stop id="g" stop-color="#555"/>
   <stop offset="1" id="h" stop-color="#bbb"/>
  </linearGradient>
  <linearGradient id="L">
   <stop id="i" stop-color="#afafaf"/>
   <stop offset="1" id="j" stop-color="#888"/>
  </linearGradient>
  <linearGradient id="M">
   <stop id="k" stop-color="#eee"/>
   <stop offset="1" id="l" stop-color="#eee" stop-opacity="0"/>
  </linearGradient>
  <linearGradient id="N">
   <stop id="m" stop-color="#8f6b32"/>
   <stop offset="1" id="n" stop-color="#80602c"/>
  </linearGradient>
  <linearGradient id="O">
   <stop id="o" stop-color="#ddd"/>
   <stop offset="1" id="p" stop-color="#c0c0c0"/>
  </linearGradient>
  <linearGradient id="P">
   <stop id="q" stop-color="#eee" stop-opacity="0.6"/>
   <stop offset="1" id="r" stop-color="#eee" stop-opacity="0"/>
  </linearGradient>
  <linearGradient id="Q">
   <stop id="s" stop-color="#fff"/>
   <stop offset="1" id="t" stop-color="#fff" stop-opacity="0"/>
  </linearGradient>
  <linearGradient xlink:href="#I" id="R" gradientUnits="userSpaceOnUse" x1="2482.96" y1="6145.31" x2="2375.5" y2="6037.53"/>
  <radialGradient xlink:href="#Q" id="S" cx="43.893" cy="-3.334" r="51.641" gradientTransform="matrix(1.4952966,-3.2402571e-2,2.3712734e-2,1.0942826,-13.241932,-4.885029)" gradientUnits="userSpaceOnUse"/>
  <radialGradient xlink:href="#P" id="T" cx="98.89" cy="0.354" r="30.466" gradientTransform="matrix(3.997274,-3.9231336e-2,8.3231916e-3,0.8480486,-269.48909,9.0424597)" gradientUnits="userSpaceOnUse"/>
  <radialGradient xlink:href="#O" id="U" cx="78.948" cy="50.45" r="16.828" gradientUnits="userSpaceOnUse" gradientTransform="matrix(2.1079797,-0.1619128,7.6583909e-2,0.9970631,-93.372912,13.308219)"/>
  <radialGradient xlink:href="#N" id="V" cx="54.866" cy="72.04" r="27.06" gradientTransform="matrix(1,0,0,0.9922685,0,0.69856)" gradientUnits="userSpaceOnUse"/>
  <radialGradient xlink:href="#M" id="W" cx="57.878" cy="48.48" r="27.301" gradientTransform="matrix(1.8055164,-7.8800517e-2,4.3310698e-2,0.9923561,-51.269444,5.462792)" gradientUnits="userSpaceOnUse"/>
  <radialGradient xlink:href="#L" id="X" cx="47.28" cy="17.831" r="51.25" gradientTransform="matrix(1,0,0,1.0947923,0,-5.7883482)" gradientUnits="userSpaceOnUse"/>
  <filter id="Y">
   <feGaussianBlur stdDeviation="0.74616" id="u"/>
  </filter>
  <linearGradient xlink:href="#K" id="Z" x1="93.63" y1="-25.663" x2="90.54" y2="9.767" gradientUnits="userSpaceOnUse"/>
  <linearGradient xlink:href="#J" id="a" x1="75.32" y1="-26.391" x2="68.836" y2="32.457" gradientUnits="userSpaceOnUse"/>
  <radialGradient xlink:href="#I" id="b" cx="26.25" cy="122.17" r="18.333" gradientTransform="matrix(1,0,0,0.1818182,0,99.954538)" gradientUnits="userSpaceOnUse"/>
 </defs>
 <path transform="matrix(1.2727273,0,0,1,61.59091,-3.75)" d="M 44.583334,122.16666 A 18.333334,3.3333333 0 1 1 7.916666,122.16666 A 18.333334,3.3333333 0 1 1 44.583334,122.16666 z" id="1" opacity="0.282" fill="url(#b)" stroke-width="2.2" stroke-dashoffset="30"/>
 <path id="2" d="M 44.583334,122.16666 A 18.333334,3.3333333 0 1 1 7.916666,122.16666 A 18.333334,3.3333333 0 1 1 44.583334,122.16666 z" transform="matrix(1.2727273,0,0,1,-9.6590907,-3.3333333)" opacity="0.282" fill="url(#b)" stroke-width="2.2" stroke-dashoffset="30"/>
 <path d="M 9.4788982,33.673289 C 9.5690412,33.701167 9.8472472,33.748748 9.7554292,33.728629 C 9.7553252,33.728616 9.5732202,33.698263 9.4788982,33.673289 z M 9.7554292,33.728629 C 9.7660722,33.731681 9.8832972,33.736926 9.9312662,33.7365 C 9.8447772,33.735718 9.7554592,33.728633 9.7554292,33.728629 z M 10.128177,33.726489 C 10.143505,33.725565 10.24157,33.698739 10.275275,33.68625 C 10.202725,33.705075 10.152828,33.720093 10.128177,33.726489 z M 10.605657,33.562983 C 10.62801,33.556099 10.733594,33.490673 10.764035,33.464842 C 10.687611,33.514464 10.656177,33.530184 10.605657,33.562983 z M 11.038002,33.232371 C 11.059077,33.214488 11.136846,33.116278 11.154654,33.085055 C 11.112805,33.137108 11.090462,33.167128 11.038002,33.232371 z M 14.150373,36.330712 C 17.625859,40.312511 22.815317,42.400711 27.692384,43.048502 C 27.735641,43.054478 27.778614,43.062361 27.821176,43.072125 C 27.834673,43.075121 27.845666,43.084977 27.859069,43.088305 C 33.418522,43.802998 37.002567,44.8534 39.116992,45.932429 C 39.119327,45.930433 39.121667,45.928448 39.124017,45.926467 C 39.129527,45.929279 39.137472,45.931738 39.142962,45.934554 C 39.144958,45.936892 39.146942,45.939233 39.148923,45.941579 C 39.185533,45.94971 39.221819,45.959224 39.257704,45.970103 C 39.268382,45.973036 39.279028,45.976085 39.289635,45.979253 C 39.33032,45.99599 39.370238,46.014529 39.409277,46.034812 C 39.415609,46.037465 39.421925,46.04016 39.428222,46.042901 C 39.457966,46.057385 39.48722,46.072863 39.515929,46.089305 C 39.530788,46.097613 39.52939,46.098698 39.540835,46.104421 C 39.547171,46.107071 39.553485,46.109765 39.559783,46.112507 C 39.583038,46.124671 39.605965,46.137445 39.628543,46.150824 C 39.650191,46.163545 39.662281,46.187411 39.683255,46.201061 C 39.716008,46.225121 39.715944,46.223068 39.756911,46.259387 C 39.865545,46.339326 39.976792,46.416561 40.062401,46.519729 C 40.419077,46.77865 40.757483,47.025614 41.021652,47.336936 L 41.134908,47.470407 L 77.116207,89.689144 L 77.259266,89.857736 L 77.557306,90.208977 C 80.389731,93.546979 81.201513,98.064629 80.817496,102.75143 C 80.81369,102.78822 80.808507,102.82486 80.801963,102.86127 C 80.801223,102.87444 80.799468,102.88707 80.79877,102.90023 C 80.523327,108.07602 83.30663,112.64414 87.071834,115.84642 C 87.088386,115.86049 87.103991,115.8756 87.120588,115.88962 C 87.130971,115.89688 87.141256,115.90425 87.151453,115.91177 C 87.16388,115.92129 87.176166,115.93101 87.188283,115.94093 C 92.869811,120.41472 100.75599,120.62625 107.12199,117.00555 C 107.34396,116.87935 107.47998,116.65512 107.48961,116.42779 C 107.49895,116.20725 107.3817,115.9671 107.16688,115.81961 L 106.54738,115.4028 L 105.5445,114.71929 C 105.48848,114.68367 105.43493,114.64435 105.3842,114.60157 C 105.37263,114.59124 105.36564,114.57709 105.35439,114.56644 L 97.132417,108.095 C 97.128307,108.09204 97.117437,108.08981 97.113467,108.08692 L 97.070677,108.05073 C 97.032547,108.01908 96.996027,107.98555 96.961257,107.95025 C 96.928857,107.92027 96.894581,107.89637 96.857795,107.8568 C 96.84149,107.83926 96.838375,107.81931 96.823088,107.80167 C 96.746064,107.69841 96.682794,107.58556 96.634899,107.46597 C 96.630473,107.4576 96.628314,107.44735 96.624038,107.43893 C 96.569841,107.33209 96.480761,107.23631 96.447772,107.11728 C 96.342122,106.73617 96.370181,106.55498 96.36387,106.30643 C 96.343202,105.49276 96.517424,104.52901 96.960907,103.40744 C 97.799487,101.28662 99.335497,99.065589 100.98432,97.540609 C 101.01597,97.502479 101.0495,97.465959 101.0848,97.431189 C 101.08917,97.427239 101.09448,97.423209 101.09885,97.419259 C 101.11744,97.402529 101.13288,97.389669 101.16208,97.365619 C 101.18293,97.348119 101.2036,97.328419 101.2253,97.311969 C 101.26698,97.281929 101.31541,97.247559 101.31556,97.247469 C 101.32385,97.241139 101.33432,97.242869 101.34259,97.236609 C 102.06628,96.688139 102.67574,96.334259 103.36553,96.160449 C 103.50007,96.126549 103.57115,96.114269 103.57863,96.112539 L 103.58842,96.152569 C 104.03835,96.003149 104.53259,96.077649 104.91848,96.353049 L 108.52727,98.897259 L 108.55218,98.912369 L 108.60795,98.949619 C 108.60995,98.951959 108.61193,98.954299 108.61392,98.956649 C 108.63509,98.966579 108.65603,98.977019 108.67672,98.987939 C 108.74615,99.018739 108.81312,99.054809 108.87703,99.095869 L 115.8053,103.88603 C 116.00163,104.0219 116.26355,104.05755 116.47139,103.9733 C 116.68752,103.88568 116.85293,103.68931 116.89968,103.45279 C 116.92793,103.3041 116.94071,103.08895 116.98695,102.7867 C 117.4823,99.548699 117.14774,96.251439 115.94802,93.289179 C 115.94182,93.273879 115.93851,93.257429 115.93226,93.242139 C 115.92935,93.236269 115.92312,93.233919 115.92035,93.228089 C 115.91189,93.210309 115.89852,93.197139 115.8916,93.179979 C 115.88983,93.175579 115.89438,93.171399 115.89267,93.166999 C 115.89151,93.164239 115.88786,93.162709 115.8867,93.159969 C 114.8088,90.601854 113.06188,88.350327 110.94689,86.597947 C 110.91885,86.576385 110.88689,86.56194 110.86024,86.538563 C 108.54637,84.663972 105.9245,83.411793 103.02878,83.118919 C 103.01391,83.117529 102.99861,83.110483 102.98386,83.108704 C 102.97519,83.108076 102.96655,83.107359 102.95789,83.106571 C 98.158517,82.424541 92.808135,82.010415 89.468737,78.615486 C 89.452388,78.597151 89.436482,78.578413 89.421054,78.559289 C 89.400608,78.536505 89.386561,78.519951 89.367406,78.496065 L 69.279512,54.822545 C 69.275508,54.817883 69.271534,54.813202 69.26759,54.808494 C 69.303371,54.851917 69.263291,54.809626 69.182011,54.736117 C 69.154858,54.710996 69.128655,54.684863 69.103454,54.657781 C 69.080462,54.633533 69.059359,54.606101 69.037887,54.580508 C 69.020316,54.55957 69.000752,54.539077 68.98424,54.517285 L 68.596788,54.060676 L 68.543141,53.997452 C 68.521383,53.972098 68.497754,53.946812 68.477571,53.920178 C 68.454953,53.890906 68.433434,53.8608 68.413065,53.829921 C 68.351903,53.735023 68.319418,53.690848 68.367508,53.747753 C 68.365515,53.745415 68.363528,53.743075 68.361547,53.740727 L 53.40781,35.932681 C 53.405817,35.930344 53.40383,35.928005 53.401849,35.925656 L 53.074006,35.539293 C 52.106816,34.39946 51.360406,33.127455 50.815464,31.752692 C 50.812295,31.744691 50.80866,31.718365 50.805671,31.712671 C 50.794123,31.681668 50.783612,31.650285 50.774164,31.61858 C 50.756817,31.585998 50.748382,31.603604 50.714337,31.391441 C 50.711129,31.381063 50.713692,31.368834 50.710504,31.358445 C 49.765735,28.277194 49.712394,24.717698 49.98832,21.265927 C 49.991257,21.229202 49.987866,21.191714 49.990871,21.155017 C 49.991038,21.15277 49.997722,21.151301 49.997896,21.149057 C 50.001392,21.104155 50.001377,21.063716 50.008535,21.019202 C 50.008733,21.012834 50.01644,21.006618 50.016626,21.000254 C 50.187686,15.205417 47.304924,10.282191 43.119576,6.7348838 C 43.11324,6.7322308 43.106925,6.7295368 43.100627,6.7267958 C 43.06461,6.7015368 43.029734,6.6746888 42.996104,6.6463308 C 36.73285,1.6854791 28.043031,1.4386671 21.008547,5.4395738 C 20.786564,5.5657778 20.650558,5.7899978 20.640925,6.0173358 C 20.630767,6.2570008 20.742435,6.4814788 20.950682,6.6244538 L 21.643827,7.0995758 C 21.652178,7.1045328 21.660482,7.1095708 21.668734,7.1146888 C 21.70044,7.1356328 21.731332,7.1577898 21.761338,7.1811048 L 22.947307,8.0234248 C 22.96826,8.0376558 22.988845,8.0524198 23.009043,8.0677018 L 32.134915,15.234164 C 32.373172,15.421122 32.627284,15.685694 32.796782,16.170806 C 32.925797,16.540056 32.943989,16.862856 32.952428,17.222844 C 32.974498,18.164029 32.74977,19.23995 32.261741,20.467124 C 31.306951,22.868005 29.533498,25.394451 27.674003,27.078616 C 27.629929,27.120408 27.610016,27.137304 27.561607,27.173989 C 26.707075,27.842004 25.979187,28.284454 25.151658,28.506041 C 24.043988,28.82768 21.608224,27.039185 19.302956,25.458025 C 19.292896,25.453064 19.280989,25.454042 19.271024,25.448873 C 19.215013,25.421726 19.160762,25.391084 19.108595,25.357127 L 11.301982,19.959 C 11.105669,19.823147 10.843723,19.787485 10.635884,19.871741 C 10.419746,19.959362 10.254344,20.155729 10.20759,20.392241 C 10.169905,20.590697 10.16497,20.790664 10.116075,21.110281 C 9.5627712,24.712914 9.9530082,28.376344 11.303625,31.665794 C 11.319487,31.70554 11.333623,31.745952 11.345991,31.786921 C 11.347982,31.793331 11.348971,31.800488 11.350888,31.806931 C 11.361622,31.832845 11.388086,31.84961 11.39751,31.876114 C 12.061514,33.595754 12.990172,35.001484 14.150373,36.330712 z M 11.276627,32.872812 C 11.291741,32.847905 11.329489,32.759489 11.333248,32.740187 C 11.323348,32.762326 11.306255,32.806586 11.276627,32.872812 z M 109.0797,99.334699 C 109.12832,99.394109 109.06493,99.363569 109.0797,99.334699 z M 116.18709,93.642129 C 116.21328,93.668239 116.22264,93.660289 116.20114,93.630209 L 116.18709,93.642129 z" id="3" stroke-width="2" stroke-linecap="round" fill="#696969" stroke-linejoin="round"/>
 <path d="M 32.1875,4.96875 C 29.639052,4.8479983 27.069616,5.4556889 24.59375,6.4375 L 33.53125,13.4375 C 33.987206,13.795283 34.625271,14.512634 34.9375,15.40625 C 35.18407,16.111956 35.20923,16.750154 35.21875,17.15625 C 35.250117,18.49384 34.913806,19.879064 34.34375,21.3125 C 33.240611,24.08641 31.395016,26.810182 29.21875,28.78125 C 28.970672,29.016484 28.83773,29.075607 28.9375,29 C 27.959019,29.764911 26.954706,30.364917 25.75,30.6875 C 24.724119,30.98539 23.989259,30.755161 23.34375,30.53125 C 22.698241,30.307339 22.119801,29.997875 21.53125,29.65625 C 20.354147,28.972999 19.164668,28.12115 18.03125,27.34375 C 17.972856,27.316661 18.019917,27.364672 17.84375,27.25 C 17.833232,27.239685 17.822815,27.229268 17.8125,27.21875 L 12.3125,23.4375 C 12.196401,25.982497 12.464745,28.488198 13.40625,30.78125 C 13.406322,30.791667 13.406322,30.802083 13.40625,30.8125 C 13.482833,31.004398 13.416624,30.862969 13.4375,30.9375 C 13.458376,31.012031 13.48837,31.110706 13.46875,31.0625 C 13.490089,31.113756 13.511108,31.068354 13.53125,31.125 C 13.534618,31.133721 13.52787,31.147553 13.53125,31.15625 C 14.089902,32.593578 14.854114,33.674134 15.875,34.84375 C 18.874869,38.280645 23.546205,40.22093 28,40.8125 C 27.324501,40.719208 27.456417,40.647359 28.3125,40.84375 C 28.36493,40.855393 28.357567,40.893147 28.40625,40.90625 C 33.640997,41.599799 37.196992,42.550218 39.65625,43.71875 C 39.740974,43.737569 39.66424,43.734986 39.71875,43.75 C 39.77326,43.765014 39.759704,43.773385 39.78125,43.78125 C 39.797358,43.784246 39.796009,43.77783 39.8125,43.78125 C 39.878465,43.794932 39.865963,43.759884 39.9375,43.78125 C 40.012007,43.808651 40.085024,43.839944 40.15625,43.875 C 40.18823,43.888157 40.161033,43.894691 40.1875,43.90625 C 40.222253,43.918541 40.264572,43.931435 40.28125,43.9375 C 40.291334,43.941167 40.343695,43.937476 40.34375,43.9375 C 40.364987,43.957925 40.385825,43.978763 40.40625,44 C 40.406286,44.000015 40.432405,44.028649 40.4375,44.03125 C 40.440812,44.03294 40.463605,44.028614 40.46875,44.03125 C 40.747189,44.177093 40.824812,44.232743 40.625,44.125 C 40.636228,44.130993 40.645015,44.118938 40.65625,44.125 L 40.65625,44.15625 C 40.636232,44.143128 40.627988,44.127932 40.78125,44.21875 C 40.788064,44.223059 40.807267,44.215135 40.8125,44.21875 C 40.772709,44.193765 40.844799,44.252677 40.84375,44.25 C 40.841202,44.243499 40.724717,44.142769 40.9375,44.28125 C 40.969263,44.301304 41.000522,44.322144 41.03125,44.34375 C 41.054853,44.361088 41.063349,44.41073 41.09375,44.4375 C 41.119544,44.45648 41.160016,44.510728 41.1875,44.53125 C 41.20145,44.541666 41.235604,44.551543 41.25,44.5625 C 41.297269,44.598478 41.354021,44.674719 41.40625,44.71875 C 41.400681,44.712583 41.412414,44.694299 41.40625,44.6875 C 41.739792,44.929627 42.225739,45.257161 42.75,45.875 C 42.782157,45.90533 42.81342,45.936593 42.84375,45.96875 L 42.84375,46 L 42.9375,46.09375 L 78.84375,88.21875 C 78.864987,88.239175 78.885825,88.260013 78.90625,88.28125 L 79.03125,88.4375 L 79.3125,88.78125 C 82.659993,92.726255 83.477163,97.876677 83.0625,102.9375 C 83.062572,102.94792 83.062572,102.95833 83.0625,102.96875 C 83.068635,102.90946 83.056588,103.04598 83.0625,103 C 83.072792,102.81708 83.073516,102.82356 83.0625,103.03125 C 82.83586,107.29004 85.120248,111.17095 88.4375,114.03125 C 88.459989,114.05064 88.477415,114.07445 88.5,114.09375 C 88.510417,114.09368 88.520833,114.09368 88.53125,114.09375 C 88.53694,114.0986 88.525554,114.12016 88.53125,114.125 C 88.566121,114.15212 88.555912,114.12429 88.59375,114.15625 C 88.560381,114.132 88.742797,114.28394 88.625,114.1875 C 92.842435,117.50843 98.451271,117.96174 103.53125,116.03125 L 95.84375,109.96875 C 95.801019,109.93894 95.759328,109.90768 95.71875,109.875 C 95.686987,109.85495 95.655728,109.83411 95.625,109.8125 C 95.065731,109.3483 95.286738,109.47821 95.4375,109.59375 C 95.596935,109.74127 95.325337,109.50378 95.34375,109.53125 C 95.380092,109.58547 95.520567,109.73327 95.1875,109.375 C 95.154075,109.34097 95.114017,109.33589 95.09375,109.3125 C 95.06042,109.26169 95.029145,109.20957 95,109.15625 C 94.828302,108.92607 94.749611,108.73351 94.65625,108.53125 L 94.625,108.53125 C 94.62495,108.53115 94.596875,108.47658 94.59375,108.46875 C 94.621482,108.52342 94.549196,108.3394 94.5625,108.375 C 94.554526,108.35578 94.538863,108.33151 94.53125,108.3125 C 94.559596,108.45839 94.467734,108.50437 94.25,107.71875 C 94.045774,106.98203 94.091711,106.29469 94.09375,106.375 C 94.063858,105.19814 94.308931,103.91506 94.84375,102.5625 C 95.790764,100.16744 97.390503,97.875007 99.25,96.09375 C 99.675266,95.595577 99.604245,95.677178 99.4375,95.875 C 99.386194,95.935868 99.617227,95.697033 99.5,95.8125 C 99.520425,95.791263 99.541263,95.770425 99.5625,95.75 C 99.563321,95.748881 99.562492,95.718757 99.5625,95.71875 C 99.629237,95.658694 99.643742,95.674822 99.71875,95.625 C 99.354533,95.930645 99.348396,95.87551 99.84375,95.5 C 99.864422,95.489263 99.885257,95.478845 99.90625,95.46875 C 99.926611,95.454077 99.918522,95.450634 99.9375,95.4375 C 99.937575,95.437443 99.9914,95.410287 100,95.40625 C 100.06599,95.363048 100.15616,95.312556 100.15625,95.3125 L 100.15625,95.34375 L 100.1875,95.34375 C 100.21773,95.329614 100.21507,95.297577 100.25,95.28125 C 101.00755,94.72935 101.80396,94.222877 102.8125,93.96875 C 102.91935,93.941829 102.99911,93.921079 103.09375,93.90625 C 103.09345,93.906319 103.21117,93.890364 103.3125,93.875 C 103.38307,93.868582 103.46538,93.844963 103.5,93.84375 C 103.67893,93.843561 103.85725,93.86454 104.03125,93.90625 C 104.80274,93.899915 105.57151,94.038082 106.21875,94.5 L 109.5625,96.875 C 109.59397,96.884735 109.62523,96.895154 109.65625,96.90625 C 109.78924,96.97693 109.91486,97.060676 110.03125,97.15625 C 110.06069,97.17374 110.06303,97.167761 110.09375,97.1875 C 110.11474,97.197595 110.13558,97.208013 110.15625,97.21875 L 114.78125,100.40625 C 114.8388,98.272057 114.64058,96.146113 113.875,94.21875 C 113.87207,94.213549 113.84377,94.187536 113.84375,94.1875 C 113.8382,94.175843 113.8495,94.137664 113.84375,94.125 C 113.84108,94.121501 113.84588,94.096541 113.84375,94.09375 C 113.84214,94.091633 113.81379,94.095441 113.8125,94.09375 C 113.80781,94.087602 113.78125,94.031255 113.78125,94.03125 C 112.85847,91.841263 111.35168,89.877968 109.5,88.34375 C 109.16145,88.083426 109.14341,88.046855 109.375,88.25 C 107.33563,86.597791 105.20809,85.617291 102.8125,85.375 C 102.72015,85.366368 102.75894,85.355306 102.6875,85.34375 C 102.53969,85.31984 102.5178,85.279817 102.4375,85.25 C 102.53174,85.277231 102.49298,85.321703 102.65625,85.34375 C 97.97004,84.677806 91.973138,84.416806 87.84375,80.21875 C 87.822144,80.188022 87.801304,80.156763 87.78125,80.125 C 87.901503,80.259878 87.741031,80.081732 87.71875,80.0625 C 87.696469,80.043268 87.822225,80.205736 87.65625,80 L 87.6875,79.96875 C 87.44188,79.645279 87.228628,79.190034 87.21875,79.15625 C 87.207849,79.118965 87.349683,79.601903 87.59375,79.90625 L 67.75,56.53125 C 67.730748,56.512841 67.679555,56.458577 67.65625,56.4375 C 67.656178,56.427083 67.656178,56.416667 67.65625,56.40625 C 67.60684,56.360541 67.593523,56.312356 67.5625,56.28125 C 67.531477,56.250144 67.477956,56.230975 67.4375,56.1875 C 67.55076,56.306938 67.467968,56.285054 67.28125,56.0625 C 67.585843,56.425457 67.530515,56.400193 67.15625,55.90625 L 66.9375,55.59375 L 66.8125,55.46875 C 66.448761,55.044954 66.434827,54.989055 66.65625,55.28125 C 66.637537,55.260306 66.643465,55.24075 66.625,55.21875 L 66.5,55.09375 C 66.499928,55.083333 66.499928,55.072917 66.5,55.0625 L 51.65625,37.40625 L 51.34375,37 C 50.298558,35.768243 49.550013,34.380897 48.9375,32.9375 C 48.911787,32.876907 48.8375,32.842133 48.8125,32.78125 C 48.812537,32.78132 48.792355,32.715831 48.78125,32.6875 C 48.767253,32.652857 48.732518,32.628484 48.71875,32.59375 C 48.718731,32.593701 48.719367,32.564593 48.71875,32.5625 C 48.708013,32.541828 48.697595,32.520993 48.6875,32.5 C 48.669903,32.462418 48.637405,32.438733 48.625,32.40625 C 48.597814,32.335061 48.611145,32.335256 48.59375,32.28125 C 48.524169,32.065227 48.489098,31.908055 48.46875,31.78125 L 48.5,31.78125 L 48.53125,31.78125 C 48.506939,31.698474 48.491922,31.614301 48.46875,31.53125 C 48.467739,31.5155 48.469409,31.513642 48.46875,31.5 C 48.462902,31.40765 48.436849,31.348136 48.4375,31.3125 C 47.549563,27.983026 47.480858,24.460652 47.75,21.09375 C 47.72008,21.467738 47.713029,21.42024 47.75,20.96875 L 47.71875,20.96875 C 47.718751,20.96871 47.745767,20.892158 47.75,20.875 C 47.75027,20.864236 47.749754,20.854507 47.75,20.84375 C 47.863284,15.882607 45.422999,11.661272 41.65625,8.46875 C 41.6458,8.4599468 41.634145,8.4454279 41.625,8.4375 C 41.583338,8.4013841 41.554554,8.3977219 41.53125,8.375 C 38.787055,6.2014428 35.578485,5.1294231 32.1875,4.96875 z M 66.8125,55.46875 C 66.819228,55.475172 66.83735,55.462736 66.84375,55.46875 L 66.84375,55.4375 C 66.84375,55.4375 66.8125,55.46875 66.8125,55.46875 z M 13.53125,31.15625 L 13.5,31.15625 C 13.50737,31.189971 13.539119,31.360951 13.5625,31.5 C 13.53624,31.354406 13.531086,31.155699 13.53125,31.15625 z M 13.4375,30.9375 C 13.079102,30.072256 12.631144,29.951369 12.65625,29.96875 C 12.677462,29.983435 13.089801,30.331278 13.40625,30.9375 L 13.4375,30.9375 z" id="4" stroke-width="2" stroke-linecap="round" fill="url(#X)" stroke-linejoin="round"/>
 <path d="M 32.15625,5.53125 C 30.034768,5.430729 27.870338,5.8811525 25.75,6.625 L 33.875,13 C 34.415595,13.424198 35.109901,14.191706 35.46875,15.21875 C 35.745463,16.010728 35.771515,16.740975 35.78125,17.15625 C 35.81498,18.594615 35.431278,20.022631 34.84375,21.5 C 33.708532,24.354576 31.84203,27.151208 29.59375,29.1875 C 29.479151,29.296166 29.389349,29.350545 29.3125,29.40625 C 29.302507,29.417082 29.292082,29.427507 29.28125,29.4375 C 29.272036,29.443921 29.259006,29.462708 29.25,29.46875 C 29.231651,29.483014 29.205893,29.485833 29.1875,29.5 C 28.201195,30.259717 27.163472,30.882105 25.90625,31.21875 C 24.740274,31.55732 23.813551,31.290501 23.15625,31.0625 C 22.458738,30.82055 21.849122,30.472761 21.25,30.125 C 20.072603,29.441578 18.913105,28.600447 17.8125,27.84375 C 17.782442,27.823084 17.748708,27.801798 17.71875,27.78125 C 17.665126,27.754504 17.594339,27.759817 17.53125,27.71875 C 17.519516,27.698602 17.509078,27.677726 17.5,27.65625 L 17.46875,27.65625 C 17.455687,27.643439 17.419061,27.606813 17.40625,27.59375 L 12.90625,24.5 C 12.904742,26.620084 13.131375,28.675277 13.90625,30.5625 C 13.906547,30.572915 13.906547,30.583335 13.90625,30.59375 C 13.916567,30.619602 13.930332,30.637467 13.9375,30.65625 C 13.938687,30.677066 13.938687,30.697934 13.9375,30.71875 C 13.938856,30.72275 13.967354,30.714499 13.96875,30.71875 C 13.971434,30.726926 13.965051,30.771134 13.96875,30.78125 C 13.96924,30.783001 13.967381,30.808165 13.96875,30.8125 C 13.969047,30.822915 13.969047,30.833335 13.96875,30.84375 C 13.971966,30.854949 13.996764,30.863543 14,30.875 C 14.010381,30.89745 14.056094,30.919483 14.0625,30.9375 C 14.089558,31.007564 14.058606,30.990285 14.0625,31.03125 C 14.590754,32.363213 15.298023,33.34228 16.28125,34.46875 C 19.045906,37.636166 23.346416,39.529799 27.53125,40.1875 C 27.561358,40.192232 27.594905,40.182895 27.625,40.1875 C 27.722818,40.187611 27.802689,40.171039 27.90625,40.1875 C 28.044331,40.209448 28.213379,40.261085 28.4375,40.3125 C 28.490059,40.324172 28.512978,40.345707 28.5625,40.375 C 28.564623,40.375284 28.560378,40.405966 28.5625,40.40625 C 28.574255,40.407823 28.582012,40.404675 28.59375,40.40625 C 32.681484,40.736403 37.051741,42.081093 40.71875,43.53125 C 40.753118,43.549252 40.753842,43.57924 40.78125,43.59375 C 40.812084,43.610074 40.850341,43.611433 40.875,43.625 C 40.875297,43.635415 40.875297,43.645835 40.875,43.65625 C 40.888784,43.66198 40.89281,43.648998 40.90625,43.65625 C 40.914687,43.660072 40.930234,43.652671 40.9375,43.65625 C 40.943593,43.65977 40.962841,43.652758 40.96875,43.65625 C 40.969047,43.666665 40.969047,43.677085 40.96875,43.6875 C 40.979165,43.687203 40.989585,43.687203 41,43.6875 C 41.006097,43.690446 40.991844,43.714814 41,43.71875 C 41.010415,43.718453 41.020835,43.718453 41.03125,43.71875 C 41.043791,43.725666 41.08342,43.713341 41.09375,43.71875 C 41.147468,43.746877 41.190498,43.773776 41.25,43.8125 C 41.289451,43.837408 41.305597,43.879423 41.34375,43.90625 C 41.406923,43.952655 41.378037,43.965502 41.40625,44 C 41.432138,44.019049 41.421984,44.017885 41.4375,44.03125 C 41.439429,44.032071 41.466058,44.030588 41.46875,44.03125 C 41.474532,44.036769 41.464534,44.057973 41.46875,44.0625 C 41.472966,44.067027 41.496939,44.058793 41.5,44.0625 C 41.513055,44.069592 41.493397,44.065487 41.53125,44.09375 C 41.552671,44.105325 41.551547,44.092878 41.59375,44.125 C 41.616942,44.142652 41.660776,44.201689 41.71875,44.25 C 41.741149,44.268665 41.756258,44.257789 41.78125,44.28125 C 42.092626,44.505891 42.564694,44.894022 43.09375,45.5 L 43.125,45.46875 C 43.139976,45.482875 43.141589,45.516802 43.15625,45.53125 C 43.180685,45.555331 43.226458,45.56879 43.25,45.59375 C 43.273995,45.622773 43.294939,45.654188 43.3125,45.6875 L 43.3125,45.71875 C 43.322915,45.718453 43.333335,45.718453 43.34375,45.71875 C 43.344047,45.729165 43.344047,45.739585 43.34375,45.75 C 43.344047,45.760415 43.344047,45.770835 43.34375,45.78125 L 79.21875,87.8125 L 79.25,87.875 C 79.262938,87.887938 79.299817,87.893062 79.3125,87.90625 C 79.323332,87.916243 79.333757,87.926668 79.34375,87.9375 L 79.46875,88.09375 L 79.75,88.4375 C 83.164996,92.462057 83.968648,97.648251 83.59375,102.71875 C 83.593758,102.7188 83.624997,102.8436 83.625,102.84375 C 83.625039,102.84577 83.626095,102.90924 83.625,102.9375 C 83.624635,102.94692 83.62548,102.95729 83.625,102.96875 C 83.624039,102.99168 83.626389,103.00278 83.625,103.03125 C 83.624305,103.04549 83.625794,103.04753 83.625,103.0625 C 83.410456,107.094 85.543041,110.81554 88.75,113.59375 C 88.755745,113.59873 88.744249,113.62003 88.75,113.625 C 88.755592,113.62983 88.775652,113.62017 88.78125,113.625 C 88.791665,113.6247 88.802085,113.6247 88.8125,113.625 C 88.812797,113.63541 88.812797,113.64584 88.8125,113.65625 C 88.817352,113.66149 88.846587,113.65787 88.84375,113.65625 C 88.851205,113.66025 88.837091,113.68358 88.84375,113.6875 C 88.859287,113.69665 88.863048,113.71019 88.875,113.71875 C 88.893782,113.7322 88.924231,113.73879 88.9375,113.75 C 88.947915,113.7497 88.958335,113.7497 88.96875,113.75 C 88.973349,113.75406 88.986573,113.76974 89,113.78125 C 89.005184,113.7867 89.00012,113.81264 89,113.8125 C 89.010415,113.8122 89.020835,113.8122 89.03125,113.8125 C 92.794937,116.73577 97.699823,117.21837 102.3125,115.78125 L 95.53125,110.40625 C 95.486483,110.41937 95.469048,110.36478 95.4375,110.34375 C 95.420129,110.33278 95.392123,110.32384 95.375,110.3125 C 95.258759,110.23105 95.169411,110.12747 95.0625,110.03125 C 95.053627,110.0234 95.039437,110.00736 95.03125,110 C 95.023063,109.99264 95.007552,109.97565 95,109.96875 C 94.995392,109.96384 94.97487,109.97533 94.96875,109.96875 C 94.963004,109.96345 94.974127,109.94251 94.96875,109.9375 C 94.954832,109.9225 94.896528,109.89821 94.875,109.875 C 94.871171,109.87074 94.879103,109.84836 94.875,109.84375 C 94.880973,109.84677 94.844919,109.80624 94.8125,109.78125 C 94.797153,109.75751 94.773073,109.75198 94.75,109.6875 C 94.725718,109.66688 94.716105,109.68926 94.6875,109.65625 C 94.666024,109.64717 94.645148,109.63673 94.625,109.625 C 94.595751,109.58041 94.589179,109.51494 94.5625,109.46875 C 93.965585,108.648 93.738649,107.7642 93.53125,106.78125 C 93.523567,106.63979 93.529523,106.51713 93.53125,106.4375 C 93.531826,106.41096 93.530047,106.39637 93.53125,106.375 C 93.530994,106.36491 93.531469,106.35385 93.53125,106.34375 C 93.530354,106.30236 93.562764,106.26034 93.5625,106.21875 C 93.554775,104.99994 93.809072,103.7272 94.34375,102.375 C 95.316233,99.915528 96.94857,97.578318 98.84375,95.75 C 98.873353,95.715322 98.850069,95.716719 98.875,95.6875 C 98.923396,95.63078 98.936501,95.631584 98.96875,95.59375 C 98.968801,95.593643 98.998086,95.597299 99,95.59375 C 99.003827,95.586653 98.993087,95.574875 99,95.5625 C 99.004963,95.556676 98.995513,95.536518 99,95.53125 C 99.008156,95.518889 99.024502,95.540996 99.03125,95.53125 C 99.039685,95.519067 99.024683,95.508727 99.03125,95.5 C 99.034289,95.496431 99.059769,95.503208 99.0625,95.5 C 99.072493,95.489168 99.082918,95.478743 99.09375,95.46875 C 99.093453,95.458335 99.093453,95.447915 99.09375,95.4375 C 99.093453,95.427085 99.093453,95.416665 99.09375,95.40625 C 99.113898,95.394516 99.134774,95.384078 99.15625,95.375 C 99.166243,95.364168 99.176668,95.353743 99.1875,95.34375 C 99.187203,95.333335 99.187203,95.322915 99.1875,95.3125 C 99.236715,95.268212 99.292723,95.216435 99.34375,95.1875 C 99.36134,95.173527 99.386829,95.171414 99.40625,95.15625 C 99.444345,95.126505 99.454478,95.097008 99.5,95.0625 C 99.520148,95.050766 99.541024,95.040328 99.5625,95.03125 C 99.572915,95.030953 99.583335,95.030953 99.59375,95.03125 C 99.593453,95.020835 99.593453,95.010415 99.59375,95 C 99.619414,94.98667 99.630168,94.981292 99.65625,94.96875 C 99.674029,94.958315 99.684781,94.938871 99.6875,94.9375 C 99.692937,94.934759 99.711143,94.94132 99.71875,94.9375 C 99.747846,94.919123 99.760227,94.918567 99.78125,94.90625 C 99.814886,94.886543 99.874952,94.84378 99.875,94.84375 C 99.905247,94.830535 99.936624,94.820076 99.96875,94.8125 C 99.988898,94.800766 100.00977,94.790328 100.03125,94.78125 C 100.04166,94.780953 100.05209,94.780953 100.0625,94.78125 C 100.81093,94.243409 101.62951,93.704088 102.6875,93.4375 C 102.79231,93.411094 102.8746,93.394648 103,93.375 C 103.01041,93.374703 103.02084,93.374703 103.03125,93.375 C 103.0615,93.361785 103.09287,93.351326 103.125,93.34375 C 103.15943,93.338853 103.18323,93.349136 103.21875,93.34375 C 103.22916,93.343453 103.23959,93.343453 103.25,93.34375 C 103.24398,93.344297 103.28146,93.318812 103.3125,93.3125 C 103.34354,93.306188 103.3421,93.285688 103.46875,93.28125 C 103.47916,93.280953 103.48959,93.280953 103.5,93.28125 C 103.67924,93.281061 103.85541,93.310013 104.03125,93.34375 C 104.07339,93.351836 104.11447,93.364986 104.15625,93.375 C 104.9597,93.383921 105.79715,93.538594 106.53125,94.0625 L 109.71875,96.34375 L 109.75,96.34375 C 109.77978,96.353296 109.81429,96.364461 109.84375,96.375 C 109.86523,96.384078 109.8861,96.394516 109.90625,96.40625 C 110.03075,96.472418 110.13689,96.572296 110.25,96.65625 C 110.23391,96.649978 110.29813,96.678961 110.3125,96.6875 C 110.32251,96.69245 110.33338,96.681985 110.34375,96.6875 C 110.355,96.696456 110.36388,96.70962 110.375,96.71875 C 110.38534,96.723958 110.39597,96.713409 110.40625,96.71875 C 110.42873,96.737869 110.44963,96.75877 110.46875,96.78125 L 114.1875,99.34375 C 114.15591,97.661915 113.98201,95.99079 113.40625,94.5 C 113.40595,94.489585 113.40595,94.479165 113.40625,94.46875 C 113.40535,94.466452 113.3759,94.471047 113.375,94.46875 C 113.36417,94.458757 113.35374,94.448332 113.34375,94.4375 C 113.34348,94.436943 113.32432,94.378775 113.3125,94.34375 C 113.30625,94.331545 113.31704,94.321833 113.3125,94.3125 C 113.30961,94.300553 113.31434,94.29143 113.3125,94.28125 C 113.30974,94.265981 113.28254,94.26204 113.28125,94.25 C 112.3959,92.148841 110.94345,90.262045 109.15625,88.78125 C 109.10706,88.743423 109.0947,88.743677 109.0625,88.71875 C 109.05167,88.708757 109.04124,88.698332 109.03125,88.6875 C 107.05441,87.085951 105.0305,86.1369 102.75,85.90625 C 102.71256,85.90275 102.67345,85.887949 102.625,85.875 C 102.6136,85.871953 102.6046,85.878234 102.59375,85.875 C 102.57455,85.872272 102.5505,85.877714 102.53125,85.875 C 97.913878,85.22395 91.787551,84.939057 87.5,80.625 C 87.499894,80.624909 87.455636,80.609864 87.4375,80.59375 C 87.437203,80.583335 87.437203,80.572915 87.4375,80.5625 C 87.433874,80.558776 87.407937,80.564288 87.40625,80.5625 C 87.405953,80.552085 87.405953,80.541665 87.40625,80.53125 C 87.405968,80.531034 87.352752,80.509105 87.34375,80.5 C 87.334748,80.490895 87.348006,80.473442 87.34375,80.46875 C 87.335238,80.459367 87.31767,80.443583 87.3125,80.4375 C 87.309054,80.433445 87.316133,80.410596 87.3125,80.40625 C 87.305234,80.397558 87.290262,80.386038 87.28125,80.375 C 87.259774,80.365922 87.238898,80.355484 87.21875,80.34375 C 87.218453,80.333335 87.218453,80.322915 87.21875,80.3125 C 87.19627,80.293381 87.175369,80.27248 87.15625,80.25 C 87.155953,80.239585 87.155953,80.229165 87.15625,80.21875 L 87.15625,80.1875 C 87.145418,80.177507 87.134993,80.167082 87.125,80.15625 L 67.375,56.9375 L 67.34375,56.875 C 67.326811,56.857882 67.267399,56.831223 67.28125,56.84375 C 67.280953,56.833335 67.280953,56.822915 67.28125,56.8125 C 67.281219,56.812487 67.261541,56.818543 67.25,56.8125 C 67.223071,56.7984 67.187601,56.781316 67.1875,56.78125 C 67.187355,56.781156 67.134473,56.757426 67.125,56.75 C 67.087108,56.720296 67.102863,56.696673 67.09375,56.6875 C 67.020846,56.614116 66.994581,56.602423 66.9375,56.53125 C 66.880419,56.460077 66.814887,56.376878 66.71875,56.25 C 66.718453,56.239585 66.718453,56.229165 66.71875,56.21875 L 66.53125,55.9375 C 66.520418,55.927507 66.509993,55.917082 66.5,55.90625 L 66.4375,55.875 C 66.425766,55.854852 66.415328,55.833976 66.40625,55.8125 C 66.39785,55.802713 66.414201,55.79052 66.40625,55.78125 C 66.395418,55.771257 66.384993,55.760832 66.375,55.75 C 66.368928,55.742905 66.349541,55.756777 66.34375,55.75 C 66.32127,55.730881 66.300369,55.70998 66.28125,55.6875 C 66.270986,55.675333 66.259267,55.667354 66.25,55.65625 C 66.228732,55.632447 66.234704,55.619235 66.21875,55.59375 C 66.214429,55.588447 66.222864,55.567603 66.21875,55.5625 C 66.204438,55.545448 66.198488,55.549469 66.1875,55.53125 L 66.125,55.46875 C 66.10252,55.449631 66.081619,55.42873 66.0625,55.40625 C 66.060531,55.40314 66.033789,55.410454 66.03125,55.40625 C 66.030953,55.395835 66.030953,55.385415 66.03125,55.375 C 66.027067,55.367561 66.007939,55.360804 66,55.34375 C 65.999703,55.333335 65.999703,55.322915 66,55.3125 C 65.999703,55.302085 65.999703,55.291665 66,55.28125 L 65.96875,55.25 L 51.25,37.75 C 51.239585,37.750297 51.229165,37.750297 51.21875,37.75 L 50.90625,37.34375 L 50.9375,37.34375 L 50.9375,37.3125 C 49.878598,36.059337 49.114943,34.681514 48.5,33.25 C 48.519679,33.268863 48.469037,33.241534 48.4375,33.1875 C 48.396812,33.148756 48.363689,33.124663 48.3125,33 C 48.300766,32.979852 48.290328,32.958976 48.28125,32.9375 C 48.280953,32.927085 48.280953,32.916665 48.28125,32.90625 C 48.27608,32.890243 48.275595,32.860572 48.28125,32.875 C 48.269516,32.854852 48.259078,32.833976 48.25,32.8125 C 48.233483,32.782894 48.256389,32.876207 48.21875,32.78125 C 48.21094,32.76575 48.195025,32.765649 48.1875,32.75 C 48.187203,32.739585 48.187203,32.729165 48.1875,32.71875 C 48.185446,32.706723 48.189893,32.701559 48.1875,32.6875 C 48.202736,32.739561 48.20071,32.792 48.125,32.59375 C 48.104432,32.539891 48.070598,32.479922 48.0625,32.4375 C 48.058716,32.425752 48.057271,32.36983 48.0625,32.40625 C 47.993045,32.185158 47.960928,32.020996 47.9375,31.875 C 47.930047,31.823183 47.930047,31.770567 47.9375,31.71875 C 47.937203,31.708335 47.937203,31.697915 47.9375,31.6875 C 47.937203,31.677085 47.937203,31.666665 47.9375,31.65625 C 47.937203,31.645835 47.937203,31.635415 47.9375,31.625 C 47.937203,31.614585 47.937203,31.604165 47.9375,31.59375 C 47.926668,31.583757 47.916243,31.573332 47.90625,31.5625 C 47.902588,31.505449 47.904638,31.49787 47.90625,31.53125 C 47.906104,31.528946 47.911299,31.521763 47.90625,31.5 C 47.905431,31.496471 47.907919,31.473117 47.90625,31.46875 C 47.892544,31.417356 47.888325,31.363968 47.875,31.3125 C 47.037374,28.077158 46.955836,24.701575 47.1875,21.46875 C 47.18738,21.468209 47.188099,21.389652 47.1875,21.375 C 47.182709,21.257783 47.183143,21.253977 47.1875,21.1875 C 47.188589,21.170881 47.186114,21.144579 47.1875,21.125 C 47.186313,21.104184 47.186313,21.083316 47.1875,21.0625 C 47.174285,21.032253 47.163826,21.000876 47.15625,20.96875 C 47.15625,20.96875 47.179069,20.91616 47.1875,20.875 C 47.187123,20.890041 47.18668,20.879601 47.1875,20.84375 C 47.296516,16.0695 44.986422,11.988846 41.3125,8.875 C 41.320736,8.8794468 41.269492,8.8606468 41.25,8.84375 C 41.231186,8.8328874 41.215927,8.8348391 41.1875,8.8125 C 41.170006,8.7987528 41.175533,8.8000511 41.15625,8.78125 C 38.514184,6.7008638 35.433935,5.6865547 32.15625,5.53125 z" id="5" opacity="0.6" stroke-width="2" stroke-linecap="round" fill="none" stroke-linejoin="round" stroke="url(#S)"/>
 <rect id="6" width="73.01" height="8.533" x="52.704" y="-12.987" transform="matrix(0.6502491,0.759721,-0.759721,0.6502491,0,0)" fill="url(#a)" stroke-width="2.2" stroke-dashoffset="30" rx="3.5"/>
 <path id="7" d="M 56.21875,-11.125 C 55.29101,-11.125 54.59375,-10.42774 54.59375,-9.5 L 54.59375,-7.96875 C 54.59375,-7.0410103 55.29101,-6.34375 56.21875,-6.34375 L 122.21875,-6.34375 C 123.14649,-6.34375 123.84375,-7.04101 123.84375,-7.96875 L 123.84375,-9.5 C 123.84375,-10.42774 123.14649,-11.125 122.21875,-11.125 L 56.21875,-11.125 z" transform="matrix(0.6502491,0.759721,-0.759721,0.6502491,0,0)" fill="url(#Z)" stroke-width="2.2" stroke-dashoffset="30"/>
 <path transform="matrix(0.7354266,-0.6776044,0.7157296,0.6983775,0,0)" d="M -9.0162825,84.509165 L 8.9886376,83.652437 L 8.3476495,96.036476 L -9.9611312,96.176643 L -9.0162825,84.509165 z" id="8" filter="url(#Y)" stroke-width="2.2" stroke-dashoffset="30"/>
 <path d="M 82.92,35.75 L 53.47,65.2 L 62.3,74.03 L 91.75,44.59 L 82.92,35.75 z" id="9" fill="#bbb"/>
 <path d="M 88.93,41.76 L 59.48,71.2 L 62.3,74.03 L 91.75,44.59 L 88.93,41.76 z" id="A" opacity="0.5" fill="url(#R)"/>
 <path id="B" d="M 82.90625,38.0625 L 55.78125,65.1875 L 62.3125,71.71875 L 89.4375,44.59375 L 82.90625,38.0625 z" fill="url(#U)"/>
 <path d="M 56.43,62.25 C 55.04,60.86 51.95,60.89 50.53,62.25 L 9.5,101.63 C 5.76,105.22 8.68,108.27 10.28,109.88 L 17.64,117.24 C 19.25,118.84 23.5,121 26.52,117.8 L 65.24,76.99 C 66.59,75.57 66.6,72.52 65.24,71.12 C 65.24,71.12 65.25,71.1 65.24,71.1 L 56.43,62.25 z" id="C" fill="#75511a"/>
 <path d="M 88.00275,14.88552 C 90.057981,16.448795 92.522277,18.622268 98.820999,24.38947 C 104.0866,29.210743 109.00489,33.776439 109.79603,34.552979 L 111.23685,36.009933 L 110.82333,38.391413 C 110.52639,39.95154 110.46402,41.209059 110.69099,41.886581 C 111.71337,44.938477 114.53413,47.810637 115.97037,47.317047 C 116.37047,47.179552 116.94123,46.669692 117.29219,46.187097 L 117.9409,45.295041 L 119.26008,46.481684 C 122.11508,49.046534 124.87754,51.779656 125.12606,52.293277 C 125.34203,52.73964 125.09606,53.254697 123.87458,55.201894 C 122.21487,57.847651 120.21163,60.055544 118.10626,61.508488 C 116.50194,62.615633 113.82443,63.777613 112.56758,63.936066 L 111.69447,64.073951 L 108.75066,60.932981 L 105.77712,57.770387 L 106.3718,57.202711 C 108.00748,55.695237 108.07705,53.302689 106.51219,51.258495 C 104.7827,48.999265 102.96287,48.190107 101.04908,48.831226 C 99.918162,49.210078 97.735285,50.949959 96.84037,52.180538 C 95.92817,53.434887 95.345773,53.188422 91.493496,50.156034 L 88.317233,47.709779 C 75.941923,36.177747 88.287219,47.813022 75.755411,36.165004 C 75.735656,36.039673 74.641178,34.826163 73.325198,33.443008 C 72.009202,32.059842 70.936026,30.81417 70.916628,30.691276 C 70.897151,30.5683 71.626264,29.80124 72.516841,28.990954 C 74.383246,27.29245 76.203655,24.901681 76.766019,23.398032 C 77.969409,20.180341 75.621537,16.104317 71.792005,14.734598 C 67.165784,13.079929 62.428018,13.790921 53.153906,17.546389 C 50.708271,18.536739 51.251239,17.311036 54.264829,15.081092 C 61.033307,10.072661 68.768128,8.0144702 76.130384,9.2065485 C 79.437313,9.7420073 82.38405,10.981162 85.951024,13.393441 C 86.672407,13.88131 87.317633,14.364456 88.00275,14.88552 z" id="D" fill="#323232"/>
 <path id="E" d="M 70.65625,10.78125 C 67.887884,10.934896 65.110053,11.561836 62.375,12.65625 C 66.252953,11.866867 69.419092,11.931578 72.40625,13 C 77.10716,14.681387 80.196544,19.609736 78.53125,24.0625 C 77.733728,26.194915 75.845236,28.496693 73.78125,30.375 C 73.622227,30.519686 73.519408,30.613997 73.375,30.75 C 73.752681,31.174363 74.151516,31.625752 74.65625,32.15625 C 75.322313,32.856312 75.944791,33.518975 76.40625,34.03125 C 76.63698,34.287388 76.812438,34.499009 76.96875,34.6875 C 76.993399,34.717224 77.008053,34.752609 77.03125,34.78125 C 77.049757,34.798451 77.044102,34.7954 77.0625,34.8125 C 80.157321,37.688957 81.716782,39.159766 82.5,39.875 C 82.864567,40.207922 83.044157,40.367398 83.125,40.4375 C 83.129005,40.440269 83.152403,40.434914 83.15625,40.4375 C 83.160135,40.440854 83.184265,40.465984 83.1875,40.46875 C 83.303078,40.549699 83.345138,40.603656 83.40625,40.65625 C 83.547181,40.777538 83.762054,40.950817 84.15625,41.3125 C 84.944642,42.035867 86.498803,43.459698 89.59375,46.34375 L 92.625,48.6875 C 92.635416,48.687413 92.645834,48.687413 92.65625,48.6875 C 94.385834,50.048972 95.275561,50.623116 95.625,50.8125 C 96.221681,50.068919 96.92749,49.376682 97.71875,48.75 C 98.617093,48.038508 99.435478,47.408641 100.46875,47.0625 C 101.8098,46.61325 103.29798,46.677636 104.59375,47.25 C 105.88952,47.822364 106.9786,48.831566 107.96875,50.125 C 109.73797,52.436154 109.84063,55.501784 108.25,57.6875 L 110.09375,59.65625 L 112.375,62.09375 C 112.85081,62.025126 115.72358,60.871175 117.03125,59.96875 C 118.86624,58.702396 120.76506,56.654281 122.3125,54.1875 C 122.79331,53.421032 122.97119,53.073842 123.125,52.78125 C 122.81793,52.447733 122.37059,51.989503 121.84375,51.46875 C 120.83865,50.475266 119.52639,49.208099 118.1875,48 C 117.80775,48.423483 117.35498,48.790162 116.5625,49.0625 C 115.49986,49.427695 114.58294,49.130188 113.84375,48.75 C 113.10456,48.369812 112.45361,47.844627 111.84375,47.21875 C 110.62403,45.966996 109.52538,44.316902 108.90625,42.46875 C 108.43465,41.060978 108.64607,39.757881 108.96875,38.0625 L 109.21875,36.65625 L 108.46875,35.90625 C 107.80976,35.259417 102.81938,30.563292 97.5625,25.75 C 91.270227,19.988703 88.83902,17.837645 86.875,16.34375 C 86.225616,15.849863 85.61182,15.414677 84.90625,14.9375 C 81.487168,12.625238 78.843543,11.553287 75.8125,11.0625 C 74.090296,10.783645 72.376086,10.685798 70.65625,10.78125 z" fill="#474747"/>
 <path id="F" d="M 53.5,63.5 C 52.83908,63.502206 52.210032,63.763631 52.09375,63.875 L 11.0625,103.25 C 9.637168,104.61817 9.7939372,105.05697 10.03125,105.78125 C 10.268563,106.50553 11.124551,107.49467 11.90625,108.28125 L 19.21875,115.65625 C 19.673717,116.10839 20.901084,116.86659 22,117.09375 C 23.098916,117.32091 23.907222,117.27546 24.875,116.25 L 63.59375,75.4375 C 63.710608,75.314583 63.999264,74.719535 64,74.0625 C 64.000736,73.405465 63.728095,72.824878 63.625,72.71875 C 63.568641,72.648984 63.516466,72.575939 63.46875,72.5 L 63.34375,72.34375 L 54.84375,63.84375 C 54.748225,63.748225 54.160892,63.497795 53.5,63.5 z" fill="url(#V)"/>
 <path d="M 72.1875,10.46875 L 72.15625,10.5 C 67.375382,10.857835 61.016209,12.700075 62.597877,12.686215 C 62.929118,12.683312 70.86348,12.353972 72.65997,13.34375 C 77.544042,15.362761 79.973929,20.102802 78.15625,24.357481 C 77.445356,26.258271 75.746565,27.924787 73.84375,29.71875 L 73.8125,29.71875 L 73.8125,29.75 C 73.286057,30.312133 73.286057,31.219117 73.8125,31.78125 C 73.938175,31.919704 74.089513,32.13744 74.375,32.4375 C 75.035416,33.131626 75.630548,33.76704 76.09375,34.28125 C 76.257597,34.46314 76.387178,34.631993 76.53125,34.8125 C 76.531274,34.812542 76.555205,34.833072 76.5625,34.84375 C 76.5624,34.843577 76.586674,34.864816 76.59375,34.875 C 76.600826,34.885184 76.614234,34.890901 76.625,34.90625 C 76.631229,34.915082 76.619563,34.929973 76.625,34.9375 C 76.634787,34.951048 76.651784,34.96359 76.65625,34.96875 C 76.665828,34.981816 76.683141,34.995035 76.6875,35 C 76.70736,35.022617 76.711111,35.023559 76.71875,35.03125 C 76.731152,35.042995 76.749751,35.062269 76.75,35.0625 C 76.770195,35.084956 76.769851,35.115 76.78125,35.125 C 76.812712,35.152603 76.823246,35.172835 76.84375,35.1875 C 76.853169,35.196256 76.865609,35.17877 76.875,35.1875 C 79.878661,37.979816 81.442302,39.478449 82.21875,40.1875 C 82.464952,40.412331 82.566478,40.482713 82.6875,40.59375 C 82.7108,40.626453 82.749946,40.687453 82.75,40.6875 C 82.756124,40.692717 82.775045,40.682386 82.78125,40.6875 C 82.814343,40.714776 82.839709,40.756978 82.875,40.78125 L 82.9375,40.8125 C 82.973855,40.835154 82.993005,40.886805 83.03125,40.90625 L 83.15625,41.0625 L 83.25,41.0625 C 83.398508,41.187586 83.55013,41.326926 83.875,41.625 C 84.648927,42.335094 86.22122,43.768163 89.1875,46.53125 C 89.215052,46.556915 89.222202,46.536602 89.25,46.5625 C 89.253649,46.566196 89.246425,46.590272 89.25,46.59375 C 89.263108,46.606501 89.287013,46.601249 89.3125,46.625 C 89.328563,46.641063 89.32696,46.67219 89.34375,46.6875 L 89.375,46.71875 L 89.40625,46.71875 C 94.478572,50.541888 89.638711,46.744888 94.71875,50.6875 L 94.75,50.71875 C 95.347551,51.060855 96.130674,50.947072 96.59375,50.4375 C 97.081137,49.916244 97.532834,49.432497 98,49.0625 C 98.894235,48.354261 99.619273,47.795194 100.59375,47.46875 C 101.84557,47.049389 103.24518,47.098334 104.4375,47.625 C 105.65859,48.164378 106.69256,49.084875 107.65625,50.34375 C 109.14674,52.290793 109.28664,54.830104 108.21875,56.8125 L 108.1875,56.84375 L 108.1875,56.875 C 107.94019,57.42582 108.04784,58.067102 108.46875,58.5 L 109.8125,59.9375 L 111.5625,61.8125 L 111.625,61.875 L 111.65625,61.84375 C 112.63084,62.371706 113.54986,62.096369 114.5625,61.71875 C 115.51403,61.304351 116.55054,60.816761 117.28125,60.3125 C 119.18941,58.995655 121.08555,56.910113 122.65625,54.40625 C 122.89486,54.025864 122.96486,53.892934 123.0625,53.71875 C 123.06775,53.709383 123.08836,53.697075 123.09375,53.6875 L 123.0625,53.6875 C 123.4091,53.114593 123.34567,52.38584 122.875,51.90625 C 122.63108,51.65489 122.41789,51.445755 122.125,51.15625 C 121.25427,50.295574 120.14066,49.239796 119.03125,48.21875 L 119,48.21875 C 118.48952,47.770619 117.7422,47.732931 117.1875,48.125 L 117.15625,48.125 C 116.6598,48.485357 116.63669,48.587799 116.4375,48.65625 C 115.53734,48.965607 114.68855,48.71307 114.03125,48.375 C 113.33739,48.018129 112.74951,47.546336 112.15625,46.9375 C 110.97542,45.725656 109.91039,44.12851 109.3125,42.34375 C 108.87051,41.024374 109.02504,39.83076 109.34375,38.15625 L 109.375,38.15625 L 109.53125,37.28125 C 109.63732,36.79659 109.47111,36.324216 109.125,35.96875 L 109.125,35.9375 L 108.78125,35.59375 L 108.75,35.59375 C 108.0384,34.895275 103.1019,30.25195 97.84375,25.4375 C 91.549567,19.674454 89.078071,17.540587 87.09375,16.03125 C 86.465973,15.553796 85.893061,15.060805 85.15625,14.5625 C 81.701969,12.226433 78.947303,11.153718 75.875,10.65625 C 74.679855,10.462735 73.592286,10.48953 72.59375,10.46875 C 72.561771,10.464551 72.532134,10.47085 72.5,10.46875 C 72.403598,10.462451 72.314688,10.456152 72.21875,10.46875 L 72.1875,10.46875 z M 74.90625,12.625 C 75.119888,12.645682 75.351114,12.622023 75.5625,12.65625 C 78.382851,13.112922 80.742527,14.025897 84.03125,16.25 C 84.699601,16.702005 85.261933,17.103716 85.90625,17.59375 C 87.788127,19.025165 90.181575,21.180872 96.46875,26.9375 C 101.7169,31.742798 106.84598,36.511989 107.375,37.03125 L 107.5,37.15625 L 107.375,37.78125 C 107.04639,39.507744 106.83081,41.157724 107.4375,42.96875 C 108.14475,45.079938 109.34374,46.901376 110.71875,48.3125 C 111.41109,49.023028 112.16527,49.647453 113.09375,50.125 C 114.02097,50.601894 115.47404,51.077151 117.0625,50.53125 C 117.49972,50.380997 117.7194,50.168335 117.96875,49.96875 C 118.97703,50.897442 119.99645,51.848901 120.75,52.59375 C 120.92459,52.766318 121.02819,52.87189 121.15625,53 C 121.10438,53.089837 121.09075,53.149257 120.96875,53.34375 C 119.51901,55.654795 117.74817,57.588897 116.15625,58.6875 C 115.70154,59.001293 114.65093,59.513889 113.75,59.90625 C 113.42144,60.049337 113.11592,60.142754 112.8125,60.25 L 111.25,58.5625 L 110.125,57.34375 C 111.34163,54.737043 111.08352,51.592212 109.21875,49.15625 C 108.12824,47.731719 106.87035,46.528234 105.25,45.8125 C 103.57624,45.073176 101.68271,45.019573 99.96875,45.59375 C 98.635861,46.04026 97.661677,46.777947 96.75,47.5 C 96.260708,47.887521 95.852149,48.315879 95.4375,48.75 L 90.75,45.21875 C 90.739242,45.206953 90.730547,45.198258 90.71875,45.1875 L 90.6875,45.15625 L 90.65625,45.15625 L 90.65625,45.125 L 90.625,45.125 C 87.599657,42.306381 86.027217,40.838113 85.25,40.125 C 84.998498,39.894242 84.913669,39.830097 84.78125,39.71875 L 84.875,39.71875 C 83.093232,38.228245 80.830073,36.141715 78.21875,33.71875 L 78.21875,33.6875 C 78.215098,33.684972 78.19297,33.691287 78.1875,33.6875 C 78.178383,33.681188 78.169379,33.66534 78.15625,33.65625 C 78.136478,33.633406 78.133192,33.63341 78.125,33.625 C 78.121608,33.620762 78.128493,33.598142 78.125,33.59375 C 78.121149,33.59001 78.095487,33.595395 78.09375,33.59375 C 77.974943,33.443685 77.835125,33.236705 77.59375,32.96875 C 77.106534,32.427882 76.477922,31.761888 75.8125,31.0625 C 75.732036,30.977929 75.636847,30.872045 75.5625,30.78125 C 77.44391,28.954633 79.18707,26.88217 80.03125,24.625 C 81.787452,19.929162 79.143704,15.127609 74.90625,12.625 z M 76.4375,34.1875 C 76.428525,34.238645 76.476873,34.493367 76.59375,34.78125 L 76.5625,34.78125 C 76.525015,34.687986 76.468696,34.562247 76.46875,34.5625 C 76.468826,34.562858 76.437492,34.374549 76.4375,34.375 C 76.437516,34.375902 76.433371,34.214944 76.4375,34.1875 z M 84.5625,39.8125 C 84.575513,39.860917 84.593782,39.906468 84.59375,39.90625 C 84.593646,39.905533 84.591759,39.996498 84.59375,40.0625 C 84.595175,40.009445 84.562743,39.813599 84.5625,39.8125 z" id="G" fill="url(#T)" stroke-width="2" stroke-miterlimit="1.3"/>
 <path d="M 53.5,64.34375 C 53.013875,64.345372 52.579556,64.603383 52.6875,64.5 L 11.65625,103.875 C 10.398854,105.08197 10.722851,105.06689 10.875,105.53125 C 11.027149,105.99561 11.725212,106.87662 12.5,107.65625 L 19.84375,115.03125 C 20.166521,115.35202 21.295883,116.09694 22.1875,116.28125 C 23.079117,116.46556 23.487,116.46473 24.25,115.65625 L 62.96875,74.84375 C 62.874816,74.942554 63.124459,74.546105 63.125,74.0625 C 63.125541,73.578895 62.885219,73.194343 63,73.3125 C 62.967714,73.271621 62.936454,73.229941 62.90625,73.1875 L 62.8125,73.0625 L 54.21875,64.46875 C 54.349626,64.599626 53.986087,64.342128 53.5,64.34375 z" id="H" fill="none" stroke="url(#W)" stroke-width="2.2"/>
</svg>