<?xml version="1.0" encoding="UTF-8" standalone="no"?>
<svg
   xmlns:dc="http://purl.org/dc/elements/1.1/"
   xmlns:cc="http://creativecommons.org/ns#"
   xmlns:rdf="http://www.w3.org/1999/02/22-rdf-syntax-ns#"
   xmlns:svg="http://www.w3.org/2000/svg"
   xmlns="http://www.w3.org/2000/svg"
   xmlns:sodipodi="http://sodipodi.sourceforge.net/DTD/sodipodi-0.dtd"
   xmlns:inkscape="http://www.inkscape.org/namespaces/inkscape"
   viewBox="20 20 321 321"
   id="svg2"
   version="1.1"
   inkscape:version="0.91 r13725"
   sodipodi:docname="message_service.svg">
  <metadata
     id="metadata30">
    <rdf:RDF>
      <cc:Work
         rdf:about="">
        <dc:format>image/svg+xml</dc:format>
        <dc:type
           rdf:resource="http://purl.org/dc/dcmitype/StillImage" />
        <dc:title></dc:title>
      </cc:Work>
    </rdf:RDF>
  </metadata>
  <defs
     id="defs28" />
  <sodipodi:namedview
     pagecolor="#ffffff"
     bordercolor="#666666"
     borderopacity="1"
     objecttolerance="10"
     gridtolerance="10"
     guidetolerance="10"
     inkscape:pageopacity="0"
     inkscape:pageshadow="2"
     inkscape:window-width="1920"
     inkscape:window-height="1057"
     id="namedview26"
     showgrid="false"
     inkscape:zoom="0.73520249"
     inkscape:cx="-20.402542"
     inkscape:cy="160.5"
     inkscape:window-x="-8"
     inkscape:window-y="-8"
     inkscape:window-maximized="1"
     inkscape:current-layer="svg2" />
  <path
     fill="none"
     stroke="#000"
     stroke-width="10"
     d="m158.492,198.563c0-2.918-2.366-5.283-5.284-5.283h-14.09c-2.918,0-5.284,2.365-5.284,5.283v82.488c0,2.918 2.366,5.283 5.284,5.283h14.09c2.918,0 5.284-2.365 5.284-5.283v-82.488z"
     id="path4"
     style="stroke:#ff0000" />
  <g
     fill="#000"
     id="g6">
    <path
       d="m140.501,95.667c0,31.222 0,62.445 0,93.667 0,6.448 10,6.448 10,0 0-31.222 0-62.445 0-93.667 0-6.449-10-6.449-10,0z"
       id="path8"
       style="fill:#ff0000" />
    <path
       d="m153.242,97.4c0,3.829-3.104,6.934-6.933,6.934h-1.541c-3.829,0-6.934-3.104-6.934-6.934v-20.8c0-3.829 3.104-6.934 6.934-6.934h1.541c3.829,0 6.933,3.104 6.933,6.934v20.8z"
       id="path10"
       style="fill:#ff0000" />
    <path
       stroke="#000"
       stroke-width="10"
       d="m224.709,144.381c-2.344,2.343-6.143,2.343-8.485,0l-28.991-28.991c-2.344-2.343-2.344-6.142 0-8.485l6.363-6.364c2.344-2.343 6.143-2.343 8.486,0l28.99,28.991c2.344,2.343 2.344,6.143 0,8.485l-6.363,6.364z"
       id="path12"
       style="fill:#ff0000;stroke:#ff0000" />
    <path
       d="m216.695,70.842c-10.686,10.686-21.37,21.371-32.055,32.056-4.564,4.564 2.507,11.635 7.07,7.071 10.686-10.686 21.37-21.371 32.055-32.056 4.565-4.563-2.506-11.634-7.07-7.071z"
       id="path14"
       style="fill:#ff0000" />
    <path
       d="m252.328,110.163c-9.128,9.128-18.256,18.256-27.383,27.384-4.564,4.564 2.507,11.635 7.07,7.071 9.128-9.128 18.256-18.256 27.383-27.384 4.565-4.564-2.506-11.635-7.07-7.071z"
       id="path16"
       style="fill:#ff0000" />
  </g>
  <g
     fill="none"
     stroke="#000"
     stroke-width="10"
     id="g18">
    <path
       d="m232.354,279.443c0,3.656-1.988,6.621-4.44,6.621h-14.306c-2.452,0-4.439-2.965-4.439-6.621v-140.153c0-3.658 1.987-6.622 4.439-6.622h14.306c2.452,0 4.44,2.964 4.44,6.622v140.153z"
       id="path20"
       style="stroke:#ff0000" />
    <path
       d="m229.883,272.525c0-3.787-3.071-6.857-6.858-6.857h-5.333c-3.786,0-6.857,3.07-6.857,6.857v4.952c0,3.786 3.071,6.856 6.857,6.856h5.333c3.787,0 6.858-3.07 6.858-6.856v-4.952z"
       id="path22"
       style="stroke:#ff0000" />
    <path
       d="m209.833,146.917 20,0"
       id="path24"
       style="fill:#ff0000;stroke:#ff0000" />
  </g>
</svg>
