<?xml version="1.0" encoding="UTF-8" standalone="no"?>
<svg
   xmlns:dc="http://purl.org/dc/elements/1.1/"
   xmlns:cc="http://creativecommons.org/ns#"
   xmlns:rdf="http://www.w3.org/1999/02/22-rdf-syntax-ns#"
   xmlns:svg="http://www.w3.org/2000/svg"
   xmlns="http://www.w3.org/2000/svg"
   xmlns:sodipodi="http://sodipodi.sourceforge.net/DTD/sodipodi-0.dtd"
   xmlns:inkscape="http://www.inkscape.org/namespaces/inkscape"
   viewBox="20 20 321 321"
   id="svg2"
   version="1.1"
   inkscape:version="0.91 r13725"
   sodipodi:docname="sani_floor_heating.svg">
  <metadata
     id="metadata40">
    <rdf:RDF>
      <cc:Work
         rdf:about="">
        <dc:format>image/svg+xml</dc:format>
        <dc:type
           rdf:resource="http://purl.org/dc/dcmitype/StillImage" />
        <dc:title />
      </cc:Work>
    </rdf:RDF>
  </metadata>
  <defs
     id="defs38" />
  <sodipodi:namedview
     pagecolor="#ffffff"
     bordercolor="#666666"
     borderopacity="1"
     objecttolerance="10"
     gridtolerance="10"
     guidetolerance="10"
     inkscape:pageopacity="0"
     inkscape:pageshadow="2"
     inkscape:window-width="1920"
     inkscape:window-height="1057"
     id="namedview36"
     showgrid="false"
     inkscape:zoom="2.0794667"
     inkscape:cx="292.70075"
     inkscape:cy="131.35224"
     inkscape:window-x="-8"
     inkscape:window-y="-8"
     inkscape:window-maximized="1"
     inkscape:current-layer="svg2" />
  <g
     fill="#000"
     id="g4"
     style="fill:#e39129;fill-opacity:1">
    <path
       d="m108.564,193.021c47.1,0 94.2,0 141.301,0 .665,0 1.33,0 1.995,0 6.448,0 6.448-10 0-10-47.101,0-94.201,0-141.301,0-.665,0-1.33,0-1.995,0-6.448,0-6.448,10 0,10z"
       id="path6"
       style="fill:#e39129;fill-opacity:1" />
    <path
       d="m273.73,202.951c-.33-11.312-9.446-19.552-20.57-19.848-6.452-.171-6.436,9.829 0,10 5.595,.148 10.401,4.051 10.57,9.848 .188,6.434 10.189,6.452 10-0z"
       id="path8"
       style="fill:#e39129;fill-opacity:1" />
    <path
       d="m108.564,224.482c47.1,0 94.2,0 141.301,0 .665,0 1.33,0 1.995,0 6.448,0 6.448-10 0-10-47.101,0-94.201,0-141.301,0-.665,0-1.33,0-1.995,0-6.448,0-6.448,10 0,10z"
       id="path10"
       style="fill:#e39129;fill-opacity:1" />
    <path
       d="m263.73,204.553c-.169,5.797-4.976,9.699-10.57,9.848-6.436,.171-6.452,10.171 0,10 11.124-.296 20.24-8.536 20.57-19.848 .189-6.452-9.812-6.434-10,0z"
       id="path12"
       style="fill:#e39129;fill-opacity:1" />
    <path
       d="m253.118,244.93c-47.101,0-94.201,0-141.301,0-.665,0-1.33,0-1.995,0-6.449,0-6.449,10 0,10 47.1,0 94.2,0 141.301,0 .665,0 1.33,0 1.995,0 6.448,0 6.448-10 0-10z"
       id="path14"
       style="fill:#e39129;fill-opacity:1" />
    <path
       d="m87.952,234.998c.331,11.312 9.446,19.553 20.57,19.849 6.453,.171 6.436-9.829 0-10-5.595-.148-10.401-4.052-10.57-9.849-.188-6.434-10.189-6.452-10,0z"
       id="path16"
       style="fill:#e39129;fill-opacity:1" />
    <path
       d="m97.952,234.316c.169-5.797 4.975-9.7 10.57-9.849 6.436-.171 6.453-10.171 0-10-11.125,.296-20.24,8.537-20.57,19.849-.189,6.453 9.812,6.434 10,0z"
       id="path18"
       style="fill:#e39129;fill-opacity:1" />
  </g>
  <g
     fill="none"
     stroke="#000"
     stroke-width="10"
     id="g20">
    <path
       d="m286.861,266.941c0,3.578-2.719,6.479-6.072,6.479h-199.383c-3.354,0-6.073-2.9-6.073-6.479v-98.796c0-3.578 2.719-6.479 6.073-6.479h199.383c3.354,0 6.072,2.9 6.072,6.479v98.796z"
       id="path22"
       style="stroke:#e39129;stroke-opacity:1" />
    <path
       d="m125.444,123.525c1.113,0 2.015,.282 2.015,.628v10.905c0,.348-.902,.629-2.015,.629h-39.298c-1.113,0-2.016-.281-2.016-.629v-10.905c0-.346 .903-.628 2.016-.628h39.298z"
       id="path24"
       style="fill:none;stroke:#e39129;stroke-opacity:1" />
  </g>
  <path
     fill="#000"
     d="m79.872,125.78c10.167-13.302 20.334-26.605 30.501-39.908-2.878,0-5.756,0-8.635,0 10.167,13.303 20.334,26.605 30.501,39.908 1.439-2.508 2.878-5.016 4.317-7.523-20.334,0-40.668,0-61.003,0-6.449,0-6.449,10 0,10 20.334,0 40.668,0 61.003,0 3.435,0 6.707-4.397 4.317-7.523-10.167-13.303-20.334-26.605-30.501-39.908-2.429-3.178-6.206-3.178-8.635,0-10.167,13.302-20.334,26.605-30.501,39.908-3.916,5.124 4.777,10.096 8.636,5.046z"
     id="path26"
     style="fill:#e39129;fill-opacity:1" />
  <path
     fill="none"
     stroke="#000"
     stroke-width="10"
     d="m200.443,123.525c1.113,0 2.016,.282 2.016,.628v10.905c0,.348-.902,.629-2.016,.629h-39.297c-1.113,0-2.016-.281-2.016-.629v-10.905c0-.346 .903-.628 2.016-.628h39.297z"
     id="path28"
     style="stroke:#e39129;stroke-opacity:1" />
  <path
     fill="#000"
     d="m154.872,125.78c10.167-13.302 20.334-26.605 30.502-39.908-2.878,0-5.756,0-8.635,0 10.167,13.303 20.334,26.605 30.501,39.908 1.439-2.508 2.878-5.016 4.317-7.523-20.334,0-40.668,0-61.003,0-6.449,0-6.449,10 0,10 20.334,0 40.669,0 61.003,0 3.436,0 6.707-4.397 4.317-7.523-10.167-13.303-20.334-26.605-30.501-39.908-2.429-3.178-6.206-3.178-8.635,0-10.167,13.302-20.334,26.605-30.502,39.908-3.916,5.124 4.776,10.096 8.636,5.046z"
     id="path30"
     style="fill:#e39129;fill-opacity:1" />
  <path
     fill="none"
     stroke="#000"
     stroke-width="10"
     d="m275.443,123.525c1.113,0 2.016,.282 2.016,.628v10.905c0,.348-.902,.629-2.016,.629h-39.297c-1.113,0-2.016-.281-2.016-.629v-10.905c0-.346 .902-.628 2.016-.628h39.297z"
     id="path32"
     style="stroke:#e39129;stroke-opacity:1" />
  <path
     fill="#000"
     d="m229.872,125.78c10.167-13.302 20.335-26.605 30.502-39.908-2.878,0-5.757,0-8.635,0 10.167,13.303 20.334,26.605 30.501,39.908 1.439-2.508 2.878-5.016 4.317-7.523-20.334,0-40.669,0-61.003,0-6.448,0-6.448,10 0,10 20.334,0 40.669,0 61.003,0 3.436,0 6.707-4.397 4.317-7.523-10.167-13.303-20.334-26.605-30.501-39.908-2.429-3.178-6.206-3.178-8.635,0-10.167,13.302-20.335,26.605-30.502,39.908-3.917,5.124 4.777,10.096 8.636,5.046z"
     id="path34"
     style="fill:#e39129;fill-opacity:1" />
</svg>
