<?xml version="1.0" encoding="UTF-8" standalone="no"?>
<svg
   xmlns:dc="http://purl.org/dc/elements/1.1/"
   xmlns:cc="http://creativecommons.org/ns#"
   xmlns:rdf="http://www.w3.org/1999/02/22-rdf-syntax-ns#"
   xmlns:svg="http://www.w3.org/2000/svg"
   xmlns="http://www.w3.org/2000/svg"
   xmlns:sodipodi="http://sodipodi.sourceforge.net/DTD/sodipodi-0.dtd"
   xmlns:inkscape="http://www.inkscape.org/namespaces/inkscape"
   viewBox="20 20 321 321"
   id="svg2"
   version="1.1"
   inkscape:version="0.91 r13725"
   sodipodi:docname="weather_frost_stop.svg">
  <metadata
     id="metadata46">
    <rdf:RDF>
      <cc:Work
         rdf:about="">
        <dc:format>image/svg+xml</dc:format>
        <dc:type
           rdf:resource="http://purl.org/dc/dcmitype/StillImage" />
        <dc:title></dc:title>
      </cc:Work>
    </rdf:RDF>
  </metadata>
  <defs
     id="defs44" />
  <sodipodi:namedview
     pagecolor="#ffffff"
     bordercolor="#666666"
     borderopacity="1"
     objecttolerance="10"
     gridtolerance="10"
     guidetolerance="10"
     inkscape:pageopacity="0"
     inkscape:pageshadow="2"
     inkscape:window-width="1920"
     inkscape:window-height="1057"
     id="namedview42"
     showgrid="false"
     inkscape:zoom="0.73520249"
     inkscape:cx="-242.11017"
     inkscape:cy="160.5"
     inkscape:window-x="-8"
     inkscape:window-y="-8"
     inkscape:window-maximized="1"
     inkscape:current-layer="g4" />
  <g
     fill="#000"
     id="g4"
     style="fill:#ff0000">
    <path
       d="m175.642,93.244c0,29.179 0,58.358 0,87.538 0,6.449 10,6.449 10,0 0-29.179 0-58.358 0-87.538 .001-6.449-10-6.449-10,0z"
       id="path6"
       style="fill:#ff0000" />
    <path
       d="m152.646,106.373c8.507,4.912 17.014,9.823 25.521,14.734 5.595,3.23 10.628-5.413 5.047-8.635-8.507-4.912-17.014-9.823-25.521-14.734-5.595-3.23-10.629,5.413-5.047,8.635z"
       id="path8"
       style="fill:#ff0000" />
    <path
       d="m203.301,97.738c-8.507,4.912-17.014,9.823-25.521,14.734-5.582,3.222-.548,11.865 5.047,8.635 8.507-4.912 17.014-9.823 25.521-14.734 5.581-3.222 .548-11.865-5.047-8.635z"
       id="path10"
       style="fill:#ff0000" />
    <path
       d="m102.005,140.322c25.27,14.59 50.54,29.18 75.81,43.769 5.595,3.23 10.628-5.412 5.047-8.634-25.27-14.59-50.54-29.18-75.81-43.77-5.594-3.23-10.628,5.412-5.047,8.635z"
       id="path12"
       style="fill:#ff0000" />
    <path
       d="m101.947,166.788c8.507-4.911 17.014-9.823 25.521-14.734 5.582-3.222 .548-11.865-5.047-8.635-8.507,4.911-17.014,9.823-25.521,14.734-5.581,3.222-.547,11.865 5.047,8.635z"
       id="path14"
       style="fill:#ff0000" />
    <path
       d="m119.752,118.602c0,9.823 0,19.646 0,29.468 0,6.449 10,6.449 10,0 0-9.823 0-19.646 0-29.468 0-6.449-10-6.449-10,0z"
       id="path16"
       style="fill:#ff0000" />
    <path
       d="m107.245,227.8c25.271-14.59 50.541-29.18 75.811-43.771 5.581-3.222 .548-11.865-5.047-8.634-25.271,14.59-50.541,29.18-75.811,43.77-5.582,3.223-.548,11.865 5.047,8.635z"
       id="path18"
       style="fill:#ff0000" />
    <path
       d="m130.089,241.135c0-9.823 0-19.646 0-29.469 0-6.448-10-6.448-10,0 0,9.823 0,19.646 0,29.469 0,6.448 10,6.448 10,0z"
       id="path20"
       style="fill:#ff0000" />
    <path
       d="m97.238,201.584c8.507,4.911 17.014,9.823 25.521,14.734 5.595,3.23 10.628-5.412 5.047-8.635-8.507-4.911-17.014-9.823-25.521-14.734-5.595-3.23-10.629,5.412-5.047,8.635z"
       id="path22"
       style="fill:#ff0000" />
    <path
       d="m185.545,267.566c0-29.18 0-58.359 0-87.539-.001-6.449-10-6.449-10,0 0,29.179 0,58.359 0,87.539 0,6.449 10,6.449 10,0z"
       id="path24"
       style="fill:#ff0000" />
    <path
       d="m208.541,254.437c-8.507-4.911-17.014-9.823-25.521-14.734-5.595-3.23-10.628,5.412-5.047,8.635 8.507,4.911 17.014,9.823 25.521,14.734 5.595,3.23 10.628-5.413 5.047-8.635z"
       id="path26"
       style="fill:#ff0000" />
    <path
       d="m157.886,263.071c8.507-4.911 17.014-9.823 25.521-14.734 5.581-3.223 .548-11.865-5.047-8.635-8.507,4.911-17.014,9.823-25.52,14.734-5.583,3.223-.549,11.866 5.046,8.635z"
       id="path28"
       style="fill:#ff0000" />
    <path
       d="m259.182,219.821c-25.271-14.59-50.541-29.18-75.811-43.769-5.595-3.23-10.629,5.413-5.047,8.634 25.27,14.59 50.541,29.18 75.811,43.77 5.594,3.231 10.628-5.412 5.047-8.635z"
       id="path30"
       style="fill:#ff0000" />
    <path
       d="m259.238,193.355c-8.507,4.911-17.014,9.823-25.52,14.734-5.581,3.223-.548,11.865 5.047,8.635 8.507-4.911 17.014-9.823 25.52-14.734 5.581-3.222 .548-11.865-5.047-8.635z"
       id="path32"
       style="fill:#ff0000" />
    <path
       d="m241.435,241.541c0-9.822 .001-19.645 .001-29.467 0-6.448-10-6.448-10,0 0,9.822-.001,19.645-.001,29.467 0,6.448 10,6.448 10,0z"
       id="path34"
       style="fill:#ff0000" />
    <path
       d="m253.941,132.344c-25.271,14.59-50.54,29.18-75.81,43.77-5.582,3.223-.548,11.865 5.047,8.634 25.27-14.589 50.54-29.179 75.81-43.769 5.581-3.223 .548-11.865-5.047-8.635z"
       id="path36"
       style="fill:#ff0000" />
    <path
       d="m231.098,119.007c0,9.823 0,19.646 0,29.469 0,6.449 10,6.449 10,0 0-9.823 0-19.646 0-29.469 0-6.448-10-6.448-10,0z"
       id="path38"
       style="fill:#ff0000" />
    <path
       d="m263.948,158.559c-8.507-4.912-17.014-9.823-25.521-14.735-5.595-3.23-10.628,5.412-5.047,8.635 8.507,4.912 17.014,9.823 25.521,14.735 5.595,3.23 10.628-5.412 5.047-8.635z"
       id="path40"
       style="fill:#ff0000" />
    <path
       inkscape:connector-curvature="0"
       d="m 359.25885,193.96078 c -60.15823,49.65037 -120.31172,99.30072 -180.46758,148.95108 -13.2881,10.968 -1.30454,40.37708 12.01449,29.38186 60.15586,-49.64696 120.31174,-99.29732 180.4676,-148.94769 13.28571,-10.96798 1.30452,-40.37706 -12.01451,-29.38525 z"
       id="path36-2"
       style="fill:#ff0000" />
  </g>
</svg>
