<?xml version="1.0" encoding="UTF-8" standalone="no"?>
<!-- Created with Inkscape (http://www.inkscape.org/) -->
<svg xmlns:inkscape="http://www.inkscape.org/namespaces/inkscape" xmlns:rdf="http://www.w3.org/1999/02/22-rdf-syntax-ns#" xmlns="http://www.w3.org/2000/svg" xmlns:sodipodi="http://sodipodi.sourceforge.net/DTD/sodipodi-0.dtd" xmlns:cc="http://creativecommons.org/ns#" xmlns:xlink="http://www.w3.org/1999/xlink" xmlns:dc="http://purl.org/dc/elements/1.1/" xmlns:svg="http://www.w3.org/2000/svg" xmlns:ns1="http://sozi.baierouge.fr" id="svg2953" sodipodi:docname="Hello, World In Several Languages.svg" viewBox="0 0 402.68 312.89" version="1.1" inkscape:version="0.48.3.1 r9886">
  <defs id="defs2955">
    <filter id="filter3660" inkscape:collect="always" color-interpolation-filters="sRGB">
      <feGaussianBlur id="feGaussianBlur3662" stdDeviation="4.0644417" inkscape:collect="always"/>
    </filter>
    <linearGradient id="linearGradient3372" y2="380.54" gradientUnits="userSpaceOnUse" x2="246.65" y1="162.63" x1="246.65" inkscape:collect="always">
      <stop id="stop3674" style="stop-color:#ffefda" offset="0"/>
      <stop id="stop3676" style="stop-color:#ffc371" offset="1"/>
    </linearGradient>
  </defs>
  <sodipodi:namedview id="base" bordercolor="#666666" inkscape:pageshadow="2" inkscape:window-y="-8" pagecolor="#ffffff" inkscape:window-height="988" inkscape:window-maximized="1" inkscape:zoom="1.4142136" inkscape:window-x="-8" showgrid="false" borderopacity="1.0" inkscape:current-layer="layer1" inkscape:cx="289.2938" inkscape:cy="182.13981" inkscape:window-width="1680" inkscape:pageopacity="0.0" inkscape:document-units="px"/>
  <g id="layer1" inkscape:label="Layer 1" inkscape:groupmode="layer" transform="translate(-173.66 -375.92)">
    <g id="g3229">
      <text id="text2846" style="font-size:36px;font-family:David;fill:#800000;line-height:125%" sodipodi:linespacing="125%" y="477.15863" x="-127.19051" xml:space="preserve">
        <tspan id="tspan2882" y="477.15863" x="-127.19051" style="font-size:36px;font-family:David;fill:#800000;line-height:125%" sodipodi:role="line">Ciao Modo</tspan>
        <tspan id="tspan2850" y="522.15863" x="-127.19051" style="font-size:36px;font-family:David;fill:#800000;line-height:125%" sodipodi:role="line"/>
      </text>
      <text id="text2888" y="409.85489" x="-301.41644" style="font-size:36px;font-family:Hattori Hanzo;font-weight:300;fill:#330080" xml:space="preserve">
        <tspan id="tspan2890" y="409.85489" x="-301.41644" style="font-size:36px;font-family:Arabic Transparent;font-weight:normal;fill:#330080" sodipodi:role="line">مرحبا العالم!</tspan>
      </text>
      <text id="text2892" y="401.62015" x="-136.26784" style="font-size:36px;font-family:Chanticleer Roman NF;fill:#008033" xml:space="preserve">
        <tspan id="tspan2894" y="401.62015" x="-136.26784" style="font-size:36px;font-family:High Tower Text;fill:#008033" sodipodi:role="line">Hallo Welt!</tspan>
      </text>
      <text id="text2900" style="font-size:36px;font-family:Verdana;fill:#000080;line-height:125%" sodipodi:linespacing="125%" y="454.90152" x="-312.48907" xml:space="preserve">
        <tspan id="tspan2902" y="454.90152" x="-312.48907" sodipodi:role="line">Hej Värld!</tspan>
      </text>
      <text id="text2904" style="font-size:36px;font-family:Hattori Hanzo;fill:#0088aa;line-height:125%;font-weight:300" sodipodi:linespacing="125%" y="442.54099" x="-116.6335" xml:space="preserve">
        <tspan id="tspan2906" y="442.54099" x="-116.6335" sodipodi:role="line">Hello World!</tspan>
      </text>
      <text id="text2908" style="font-size:36px;font-family:SimHei;fill:#d40000;line-height:125%" sodipodi:linespacing="125%" y="547.18201" x="-90.218697" xml:space="preserve">
        <tspan id="tspan2910" y="547.18201" x="-90.218697" style="font-size:36px;font-family:SimHei;fill:#d40000;line-height:125%" sodipodi:role="line">世界您好！</tspan>
      </text>
      <text id="text2912" style="font-size:36px;font-family:High Tower Text;fill:#374837;line-height:125%" sodipodi:linespacing="125%" y="584.00995" x="-258.633" xml:space="preserve">
        <tspan id="tspan2914" y="584.00995" x="-258.633" sodipodi:role="line">Salut le Monde!</tspan>
      </text>
      <text id="text2916" style="font-size:36px;font-family:Tahoma;fill:#784421;line-height:125%" sodipodi:linespacing="125%" y="505.90945" x="-314.04059" xml:space="preserve">
        <tspan id="tspan2918" y="505.90945" x="-314.04059" style="font-size:36px;font-family:Tahoma;fill:#784421;line-height:125%" sodipodi:role="line">ハローワールド！</tspan>
      </text>
      <text id="text2920" style="font-size:36px;font-family:Berlin Sans FB;fill:#008080;line-height:125%" sodipodi:linespacing="125%" y="540.97223" x="-319.75632" xml:space="preserve">
        <tspan id="tspan2922" y="540.97223" x="-319.75632" sodipodi:role="line">¡HOlá mundo!</tspan>
      </text>
    </g>
    <text id="text3206" style="font-size:40px;font-family:Sans;letter-spacing:0px;line-height:125%;word-spacing:0px;fill:#000000" xml:space="preserve" transform="translate(173.66 375.92)" y="181.88748" x="43" sodipodi:linespacing="125%">
      <tspan id="tspan3208" sodipodi:role="line"/>
    </text>
    <g id="g3579">
      <g id="g2898" transform="translate(117.24 239.99)">
        <path id="path2862" style="opacity:.72727;filter:url(#filter3660);fill-rule:evenodd;fill:#333333" d="m113.66 141.64h290.23c25.743 0 46.467 20.724 46.467 46.467v143.88c0 25.743-20.724 46.467-46.467 46.467h-12.035l29.381 59.599-111.95-59.599h-195.62c-25.743 0-46.467-20.724-46.467-46.467v-143.88c0-25.743 20.724-46.467 46.467-46.467z" sodipodi:nodetypes="cccccccccccc" inkscape:connector-curvature="0" transform="matrix(1 0 0 .99041 -1.0102 5.3058)"/>
        <path id="rect2859" sodipodi:nodetypes="cccccccccccc" style="fill-rule:evenodd;fill:url(#linearGradient3372)" inkscape:connector-curvature="0" d="m113.66 141.64h290.23c25.743 0 46.467 20.724 46.467 46.467v143.88c0 25.743-20.724 46.467-46.467 46.467h-12.035l29.381 59.599-111.95-59.599h-195.62c-25.743 0-46.467-20.724-46.467-46.467v-143.88c0-25.743 20.724-46.467 46.467-46.467z"/>
      </g>
      <g id="text2846-7" style="fill:#800000">
        <path id="path3475" style="fill:#800000" d="m389.22 489.37c-2.143 3.7964-5.1943 5.6947-9.1539 5.6947-3.6659 0-6.5051-1.3598-8.5175-4.0793-1.5012-2.0233-2.2518-4.4056-2.2518-7.1469 0-2.1538 0.46775-4.1391 1.4033-5.9557 0.9899-1.9036 2.3823-3.3831 4.1772-4.4382 1.7296-1.0116 3.6224-1.5175 5.6783-1.5175 1.6099 0.00003 3.1873 0.39164 4.732 1.1748 0.46774 0.23934 0.79408 0.359 0.97903 0.35898 0.67442 0.00002 1.1313-0.51125 1.3706-1.5338h0.5711l0.50583 7.5222h-0.50583c-1.2728-4.2315-3.7366-6.3473-7.3916-6.3474-3.2199 0.00003-5.4771 1.561-6.7716 4.683-0.68532 1.6317-1.028 3.6605-1.028 6.0863-0.00001 4.1554 1.289 7.0164 3.8672 8.5828 1.2836 0.78323 2.7521 1.1748 4.4056 1.1748 1.6643 0 3.1002-0.41881 4.3077-1.2564 0.94638-0.65268 1.9852-1.7622 3.1166-3.3287z"/>
        <path id="path3477" style="fill:#800000" d="m396.9 473c-0.00001 0.4569-0.16046 0.84851-0.48136 1.1748-0.3209 0.32636-0.70979 0.48953-1.1667 0.48951-0.45688 0.00002-0.84849-0.16315-1.1748-0.48951-0.32634-0.32632-0.48951-0.71793-0.48951-1.1748 0-0.46773 0.16045-0.85934 0.48135-1.1748 0.3209-0.31544 0.71523-0.47317 1.183-0.4732 0.45688 0.00003 0.84577 0.16048 1.1667 0.48136 0.3209 0.32092 0.48135 0.70981 0.48136 1.1667zm1.9744 21.555h-7.2611v-0.58742c1.0987 0 1.7894-0.30458 2.0723-0.91375 0.14141-0.32634 0.21212-0.95183 0.21212-1.8765v-5.7599c0-1.6317-0.0489-2.6814-0.14685-3.1492-0.13054-0.62004-0.4732-0.93006-1.028-0.93007-0.30458 0.00001-0.67444 0.0816-1.1096 0.24475l-0.22844-0.58741 4.5035-1.8275h0.71795v12.009c-0.00001 1.4033 0.27195 2.2572 0.81586 2.5618 0.26106 0.1523 0.74514 0.22844 1.4522 0.22844z"/>
        <path id="path3479" style="fill:#800000" d="m414.45 492.4c-1.2184 1.6317-2.3823 2.4476-3.4918 2.4476-1.1531 0-1.7405-0.81586-1.7622-2.4476-1.5447 1.1966-2.5074 1.8819-2.8881 2.056-0.58742 0.27195-1.2129 0.40792-1.8765 0.40792-1.0878 0-1.9581-0.37529-2.6107-1.1259-0.63093-0.71795-0.94639-1.6263-0.94639-2.725 0-1.5447 0.94095-2.8718 2.8229-3.9814 1.0987-0.65268 2.9316-1.4468 5.4989-2.3823v-0.58741c-0.00001-1.2183-0.15774-2.1212-0.4732-2.7086-0.43513-0.79408-1.202-1.1911-2.3007-1.1912-0.56566 0.00002-1.0715 0.15775-1.5175 0.4732-0.51127 0.34811-0.75603 0.79955-0.73427 1.3543l0.0326 0.94639c0.0326 1.0443-0.42969 1.5664-1.387 1.5664-0.91376 0.00001-1.3706-0.52757-1.3706-1.5828 0-1.2292 0.63636-2.1919 1.9091-2.8881 1.0443-0.57652 2.23-0.86479 3.5571-0.86481 2.4911 0.00002 4.0521 0.7506 4.683 2.2518 0.19579 0.46777 0.2937 1.425 0.29371 2.8718v5.0746c-0.00001 1.9689 0.11965 3.0567 0.35898 3.2634 0.11964 0.10879 0.26106 0.16318 0.42424 0.16317 0.17404 0.00001 0.32633-0.0381 0.45688-0.11422 0.21755-0.13053 0.65811-0.52758 1.3217-1.1911zm-5.2541-1.0606v-5.6947c-1.6208 0.64181-2.6814 1.1041-3.1818 1.387-1.5991 0.89201-2.3986 1.9635-2.3986 3.2145 0 0.70707 0.20668 1.3271 0.62005 1.8602 0.446 0.57653 1.0117 0.8648 1.697 0.8648 0.82673 0 1.9145-0.5439 3.2634-1.6317z"/>
        <path id="path3481" style="fill:#800000" d="m430.04 486.81c-0.00001 1.3815-0.31548 2.725-0.94639 4.0303-0.66358 1.4033-1.5556 2.4503-2.676 3.141-1.1204 0.69076-2.3714 1.0361-3.7529 1.0361-2.2518 0-4.0412-0.89744-5.3683-2.6923-1.1204-1.512-1.6807-3.209-1.6807-5.0909 0-1.3706 0.32634-2.7086 0.97903-4.014 0.69619-1.3924 1.6018-2.4149 2.7168-3.0676 1.115-0.65267 2.2926-0.97901 3.5326-0.97903 2.2626 0.00002 4.0793 0.85938 5.4499 2.5781 1.1639 1.4686 1.7459 3.1546 1.7459 5.0583zm-3.035 1.2564c-0.00001-2.6434-0.57111-4.732-1.7133-6.2658-0.78323-1.0443-1.7677-1.5664-2.9534-1.5664-1.4577 0.00002-2.5074 0.77236-3.1492 2.317-0.35899 0.85938-0.53847 1.9635-0.53847 3.3124 0 1.8493 0.33178 3.5299 0.99534 5.042 0.85936 1.9689 2.0995 2.9534 3.7203 2.9534 2.4258 0.00001 3.6387-1.9308 3.6387-5.7926z"/>
        <path id="path3483" style="fill:#800000" d="m467.59 494.56h-9.3986v-0.60373h0.78322c0.94637 0 1.6099-0.28283 1.9907-0.84849 0.2393-0.3481 0.35896-1.1422 0.35898-2.3823v-14.783l-8.5338 18.618h-0.53846l-8.5502-18.618v14.783c-0.00001 1.3598 0.14685 2.2082 0.44056 2.5455 0.40248 0.45688 1.0388 0.68532 1.9091 0.68532h0.78322v0.60373h-7.7017v-0.60373h0.78322c0.93552 0 1.5991-0.28283 1.9907-0.84849 0.23931-0.3481 0.35897-1.1422 0.35898-2.3823v-14.457c-0.00001-0.96813-0.10879-1.6752-0.32635-2.1212-0.36985-0.73969-1.3054-1.1095-2.8065-1.1096v-0.60374h6.2658l8.028 17.312 7.8975-17.312h6.2658v0.60374h-0.7669c-0.94642 0.00002-1.6154 0.28285-2.007 0.84848-0.23935 0.34812-0.35901 1.1422-0.35898 2.3823v14.457c-0.00003 1.3598 0.15227 2.2082 0.45688 2.5455 0.40246 0.45688 1.0388 0.68532 1.9091 0.68532h0.7669z"/>
        <path id="path3485" style="fill:#800000" d="m483.83 486.81c-0.00002 1.3815-0.31548 2.725-0.94639 4.0303-0.66358 1.4033-1.5556 2.4503-2.676 3.141-1.1204 0.69076-2.3714 1.0361-3.7529 1.0361-2.2518 0-4.0412-0.89744-5.3683-2.6923-1.1204-1.512-1.6807-3.209-1.6807-5.0909 0-1.3706 0.32634-2.7086 0.97902-4.014 0.6962-1.3924 1.6018-2.4149 2.7168-3.0676 1.115-0.65267 2.2925-0.97901 3.5326-0.97903 2.2626 0.00002 4.0793 0.85938 5.4499 2.5781 1.1639 1.4686 1.7459 3.1546 1.7459 5.0583zm-3.035 1.2564c-0.00001-2.6434-0.57111-4.732-1.7133-6.2658-0.78323-1.0443-1.7677-1.5664-2.9534-1.5664-1.4577 0.00002-2.5074 0.77236-3.1492 2.317-0.35898 0.85938-0.53847 1.9635-0.53846 3.3124-0.00001 1.8493 0.33177 3.5299 0.99534 5.042 0.85936 1.9689 2.0995 2.9534 3.7203 2.9534 2.4258 0.00001 3.6387-1.9308 3.6387-5.7926z"/>
        <path id="path3487" style="fill:#800000" d="m501.77 493.17-4.4382 1.8438h-0.75059v-2.1375c-1.3598 1.425-2.8229 2.1375-4.3893 2.1375-1.8493 0-3.3559-0.77778-4.5198-2.3334-1.0552-1.4141-1.5828-3.073-1.5828-4.9767 0-2.1865 0.64725-4.1228 1.9417-5.8089 1.4033-1.8275 3.1655-2.7413 5.2867-2.7413 1.3162 0.00002 2.404 0.41883 3.2634 1.2564v-2.7576c-0.00001-2.3605-0.16862-3.6768-0.50583-3.9487-0.17406-0.1414-0.39162-0.2121-0.65268-0.21213-0.28284 0.00003-0.65813 0.087-1.1259 0.26108l-0.21212-0.5711 4.4546-1.8275h0.73427v17.28c-0.00001 2.3823 0.17404 3.7203 0.52215 4.014 0.17403 0.15229 0.38072 0.22844 0.62005 0.22844 0.29369 0 0.6853-0.0925 1.1748-0.27739zm-5.1888-1.4359v-7.7017c-0.14142-1.6317-0.76691-2.7685-1.8765-3.4103-0.54392-0.30457-1.0715-0.45686-1.5828-0.45688-0.95728 0.00002-1.8112 0.4297-2.5618 1.289-0.98991 1.1313-1.4849 2.7848-1.4849 4.9604 0 1.6752 0.34809 3.1546 1.0443 4.4382 0.84849 1.5773 2.0451 2.366 3.5898 2.366 0.9899 0 1.9472-0.49495 2.8718-1.4849z"/>
        <path id="path3489" style="fill:#800000" d="m517.24 486.81c-0.00002 1.3815-0.31548 2.725-0.94639 4.0303-0.66358 1.4033-1.5556 2.4503-2.676 3.141-1.1204 0.69076-2.3714 1.0361-3.7529 1.0361-2.2518 0-4.0412-0.89744-5.3683-2.6923-1.1204-1.512-1.6807-3.209-1.6807-5.0909 0-1.3706 0.32634-2.7086 0.97902-4.014 0.6962-1.3924 1.6018-2.4149 2.7168-3.0676 1.115-0.65267 2.2925-0.97901 3.5326-0.97903 2.2626 0.00002 4.0793 0.85938 5.4499 2.5781 1.1639 1.4686 1.7459 3.1546 1.7459 5.0583zm-3.035 1.2564c-0.00001-2.6434-0.57111-4.732-1.7133-6.2658-0.78323-1.0443-1.7677-1.5664-2.9534-1.5664-1.4577 0.00002-2.5074 0.77236-3.1492 2.317-0.35898 0.85938-0.53847 1.9635-0.53846 3.3124-0.00001 1.8493 0.33177 3.5299 0.99534 5.042 0.85936 1.9689 2.0995 2.9534 3.7203 2.9534 2.4258 0.00001 3.6387-1.9308 3.6387-5.7926z"/>
      </g>
      <g id="text2888-9" style="fill:#330080">
        <path id="path3534" style="fill:#330080" d="m340.86 427.3h-1.697c-0.72884 0-1.5501-0.16317-2.4639-0.48951-1.0552-0.38073-1.9853-0.90288-2.7902-1.5664-0.63093 0.77235-1.2754 1.3081-1.9336 1.6072-0.65813 0.29915-1.6181 0.44872-2.88 0.44872h-2.5455v-2.8392h2.4965c0.9899 0.00001 1.871-0.25018 2.6434-0.75058 0.59829-0.3916 1.1422-0.94094 1.6317-1.648 0.66355-0.95726 1.4794-1.7894 2.4476-2.4965 0.87024-0.63092 1.6698-1.0334 2.3986-1.2075 0.75057 1.1422 1.3489 2.1702 1.7949 3.0839 0.59828 1.2401 0.89742 2.2463 0.89744 3.0187zm-1.8765-3.2145c-0.14143-0.63092-0.35899-1.251-0.65268-1.8602-0.25021-0.51126-0.58199-1.0388-0.99535-1.5828-0.52215 0.13055-0.96271 0.37531-1.3217 0.73427-0.23933 0.22845-0.52216 0.61462-0.84849 1.1585 0.3916 0.42425 0.94366 0.80498 1.6562 1.1422 0.7125 0.33723 1.3842 0.54391 2.0152 0.62005z"/>
        <path id="path3536" style="fill:#330080" d="m327.71 427.3c-0.00002 1.1966-0.51128 2.4367-1.5338 3.7203-0.89201 1.1313-2.0016 2.1049-3.3287 2.9208-1.2619 0.78322-2.3007 1.1748-3.1166 1.1748-0.75059-0.00001-1.561-0.10879-2.4312-0.32635-0.66357-0.16317-1.4577-0.4188-2.3823-0.7669-0.78322-0.29371-1.561-0.58742-2.3333-0.88112l0.27739-0.65269c0.71795 0.14142 1.4658 0.28555 2.2436 0.43241 0.77777 0.14685 1.4821 0.22028 2.1131 0.22028 1.3924 0 2.8446-0.446 4.3567-1.338 1.3706-0.81586 2.54-1.8466 3.5082-3.0921 0.96813-1.2455 1.4522-2.3687 1.4522-3.3695-0.00001-0.85936-0.25021-1.7622-0.75059-2.7086-0.4025-0.76145-0.96816-1.5447-1.697-2.3497l0.93007-2.5618c0.89199 0.82674 1.5501 1.6535 1.9744 2.4802 0.47862 0.93553 0.71793 1.9798 0.71795 3.1329z"/>
        <path id="path3538" style="fill:#330080" d="m311.39 427.3h-18.846v-2.8392h13.298c-1.1096-0.85935-2.0451-1.5284-2.8065-2.007-0.9464-0.59828-1.8112-1.0334-2.5944-1.3054-0.88113-0.30457-1.7731-0.45686-2.676-0.45687-0.55478 0.00001-1.115 0.0381-1.6807 0.11422 0.31546-0.80497 0.72883-1.4522 1.2401-1.9417 0.73971-0.70706 1.6752-1.0606 2.8065-1.0606 1.1096 0.00002 2.4204 0.54392 3.9324 1.6317 0.75058 0.54392 1.9744 1.5773 3.6714 3.1002 1.3162 1.1857 2.2082 1.8275 2.676 1.9254h0.97903z"/>
        <path id="path3540" style="fill:#330080" d="m293.69 427.3h-9.3007v-2.8392h8.1096c0-1.2836-0.1523-2.2626-0.45688-2.9371-0.20669-0.46775-0.71795-1.1422-1.5338-2.0233l1.2727-2.6597c0.78321 0.98992 1.2727 1.7623 1.4685 2.317 0.2937 0.83762 0.44055 2.2246 0.44056 4.1609zm-1.6643 3.965-1.2727 2.366-2.6434-1.3706 1.2075-2.3823z"/>
        <path id="path3542" style="fill:#330080" d="m285.5 427.3h-2.2844c-0.73972 0-1.3326-0.29914-1.7786-0.89744-0.39161-0.52214-0.68804-1.2999-0.88928-2.3334-0.20124-1.0334-0.35626-2.3061-0.46503-3.8182-0.0653-1.2292-0.13326-2.4911-0.20397-3.7856-0.0707-1.2945-0.16317-2.2762-0.27739-2.9452-0.11422-0.66898-0.26923-1.2156-0.46504-1.6399-0.23931-0.52213-0.57109-0.97901-0.99534-1.3706l2.007-3.1655c0.42425 1.3054 0.72339 2.8664 0.89744 4.683 0.10878 1.1313 0.21756 3.8073 0.32635 8.028 0.1958 1.9363 0.47863 3.1764 0.84848 3.7203 0.30459 0.45688 0.63637 0.68532 0.99535 0.68531h2.2844z"/>
        <path id="path3544" style="fill:#330080" d="m267.16 423.14c-0.00001 0.87025-0.15774 1.7133-0.4732 2.5292-0.16317 0.43513-0.51671 1.1259-1.0606 2.0723l-0.2937-0.16317c0.0326-0.31546 0.0625-0.67987 0.0897-1.0932 0.0272-0.41336 0.0408-0.69075 0.0408-0.83217 0-1.1313-0.0898-2.7114-0.26923-4.7401-0.17949-2.0288-0.39433-4.1472-0.64452-6.3555-0.1523-1.338-0.32091-2.7032-0.50583-4.0956 0.21755-0.47861 0.46503-0.99532 0.74242-1.5501 0.27739-0.55476 0.54118-1.0769 0.79138-1.5664 0.17405 1.2401 0.39433 2.9371 0.66084 5.0909 0.26651 2.1539 0.47591 4.0956 0.62821 5.8252 0.1958 2.1539 0.2937 3.7801 0.29371 4.8788z"/>
        <path id="path3546" style="fill:#330080" d="m261.64 427.3h-8.0606v-2.8392h6.4126l-1.9417-13.837-0.84848-0.40793c-0.00001-0.75056 0.0653-1.4549 0.1958-2.1131 0.13053-0.6581 0.32634-1.2972 0.58742-1.9173l0.24475 0.17949c0 0.63095 0.35354 1.1042 1.0606 1.4196 0.5439 0.21758 1.0932 0.43514 1.648 0.65268-0.00001 0.54393-0.0435 1.1259-0.13054 1.7459-0.087 0.62007-0.19037 1.0824-0.31002 1.387l-0.78322-0.26107 1.9254 12.793z"/>
        <path id="path3548" style="fill:#330080" d="m254.71 427.3h-2.3986c-0.70708 0-1.425-0.16861-2.1538-0.50583-0.87026-0.40248-1.5012-0.9627-1.8928-1.6807-0.72883 0.65269-1.561 1.1585-2.4965 1.5175-1.1422 0.446-2.4421 0.669-3.8998 0.669h-1.4685v-2.8392h1.4685c0.91376 0.00001 1.7622-0.0979 2.5455-0.2937 0.892-0.22843 1.7677-0.59285 2.627-1.0932l-0.68532-0.88112c-0.3481-0.41336-0.73971-0.62004-1.1748-0.62005-0.19581 0.00001-0.36985 0.0354-0.52214 0.10606-0.1523 0.0707-0.32091 0.22573-0.50583 0.46504h-0.34266v-0.96271c0-1.1966 0.31546-2.0179 0.94639-2.4639 0.57653-0.40248 1.5773-0.60372 3.0023-0.60373 1.2292 0.00001 2.23 0.16318 3.0024 0.48951 1.0116 0.42426 1.5175 1.0769 1.5175 1.958-0.00001 0.46777-0.20126 0.95184-0.60373 1.4522-0.29372 0.36986-0.83219 0.88113-1.6154 1.5338 0.17404 0.26108 0.50854 0.47864 1.0035 0.65268 0.49495 0.17406 0.91103 0.26108 1.2483 0.26107h2.3986z"/>
        <path id="path3550" style="fill:#330080" d="m241.51 427.3h-2.2844c-0.73971 0-1.3326-0.29914-1.7786-0.89744-0.39161-0.52214-0.68804-1.2999-0.88928-2.3334-0.20124-1.0334-0.35626-2.3061-0.46503-3.8182-0.0653-1.2292-0.13326-2.4911-0.20397-3.7856-0.0707-1.2945-0.16317-2.2762-0.27739-2.9452-0.11422-0.66898-0.26923-1.2156-0.46504-1.6399-0.23931-0.52213-0.57109-0.97901-0.99534-1.3706l2.007-3.1655c0.42425 1.3054 0.72339 2.8664 0.89744 4.683 0.10878 1.1313 0.21756 3.8073 0.32635 8.028 0.1958 1.9363 0.47863 3.1764 0.84849 3.7203 0.30458 0.45688 0.63636 0.68532 0.99534 0.68531h2.2844z"/>
        <path id="path3552" style="fill:#330080" d="m233.84 427.3h-8.0606v-2.8392h6.4126l-1.9417-13.837-0.84849-0.40793c0-0.75056 0.0653-1.4549 0.1958-2.1131 0.13054-0.6581 0.32634-1.2972 0.58742-1.9173l0.24475 0.17949c0 0.63095 0.35354 1.1042 1.0606 1.4196 0.54389 0.21758 1.0932 0.43514 1.648 0.65268 0 0.54393-0.0435 1.1259-0.13053 1.7459-0.087 0.62007-0.19038 1.0824-0.31003 1.387l-0.78322-0.26107 1.9254 12.793z"/>
        <path id="path3554" style="fill:#330080" d="m226.92 427.3h-1.9417c-1.8058 0-3.3831 0.16861-4.732 0.50583-1.7079 0.42425-2.5618 1.0334-2.5618 1.8275-0.00001 0.71796 0.12237 1.4849 0.36713 2.3007 0.24475 0.81586 0.49495 1.6426 0.75059 2.4802 0.25563 0.83761 0.38345 1.6045 0.38345 2.3007 0 0.41336-0.0299 0.78865-0.0898 1.1259-0.0598 0.33721-0.16589 0.77777-0.31818 1.3217-0.28283-0.90288-0.56022-1.8058-0.83217-2.7086-0.52215-1.7187-0.90832-3.0187-1.1585-3.8998-0.39161-1.3924-0.58742-2.23-0.58742-2.5128 0-1.3924 0.29099-2.4612 0.87297-3.2063 0.58197-0.74514 1.4767-1.2972 2.6842-1.6562 0.95726-0.28283 2.3986-0.52214 4.324-0.71796-0.68533-0.69618-1.1096-1.1096-1.2727-1.2401-0.55478-0.43512-1.115-0.65268-1.6807-0.65269-0.35898 0.00001-0.70164 0.10879-1.028 0.32634-0.26108 0.17406-0.57655 0.47321-0.9464 0.89744l-0.75058-0.47319c0.32634-0.81585 0.69619-1.4685 1.1096-1.958 0.68531-0.80497 1.4957-1.2075 2.4312-1.2075 0.67443 0.00001 1.3489 0.25021 2.0233 0.75059 0.55477 0.41338 1.1204 0.98991 1.697 1.7296 0.28282 0.35899 0.70163 0.96816 1.2564 1.8275z"/>
        <path id="path3556" style="fill:#330080" d="m210.13 426.14-0.89744-12.678v-5.303h3.6387v5.303l-0.84848 12.678zm-0.7669 5.9394v-3.345h3.3776v3.345z"/>
      </g>
      <g id="text2892-8" style="fill:#008033">
        <path id="path3559" style="fill:#008033" d="m386.7 424c-0.00003 0.28283-0.0354 0.45688-0.10606 0.52215-0.0707 0.0653-0.26926 0.0816-0.59558 0.0489-2.1321-0.18493-4.2805-0.22844-6.4452-0.13054-0.42426 0.0218-0.69349-0.003-0.80769-0.0734-0.11424-0.0707-0.17135-0.2366-0.17133-0.49767-0.00002-0.3481 0.28825-0.56022 0.8648-0.63637 0.91374-0.11966 1.3706-0.60917 1.3706-1.4685v-6.4126c-0.00002-0.46774-0.0544-0.78049-0.16317-0.93823-0.1088-0.15772-0.36444-0.23659-0.7669-0.2366h-11.536c-0.47864 0.00001-0.77507 0.0598-0.88928 0.17949-0.11423 0.11967-0.17134 0.42969-0.17133 0.93008v6.4779c-0.00001 0.62005 0.67987 1.1096 2.0396 1.4685 0.59828 0.16317 0.89743 0.37529 0.89744 0.63637-0.00001 0.27195-0.049 0.44056-0.14686 0.50583-0.0979 0.0653-0.36986 0.087-0.81585 0.0653-2.1647-0.0979-4.3132-0.0544-6.4452 0.13054-0.32635 0.0326-0.52487 0.0163-0.59558-0.0489-0.0707-0.0653-0.10606-0.23932-0.10606-0.52215s0.23388-0.446 0.70164-0.48951c1.066-0.10878 1.5991-0.69076 1.5991-1.7459v-15.664c0-1.0116-0.60373-1.648-1.8112-1.9091-0.43512-0.0979-0.69347-0.17131-0.77506-0.22028-0.0816-0.0489-0.12238-0.16587-0.12238-0.35081 0-0.1414 0.0109-0.24474 0.0326-0.31003 0.0653-0.20666 0.38617-0.29369 0.96271-0.26107 2.7521 0.15231 4.9713 0.15231 6.6574 0 0.30458-0.0217 0.5031 0.00002 0.59557 0.0653 0.0925 0.0653 0.13869 0.23389 0.1387 0.50583-0.00001 0.2067-0.24477 0.36443-0.73427 0.47319-0.87025 0.18495-1.3924 0.3318-1.5664 0.44056-0.33723 0.21758-0.50584 0.65814-0.50583 1.3217v5.5152c-0.00001 0.76148 0.36985 1.1422 1.1096 1.1422h11.357c0.44598 0.00001 0.72337-0.0489 0.83217-0.14685 0.15227-0.14141 0.22842-0.49494 0.22844-1.0606v-5.6131c-0.00002-0.5874-0.15231-0.97901-0.45688-1.1748-0.17407-0.11964-0.63095-0.25018-1.3706-0.39162-0.60919-0.11963-0.91377-0.31-0.91375-0.57109-0.00002-0.29369 0.0544-0.47862 0.16317-0.55478 0.10876-0.0761 0.39159-0.0924 0.84849-0.049 1.2074 0.11968 2.4475 0.14688 3.7203 0.0816 0.90286-0.0435 1.8112-0.0924 2.725-0.14685 0.30456 0.00002 0.49764 0.0272 0.57926 0.0816 0.0815 0.0544 0.12235 0.22846 0.12237 0.52215-0.00002 0.28285-0.2339 0.45146-0.70163 0.50583-1.1966 0.13056-1.7949 0.69621-1.7949 1.697v16.072c-0.00003 0.53303 0.19034 0.92464 0.5711 1.1748 0.30456 0.19581 0.87022 0.38617 1.697 0.5711 0.46773 0.0979 0.70161 0.26107 0.70164 0.48951z"/>
        <path id="path3561" style="fill:#008033" d="m402.82 422.87c-0.00002 0.22844-0.4161 0.57382-1.2483 1.0361-0.83219 0.46232-1.4985 0.69348-1.9988 0.69348-0.42425 0-0.79954-0.20669-1.1259-0.62005-0.32636-0.41337-0.5548-0.62005-0.68532-0.62005-0.0979 0-0.61462 0.223-1.5501 0.669-0.93552 0.446-1.8765 0.669-2.8228 0.669-0.89201 0-1.6372-0.26108-2.2354-0.78322-0.65269-0.57654-0.97903-1.3598-0.97903-2.3497 0-1.8819 2.1538-3.2308 6.4616-4.0466 0.7397-0.14141 1.115-0.44056 1.1259-0.89744l0.0326-1.0443c0.0653-1.784-0.7234-2.676-2.366-2.676-0.46776 0.00001-0.91104 0.41882-1.3298 1.2564-0.41881 0.83762-1.0198 1.2891-1.803 1.3543-0.892 0.087-1.338-0.28826-1.338-1.1259 0-0.52214 0.66356-1.1313 1.9907-1.8275 1.3924-0.72882 2.7304-1.0932 4.014-1.0932 2.2082 0.00001 3.3015 1.0497 3.2797 3.1492l-0.0653 6.7226c-0.0109 0.70707 0.28825 1.0606 0.89744 1.0606 0.11964 0 0.34808-0.0272 0.68532-0.0816 0.3372-0.0544 0.53301-0.0816 0.58741-0.0816 0.31545 0 0.47318 0.21212 0.4732 0.63636zm-5.0257-3.7203c0.0109-0.27195-0.0517-0.45144-0.18764-0.53847-0.13599-0.087-0.35083-0.10333-0.64453-0.0489-2.6216 0.46776-3.9324 1.3217-3.9324 2.5618 0 1.251 0.67987 1.8765 2.0396 1.8765 0.54389 0 1.1041-0.10334 1.6807-0.31002 0.67443-0.23932 1.0116-0.52759 1.0117-0.86481z"/>
        <path id="path3563" style="fill:#008033" d="m412.48 423.96c0 0.43512-0.24476 0.62549-0.73426 0.5711-1.5012-0.14142-3.3613-0.11966-5.5804 0.0653-0.446 0.0435-0.72067 0.0326-0.82401-0.0326-0.10335-0.0653-0.15502-0.24476-0.15502-0.53846 0-0.26108 0.29643-0.48136 0.88929-0.66085 0.59285-0.17948 0.88927-0.71523 0.88928-1.6072v-14.767c-0.00001-0.8811-0.12782-1.5284-0.38345-1.9417-0.25564-0.41335-0.70436-0.73425-1.3462-0.96271-0.33723-0.11964-0.50584-0.28825-0.50583-0.50583-0.00001-0.32632 0.24475-0.57108 0.73426-0.73427 0.73971-0.23929 1.5066-0.60915 2.3007-1.1096 0.65268-0.39159 1.066-0.58739 1.2401-0.58742 0.40249 0.00003 0.60373 0.27742 0.60374 0.83218-0.00001-0.0435-0.0218 0.50041-0.0653 1.6317-0.0326 1.0769-0.0435 2.1376-0.0326 3.1818l0.0653 14.571c0 0.66357 0.16317 1.1449 0.48951 1.4441 0.32634 0.29915 0.88656 0.49768 1.6807 0.59558 0.4895 0.0544 0.73426 0.23932 0.73426 0.55478z"/>
        <path id="path3565" style="fill:#008033" d="m422.01 423.96c-0.00001 0.43512-0.24477 0.62549-0.73427 0.5711-1.5012-0.14142-3.3613-0.11966-5.5804 0.0653-0.446 0.0435-0.72067 0.0326-0.82401-0.0326-0.10334-0.0653-0.15501-0.24476-0.15501-0.53846 0-0.26108 0.29642-0.48136 0.88928-0.66085 0.59285-0.17948 0.88928-0.71523 0.88928-1.6072v-14.767c0-0.8811-0.12782-1.5284-0.38345-1.9417-0.25564-0.41335-0.70436-0.73425-1.3462-0.96271-0.33722-0.11964-0.50583-0.28825-0.50583-0.50583 0-0.32632 0.24475-0.57108 0.73427-0.73427 0.7397-0.23929 1.5066-0.60915 2.3007-1.1096 0.65268-0.39159 1.066-0.58739 1.2401-0.58742 0.40248 0.00003 0.60372 0.27742 0.60373 0.83218-0.00001-0.0435-0.0218 0.50041-0.0653 1.6317-0.0326 1.0769-0.0435 2.1376-0.0326 3.1818l0.0653 14.571c0 0.66357 0.16317 1.1449 0.48952 1.4441 0.32633 0.29915 0.88655 0.49768 1.6807 0.59558 0.4895 0.0544 0.73426 0.23932 0.73427 0.55478z"/>
        <path id="path3567" style="fill:#008033" d="m437.82 417.86c-0.00002 1.8928-0.70165 3.4946-2.1049 4.8054-1.4033 1.3108-3.1438 1.9662-5.2215 1.9662s-3.7203-0.57654-4.9278-1.7296c-1.164-1.1313-1.7459-2.627-1.7459-4.4872 0-1.9254 0.73427-3.5462 2.2028-4.8625 1.425-1.2727 3.1274-1.9091 5.1072-1.9091 2.1212 0.00002 3.7747 0.57111 4.9604 1.7133 1.1531 1.1096 1.7296 2.6107 1.7296 4.5035zm-2.8718 0.99534c-0.00001-1.7078-0.41338-3.0948-1.2401-4.1609-0.80498-1.0334-1.8275-1.5501-3.0676-1.5501-1.1531 0.00001-2.094 0.40522-2.8229 1.2156-0.72883 0.81042-1.0932 1.7976-1.0932 2.9616-0.00001 1.871 0.42424 3.3287 1.2727 4.373 0.78321 0.95727 1.8058 1.4359 3.0676 1.4359 1.1966 0 2.143-0.39705 2.8392-1.1912 0.69618-0.7941 1.0443-1.8221 1.0443-3.0839z"/>
        <path id="path3569" style="fill:#008033" d="m483.54 403.65c-0.00003 0.36987-0.34813 0.65814-1.0443 0.86481-0.75062 0.22845-1.3816 0.97904-1.8928 2.2518-2.4476 6.0265-4.7211 11.792-6.8206 17.296-0.17407 0.45688-0.57656 0.77234-1.2075 0.94639-0.0327 0.0218-0.0707 0.0326-0.11422 0.0326-0.30461 0-0.52217-0.32635-0.65269-0.97903-0.50041-2.3714-2.317-7.0925-5.4499-14.163-1.3598 3.4157-3.1655 8.1368-5.4173 14.163-0.16318 0.45688-0.54935 0.77234-1.1585 0.94639-0.0435 0.0109-0.087 0.0218-0.13054 0.0326-0.3046 0-0.51672-0.32635-0.63637-0.97903-0.41337-2.1865-2.8011-8.1422-7.1632-17.867-0.446-1.0008-1.2129-1.6262-2.3007-1.8765-0.53303-0.11964-0.79954-0.27737-0.79954-0.4732 0-0.45685 0.23388-0.66354 0.70164-0.62005 1.6861 0.15232 3.791 0.0381 6.3147-0.34265 0.42424-0.0652 0.69075-0.0707 0.79954-0.0163 0.0979 0.0544 0.16316 0.21758 0.1958 0.48951 0.0544 0.21758-0.21213 0.47322-0.79953 0.7669-0.69621 0.34812-1.0443 0.74517-1.0443 1.1912 0 0.19583 0.0489 0.42427 0.14686 0.68532 1.0878 2.8827 2.8228 7.4678 5.2052 13.755 0.0761 0.20669 0.17947 0.31003 0.31002 0.31002 0.11965 0.00001 0.21755-0.10333 0.29371-0.31002l4.5198-12.026c-0.17407-0.35896-0.41883-0.87023-0.73427-1.5338-0.39163-0.81584-1.0824-1.4522-2.0723-1.9091-0.50041-0.22842-0.73429-0.45142-0.70164-0.669 0.0544-0.4895 0.29913-0.70162 0.73427-0.63637 1.9254 0.31548 4.0847 0.34812 6.4779 0.0979 0.4351-0.0435 0.70433-0.0353 0.80769 0.0245 0.10332 0.0598 0.15499 0.23118 0.15501 0.51399-0.00002 0.27197-0.27741 0.49497-0.83217 0.669-1.0661 0.33724-1.5991 0.69077-1.5991 1.0606-0.00002 0.14143 0.0544 0.35899 0.16317 0.65268l5.2541 13.755c0.0761 0.21756 0.1849 0.32635 0.32634 0.32634 0.11964 0.00001 0.22298-0.10878 0.31003-0.32634l4.8788-13.021c0.087-0.26106 0.13051-0.49493 0.13054-0.70164-0.00003-0.75056-0.64728-1.3434-1.9417-1.7786-0.48954-0.16315-0.72342-0.40791-0.70163-0.73427 0.0217-0.23929 0.0815-0.38615 0.17949-0.44056 0.11963-0.0544 0.41877-0.0544 0.89744 0 2.0233 0.23934 3.9269 0.2611 5.711 0.0653 0.46772-0.0435 0.7016 0.12512 0.70163 0.50583z"/>
        <path id="path3571" style="fill:#008033" d="m498.41 421.7c-0.00001 0.46776-0.63094 1.0497-1.8928 1.7459-1.4359 0.77234-2.9099 1.1585-4.4219 1.1585-1.6426 0-3.0241-0.53847-4.1445-1.6154-1.1966-1.1422-1.7949-2.6651-1.7949-4.5688 0-2.1538 0.669-3.8835 2.007-5.1888 1.251-1.2183 2.7848-1.8275 4.6014-1.8275 1.0769 0.00001 2.0831 0.34267 3.0187 1.028 0.8376 0.60919 1.3924 1.3054 1.6643 2.0886 0.0979 0.27196 0.24475 0.42426 0.44057 0.45688 0.28281 0.0544 0.42423 0.24477 0.42424 0.5711-0.00001 0.44601-0.53304 0.82674-1.5991 1.1422l-7.5222 2.2354c0.4895 2.589 1.8166 3.8835 3.9814 3.8835 1.251 0 2.676-0.45688 4.2751-1.3706 0.23931-0.14141 0.47319-0.21212 0.70164-0.21212 0.17404 0 0.26106 0.15773 0.26107 0.47319zm-3.8672-6.5432c-0.00001-0.59828-0.24204-1.1232-0.72611-1.5746-0.48408-0.45143-1.0796-0.67715-1.7867-0.67716-2.0016 0.00001-3.0024 1.4414-3.0023 4.324v0.39161l4.4382-1.338c0.71795-0.20668 1.0769-0.58197 1.0769-1.1259z"/>
        <path id="path3573" style="fill:#008033" d="m508.49 423.96c-0.00001 0.43512-0.24477 0.62549-0.73427 0.5711-1.5012-0.14142-3.3613-0.11966-5.5804 0.0653-0.44601 0.0435-0.72068 0.0326-0.82402-0.0326-0.10334-0.0653-0.15501-0.24476-0.15501-0.53846 0-0.26108 0.29643-0.48136 0.88928-0.66085 0.59285-0.17948 0.88928-0.71523 0.88928-1.6072v-14.767c0-0.8811-0.12782-1.5284-0.38345-1.9417-0.25564-0.41335-0.70436-0.73425-1.3462-0.96271-0.33722-0.11964-0.50583-0.28825-0.50583-0.50583 0-0.32632 0.24476-0.57108 0.73427-0.73427 0.73971-0.23929 1.5066-0.60915 2.3007-1.1096 0.65268-0.39159 1.066-0.58739 1.2401-0.58742 0.40248 0.00003 0.60373 0.27742 0.60373 0.83218 0-0.0435-0.0218 0.50041-0.0653 1.6317-0.0326 1.0769-0.0435 2.1376-0.0326 3.1818l0.0653 14.571c-0.00001 0.66357 0.16316 1.1449 0.48951 1.4441 0.32634 0.29915 0.88655 0.49768 1.6807 0.59558 0.4895 0.0544 0.73426 0.23932 0.73427 0.55478z"/>
        <path id="path3575" style="fill:#008033" d="m519.33 422.9c-0.00001 0.52215-0.47865 0.96815-1.4359 1.338-0.84849 0.32634-1.7079 0.48951-2.5781 0.48951-2.3605 0-3.5408-1.2564-3.5408-3.7692v-5.9068c0-0.75058-0.0598-1.2102-0.17948-1.3788-0.11967-0.1686-0.51671-0.33449-1.1912-0.49767-0.17405-0.0435-0.26108-0.21211-0.26108-0.50583 0-0.31545 0.0653-0.50582 0.19581-0.5711 1.1748-0.57652 2.1974-1.6099 3.0676-3.1002 0.11966-0.20667 0.35354-0.27194 0.70164-0.19581 0.23931 0.0762 0.36441 0.21758 0.37529 0.42424l0.0653 2.0396c-0.00001 0.15231 0.0272 0.26109 0.0816 0.32634 0.0761 0.0979 0.25018 0.14687 0.52214 0.14686h3.6387c0.20668 0.00001 0.20668 0.25564 0 0.7669-0.2502 0.62006-0.62006 0.93009-1.1096 0.93007h-2.4639c-0.42425 0.00002-0.68532 0.0707-0.78322 0.21213-0.0761 0.0979-0.11423 0.36442-0.11422 0.79953v5.3357c-0.00001 1.3489 0.11965 2.2028 0.35898 2.5618 0.31545 0.45688 1.0497 0.68532 2.2028 0.68531 0.38073 0.00001 0.84304-0.0625 1.387-0.18764 0.54389-0.1251 0.83216-0.18765 0.8648-0.18765 0.13053 0 0.1958 0.0816 0.19581 0.24476z"/>
        <path id="path3577" style="fill:#008033" d="m526.44 405.05c-0.51127 3.2743-0.76691 6.826-0.7669 10.655-0.00001 0.68533-0.0326 1.1313-0.0979 1.338-0.10878 0.39162-0.39161 0.70708-0.84849 0.94639-0.13054 0.0653-0.23932 0.0979-0.32634 0.0979-0.15229 0-0.22844-0.16861-0.22844-0.50583 0-4.8516-0.29371-8.9526-0.88112-12.303-0.0653-0.38071-0.0979-0.67986-0.0979-0.89744 0-0.72881 0.62548-1.2401 1.8765-1.5338 0.29371-0.0652 0.52758-0.0979 0.70164-0.0979 0.52214 0.00002 0.78321 0.35356 0.78322 1.0606-0.00001 0.30461-0.0381 0.71797-0.11422 1.2401zm0.16317 17.606c-0.00001 0.62005-0.18765 1.1449-0.56294 1.5746-0.3753 0.42968-0.82402 0.64453-1.3462 0.64453-1.1313 0-1.697-0.63637-1.697-1.9091 0-0.5983 0.19852-1.0987 0.59558-1.5012 0.39704-0.40248 0.86752-0.60373 1.4114-0.60373 1.066 0 1.5991 0.5983 1.5991 1.7949z"/>
      </g>
      <g id="text2900-2" style="fill:#000080">
        <path id="path3515" style="" d="m217.93 473.9h-3.2308v-11.895h-12.124v11.895h-3.2308v-24.296h3.2308v9.5292h12.124v-9.5292h3.2308z"/>
        <path id="path3517" style="" d="m239.49 465.1h-13.429c-0.00001 1.1204 0.1686 2.0968 0.50583 2.9289 0.33721 0.83218 0.79953 1.5148 1.387 2.0478 0.56565 0.52215 1.2374 0.91376 2.0152 1.1748 0.77777 0.26108 1.6344 0.39161 2.5699 0.39161 1.2401 0 2.4884-0.24747 3.7448-0.74243 1.2564-0.49495 2.1511-0.98174 2.6842-1.4604h0.16317v3.345c-1.0334 0.43512-2.0886 0.79953-3.1655 1.0932-1.0769 0.29371-2.2082 0.44056-3.394 0.44056-3.0241 0-5.3846-0.81857-7.0816-2.4557s-2.5455-3.9623-2.5455-6.9756c0-2.9806 0.81314-5.3466 2.4394-7.0979 1.6263-1.7514 3.7665-2.627 6.4208-2.627 2.4584 0.00002 4.3539 0.71797 5.6865 2.1538 1.3326 1.4359 1.9988 3.4756 1.9988 6.1189zm-2.986-2.3497c-0.0109-1.6099-0.4161-2.8555-1.2156-3.7366-0.79955-0.88111-2.0152-1.3217-3.6469-1.3217-1.6426 0.00001-2.9507 0.48409-3.9243 1.4522-0.97359 0.96816-1.5256 2.1702-1.6562 3.6061z"/>
        <path id="path3519" style="" d="m249.82 452.62h-3.4592v-3.1818h3.4592zm-0.1958 21.718c-0.00001 2.1321-0.54391 3.742-1.6317 4.8299-1.0878 1.0878-2.5455 1.6317-4.373 1.6317-0.43513-0.00001-1.0089-0.0435-1.7214-0.13054-0.71252-0.087-1.3081-0.19581-1.7867-0.32634v-2.9208h0.16318c0.30458 0.11966 0.71523 0.25563 1.2319 0.40793 0.5167 0.15229 1.0198 0.22843 1.5093 0.22844 0.78321-0.00001 1.4141-0.10879 1.8928-0.32634 0.47863-0.21757 0.83761-0.54391 1.0769-0.97903 0.23931-0.43512 0.39432-0.95999 0.46503-1.5746 0.0707-0.61461 0.10606-1.3625 0.10607-2.2436v-14.685h-3.8019v-2.5781h6.8695z"/>
        <path id="path3521" style="" d="m286.77 449.6-8.8439 24.296h-4.3077l-8.8439-24.296h3.4592l7.6201 21.375 7.6201-21.375z"/>
        <path id="path3523" style="" d="m304.38 473.9h-3.0513v-1.9417c-0.27196 0.18492-0.6391 0.44328-1.1014 0.77506-0.46233 0.33178-0.91105 0.59557-1.3462 0.79138-0.51128 0.25019-1.0987 0.45959-1.7622 0.6282-0.66357 0.16861-1.4414 0.25292-2.3333 0.25292-1.6426 0-3.035-0.5439-4.1772-1.6317s-1.7133-2.4748-1.7133-4.1609c0-1.3815 0.29642-2.4992 0.88928-3.3532 0.59285-0.85392 1.4386-1.5256 2.5373-2.0152 1.1096-0.4895 2.4421-0.82128 3.9977-0.99534 1.5556-0.17404 3.2253-0.30458 5.0093-0.39161v-0.4732c-0.00001-0.69618-0.12239-1.2727-0.36713-1.7296-0.24477-0.45687-0.59559-0.81584-1.0524-1.0769-0.43514-0.25018-0.95728-0.41879-1.5664-0.50583-0.60919-0.087-1.2456-0.13052-1.9091-0.13054-0.80499 0.00002-1.7024 0.10608-2.6923 0.31819-0.98991 0.21213-2.0124 0.51944-3.0676 0.92191h-0.16317v-3.1166c0.59829-0.16316 1.4631-0.34264 2.5944-0.53847 1.1313-0.19578 2.2463-0.29369 3.345-0.2937 1.2836 0.00001 2.4013 0.10608 3.3532 0.31818 0.95181 0.21214 1.7758 0.57383 2.472 1.0851 0.68531 0.5004 1.2074 1.1476 1.5664 1.9417 0.35895 0.79411 0.53844 1.7786 0.53846 2.9534zm-3.0513-4.4872v-5.0746c-0.93552 0.0544-2.0369 0.13599-3.3042 0.24476-1.2673 0.10879-2.2708 0.26652-3.0105 0.4732-0.88113 0.2502-1.5936 0.63909-2.1375 1.1667-0.54391 0.52759-0.81586 1.2537-0.81585 2.1783-0.00001 1.0443 0.31545 1.8302 0.94639 2.3578 0.63092 0.52759 1.5936 0.79138 2.8881 0.79138 1.0769 0 2.0614-0.2094 2.9534-0.62821 0.89198-0.4188 1.7187-0.92191 2.4802-1.5093zm0.97903-16.79h-3.2471v-3.1818h3.2471zm-6.739 0h-3.2471v-3.1818h3.2471z"/>
        <path id="path3525" style="" d="m321.69 459.01h-0.16317c-0.4569-0.10876-0.90018-0.18763-1.3298-0.2366-0.42969-0.0489-0.93824-0.0734-1.5256-0.0734-0.94641 0.00001-1.8602 0.20941-2.7413 0.6282-0.88113 0.41882-1.7296 0.96001-2.5455 1.6236v12.939h-3.0676v-18.226h3.0676v2.6923c1.2183-0.97901 2.2925-1.6725 3.2226-2.0804 0.93007-0.40791 1.8792-0.61187 2.8473-0.61189 0.53301 0.00002 0.91918 0.0136 1.1585 0.0408 0.2393 0.0272 0.59828 0.0789 1.0769 0.15501z"/>
        <path id="path3527" style="" d="m327.71 473.9h-3.0676v-25.389h3.0676z"/>
        <path id="path3529" style="" d="m348.6 473.9h-3.0676v-1.9091c-0.88114 0.76146-1.8003 1.3543-2.7576 1.7786-0.95728 0.42425-1.9961 0.63637-3.1166 0.63637-2.1756 0-3.9025-0.83761-5.1807-2.5128s-1.9173-3.9977-1.9173-6.9674c0-1.5447 0.22028-2.9208 0.66084-4.1282s1.0361-2.2354 1.7867-3.0839c0.7397-0.82671 1.6018-1.4576 2.5862-1.8928 0.98446-0.4351 2.0043-0.65266 3.0595-0.65268 0.95726 0.00002 1.8058 0.10064 2.5455 0.30186 0.73969 0.20127 1.5175 0.51401 2.3333 0.93824v-7.8975h3.0676zm-3.0676-4.4872v-10.459c-0.82675-0.36984-1.5664-0.62547-2.2191-0.7669-0.65269-0.1414-1.3652-0.21211-2.1375-0.21212-1.7188 0.00001-3.0568 0.59831-4.014 1.7949-0.95727 1.1966-1.4359 2.8936-1.4359 5.0909-0.00001 2.1647 0.36985 3.81 1.1096 4.9359 0.7397 1.1259 1.9254 1.6888 3.5571 1.6888 0.87023 0 1.7514-0.19308 2.6434-0.57926 0.89199-0.38616 1.7242-0.88384 2.4965-1.493z"/>
        <path id="path3531" style="" d="m360.02 449.6-0.42424 17.606h-2.7739l-0.45688-17.606zm-0.16317 24.296h-3.3287v-3.4429h3.3287z"/>
      </g>
      <g id="text2904-5" style="fill:#0088aa">
        <path id="path3492" style="" d="m380.56 462.42v-23.921h3.1655v9.8229h12.434v-9.8229h3.1655v23.921h-3.1655v-11.275h-12.434v11.275z"/>
        <path id="path3494" style="" d="m416.1 456.84 3.035 0.37529c-0.47866 1.7731-1.3652 3.1492-2.6597 4.1282-1.2945 0.97902-2.948 1.4685-4.9604 1.4685-2.5346 0-4.5443-0.7805-6.0292-2.3415s-2.2273-3.7502-2.2273-6.5676c0-2.9153 0.75059-5.1779 2.2518-6.7879 1.5012-1.6099 3.4483-2.4149 5.8415-2.4149 2.317 0.00002 4.2098 0.78868 5.6784 2.366 1.4685 1.5773 2.2028 3.7964 2.2028 6.6574-0.00002 0.17406-0.005 0.43513-0.0163 0.78322h-12.923c0.10878 1.9037 0.64724 3.3613 1.6154 4.373 0.96814 1.0117 2.1756 1.5175 3.6224 1.5175 1.0769 0.00001 1.9961-0.28282 2.7576-0.84848 0.76145-0.56566 1.3652-1.4685 1.8112-2.7086zm-9.6434-4.7483h9.676c-0.13055-1.4576-0.5004-2.5509-1.1096-3.2797-0.93553-1.1313-2.1484-1.697-3.6387-1.697-1.3489 0.00002-2.4829 0.45146-3.4021 1.3543-0.9192 0.90289-1.4278 2.1104-1.5256 3.6224z"/>
        <path id="path3496" style="" d="m422.78 462.42v-23.921h2.9371v23.921z"/>
        <path id="path3498" style="" d="m430.22 462.42v-23.921h2.9371v23.921z"/>
        <path id="path3500" style="" d="m436.63 453.76c-0.00001-3.209 0.89199-5.5859 2.676-7.1306 1.4903-1.2836 3.3069-1.9254 5.4499-1.9254 2.3823 0.00002 4.3294 0.78052 5.8415 2.3415 1.512 1.561 2.268 3.7176 2.2681 6.4697-0.00002 2.23-0.33452 3.9841-1.0035 5.2623-0.66902 1.2782-1.6426 2.2708-2.9208 2.9779-1.2782 0.70708-2.6733 1.0606-4.1853 1.0606-2.4258 0-4.3866-0.77778-5.8823-2.3333-1.4957-1.5556-2.2436-3.7964-2.2436-6.7226zm3.0187 0c-0.00001 2.2191 0.48407 3.8808 1.4522 4.9849 0.96814 1.1041 2.1865 1.6562 3.655 1.6562 1.4576 0.00001 2.6706-0.55477 3.6387-1.6643 0.96813-1.1096 1.4522-2.8011 1.4522-5.0746-0.00001-2.143-0.48681-3.7665-1.4604-4.8706-0.9736-1.1041-2.1838-1.6562-3.6306-1.6562-1.4686 0.00001-2.6869 0.54936-3.655 1.648-0.96815 1.0987-1.4522 2.7576-1.4522 4.9767z"/>
        <path id="path3502" style="" d="m470.15 462.42-6.3474-23.921h3.2471l3.6387 15.681c0.39161 1.6426 0.72883 3.2743 1.0117 4.8951 0.60917-2.5563 0.96814-4.0303 1.0769-4.4219l4.5525-16.154h3.8182l3.4266 12.107c0.85934 3.0024 1.4794 5.8252 1.8602 8.4686 0.30456-1.512 0.70161-3.2471 1.1912-5.2052l3.7529-15.371h3.1818l-6.5595 23.921h-3.0513l-5.042-18.226c-0.42426-1.5229-0.67446-2.4584-0.75059-2.8065-0.25021 1.0987-0.48408 2.0342-0.70163 2.8065l-5.0746 18.226z"/>
        <path id="path3504" style="" d="m496.02 453.76c0-3.209 0.892-5.5859 2.676-7.1306 1.4903-1.2836 3.3069-1.9254 5.4499-1.9254 2.3823 0.00002 4.3294 0.78052 5.8415 2.3415 1.512 1.561 2.2681 3.7176 2.2681 6.4697-0.00002 2.23-0.33452 3.9841-1.0035 5.2623-0.66902 1.2782-1.6426 2.2708-2.9208 2.9779-1.2782 0.70708-2.6733 1.0606-4.1853 1.0606-2.4258 0-4.3866-0.77778-5.8823-2.3333-1.4957-1.5556-2.2436-3.7964-2.2436-6.7226zm3.0187 0c-0.00001 2.2191 0.48406 3.8808 1.4522 4.9849s2.1865 1.6562 3.655 1.6562c1.4576 0.00001 2.6706-0.55477 3.6387-1.6643 0.96813-1.1096 1.4522-2.8011 1.4522-5.0746-0.00002-2.143-0.48681-3.7665-1.4604-4.8706-0.9736-1.1041-2.1838-1.6562-3.6306-1.6562-1.4686 0.00001-2.6869 0.54936-3.655 1.648-0.96816 1.0987-1.4522 2.7576-1.4522 4.9767z"/>
        <path id="path3506" style="" d="m515.69 462.42v-17.329h2.6434v2.627c0.67443-1.2292 1.2972-2.0396 1.8683-2.4312 0.57109-0.3916 1.1993-0.5874 1.8846-0.58742 0.98989 0.00002 1.9961 0.31548 3.0187 0.94639l-1.0117 2.725c-0.71796-0.42423-1.4359-0.63635-2.1538-0.63637-0.64182 0.00002-1.2184 0.1931-1.7296 0.57926-0.51128 0.38618-0.87569 0.92193-1.0932 1.6072-0.32635 1.0443-0.48952 2.1865-0.48951 3.4266v9.0723z"/>
        <path id="path3508" style="" d="m526.81 462.42v-23.921h2.9371v23.921z"/>
        <path id="path3510" style="" d="m545.56 462.42v-2.1865c-1.0987 1.7187-2.7141 2.5781-4.8462 2.5781-1.3815 0-2.6515-0.38073-3.81-1.1422s-2.056-1.8248-2.6923-3.19c-0.63637-1.3652-0.95455-2.9344-0.95455-4.7075 0-1.7296 0.28827-3.2988 0.86481-4.7075 0.57653-1.4087 1.4413-2.4883 2.5944-3.2389 1.1531-0.75057 2.4421-1.1259 3.8672-1.1259 1.0443 0.00002 1.9744 0.2203 2.7902 0.66084 0.81584 0.44058 1.4794 1.0144 1.9907 1.7215v-8.5828h2.9208v23.921zm-9.2844-8.6481c0 2.2191 0.46775 3.878 1.4033 4.9767 0.93551 1.0987 2.0396 1.648 3.3124 1.648 1.2836 0.00001 2.3741-0.52486 3.2716-1.5746 0.89743-1.0497 1.3462-2.6515 1.3462-4.8054-0.00001-2.3714-0.45689-4.1119-1.3706-5.2215-0.91377-1.1096-2.0396-1.6643-3.3776-1.6643-1.3054 0.00001-2.3959 0.53304-3.2716 1.5991-0.87569 1.0661-1.3135 2.7467-1.3135 5.042z"/>
        <path id="path3512" style="" d="m554.49 456.48-0.89744-12.678v-5.303h3.6387v5.303l-0.84848 12.678zm-0.7669 5.9394v-3.345h3.3776v3.345z"/>
      </g>
      <g id="text2908-1" style="fill:#d40000">
        <path id="path3424" style="fill:#d40000" d="m427.21 532.93c-0.17407 1.1313-0.26109 4.2207-0.26107 9.2681h3.2634c0.87021 0.00002 2.1321-0.0435 3.7856-0.13053v2.6107c-1.3924-0.087-2.6108-0.13052-3.655-0.13053h-3.394c-0.00002 5.3085 0.087 8.6589 0.26107 10.051h-11.748c0.17403-1.2183 0.26106-4.5688 0.26107-10.051h-5.0909v14.62h16.317c1.8275 0 3.5245-0.0435 5.0909-0.13054v2.6107c-1.5665-0.087-3.2199-0.13054-4.9604-0.13054h-19.581c0.26106-1.1313 0.3916-2.4802 0.39161-4.0466v-12.923c-1.4794 0.00001-2.8283 0.0435-4.0466 0.13053v-2.6107c1.3054 0.087 2.6542 0.13055 4.0466 0.13053-0.00001-4.0031-0.087-6.6574-0.26108-7.9627h3.2634c-0.17406 1.0443-0.26108 3.6986-0.26107 7.9627h5.0909c-0.00001-5.0474-0.087-8.1368-0.26107-9.2681h3.1329c-0.087 1.0443-0.13055 4.1337-0.13054 9.2681h5.7436c-0.00002-4.7863-0.0435-7.8757-0.13054-9.2681zm-3.0023 19.319v-7.7017h-5.7436v7.7017z"/>
        <path id="path3426" style="fill:#d40000" d="m464.02 533.06c-0.087 0.9573-0.13056 2.4367-0.13053 4.4382v2.8718c-0.00003 1.1313 0.0435 2.5237 0.13053 4.1772h-23.105c0.087-1.6534 0.13053-3.0894 0.13054-4.3077v-2.7413c-0.00001-1.6534-0.0435-3.1329-0.13054-4.4382h23.105zm-10.443 13.706c1.6534 1.2184 3.9161 2.3714 6.7879 3.4592s5.3955 1.7187 7.5711 1.8928c-0.78325 0.78322-1.3924 1.6535-1.8275 2.6107-2.1756-0.52214-4.3077-1.2183-6.3963-2.0886-0.0871 0.52216-0.13056 1.2184-0.13054 2.0886v4.0466c-0.00002 1.3054 0.0435 2.6107 0.13054 3.9161h-2.8718c0.087-1.2183 0.13052-2.5237 0.13054-3.9161v-3.5245c-0.00002-1.1313-0.0435-2.2191-0.13054-3.2634h1.5664c-1.9146-0.69619-4.0466-2.0016-6.3963-3.9161-1.3924 1.0443-3.1764 2.1104-5.352 3.1982s-4.6993 2.1104-7.5711 3.0676c-0.3481-0.78321-0.91376-1.5229-1.697-2.2191 1.3054-0.26107 3.0458-0.78322 5.2215-1.5664 2.1756-0.78321 4.0684-1.7187 5.6784-2.8065 1.6099-1.0878 2.676-2.0233 3.1982-2.8065 0.87022 0.43513 1.784 0.87025 2.7413 1.3054l-0.65269 0.52215zm-5.2215 5.6131c-0.17406 0.60918-0.28284 1.2619-0.32634 1.958-0.0435 0.6962-0.17406 1.5229-0.39161 2.4802-0.21757 0.95727-0.67445 1.9363-1.3706 2.9371-0.69621 1.0008-1.871 2.1539-3.5245 3.4592-0.60917-0.78323-1.2619-1.3924-1.958-1.8275 1.3924-0.87024 2.4584-1.7187 3.1982-2.5455 0.7397-0.82673 1.1966-1.6317 1.3706-2.4149 0.17404-0.78322 0.28282-1.4577 0.32634-2.0233 0.0435-0.56565 0.0653-1.3706 0.0653-2.4149 1.1313 0.17406 2.0016 0.30459 2.6107 0.39161zm12.923-9.6597v-3.0023h-7.7017v3.0023zm0-4.8299v-3.0023h-7.7017v3.0023zm-10.182 0v-3.0023h-7.4406v3.0023zm0 4.8299v-3.0023h-7.4406v3.0023z"/>
        <path id="path3428" style="fill:#d40000" d="m485.17 538.93c-1.3054 1.5665-2.5237 2.9588-3.655 4.1772-0.78324-0.69618-1.4794-1.1748-2.0886-1.4359 1.3924-1.1313 2.676-2.5237 3.8508-4.1772 1.1748-1.6534 2.0668-3.2634 2.676-4.8299 0.95726 0.52218 1.871 0.9573 2.7413 1.3054-0.78324 0.95729-1.5665 1.9581-2.3497 3.0023h13.967c-0.43515 0.78325-1.1749 2.5237-2.2191 5.2215-0.78325-0.26105-1.5665-0.4351-2.3497-0.52214 0.34807-1.0443 0.73968-1.958 1.1748-2.7413zm-4.1772-5.0909c-1.3054 1.4794-2.3497 2.6543-3.1329 3.5245v10.182c-0.00001 1.3054 0.0435 2.6978 0.13053 4.1772h-2.7413c0-1.4794 0.0435-2.8718 0.13054-4.1772v-7.1795c-1.3054 1.2184-2.3497 2.3062-3.1329 3.2634-0.52215-0.69618-1.0443-1.3054-1.5664-1.8275 1.8275-1.5664 3.3504-3.0893 4.5688-4.5688 1.2183-1.4794 2.3061-3.0894 3.2634-4.8299 0.69619 0.43515 1.5229 0.91378 2.4802 1.4359zm14.359 24.802c-0.69622 1.7405-1.3272 2.8065-1.8928 3.1982-0.56569 0.39161-1.1096 0.58741-1.6317 0.58742-3.655 0.17404-6.7879 0.21756-9.3986 0.13053-1.8275-0.087-2.8283-0.52214-3.0023-1.3054-0.17406-0.78322-0.26109-2.0451-0.26108-3.7856-0.00001-1.6535-0.0435-3.0023-0.13053-4.0466h2.7413c-0.087 0.95728-0.13055 2.0886-0.13054 3.394-0.00001 1.3054 0.0217 2.2409 0.0653 2.8065 0.0435 0.56566 0.67443 0.84849 1.8928 0.84849 2.0886 0.17404 4.6123 0.13053 7.5711-0.13054 0.69618-0.26107 1.1748-1.1748 1.4359-2.7413 0.78319 0.43512 1.697 0.78322 2.7413 1.0443zm-9.2681-9.2681c1.6534 0.00001 2.6977-0.17403 3.1329-0.52214v-5.0909c-0.00002-0.7832-0.0435-1.8275-0.13053-3.1329h2.6107c-0.087 0.87027-0.13056 2.0016-0.13054 3.394v5.2215c-0.00002 0.87025-0.23934 1.4794-0.71795 1.8275-0.47865 0.34811-1.7188 0.65269-3.7203 0.91376-0.26109-0.95726-0.60918-1.8275-1.0443-2.6107zm-8.746 5.2215c-1.6535 3.0459-2.8718 5.3955-3.655 7.049-0.78322-0.43513-1.61-0.87025-2.4802-1.3054 0.87025-0.95727 2.0886-3.2634 3.655-6.9184 0.60917 0.34811 1.4359 0.73972 2.4802 1.1748zm18.536-2.4802c2.5237 2.6978 4.3077 4.6123 5.352 5.7436-0.87027 0.60917-1.5665 1.2184-2.0886 1.8275-0.69622-1.1313-2.3932-3.0894-5.0909-5.8742 0.69617-0.60916 1.3053-1.1748 1.8275-1.697zm-8.6154-8.2238c-2.0016 2.6108-3.8291 4.7428-5.4825 6.3963-0.60918-0.43511-1.2619-0.82672-1.958-1.1748 2.2626-2.1756 4.0031-4.3512 5.2215-6.5268 0.7832 0.43514 1.5229 0.87027 2.2191 1.3054zm13.315 3.9161c-0.69623 0.52216-1.3924 1.0878-2.0886 1.697-0.6092-1.0443-2.2627-2.9153-4.9604-5.6131 0.60915-0.4351 1.1748-0.95725 1.697-1.5664 3.0458 2.9588 4.8298 4.7864 5.352 5.4825zm-12.662 10.312c-0.69622-0.95727-2.0451-2.5237-4.0466-4.6993 0.52213-0.43511 1.0443-0.95726 1.5664-1.5664 2.3496 2.2626 3.829 3.7421 4.4382 4.4382-0.87027 0.60918-1.523 1.2184-1.958 1.8275z"/>
        <path id="path3430" style="fill:#d40000" d="m513.23 533.19c-0.52216 0.95729-0.91377 2.0233-1.1748 3.1982-0.26108 1.1748-0.52215 2.3279-0.78322 3.4592h6.5268c-0.43514 2.6108-0.91377 4.9604-1.4359 7.049-0.52216 2.0886-1.3489 4.2642-2.4802 6.5268 1.3924 1.2184 3.0023 2.6978 4.8298 4.4382-0.78323 0.60917-1.4794 1.2619-2.0886 1.958-1.3054-1.6535-2.6543-3.0894-4.0466-4.3077-1.1313 1.3924-2.2626 2.6325-3.394 3.7203-1.1313 1.0878-2.3062 2.1103-3.5245 3.0676-0.3481-0.60917-1.0008-1.2619-1.958-1.958 1.3054-0.78322 2.5455-1.6752 3.7203-2.676s2.2844-2.2409 3.3287-3.7203c-1.5664-1.2183-3.2634-2.3932-5.0909-3.5245 1.1313-2.6107 2.0451-5.439 2.7413-8.4849-1.3924 0.00002-2.6107 0.0435-3.655 0.13054v-2.3497c1.0443 0.087 2.4367 0.13055 4.1772 0.13053 0.52214-2.0886 0.95726-4.5688 1.3054-7.4406 0.87023 0.2611 1.871 0.52217 3.0023 0.78322zm20.233 2.3497v2.3497c-0.87028 0.69622-1.8276 1.4577-2.8718 2.2844-1.0443 0.82676-2.1321 1.7188-3.2634 2.676v4.0466h3.5245c1.1313 0.00001 2.3931-0.0435 3.7856-0.13054v2.4802c-1.3924-0.087-2.6543-0.13053-3.7856-0.13054h-3.5245v9.3986c-0.00003 1.6535-0.50042 2.6978-1.5012 3.1329-1.0008 0.43512-2.3714 0.78321-4.1119 1.0443-0.26109-0.95727-0.6527-1.958-1.1748-3.0023 1.9145 0 3.1111-0.10878 3.5898-0.32635 0.47861-0.21756 0.71793-0.84848 0.71795-1.8928v-8.3544h-1.958c-1.8275 0.00001-3.6115 0.0435-5.352 0.13054v-2.4802c1.7405 0.087 3.3939 0.13055 4.9604 0.13054h2.3497c-0.00002-1.3054-0.0218-2.3279-0.0653-3.0676-0.0435-0.73969-0.15231-1.3271-0.32634-1.7622 0.7832-0.52213 1.697-1.1966 2.7413-2.0233 1.0443-0.82671 1.958-1.6317 2.7413-2.4149h-7.8322c-0.87026 0.00002-2.0451 0.0435-3.5245 0.13053v-2.3497c1.4794 0.087 2.6542 0.13056 3.5245 0.13054zm-24.933 13.967c1.3054 0.87026 2.4367 1.6535 3.394 2.3497 0.60917-1.0443 1.1748-2.4367 1.697-4.1772 0.52214-1.7405 0.95726-3.655 1.3054-5.7436h-4.0466c-0.78323 2.8718-1.5664 5.3955-2.3497 7.5711z"/>
        <path id="path3432" style="fill:#d40000" d="m544.3 535.8h3.9161l-0.91376 15.664h-2.0886zm0 19.842h3.7856v3.9161h-3.7856z"/>
      </g>
      <g id="text2912-1" style="fill:#374837">
        <path id="path3397" style="" d="m262.88 588.06c-0.00002 1.8384-0.67446 3.3124-2.0233 4.4219-1.4033 1.1531-3.3233 1.7296-5.7599 1.7296-3.209 0-5.0909-0.59286-5.6457-1.7786-0.33722-0.71795-0.67444-1.6317-1.0117-2.7413-0.14142-0.51126-0.0381-0.84304 0.31002-0.99534 0.43512-0.1958 0.77778-0.10877 1.028 0.26107 0.92463 1.3706 1.8547 2.3442 2.7902 2.9208 0.90287 0.55479 1.958 0.83218 3.1655 0.83218 3.0241 0 4.5361-1.2075 4.5362-3.6224-0.00001-0.94638-0.33179-1.7514-0.99534-2.4149-0.64182-0.62004-1.9689-1.474-3.9814-2.5618-2.5455-1.3706-4.2207-2.4476-5.0257-3.2308-0.9899-0.96813-1.4849-2.1647-1.4848-3.5898-0.00001-1.512 0.63364-2.8011 1.9009-3.8672 1.2673-1.066 2.8854-1.599 4.8543-1.5991 1.3924 0.00002 2.7467 0.17407 4.063 0.52215 1.0116 0.27197 1.5827 0.62007 1.7133 1.0443 0.27194 0.88114 0.45143 1.969 0.53847 3.2634 0.0217 0.46777-0.13599 0.72884-0.4732 0.78322-0.42426 0.0653-0.7234-0.0816-0.89744-0.44056-0.67445-1.3597-1.4414-2.317-2.3007-2.8718-0.79411-0.51125-1.833-0.76688-3.1166-0.76691-1.1422 0.00003-2.0451 0.26654-2.7086 0.79954-0.66357 0.53305-0.99535 1.2891-0.99534 2.2681-0.00001 0.91377 0.32633 1.7024 0.97902 2.366 0.62005 0.62006 1.7622 1.3489 3.4266 2.1865 2.5672 1.2836 4.3349 2.3714 5.3031 3.2634 1.2074 1.0987 1.8112 2.3714 1.8112 3.8182z"/>
        <path id="path3399" style="" d="m279.9 592.18c-0.00001 0.22844-0.4161 0.57382-1.2483 1.0361-0.83218 0.46231-1.4985 0.69347-1.9988 0.69347-0.42425 0-0.79955-0.20668-1.1259-0.62005-0.32635-0.41336-0.55479-0.62004-0.68532-0.62005-0.0979 0.00001-0.61462 0.22301-1.5501 0.66901-0.93552 0.446-1.8765 0.669-2.8229 0.669-0.892 0-1.6372-0.26108-2.2354-0.78322-0.65268-0.57654-0.97903-1.3598-0.97902-2.3497-0.00001-1.8819 2.1538-3.2308 6.4616-4.0466 0.7397-0.14141 1.115-0.44056 1.1259-0.89744l0.0326-1.0443c0.0653-1.784-0.7234-2.676-2.366-2.676-0.46776 0.00001-0.91104 0.41882-1.3298 1.2564-0.41881 0.83762-1.0198 1.2891-1.803 1.3543-0.89201 0.087-1.338-0.28826-1.338-1.1259-0.00001-0.52213 0.66356-1.1313 1.9907-1.8275 1.3924-0.72882 2.7304-1.0932 4.014-1.0932 2.2082 0.00002 3.3015 1.0498 3.2797 3.1492l-0.0653 6.7226c-0.0109 0.70707 0.28826 1.0606 0.89744 1.0606 0.11965 0 0.34809-0.0272 0.68532-0.0816 0.33721-0.0544 0.53301-0.0816 0.58742-0.0816 0.31545 0 0.47318 0.21212 0.47319 0.63636zm-5.0257-3.7203c0.0109-0.27194-0.0517-0.45143-0.18765-0.53846-0.13598-0.087-0.35082-0.10333-0.64452-0.0489-2.6216 0.46776-3.9324 1.3217-3.9324 2.5618-0.00001 1.251 0.67987 1.8765 2.0396 1.8765 0.5439 0 1.1041-0.10334 1.6807-0.31003 0.67444-0.23931 1.0116-0.52758 1.0117-0.8648z"/>
        <path id="path3401" style="" d="m289.56 593.27c-0.00001 0.43512-0.24476 0.62549-0.73427 0.5711-1.5012-0.14142-3.3613-0.11966-5.5804 0.0653-0.446 0.0435-0.72068 0.0326-0.82402-0.0326-0.10334-0.0653-0.15501-0.24476-0.15501-0.53846 0-0.26108 0.29643-0.48136 0.88928-0.66085 0.59286-0.17948 0.88928-0.71523 0.88929-1.6072v-14.767c-0.00001-0.8811-0.12783-1.5284-0.38346-1.9417-0.25563-0.41335-0.70435-0.73425-1.3462-0.96271-0.33722-0.11964-0.50583-0.28825-0.50583-0.50583 0-0.32632 0.24476-0.57108 0.73427-0.73427 0.73971-0.2393 1.5066-0.60915 2.3007-1.1096 0.65268-0.39159 1.066-0.58739 1.2401-0.58742 0.40248 0.00003 0.60373 0.27742 0.60373 0.83217 0-0.0435-0.0218 0.50042-0.0653 1.6317-0.0326 1.077-0.0435 2.1376-0.0326 3.1818l0.0653 14.571c-0.00001 0.66356 0.16316 1.1449 0.48951 1.4441 0.32634 0.29915 0.88656 0.49767 1.6807 0.59558 0.48951 0.0544 0.73426 0.23931 0.73427 0.55478z"/>
        <path id="path3403" style="" d="m306.71 592.37c-0.00001 0.21756-0.51128 0.54934-1.5338 0.99534l-1.3054 0.5711c-0.14143 0-0.4433-0.24476-0.9056-0.73427-0.46233-0.48951-0.78595-0.73427-0.97087-0.73427-0.0979 0-0.65813 0.22844-1.6807 0.68532-1.0225 0.45688-1.92 0.68532-2.6923 0.68532-1.6317 0-2.7685-0.31003-3.4103-0.93008-0.6962-0.66356-1.0443-1.8656-1.0443-3.6061v-3.2797c-0.00001-0.91375-0.0925-1.5556-0.27739-1.9254-0.2502-0.45687-0.75603-0.80496-1.5175-1.0443-0.2502-0.0761-0.3753-0.21211-0.3753-0.40793 0-0.21755 0.21212-0.40792 0.63637-0.5711 0.80497-0.31545 1.6045-0.63635 2.3986-0.96271 0.55478-0.22842 0.95727-0.34264 1.2075-0.34266 0.38072 0.00002 0.57109 0.25565 0.5711 0.76691-0.00001 0.00001-0.0163 0.57383-0.049 1.7214-0.0326 1.1476-0.0489 2.2382-0.0489 3.2716v1.958c0 1.3271 0.26107 2.2354 0.78322 2.725 0.46775 0.43513 1.3217 0.65269 2.5618 0.65269 1.9145 0 2.8718-0.97903 2.8718-2.9371v-2.9044c-0.00002-1.0552-0.0952-1.7323-0.28555-2.0315-0.19038-0.29914-0.69893-0.55749-1.5256-0.77506-0.23933-0.0979-0.35899-0.2665-0.35898-0.50583-0.00001-0.25019 0.14685-0.42967 0.44056-0.53847 2.2518-0.81584 3.4864-1.2238 3.704-1.2238 0.42423 0.00002 0.63636 0.24477 0.63637 0.73427-0.00001-0.0109-0.0163 0.53576-0.049 1.6399-0.0326 1.1041-0.049 2.1729-0.0489 3.2063v4.1119c-0.00002 0.77234 0.56564 1.202 1.697 1.289 0.38072 0.0326 0.57109 0.17949 0.5711 0.44056z"/>
        <path id="path3405" style="" d="m318.15 592.21c-0.00001 0.52214-0.47865 0.96814-1.4359 1.338-0.84849 0.32634-1.7079 0.48951-2.5781 0.48951-2.3605 0-3.5408-1.2564-3.5408-3.7692v-5.9068c0-0.75057-0.0598-1.2102-0.17948-1.3788-0.11967-0.1686-0.51671-0.33449-1.1912-0.49767-0.17405-0.0435-0.26108-0.21211-0.26108-0.50583 0-0.31545 0.0653-0.50582 0.19581-0.5711 1.1748-0.57652 2.1974-1.6099 3.0676-3.1002 0.11966-0.20666 0.35353-0.27193 0.70164-0.1958 0.23931 0.0762 0.36441 0.21758 0.37529 0.42424l0.0653 2.0396c-0.00001 0.15231 0.0272 0.26109 0.0816 0.32634 0.0762 0.0979 0.25019 0.14687 0.52215 0.14686h3.6387c0.20668 0.00001 0.20668 0.25564 0 0.7669-0.2502 0.62006-0.62006 0.93008-1.1096 0.93007h-2.4639c-0.42425 0.00001-0.68532 0.0707-0.78322 0.21212-0.0761 0.0979-0.11423 0.36443-0.11422 0.79954v5.3357c-0.00001 1.3489 0.11965 2.2028 0.35898 2.5618 0.31545 0.45689 1.0497 0.68532 2.2028 0.68532 0.38073 0 0.84304-0.0625 1.387-0.18764 0.54389-0.1251 0.83216-0.18765 0.8648-0.18765 0.13053 0 0.1958 0.0816 0.19581 0.24476z"/>
        <path id="path3407" style="" d="m336.42 593.27c-0.00001 0.43512-0.24477 0.62549-0.73427 0.5711-1.5012-0.14142-3.3613-0.11966-5.5804 0.0653-0.446 0.0435-0.72067 0.0326-0.82401-0.0326-0.10334-0.0653-0.15501-0.24476-0.15501-0.53846 0-0.26108 0.29642-0.48136 0.88928-0.66085 0.59285-0.17948 0.88928-0.71523 0.88928-1.6072v-14.767c0-0.8811-0.12782-1.5284-0.38345-1.9417-0.25564-0.41335-0.70436-0.73425-1.3462-0.96271-0.33722-0.11964-0.50583-0.28825-0.50583-0.50583 0-0.32632 0.24476-0.57108 0.73427-0.73427 0.7397-0.2393 1.5066-0.60915 2.3007-1.1096 0.65268-0.39159 1.066-0.58739 1.2401-0.58742 0.40248 0.00003 0.60372 0.27742 0.60373 0.83217-0.00001-0.0435-0.0218 0.50042-0.0653 1.6317-0.0326 1.077-0.0435 2.1376-0.0326 3.1818l0.0653 14.571c-0.00001 0.66356 0.16316 1.1449 0.48951 1.4441 0.32633 0.29915 0.88655 0.49767 1.6807 0.59558 0.4895 0.0544 0.73426 0.23931 0.73427 0.55478z"/>
        <path id="path3409" style="" d="m350.42 591c-0.00001 0.46776-0.63094 1.0497-1.8928 1.7459-1.4359 0.77234-2.9099 1.1585-4.4219 1.1585-1.6426 0-3.0241-0.53846-4.1445-1.6154-1.1966-1.1422-1.7949-2.6651-1.7949-4.5688 0-2.1538 0.669-3.8835 2.007-5.1888 1.251-1.2183 2.7848-1.8275 4.6014-1.8275 1.0769 0.00001 2.0831 0.34267 3.0187 1.028 0.8376 0.60919 1.3924 1.3054 1.6644 2.0886 0.0979 0.27196 0.24474 0.42425 0.44056 0.45688 0.28281 0.0544 0.42423 0.24476 0.42424 0.5711-0.00001 0.44601-0.53304 0.82674-1.5991 1.1422l-7.5222 2.2354c0.48951 2.589 1.8166 3.8835 3.9814 3.8835 1.251 0.00001 2.676-0.45687 4.2751-1.3706 0.2393-0.14141 0.47318-0.21212 0.70163-0.21212 0.17404 0 0.26106 0.15773 0.26107 0.47319zm-3.8672-6.5432c-0.00001-0.59829-0.24204-1.1232-0.72611-1.5746-0.48408-0.45143-1.0796-0.67715-1.7867-0.67716-2.0016 0.00001-3.0024 1.4414-3.0023 4.324v0.39161l4.4382-1.338c0.71794-0.20668 1.0769-0.58197 1.0769-1.1259z"/>
        <path id="path3411" style="" d="m390.12 593.2c-0.00003 0.27195-0.0571 0.44056-0.17133 0.50583-0.11425 0.0653-0.40524 0.087-0.87297 0.0653-2.8392-0.11966-5.042-0.11966-6.6084 0-0.48954 0.0326-0.73429-0.15773-0.73427-0.5711-0.00002-0.22844 0.24473-0.39161 0.73427-0.48951 0.96812-0.21756 1.5501-0.39705 1.7459-0.53847 0.23929-0.18492 0.34807-0.59829 0.32634-1.2401l-0.5711-13.935c-0.0109-0.28282-0.087-0.42423-0.22844-0.42425-0.1088 0.00002-0.21214 0.0979-0.31002 0.29371-1.9363 3.8944-3.2961 6.6628-4.0793 8.3054-1.5773 3.2743-2.6923 5.7599-3.345 7.4569-0.29372 0.7941-0.44601 1.202-0.45688 1.2238-0.10879 0.19581-0.26653 0.32634-0.47319 0.39161-0.1088 0.0326-0.20126 0.0489-0.27739 0.0489-0.21758 0-0.41338-0.3209-0.58742-0.9627-0.68533-2.4584-3.0459-7.9138-7.0816-16.366-0.11966-0.25018-0.2502-0.37527-0.39161-0.37529-0.17405 0.00002-0.26652 0.16863-0.27739 0.50583-0.1523 3.2308-0.33178 7.5331-0.53846 12.907-0.0653 1.4359 0.65811 2.2898 2.1702 2.5618 0.59829 0.10878 0.89743 0.32091 0.89744 0.63637-0.00001 0.27195-0.0571 0.44056-0.17133 0.50583-0.11423 0.0653-0.39978 0.087-0.85664 0.0653-2.502-0.0979-4.4437-0.0979-5.8252 0-0.48951 0.0326-0.73427-0.15773-0.73427-0.5711 0-0.22844 0.24476-0.39161 0.73427-0.48951 0.87024-0.18493 1.4413-0.4732 1.7133-0.86481 0.21755-0.30458 0.33721-0.85393 0.35897-1.648l0.5711-14.441c0.0217-0.63091-0.10334-1.115-0.37529-1.4522-0.23932-0.29369-0.7234-0.60916-1.4522-0.9464-0.52215-0.23929-0.76691-0.49493-0.73427-0.7669 0.0217-0.29368 0.25563-0.4079 0.70163-0.34266 1.6643 0.23934 3.122 0.28285 4.373 0.13054 0.47863-0.0544 0.80497-0.0435 0.97903 0.0326 0.17404 0.0762 0.32633 0.26654 0.45688 0.5711l6.8205 15.615c0.087 0.21756 0.16316 0.32635 0.22844 0.32634 0.0652 0.00001 0.16316-0.14685 0.29371-0.44056 0.43511-0.93551 2.8664-5.9775 7.2937-15.126 0.27193-0.55476 0.61459-0.83215 1.028-0.83217 1.0116 0.00002 2.4258-0.14683 4.2424-0.44056 0.41334-0.0652 0.66897-0.087 0.7669-0.0653 0.1849 0.0544 0.27736 0.25566 0.27739 0.60374-0.00003 0.26109-0.28829 0.48409-0.8648 0.669-1.3598 0.42426-2.0288 0.93553-2.007 1.5338l0.60373 15.877c0.0217 0.63093 0.17946 1.0769 0.47319 1.338 0.23929 0.22844 0.67985 0.40248 1.3217 0.52214 0.60914 0.11966 0.91373 0.33178 0.91376 0.63637z"/>
        <path id="path3413" style="" d="m407.39 587.17c-0.00001 1.8928-0.70165 3.4946-2.1049 4.8054-1.4033 1.3108-3.1438 1.9662-5.2215 1.9662s-3.7203-0.57654-4.9278-1.7296c-1.164-1.1313-1.7459-2.627-1.7459-4.4872 0-1.9254 0.73427-3.5462 2.2028-4.8625 1.425-1.2727 3.1274-1.9091 5.1072-1.9091 2.1212 0.00002 3.7747 0.57111 4.9604 1.7133 1.1531 1.1096 1.7296 2.6107 1.7296 4.5035zm-2.8718 0.99535c-0.00001-1.7078-0.41337-3.0948-1.2401-4.1609-0.80499-1.0334-1.8275-1.5501-3.0676-1.5501-1.1531 0.00001-2.094 0.40521-2.8228 1.2156-0.72884 0.81042-1.0932 1.7976-1.0932 2.9616 0 1.871 0.42424 3.3287 1.2727 4.373 0.78322 0.95727 1.8058 1.4359 3.0676 1.4359 1.1966 0 2.143-0.39705 2.8392-1.1912 0.69618-0.7941 1.0443-1.8221 1.0443-3.0839z"/>
        <path id="path3415" style="" d="m427.24 593.45c-0.00002 0.33721-0.24477 0.48951-0.73427 0.45687-2.3388-0.11966-4.1119-0.14141-5.3194-0.0653-0.62006 0.0435-0.95728-0.0326-1.0117-0.22844-0.0218-0.0653-0.0326-0.15774-0.0326-0.27739-0.00001-0.21757 0.31545-0.41337 0.94639-0.58742 0.57652-0.16317 0.86479-0.72339 0.86481-1.6807v-4.3404c-0.00002-2.4911-1.0824-3.7366-3.2471-3.7366-0.96815 0.00001-1.8656 0.22845-2.6923 0.68532-0.78322 0.44601-1.1748 0.90832-1.1748 1.387v5.9721c0 1.0225 0.669 1.5936 2.007 1.7133 0.51126 0.0435 0.76689 0.20668 0.7669 0.48951-0.00001 0.27195-0.0707 0.43513-0.21212 0.48952-0.0653 0.0217-0.25021 0.0272-0.55478 0.0163-1.7079-0.0653-3.4701 0.0218-5.2867 0.26108-0.39162 0.0544-0.63637 0.0707-0.73427 0.0489-0.21756-0.0435-0.32635-0.21212-0.32634-0.50583-0.00001-0.26108 0.31002-0.48408 0.93007-0.669 0.57653-0.17405 0.8648-0.89744 0.86481-2.1702v-4.9441c-0.00001-0.8376-0.10879-1.3706-0.32635-1.5991-0.15229-0.16316-0.65812-0.3916-1.5175-0.68532-0.21757-0.0761-0.32635-0.22843-0.32635-0.45688 0-0.21755 0.223-0.40791 0.669-0.57109 0.60917-0.22843 1.2782-0.59285 2.007-1.0932 0.60916-0.41335 1.0008-0.62004 1.1748-0.62005 0.2937 0.00001 0.4895 0.33451 0.58741 1.0035 0.0979 0.66901 0.23387 1.0035 0.40793 1.0035-0.087 0.00001 0.46775-0.31817 1.6643-0.95455 1.1966-0.63635 2.3768-0.95453 3.5408-0.95455 2.8174 0.00002 4.237 1.6045 4.2588 4.8136l0.0326 5.2541c-0.00002 0.67444 0.17403 1.1585 0.52214 1.4522 0.26106 0.21756 0.76689 0.40249 1.5175 0.55478 0.4895 0.0979 0.73425 0.27739 0.73427 0.53847z"/>
        <path id="path3417" style="" d="m444.17 592.14c0.0435 0.0979 0.0652 0.16861 0.0653 0.21212-0.00002 0.22844-0.5548 0.60373-1.6643 1.1259-1.2836 0.59829-2.0396 0.89744-2.2681 0.89744-0.19582 0-0.42154-0.32906-0.67716-0.98718-0.25564-0.65813-0.43241-0.98719-0.5303-0.98719 0.0109 0-0.60647 0.28555-1.852 0.85665-1.2456 0.5711-2.1892 0.85665-2.831 0.85665-1.4359 0-2.6814-0.51671-3.7366-1.5501-1.2727-1.2292-1.9091-2.9534-1.9091-5.1725 0-1.8601 0.75058-3.4646 2.2518-4.8135 1.3271-1.1857 2.6814-1.7786 4.063-1.7786 0.97902 0.00001 2.1484 0.12511 3.5082 0.37529 0.42423 0.0762 0.63635-0.0489 0.63636-0.37529v-5.5804c-0.00001-0.63091-0.1523-1.0769-0.45688-1.338-0.19581-0.17403-0.65813-0.38071-1.387-0.62005-0.34811-0.13051-0.52215-0.34264-0.52215-0.63636 0-0.27193 0.23387-0.47318 0.70164-0.60374 0.64179-0.19578 1.4087-0.52212 2.3007-0.97902 0.73969-0.39159 1.1966-0.58739 1.3706-0.58742 0.40247 0.00003 0.60371 0.27742 0.60373 0.83217-0.00002-0.0109-0.0163 0.53033-0.0489 1.6236s-0.049 2.1566-0.0489 3.19v14.832c-0.00002 0.62005 0.27737 0.93008 0.83217 0.93008 0.20666 0 0.48406-0.0326 0.83217-0.0979 0.38071-0.0653 0.63635 0.0598 0.7669 0.3753zm-5.042-1.6154v-5.8415c-0.00001-0.47863-0.42425-0.97358-1.2727-1.4849-0.90289-0.54389-1.8819-0.81584-2.9371-0.81585-2.2735 0.00001-3.4103 1.4033-3.4103 4.2098-0.00001 1.5012 0.45143 2.7848 1.3543 3.8508s1.9635 1.5991 3.1818 1.5991c0.55477 0 1.2075-0.18493 1.958-0.55479 0.75058-0.36985 1.1259-0.69075 1.1259-0.9627z"/>
        <path id="path3419" style="" d="m458.31 591c-0.00001 0.46776-0.63094 1.0497-1.8928 1.7459-1.4359 0.77234-2.9099 1.1585-4.4219 1.1585-1.6426 0-3.0241-0.53846-4.1445-1.6154-1.1966-1.1422-1.7949-2.6651-1.7949-4.5688 0-2.1538 0.669-3.8835 2.007-5.1888 1.251-1.2183 2.7848-1.8275 4.6014-1.8275 1.0769 0.00001 2.0831 0.34267 3.0187 1.028 0.8376 0.60919 1.3924 1.3054 1.6643 2.0886 0.0979 0.27196 0.24475 0.42425 0.44057 0.45688 0.28281 0.0544 0.42423 0.24476 0.42424 0.5711-0.00001 0.44601-0.53304 0.82674-1.5991 1.1422l-7.5222 2.2354c0.4895 2.589 1.8166 3.8835 3.9814 3.8835 1.251 0.00001 2.676-0.45687 4.2751-1.3706 0.23931-0.14141 0.47319-0.21212 0.70164-0.21212 0.17403 0 0.26106 0.15773 0.26107 0.47319zm-3.8672-6.5432c-0.00001-0.59829-0.24204-1.1232-0.72611-1.5746-0.48408-0.45143-1.0796-0.67715-1.7867-0.67716-2.0016 0.00001-3.0024 1.4414-3.0023 4.324v0.39161l4.4382-1.338c0.71795-0.20668 1.0769-0.58197 1.0769-1.1259z"/>
        <path id="path3421" style="" d="m465.52 574.36c-0.51127 3.2743-0.76691 6.826-0.7669 10.655-0.00001 0.68532-0.0326 1.1313-0.0979 1.338-0.10879 0.39162-0.39162 0.70708-0.84849 0.94639-0.13054 0.0653-0.23932 0.0979-0.32634 0.0979-0.1523 0.00001-0.22845-0.1686-0.22844-0.50583-0.00001-4.8516-0.29372-8.9526-0.88113-12.303-0.0653-0.38072-0.0979-0.67986-0.0979-0.89744 0-0.72881 0.62549-1.2401 1.8765-1.5338 0.2937-0.0652 0.52758-0.0979 0.70163-0.0979 0.52214 0.00002 0.78322 0.35356 0.78322 1.0606 0 0.3046-0.0381 0.71797-0.11422 1.2401zm0.16317 17.606c0 0.62005-0.18765 1.1449-0.56294 1.5746-0.3753 0.42968-0.82402 0.64452-1.3462 0.64452-1.1313 0-1.697-0.63636-1.697-1.9091-0.00001-0.59829 0.19852-1.0987 0.59557-1.5012 0.39704-0.40248 0.86752-0.60373 1.4114-0.60373 1.066 0 1.5991 0.5983 1.5991 1.7949z"/>
      </g>
      <g id="text2916-5" style="fill:#784421">
        <path id="path3458" style="fill:#784421" d="m205.97 503.62c1.8275 0.71797 2.7413 1.4033 2.7413 2.056-0.00001 0.45689-0.25021 1.0661-0.75059 1.8275-1.0661 1.784-2.6651 3.8291-4.7972 6.1352-1.8275 2.0233-3.6768 3.6333-5.5478 4.8299l-0.13054-0.26108c2.85-2.6107 5.4499-6.07 7.7996-10.378 0.71794-1.2836 1.0769-2.2082 1.0769-2.7739-0.00001-0.3916-0.21757-0.75057-0.65269-1.0769zm10.345 0c1.9145 1.871 3.7094 4.0793 5.3846 6.6247 1.9798 2.7413 2.9697 5.0039 2.9697 6.7879-0.00003 1.0443-0.30462 1.5664-0.91376 1.5664-0.54393 0.00001-0.91379-0.3916-1.1096-1.1748-0.78325-2.9371-1.7079-5.3846-2.7739-7.3427-1.1313-2.2191-2.4585-4.2859-3.9814-6.2005z"/>
        <path id="path3460" style="fill:#784421" d="m233.77 502.45c1.4577 0.00002 2.4258 0.34812 2.9044 1.0443 0.19579 0.087 0.41335 0.13055 0.65268 0.13053 2.1538 0.00002 6.418-0.533 12.793-1.5991 1.153-0.13052 1.9907-0.32632 2.5128-0.58742 0.28281-0.13051 0.52212-0.19578 0.71795-0.1958 0.32632 0.00002 0.73969 0.21758 1.2401 0.65268 0.76144 0.63095 1.1422 1.1096 1.1422 1.4359-0.00003 0.0653-0.10881 0.26109-0.32634 0.58741-0.47866 0.63095-0.87027 1.8058-1.1748 3.5245-0.52218 3.1329-1.1096 6.3854-1.7622 9.7576 0.087 0.0435 0.16315 0.087 0.22844 0.13054 0.4351 0.30459 0.65266 0.68532 0.65268 1.1422-0.00002 0.36985-0.34812 0.55478-1.0443 0.55478-0.54393 0-0.91378-0.0218-1.1096-0.0653-0.39164-0.0435-1.2292-0.0653-2.5128-0.0653-3.6986 0-6.7553 0.13054-9.1702 0.39161-0.76148 0.087-1.1966 0.13054-1.3054 0.13054-0.19581 0-0.38074-0.0326-0.55478-0.0979-0.0435 0.23932-0.0979 0.446-0.16317 0.62005-0.28284 0.60917-0.60918 0.91375-0.97903 0.91375-0.21757 0-0.38074-0.11966-0.48951-0.35897l-0.26107-0.45688c-0.10879-0.23932-0.16318-0.41337-0.16317-0.52215-0.00001-0.15229 0.0109-0.446 0.0326-0.88112 0.087-0.45688 0.13053-1.1531 0.13054-2.0886-0.00001-5.0909-0.20669-8.9961-0.62005-11.716-0.17406-1.1966-0.71796-1.871-1.6317-2.0233zm4.5688 15.403c0.76145 0 1.4468-0.0326 2.056-0.0979 2.0016-0.26107 4.819-0.40249 8.4523-0.42425 0.56563 0 1.0987-0.0544 1.5991-0.16317 0.15227-0.0217 0.29369-0.0435 0.42425-0.0653 1.1095-7.4841 1.6643-11.248 1.6643-11.291 0.13051-0.71793 0.19578-1.1966 0.1958-1.4359-0.00002-0.39159-0.11968-0.64179-0.35897-0.75059-0.30461-0.10876-0.62008-0.16315-0.94639-0.16317-1.0443 0.00002-2.5455 0.15231-4.5035 0.45688-2.4802 0.26109-4.9713 0.64182-7.4732 1.1422-0.58743 0.17406-1.1748 0.26109-1.7622 0.26107-0.19581 0.00002-0.40249-0.0217-0.62004-0.0653l0.32634 10.443c-0.00001 0.93552 0.0544 1.5773 0.16317 1.9254-0.00001 0.0435-0.00001 0.0761 0 0.0979 0.23931 0.087 0.50038 0.13054 0.78322 0.13054z"/>
        <path id="path3462" style="fill:#784421" d="m264.32 510.12c0.39161 0.54391 1.0987 0.81586 2.1212 0.81585 1.2836 0.00001 2.7304-0.10877 4.3404-0.32634 2.1974-0.30458 6.4833-0.70706 12.858-1.2075 1.8057-0.10876 3.3287-0.16315 4.5688-0.16317 1.3706 0.00002 2.3061 0.14143 2.8065 0.42425 0.58739 0.32635 0.88109 0.66357 0.88112 1.0117-0.00003 0.32635-0.43515 0.48952-1.3054 0.48951-0.43515 0.00001-0.89203-0.0217-1.3706-0.0653-0.58744-0.0435-1.5665-0.0653-2.9371-0.0653-5.7436 0.0435-10.606 0.41338-14.587 1.1096-2.8283 0.47864-4.5362 0.71796-5.1236 0.71795-0.82674 0.00001-1.425-0.21755-1.7949-0.65269-0.39162-0.41335-0.67445-0.96813-0.84849-1.6643z"/>
        <path id="path3464" style="fill:#784421" d="m300.12 498.63c0.71794 0.0653 1.2836 0.39164 1.697 0.97903 0.52214 0.0653 1.1204 0.0979 1.7949 0.0979 1.5664 0.00002 3.3831-0.0979 5.4499-0.29371l9.7576-0.91375c0.45685-0.0217 0.95724-0.13052 1.5012-0.32634 0.2828-0.10876 0.46773-0.16315 0.55478-0.16318 0.2828 0.00003 0.62002 0.1632 1.0117 0.48952l0.78322 0.68531c0.34807 0.34812 0.52212 0.68534 0.52215 1.0117-0.00003 0.13056-0.10881 0.32637-0.32635 0.58742-0.28285 0.30461-0.50041 0.77236-0.65268 1.4033-1.5447 4.3077-3.4375 8.1586-5.6784 11.552-2.1104 3.1111-5.3194 6.603-9.6271 10.476l-0.42425-0.39161c3.1111-3.1329 5.7218-6.3963 7.8322-9.7902 2.0668-3.1981 3.9161-7.2339 5.5478-12.107 0.21754-0.52213 0.32632-0.96813 0.32634-1.338-0.00002-0.34807-0.25022-0.52212-0.75058-0.52214-1.6317 0.00002-3.6877 0.1088-6.1679 0.32634-3.3504 0.32636-5.8306 0.62007-7.4406 0.88112-0.78323 0.15232-1.4359 0.22846-1.958 0.22844-0.45689 0.00002-0.91377-0.0979-1.3706-0.29371 0.32634 1.7623 0.48951 4.1663 0.48952 7.2122-0.00001 1.2401-0.0979 2.056-0.29371 2.4476-0.17406 0.36987-0.39162 0.55479-0.65268 0.55478-0.23933 0.00001-0.5004-0.22843-0.78323-0.68531-0.17405-0.3916-0.26107-0.77234-0.26107-1.1422 0-0.30457 0.0217-0.59828 0.0653-0.88112 0.0435-0.28282 0.0653-1.251 0.0653-2.9044-0.00001-2.045-0.0544-3.6006-0.16317-4.6667-0.19581-1.1096-0.52216-1.8166-0.97903-2.1212z"/>
        <path id="path3466" style="fill:#784421" d="m331.15 510.12c0.3916 0.54391 1.0987 0.81586 2.1212 0.81585 1.2836 0.00001 2.7304-0.10877 4.3404-0.32634 2.1974-0.30458 6.4833-0.70706 12.858-1.2075 1.8057-0.10876 3.3287-0.16315 4.5688-0.16317 1.3706 0.00002 2.3061 0.14143 2.8065 0.42425 0.58738 0.32635 0.88109 0.66357 0.88112 1.0117-0.00003 0.32635-0.43515 0.48952-1.3054 0.48951-0.43516 0.00001-0.89203-0.0217-1.3706-0.0653-0.58744-0.0435-1.5665-0.0653-2.9371-0.0653-5.7436 0.0435-10.606 0.41338-14.587 1.1096-2.8283 0.47864-4.5362 0.71796-5.1236 0.71795-0.82674 0.00001-1.425-0.21755-1.7949-0.65269-0.39162-0.41335-0.67445-0.96813-0.84849-1.6643z"/>
        <path id="path3468" style="fill:#784421" d="m370.44 503.75c1.9145 0.19582 2.8718 0.67446 2.8718 1.4359-0.00001 1.0661-0.5004 3.122-1.5012 6.1679-1.1313 3.2852-3.5027 6.962-7.1142 11.03l-0.39161-0.22844c1.2836-1.697 2.4367-3.6333 3.4592-5.8089 1.1313-2.1538 2.0124-4.4382 2.6434-6.8532 0.47863-1.6752 0.71794-2.9479 0.71795-3.8182-0.00001-0.82672-0.31547-1.3489-0.94639-1.5664zm6.6574-3.8182c2.0886 0.30461 3.1329 1.0008 3.1329 2.0886-0.00002 0.43514-0.0326 0.92465-0.0979 1.4685l-0.35898 14.228c-0.0435 0.45688-0.0653 0.75059-0.0653 0.88112-0.00002 0.36986 0.13052 0.55479 0.39161 0.55479 0.13052 0 0.52213-0.21756 1.1748-0.65269 3.9161-2.4149 7.6146-5.3846 11.096-8.9091l0.26107 0.26107c-3.2199 4.0902-6.7335 7.5168-10.541 10.28-0.54392 0.41337-1.0226 0.90288-1.4359 1.4685-0.36987 0.43512-0.68533 0.65268-0.94639 0.65268-0.28284 0-0.56567-0.17405-0.84849-0.52214l-0.71795-1.1422c-0.23933-0.36985-0.35899-0.68532-0.35897-0.94639-0.00002-0.17405 0.0435-0.41337 0.13053-0.71795 0.17404-0.58742 0.26106-4.3947 0.26108-11.422-0.00002-3.5245-0.0653-5.5369-0.19581-6.0373-0.19582-0.67442-0.57655-1.0552-1.1422-1.1422z"/>
        <path id="path3470" style="fill:#784421" d="m407.03 496.7h0.91376c1.6317 0.00002 2.4476 0.72885 2.4476 2.1865-0.00002 1.1748-0.0435 2.2735-0.13054 3.296-0.0435 0.76148-0.0762 2.0886-0.0979 3.9814 1.5664 0.41338 3.122 0.98992 4.6667 1.7296 1.871 0.91377 3.296 1.871 4.2751 2.8718 0.979 0.97904 1.4685 1.8058 1.4685 2.4802-0.00002 0.60918-0.25022 0.91376-0.75059 0.91376-0.52217 0-1.0008-0.23931-1.4359-0.71796-1.9363-2.1756-3.5463-3.7312-4.8299-4.6667-1.0661-0.7832-2.1974-1.4032-3.394-1.8601-0.00002 1.4142-0.00002 3.1003 0 5.0583-0.00002 6.3528 0.0217 9.7359 0.0653 10.149 0.0217 0.67443 0.0326 1.2401 0.0326 1.697-0.00002 0.3481-0.11968 0.75059-0.35898 1.2075-0.19582 0.32634-0.42426 0.48951-0.68532 0.48951-0.26108 0-0.5004-0.22844-0.71795-0.68532-0.21757-0.47863-0.32635-1.0225-0.32634-1.6317-0.00001-0.58741 0.0761-1.2945 0.22844-2.1212 0.13052-1.8058 0.19579-8.5393 0.19581-20.201-0.00002-1.5664-0.13055-2.589-0.39162-3.0676-0.21757-0.50037-0.60918-0.75056-1.1748-0.75059zm13.054 0c1.2401 0.15231 2.4258 0.59831 3.5571 1.338 0.91373 0.63095 1.3706 1.2619 1.3706 1.8928-0.00003 0.2611-0.0762 0.48953-0.22844 0.68532-0.15232 0.26109-0.36988 0.39163-0.65268 0.39161-0.32637 0.00002-0.6092-0.26105-0.84849-0.78322-0.82676-1.3706-1.9363-2.4693-3.3287-3.296zm-3.2634 0.75058c1.1966 0.17408 2.317 0.69622 3.3613 1.5664 0.89198 0.76149 1.338 1.5012 1.338 2.2191-0.00002 0.26109-0.0762 0.48953-0.22844 0.68532-0.15232 0.26109-0.39163 0.39163-0.71795 0.39161-0.28285 0.00002-0.53305-0.28281-0.75059-0.84849-0.78324-1.5882-1.8384-2.8392-3.1655-3.7529z"/>
        <path id="path3472" style="fill:#784421" d="m444.98 497.85c0.5874 0.00003 1.0443 0.17408 1.3706 0.52215 0.30456 0.34812 0.45686 0.82675 0.45687 1.4359-0.00001 0.47866-0.47865 6.2658-1.4359 17.361h-0.65268c-1.0443-11.096-1.5665-16.883-1.5664-17.361-0.00002-0.60915 0.15227-1.0878 0.45687-1.4359 0.30457-0.34807 0.76145-0.52212 1.3706-0.52215zm0 22.322c0.56564 0.00001 1.0225 0.17405 1.3706 0.52215 0.39159 0.36986 0.58739 0.84849 0.58741 1.4359-0.00002 0.5439-0.19582 1.0116-0.58741 1.4033-0.36988 0.36985-0.82675 0.55477-1.3706 0.55478-0.56567-0.00001-1.0334-0.18493-1.4033-0.55478-0.36987-0.36986-0.5548-0.83762-0.55478-1.4033-0.00002-0.58742 0.19579-1.066 0.58741-1.4359 0.34809-0.3481 0.80497-0.52214 1.3706-0.52215z"/>
      </g>
      <g id="text2920-7" style="fill:#008080">
        <path id="path3435" style="" d="m195.49 533.17c-0.00001 0.65271-0.19853 1.1966-0.59557 1.6317-0.39706 0.43514-0.91105 0.6527-1.542 0.65269-0.64181 0.00001-1.1531-0.21755-1.5338-0.65269-0.38074-0.4351-0.57111-0.979-0.5711-1.6317-0.00001-0.64178 0.19036-1.1911 0.5711-1.648 0.38072-0.45686 0.89199-0.6853 1.5338-0.68532 0.6418 0.00002 1.1585 0.22574 1.5501 0.67716 0.3916 0.45146 0.5874 1.0035 0.58741 1.6562zm-0.0653 16.856c0 0.39161-0.005 0.97903-0.0163 1.7622-0.0109 0.78322-0.0163 1.3815-0.0163 1.7949-0.00001 0.41336-0.0707 0.62004-0.21212 0.62004-0.19581 0-0.49768-0.0299-0.9056-0.0897-0.40793-0.0598-0.71524-0.0897-0.92192-0.0897-0.20669 0-0.51127 0.0299-0.91376 0.0897s-0.70163 0.0897-0.89744 0.0897c-0.13053 0-0.1958-0.21212-0.1958-0.63636v-9.7576c0-0.8376 0.33178-2.9208 0.99534-6.2494 0.0326-0.15228 0.0653-0.26106 0.0979-0.32634 0.0544-0.11964 0.13598-0.17947 0.24476-0.17949l1.2401-0.0163c0.11965 0.00002 0.20668 0.19583 0.26107 0.58742 0.087 0.6527 0.29914 1.9418 0.63637 3.8672 0.40248 2.2844 0.60373 5.129 0.60373 8.5338z"/>
        <path id="path3437" style="" d="m219.38 553.42c-0.00002 0.2502-0.16319 0.3753-0.48951 0.3753-0.18495 0-0.4705-0.0163-0.85665-0.0489-0.38619-0.0326-0.67718-0.049-0.87296-0.049-0.2067 0-0.51945 0.0163-0.93823 0.049-0.41883 0.0326-0.73157 0.0489-0.93824 0.0489-0.25021 0-0.37531-0.1251-0.37529-0.3753-0.00002-0.97902 0.0299-2.4476 0.0897-4.4056s0.0897-3.4266 0.0897-4.4056c-0.00002-0.42423-0.12512-0.66899-0.37529-0.73426-0.32636-0.087-2.2083-0.13053-5.6457-0.13054-3.4266 0.00001-5.3085 0.0435-5.6457 0.13054-0.23933 0.0653-0.35898 0.31003-0.35898 0.73426 0 0.95728 0.0272 2.3986 0.0816 4.324s0.0816 3.3668 0.0816 4.324c0 0.35898-0.13598 0.53847-0.40792 0.53847-0.20669 0-0.51672-0.0163-0.93008-0.0489-0.41337-0.0326-0.72339-0.049-0.93007-0.049-0.19581 0-0.4868 0.0163-0.87297 0.049-0.38617 0.0326-0.67716 0.0489-0.87296 0.0489-0.27196 0-0.40793-0.1251-0.40793-0.3753 0-1.1966 0.0571-2.9942 0.17133-5.3928 0.11422-2.3986 0.17133-4.1962 0.17133-5.3928 0-1.2618-0.0571-3.1574-0.17133-5.6865-0.11422-2.5291-0.17133-4.4246-0.17133-5.6865 0-0.23929 0.13597-0.35895 0.40793-0.35897 0.1958 0.00002 0.49495 0.0163 0.89744 0.0489 0.40248 0.0327 0.70707 0.049 0.91375 0.0489 0.19581 0.00002 0.50039-0.0163 0.91376-0.0489 0.41336-0.0326 0.71795-0.0489 0.91376-0.0489 0.25019 0.00002 0.37529 0.0979 0.37529 0.29371 0 0.93553-0.0408 2.3415-0.12238 4.218-0.0816 1.8765-0.12238 3.2825-0.12237 4.218-0.00001 0.3046 0.11421 0.48953 0.34265 0.55478 0.27195 0.0979 2.1865 0.14687 5.7436 0.14686 3.481 0.00001 5.3846-0.0489 5.711-0.14686 0.25018-0.0652 0.37528-0.29913 0.3753-0.70163-0.00002-0.91374-0.0299-2.2898-0.0897-4.1282s-0.0898-3.2144-0.0897-4.1282c-0.00002-0.21754 0.12508-0.32632 0.37529-0.32634 0.20667 0.00002 0.50853 0.0163 0.9056 0.0489 0.39703 0.0327 0.6989 0.049 0.9056 0.0489 0.19578 0.00002 0.48949-0.0163 0.88112-0.0489 0.39159-0.0326 0.6853-0.0489 0.88112-0.0489 0.28281 0.00002 0.42423 0.11968 0.42425 0.35897-0.00002 1.2619-0.0544 3.1574-0.16317 5.6865-0.1088 2.5292-0.16319 4.4247-0.16317 5.6865-0.00002 1.1966 0.0598 2.9942 0.17949 5.3928 0.11963 2.3986 0.17946 4.1962 0.17948 5.3928z"/>
        <path id="path3439" style="" d="m237.51 545.85c-0.00001 2.2735-0.74516 4.2153-2.2354 5.8252-1.5229 1.6643-3.4103 2.4965-5.662 2.4965-2.2626 0-4.1554-0.82673-5.6784-2.4802-1.4903-1.5991-2.2354-3.5354-2.2354-5.8089s0.74515-4.2098 2.2354-5.8089c1.5338-1.6317 3.4266-2.4475 5.6784-2.4476 2.2409 0.00002 4.1228 0.81587 5.6457 2.4476 1.5012 1.5882 2.2518 3.5136 2.2518 5.7762zm-3.4429 0.0326c-0.00002-1.3271-0.40794-2.4584-1.2238-3.394-0.8485-0.98989-1.9254-1.4848-3.2308-1.4848-1.3054 0.00001-2.3877 0.48952-3.2471 1.4685-0.81586 0.9464-1.2238 2.0832-1.2238 3.4103-0.00001 1.3054 0.41336 2.4367 1.2401 3.394 0.87023 1.0117 1.9472 1.5175 3.2308 1.5175 1.2945 0.00001 2.3714-0.50582 3.2308-1.5175 0.81585-0.95726 1.2238-2.0886 1.2238-3.394z"/>
        <path id="path3441" style="" d="m243.95 531.16-0.0163 0.21212c-0.23933 4.0467-0.35898 7.5222-0.35898 10.427 0 1.2945 0.0217 3.2335 0.0653 5.817 0.0435 2.5835 0.0653 4.5171 0.0653 5.8007-0.00001 0.2502-0.087 0.3753-0.26108 0.3753h-3.1166c-0.19581 0-0.29371-0.1251-0.29371-0.3753 0-1.2836 0.0109-3.2172 0.0326-5.8007s0.0326-4.5226 0.0326-5.817c0-1.1748-0.0571-2.9398-0.17133-5.2949-0.11422-2.3551-0.17133-4.1146-0.17133-5.2786 0-0.21754 0.11422-0.32632 0.34266-0.32634 0.1958 0.00002 0.48951 0.0163 0.88112 0.0489 0.39161 0.0327 0.68532 0.049 0.88113 0.0489 0.20668 0.00002 0.51126-0.0163 0.91375-0.0489s0.70163-0.0489 0.89744-0.0489c0.1958 0.00002 0.28827 0.087 0.27739 0.26107z"/>
        <path id="path3443" style="" d="m263.06 539.03c-0.00002 0.0435-0.0163 0.14143-0.049 0.29371-0.42426 2.4911-0.63638 4.6395-0.63637 6.4452-0.00001 0.10879 0.13596 2.5509 0.40793 7.3264l0.0163 0.22844c0.0109 0.31547-0.13328 0.4732-0.4324 0.4732-0.29917 0-0.75061 0.0353-1.3543 0.10606-0.60375 0.0707-1.0525 0.10606-1.3462 0.10606-0.2067 0-0.36443-0.38073-0.4732-1.1422-0.10879-0.76146-0.21213-1.1422-0.31002-1.1422-0.0653 0-0.35899 0.21212-0.88113 0.63636-0.64181 0.52215-1.2401 0.9192-1.7949 1.1912-0.85937 0.43512-1.7187 0.65268-2.5781 0.65268-2.1104 0-3.8889-0.84304-5.3357-2.5291-1.3706-1.61-2.056-3.4864-2.056-5.6294 0-2.4149 0.69076-4.411 2.0723-5.9884 1.4468-1.6426 3.3504-2.4639 5.711-2.4639 1.6643 0.00001 3.1166 0.57655 4.3567 1.7296 0.18491 0.21757 0.47318 0.53304 0.8648 0.94639 0.0326 0.0326 0.0653 0.049 0.0979 0.0489 0.0653 0.00001 0.15772-0.34265 0.2774-1.028 0.11964-0.6853 0.27193-1.028 0.45687-1.028 0.2937 0.00001 0.84304 0.0816 1.648 0.24475 0.89198 0.19582 1.338 0.36987 1.338 0.52215zm-4.1609 6.8205c-0.00001-1.338-0.39706-2.4856-1.1911-3.4429-0.83763-1.0334-1.9091-1.5501-3.2145-1.5501-1.3054 0.00002-2.3932 0.51128-3.2634 1.5338-0.83762 0.97904-1.2564 2.1321-1.2564 3.4592 0 1.3163 0.4188 2.4584 1.2564 3.4266 0.87024 1.0117 1.958 1.5175 3.2634 1.5175 1.2727 0.00001 2.3388-0.5167 3.1982-1.5501 0.80496-0.96814 1.2074-2.0995 1.2075-3.394zm1.289-13.608c-0.16318 0.44602-1.3652 1.2728-3.6061 2.4802-2.1865 1.1857-3.5408 1.7786-4.063 1.7786-0.19581 0.00002-0.36442-0.27193-0.50583-0.81585-0.10879-0.42423-0.16318-0.78321-0.16317-1.0769-0.00001-0.10876 0.10333-0.21211 0.31002-0.31003 1.7949-0.89198 3.655-2.0722 5.5804-3.5408 0.0435-0.0435 0.12508-0.0924 0.24476-0.14685 0.0544 0.0218 0.12508 0.0707 0.21212 0.14685 0.46774 0.39164 1.0715 0.81588 1.8112 1.2727 0.0544 0.0326 0.1142 0.10336 0.17948 0.21212z"/>
        <path id="path3445" style="" d="m298.89 553.19c-0.00002 0.42425-0.12512 0.63637-0.37529 0.63637-0.1632 0-0.41067-0.0163-0.74243-0.0489-0.3318-0.0326-0.58472-0.0489-0.75874-0.0489-0.18496 0-0.46235 0.0109-0.83218 0.0326-0.36987 0.0218-0.64726 0.0326-0.83217 0.0326-0.22846 0-0.34268-0.25564-0.34266-0.76691-0.00002-0.50039 0.019-1.2482 0.0571-2.2436 0.038-0.99533 0.0571-1.7432 0.0571-2.2436-0.00002-2.7521-0.0109-4.2859-0.0326-4.6014-0.087-1.1204-0.31549-1.8928-0.68532-2.317-0.42426-0.45687-1.1803-0.68531-2.2681-0.68532-0.68534 0.00001-1.4577 0.32635-2.317 0.97902-0.89202 0.68533-1.3543 1.3598-1.387 2.0233-0.0435 0.8485-0.0653 2.3986-0.0653 4.6504-0.00002 0.53302 0.0217 1.3326 0.0653 2.3986 0.0435 1.066 0.0652 1.8656 0.0653 2.3986-0.00001 0.29371-0.0979 0.44056-0.2937 0.44056-0.19582 0-0.48137-0.0163-0.85665-0.0489-0.37531-0.0326-0.66086-0.0489-0.85665-0.0489-0.17406 0-0.42969 0.0109-0.7669 0.0326-0.33723 0.0218-0.59287 0.0326-0.7669 0.0326-0.21758 0-0.32636-0.15773-0.32635-0.4732-0.00001-0.52214 0.0163-1.3081 0.0489-2.3578s0.0489-1.8357 0.049-2.3578v-3.9324c-0.00002-1.2292-0.14687-2.1049-0.44057-2.627-0.41337-0.73969-1.202-1.1096-2.366-1.1096-0.68533 0.00001-1.5012 0.28828-2.4476 0.8648-1.0443 0.63094-1.5664 1.2673-1.5664 1.9091v4.7646c0 0.5439 0.005 1.3543 0.0163 2.4312 0.0109 1.0769 0.0163 1.8819 0.0163 2.4149-0.00001 0.31547-0.12511 0.4732-0.3753 0.4732h-3.035c-0.21756 0-0.32634-0.14686-0.32634-0.44056 0-0.88113 0.005-2.2055 0.0163-3.9732 0.0109-1.7677 0.0163-3.0921 0.0163-3.9732-0.00001-1.9907-0.21213-3.9759-0.63637-5.9557-0.0326-0.1414-0.049-0.25562-0.049-0.34266 0-0.1414 0.049-0.22298 0.14685-0.24475 0.40249-0.0435 0.9899-0.12508 1.7622-0.24476 0.35897-0.10876 0.89743-0.22842 1.6154-0.35897l0.13054-0.0163c0.13053 0.00001 0.25291 0.38347 0.36713 1.1504 0.11422 0.76692 0.21484 1.1504 0.30187 1.1504-0.00001 0.00001 0.27194-0.23931 0.81585-0.71795 0.6418-0.55477 1.2836-0.99533 1.9254-1.3217 0.92463-0.47862 1.8493-0.71793 2.7739-0.71795 2.502 0.00002 4.0956 1.0226 4.7809 3.0676 0.67443-0.87023 1.512-1.5882 2.5128-2.1538 1.066-0.60916 2.1212-0.91374 3.1655-0.91376 2.0124 0.00002 3.4048 0.58743 4.1772 1.7622 0.55475 0.87025 0.83214 2.2463 0.83217 4.1282-0.00003 0.35899-0.0109 0.91377-0.0326 1.6643-0.0218 0.7506-0.0327 1.3054-0.0326 1.6644-0.00003 0.68532 0.0163 1.716 0.0489 3.0921s0.0489 2.4068 0.0489 3.0921z"/>
        <path id="path3447" style="" d="m317.26 538.99c-0.00002 0.79411-0.0326 1.9934-0.0979 3.5979s-0.0979 2.8093-0.0979 3.6142c-0.00001 0.7941 0.0245 1.9825 0.0734 3.5653s0.0734 2.7712 0.0734 3.5653c-0.00002 0.21756-0.10336 0.35897-0.31003 0.42424-0.087 0.0218-1.1912 0.0326-3.3124 0.0326-0.13055 0-0.20941-0.40793-0.2366-1.2238-0.0272-0.81586-0.0897-1.2238-0.18764-1.2238-0.0544 0.00001-0.13599 0.049-0.24476 0.14686-1.8166 1.5773-3.6115 2.366-5.3846 2.366-2.404 0-3.9922-0.87025-4.7646-2.6107-0.47864-1.0769-0.71795-3.0132-0.71795-5.8089 0-2.5237 0.20124-4.6612 0.60373-6.4126 0.0979-0.42423 0.27739-0.63635 0.53847-0.63637 0.31546 0.00002 0.78865 0.005 1.4196 0.0163 0.63093 0.0109 1.1041 0.0163 1.4196 0.0163 0.21755 0.00001 0.32634 0.11967 0.32634 0.35897 0 0.42426-0.0707 1.1313-0.21212 2.1212-0.1523 1.0552-0.23388 1.8003-0.24476 2.2354-0.0326 0.65269-0.049 1.3706-0.049 2.1538 0 1.9037 0.13597 3.1818 0.40793 3.8345 0.46775 1.1748 1.5066 1.7622 3.1166 1.7622 0.68531 0 1.4957-0.33722 2.4312-1.0117 0.98989-0.70707 1.5012-1.387 1.5338-2.0396 0.0544-0.81585 0.0816-3.6876 0.0816-8.6154-0.00001-0.53301 0.22299-0.79952 0.669-0.79953h2.6923c0.31545 0.00001 0.47318 0.19038 0.4732 0.5711z"/>
        <path id="path3449" style="" d="m335 553.47c-0.00001 0.23931-0.10879 0.35897-0.32634 0.35897-0.35899 0-0.89473-0.005-1.6072-0.0163-0.71253-0.0109-1.2483-0.0163-1.6072-0.0163-0.19582 0-0.29372-0.15773-0.29371-0.4732-0.00001-0.53302 0.0163-1.3434 0.0489-2.4312s0.0489-1.9037 0.0489-2.4476c-0.00001-0.43512-0.005-1.0851-0.0163-1.9499-0.0109-0.8648-0.0163-1.5148-0.0163-1.9499-0.00002-1.2401-0.1795-2.1158-0.53847-2.6271-0.43513-0.60915-1.2401-0.91374-2.4149-0.91375-0.54391 0.00001-1.2999 0.3046-2.2681 0.91375-1.0226 0.64182-1.5338 1.2129-1.5338 1.7133v9.7902c-0.00001 0.27196-0.10335 0.40793-0.31002 0.40793-0.34811 0-0.87025-0.005-1.5664-0.0163-0.69619-0.0109-1.2183-0.0163-1.5664-0.0163-0.22844 0-0.34266-0.1251-0.34266-0.3753 0-0.85936 0.0136-2.1484 0.0408-3.8672 0.0272-1.7187 0.0408-3.0132 0.0408-3.8835 0-2.317-0.24476-4.4546-0.73427-6.4126-0.0326-0.0979-0.0489-0.1686-0.0489-0.21212 0-0.10877 0.0707-0.18492 0.21212-0.22844 0.0761-0.0109 0.69892-0.11149 1.8683-0.30187 1.1694-0.19035 1.7813-0.28553 1.8357-0.28555 0.0653 0.00002 0.10878 0.087 0.13054 0.26108 0.0544 0.67445 0.17948 1.3543 0.37529 2.0396 0.56565-0.44599 1.3108-1.0008 2.2354-1.6643 1.1422-0.69618 2.2463-1.0443 3.3124-1.0443 2.0451 0.00002 3.4429 0.59287 4.1935 1.7786 0.55476 0.87026 0.83215 2.279 0.83217 4.2261-0.00002 0.33723-0.008 0.85394-0.0245 1.5501-0.0163 0.6962-0.0245 1.2184-0.0245 1.5664-0.00002 0.72884 0.0109 1.8166 0.0326 3.2634s0.0326 2.5346 0.0326 3.2634z"/>
        <path id="path3451" style="" d="m353.8 531.03c-0.00001 1.4033-0.0626 3.5055-0.18764 6.3066-0.12512 2.8011-0.18767 4.8979-0.18765 6.2902-0.00002 4.2968 0.0924 7.5494 0.27739 9.7576l0.0163 0.21212c0.0109 0.10878-0.13599 0.17949-0.44056 0.21212-0.2067 0.0218-0.50041 0.0218-0.88113 0-0.45689-0.0326-0.66901-0.0489-0.63636-0.0489-0.16319 0-0.40251 0.0163-0.71795 0.0489-0.31548 0.0326-0.5548 0.049-0.71796 0.049-0.1523 0-0.24205-0.37802-0.26923-1.134-0.0272-0.75603-0.068-1.1395-0.12238-1.1504-0.0653 0.0326-0.14686 0.10335-0.24475 0.21213-1.4903 1.61-3.2036 2.4149-5.1399 2.4149-2.1974 0-4.0031-0.83761-5.4173-2.5128-1.338-1.5773-2.007-3.481-2.007-5.711 0-2.317 0.67443-4.2642 2.0233-5.8415 1.4141-1.6534 3.258-2.4802 5.5315-2.4802 1.3706 0.00002 2.5672 0.40251 3.5898 1.2075 0.46774 0.4025 0.93006 0.81043 1.387 1.2238 0.087-0.0326 0.13053-0.10877 0.13054-0.22844v-5.2867c-0.00001-0.35895-0.0163-0.90286-0.0489-1.6317-0.0326-0.7288-0.049-1.2782-0.0489-1.648-0.00002-0.26105 0.087-0.39159 0.26107-0.39161 0.40248 0.00002 1.0008-0.0353 1.7949-0.10606 0.79408-0.0707 1.3869-0.10604 1.7786-0.10606 0.18491 0.00002 0.27738 0.11424 0.27739 0.34265zm-4.0793 14.849c-0.00001-1.3054-0.4025-2.453-1.2075-3.4429-0.85938-1.0552-1.9254-1.5827-3.1982-1.5828-1.338 0.00002-2.4421 0.52216-3.3124 1.5664-0.82674 0.97904-1.2401 2.1539-1.2401 3.5245-0.00001 1.3054 0.42968 2.4421 1.289 3.4103 0.88111 1.0225 1.9689 1.5338 3.2634 1.5338 1.3054 0 2.3823-0.51671 3.2308-1.5501 0.78321-0.96814 1.1748-2.1212 1.1748-3.4592z"/>
        <path id="path3453" style="" d="m371.5 545.85c-0.00002 2.2735-0.74516 4.2153-2.2354 5.8252-1.5229 1.6643-3.4103 2.4965-5.662 2.4965-2.2626 0-4.1554-0.82673-5.6784-2.4802-1.4903-1.5991-2.2354-3.5354-2.2354-5.8089s0.74514-4.2098 2.2354-5.8089c1.5338-1.6317 3.4266-2.4475 5.6784-2.4476 2.2409 0.00002 4.1228 0.81587 5.6457 2.4476 1.5012 1.5882 2.2517 3.5136 2.2518 5.7762zm-3.4429 0.0326c-0.00001-1.3271-0.40794-2.4584-1.2238-3.394-0.8485-0.98989-1.9254-1.4848-3.2308-1.4848-1.3054 0.00001-2.3877 0.48952-3.2471 1.4685-0.81586 0.9464-1.2238 2.0832-1.2238 3.4103 0 1.3054 0.41337 2.4367 1.2401 3.394 0.87024 1.0117 1.9472 1.5175 3.2308 1.5175 1.2945 0.00001 2.3714-0.50582 3.2308-1.5175 0.81584-0.95726 1.2238-2.0886 1.2238-3.394z"/>
        <path id="path3455" style="" d="m378.24 535.04c-0.00001 2.7522-0.20125 5.2704-0.60373 7.5548-0.16318 0.85938-0.3753 2.1484-0.63637 3.8672-0.0435 0.42425-0.33179 0.63638-0.86481 0.63637-0.30459 0.00001-0.51671-0.0217-0.63636-0.0653-0.17406-0.0544-0.28827-0.21755-0.34266-0.48951-0.66357-3.2634-0.99535-5.3466-0.99534-6.2494v-8.7949c-0.00001-0.42422 0.0653-0.63634 0.1958-0.63637 0.1958 0.00003 0.49495 0.0272 0.89744 0.0816s0.70707 0.0816 0.91376 0.0816c0.20668 0.00003 0.51398-0.0272 0.92191-0.0816s0.70979-0.0816 0.9056-0.0816c0.14141 0.00003 0.21212 0.20399 0.21212 0.61189 0 0.40795 0.005 1.0062 0.0163 1.7949 0.0109 0.78868 0.0163 1.3788 0.0163 1.7704zm0.0653 16.839c-0.00001 0.65268-0.19581 1.2075-0.58742 1.6643-0.39161 0.45688-0.90832 0.68532-1.5501 0.68532-0.64181 0-1.1585-0.23932-1.5501-0.71795-0.36985-0.43512-0.55478-0.97903-0.55478-1.6317 0-0.64181 0.19037-1.1803 0.5711-1.6154 0.38073-0.43512 0.892-0.65268 1.5338-0.65269 0.63092 0.00001 1.1449 0.21757 1.542 0.65269 0.39705 0.43512 0.59557 0.97358 0.59558 1.6154z"/>
      </g>
    </g>
  </g>
  <metadata>
    <rdf:RDF>
      <cc:Work>
        <dc:format>image/svg+xml</dc:format>
        <dc:type rdf:resource="http://purl.org/dc/dcmitype/StillImage"/>
        <cc:license rdf:resource="http://creativecommons.org/licenses/publicdomain/"/>
        <dc:publisher>
          <cc:Agent rdf:about="http://openclipart.org/">
            <dc:title>Openclipart</dc:title>
          </cc:Agent>
        </dc:publisher>
        <dc:title>Hello, World In Several Languages</dc:title>
        <dc:date>2012-08-21T16:08:02</dc:date>
        <dc:description>"Hello, World!" in several languages. The text is converted to paths in the main portion, but is available in text format off-screen.</dc:description>
        <dc:source>https://openclipart.org/detail/171842/hello-world-in-several-languages-by-jobrad-171842</dc:source>
        <dc:creator>
          <cc:Agent>
            <dc:title>JoBrad</dc:title>
          </cc:Agent>
        </dc:creator>
        <dc:subject>
          <rdf:Bag>
            <rdf:li>Hello</rdf:li>
            <rdf:li>global</rdf:li>
            <rdf:li>greeting</rdf:li>
            <rdf:li>international</rdf:li>
            <rdf:li>language</rdf:li>
            <rdf:li>welcome</rdf:li>
            <rdf:li>world</rdf:li>
          </rdf:Bag>
        </dc:subject>
      </cc:Work>
      <cc:License rdf:about="http://creativecommons.org/licenses/publicdomain/">
        <cc:permits rdf:resource="http://creativecommons.org/ns#Reproduction"/>
        <cc:permits rdf:resource="http://creativecommons.org/ns#Distribution"/>
        <cc:permits rdf:resource="http://creativecommons.org/ns#DerivativeWorks"/>
      </cc:License>
    </rdf:RDF>
  </metadata>
</svg>