<?xml version="1.0" encoding="UTF-8" standalone="no"?>
<!--part of the matt icon theme by sixsixfive released under CC0 (https://creativecommons.org/publicdomain/zero/1.0/) on openclipart-->
<svg xmlns="http://www.w3.org/2000/svg" xmlns:xlink="http://www.w3.org/1999/xlink" viewBox="0 0 128 128">
 <defs id="0">
  <linearGradient id="2">
   <stop id="N" stop-color="#fff"/>
   <stop offset="1" id="O" stop-color="#fff" stop-opacity="0"/>
  </linearGradient>
  <linearGradient id="3">
   <stop id="P" stop-color="#161616"/>
   <stop offset="1" id="Q" stop-color="#323232"/>
  </linearGradient>
  <linearGradient id="4">
   <stop id="R" stop-color="#555"/>
   <stop offset="1" id="S" stop-color="#434343"/>
  </linearGradient>
  <linearGradient id="5">
   <stop id="T" stop-color="#005bba"/>
   <stop offset="1" id="U" stop-color="#00438a"/>
  </linearGradient>
  <linearGradient id="6">
   <stop id="V"/>
   <stop offset="1" id="W" stop-opacity="0"/>
  </linearGradient>
  <linearGradient id="7">
   <stop id="X" stop-color="#eee"/>
   <stop offset="1" id="Y" stop-color="#dcdcdc"/>
  </linearGradient>
  <linearGradient id="8">
   <stop id="Z" stop-color="#cc0700"/>
   <stop offset="1" id="a" stop-color="#af0600"/>
  </linearGradient>
  <radialGradient xlink:href="#8" gradientUnits="userSpaceOnUse" gradientTransform="matrix(-1,0.98562623,-0.99999987,-0.98562638,147.08467,-25.868967)" r="56.734" cy="23.325" cx="58.4" id="9"/>
  <radialGradient xlink:href="#7" gradientUnits="userSpaceOnUse" gradientTransform="matrix(-1.404511,1.1888571,-0.99999995,-1.1813958,199.01878,10.32822)" r="15.03" cy="51.39" cx="60.05" id="A"/>
  <radialGradient xlink:href="#6" gradientUnits="userSpaceOnUse" gradientTransform="matrix(1,0,0,0.08641975,0,107.20963)" r="53.91" cy="117.35" cx="63.894" id="B"/>
  <radialGradient xlink:href="#7" r="15.03" cy="51.39" cx="60.05" gradientTransform="matrix(-1.404511,1.1888571,-0.99999995,-1.1813958,199.73811,11.750541)" gradientUnits="userSpaceOnUse" id="C"/>
  <radialGradient xlink:href="#3" id="D" cx="24.1" cy="95.22" r="20.2" gradientTransform="matrix(-2.19786,1.1857652,-1.3214521,-2.4493602,242.79307,244.01592)" gradientUnits="userSpaceOnUse"/>
  <radialGradient xlink:href="#3" r="20.2" cy="90.87" cx="26.716" gradientTransform="matrix(-2.19786,1.1857652,-1.3214521,-2.4493602,242.79307,244.01592)" gradientUnits="userSpaceOnUse" id="E"/>
  <radialGradient xlink:href="#2" id="F" cx="65.36" cy="-14.606" r="54.907" gradientTransform="matrix(1,0,0,0.9849178,0,0.9746895)" gradientUnits="userSpaceOnUse"/>
  <linearGradient xlink:href="#7" id="G" y1="6.759" x2="0" y2="122.49" gradientUnits="userSpaceOnUse"/>
 </defs>
 <g id="1">
  <path id="H" d="m 117.80366,117.35108 a 53.910149,4.6589017 0 1 1 -107.8202997,0 53.910149,4.6589017 0 1 1 107.8202997,0 z" transform="translate(1.2996963,3.4536055)" opacity="0.443" fill="url(#B)"/>
  <path id="I" d="m 122.08898,64.625572 a 56.734097,55.918617 0 1 1 -113.4681952,0 56.734097,55.918617 0 1 1 113.4681952,0 z" transform="matrix(1.0119373,0,0,1.0266947,-2.1350421,-4.4029736)" fill="url(#9)"/>
  <path transform="matrix(1.0119373,0,0,1.0266947,-2.1350421,-4.4029736)" d="m 122.08898,64.625572 a 56.734097,55.918617 0 1 1 -113.4681952,0 56.734097,55.918617 0 1 1 113.4681952,0 z" id="J" fill="url(#G)" stroke="#d5d5d5" stroke-width="3.924"/>
  <path id="K" d="m 64,29.3125 c -9.938148,0 -18,8.280201 -18,18.34375 0,6.611138 3.576007,12.274366 8.78125,15.5 l -0.65625,2.3125 -7.15625,25.625 a 2.7435805,2.7435805 0 0 0 2.65625,3.5 L 64,94.53125 78.34375,94.46875 A 2.7435805,2.7435805 0 0 0 81,90.96875 L 73.8125,65.4375 a 2.7435805,2.7435805 0 0 0 -0.03125,0 l -0.625,-2.21875 C 78.404251,60.000845 82,54.301011 82,47.65625 82,37.592701 73.938148,29.3125 64,29.3125 z" opacity="0.51" fill="#bbb"/>
  <path d="m 63.988209,32.056553 c -8.422567,0 -15.234495,6.974248 -15.234495,15.588237 0,6.42258 3.798527,11.947517 9.220879,14.338347 L 56.795452,66.228043 49.626278,91.83897 63.988209,91.76826 78.35014,91.72109 71.157382,66.18091 69.978242,62.006754 c 5.447967,-2.379406 9.268044,-7.920434 9.268044,-14.361969 0,-8.613989 -6.83551,-15.588237 -15.258077,-15.588237 z" id="L" fill="url(#E)"/>
  <path id="M" d="M 65.34375,11.625 C 35.57842,11.625 11.53125,35.355231 11.53125,64.625 C 11.53125,93.894769 35.57842,117.625 65.34375,117.625 C 95.10908,117.625 119.1875,93.892804 119.1875,64.625 C 119.1875,35.357196 95.10908,11.625 65.34375,11.625 z" transform="matrix(1.0119373,0,0,1.0266947,-2.1350421,-4.4029736)" fill="none" stroke="url(#F)" stroke-width="2.158"/>
 </g>
</svg>
