<?xml version="1.0" encoding="UTF-8"?>
<svg id="Layer_1" data-name="Layer 1" xmlns="http://www.w3.org/2000/svg" viewBox="0 0 367.04 395.64">
  <defs>
    <style>
      .cls-1 {
        fill: none;
      }

      .cls-1, .cls-2, .cls-3, .cls-4, .cls-5 {
        stroke: #414042;
        stroke-miterlimit: 10;
      }

      .cls-1, .cls-4, .cls-5 {
        stroke-width: 3px;
      }

      .cls-2 {
        fill: #6d6e71;
        stroke-width: 10px;
      }

      .cls-3 {
        fill: #414042;
        stroke-width: 8px;
      }

      .cls-6 {
        font-family: ArialRoundedMTBold, 'Arial Rounded MT Bold';
        font-size: 36px;
      }

      .cls-7 {
        letter-spacing: -.05em;
      }

      .cls-4 {
        fill: #939598;
      }

      .cls-5 {
        fill: #fff;
      }
    </style>
  </defs>
  <rect class="cls-2" x="5" y="134.6" width="357.04" height="201.41"/>
  <rect class="cls-3" x="5" y="78.96" width="8.46" height="40.85"/>
  <rect class="cls-3" x="276.12" y="78.96" width="8.46" height="40.85"/>
  <rect class="cls-3" x="314.85" y="78.96" width="8.46" height="40.85"/>
  <rect class="cls-3" x="353.58" y="78.96" width="8.46" height="40.85"/>
  <rect class="cls-3" x="5" y="350.8" width="8.46" height="40.85"/>
  <rect class="cls-3" x="43.73" y="350.8" width="8.46" height="40.85"/>
  <rect class="cls-3" x="82.46" y="350.8" width="8.46" height="40.85"/>
  <rect class="cls-3" x="121.19" y="350.8" width="8.46" height="40.85"/>
  <rect class="cls-3" x="159.92" y="350.8" width="8.46" height="40.85"/>
  <rect class="cls-3" x="198.65" y="350.8" width="8.46" height="40.85"/>
  <rect class="cls-3" x="237.38" y="350.8" width="8.46" height="40.85"/>
  <rect class="cls-3" x="276.12" y="350.8" width="8.46" height="40.85"/>
  <rect class="cls-3" x="314.85" y="350.8" width="8.46" height="40.85"/>
  <rect class="cls-3" x="353.58" y="350.8" width="8.46" height="40.85"/>
  <polygon class="cls-5" points="260.98 309.95 28.6 309.95 28.6 1.5 214.17 1.5 237.38 21.92 260.98 43.05 260.98 309.95"/>
  <polyline class="cls-1" points="260.98 43.05 213.46 45.16 214.17 1.5"/>
  <line class="cls-1" x1="57.12" y1="44.11" x2="193.73" y2="44.11"/>
  <line class="cls-1" x1="57.83" y1="78.96" x2="191.63" y2="78.96"/>
  <line class="cls-1" x1="57.83" y1="115.58" x2="233.18" y2="115.58"/>
  <line class="cls-1" x1="57.83" y1="151.5" x2="233.18" y2="151.5"/>
  <rect class="cls-4" x="57.83" y="197.56" width="203.15" height="65.21"/>
  <text class="cls-6" transform="translate(78.96 242.56)"><tspan x="0" y="0">MEM</tspan><tspan class="cls-7" x="83.99" y="0">L</tspan><tspan x="103.94" y="0">OG</tspan></text>
</svg>