<svg xmlns="http://www.w3.org/2000/svg" viewBox="0 0 426 426"><defs><style>.cls-1{fill:#fcfcfc;}.cls-2{fill:#232d49;}.cls-3{fill:#fefefe;}.cls-4{fill:#fdfdfd;}.cls-5{fill:#a4d4d6;}.cls-6{fill:#a6d5d7;}.cls-7{fill:#fa2021;}.cls-8{fill:#fa2122;}.cls-9{fill:#f9191a;}.cls-10{fill:#fa1e1f;}.cls-11{fill:#fa1d1e;}.cls-12{fill:#f92222;}.cls-13{fill:#fa2a2b;}.cls-14{fill:#fa2324;}.cls-15{fill:#fcb9b8;}.cls-16{fill:#fcdcdb;}.cls-17{fill:#fdd7d6;}.cls-18{fill:#e45765;}.cls-19{fill:#262f4b;}.cls-20{fill:#fdcdce;}.cls-21{fill:#f6f7f7;}.cls-22{fill:#2e3b59;}.cls-23{fill:#8b93a3;}</style></defs><title>Element 1</title><g id="Ebene_2" data-name="Ebene 2"><g id="Ebene_1-2" data-name="Ebene 1"><path class="cls-1" d="M427,427H1V1H427ZM102,14c-1.22.5-1.9.86-2.64,1.07-3.27,1-4.72,4-6.12,6.42C92.06,23.68,92,26.74,92,29.42Q92,213.36,92,397.3a15.91,15.91,0,0,0,1.62,7.84,10.91,10.91,0,0,1,.68,2.63c1.35,1.35,2.58,2.74,4,3.92a9.34,9.34,0,0,0,3.55,2.23,36.65,36.65,0,0,0,8.06,1q97.22.08,194.43.07a16,16,0,0,0,7.84-1.61,10,10,0,0,1,2.49-.56c5.09-4.64,7.48-10.38,7.47-17.7q-.2-179.94,0-359.88c0-4.11-1-8-1.24-12.07a8.79,8.79,0,0,0-3-5.63,14.8,14.8,0,0,0-9.47-3.63C239.42,14,170.45,14,102,14Z" transform="translate(-1 -1)"/><path class="cls-2" d="M102,14c68.4,0,137.37,0,206.35-.05a14.8,14.8,0,0,1,9.47,3.63,8.79,8.79,0,0,1,3,5.63c.27,4,1.24,8,1.24,12.07q-.16,179.94,0,359.88c0,7.32-2.38,13.05-7.47,17.7a10,10,0,0,0-2.49.56,16,16,0,0,1-7.84,1.61q-97.22,0-194.43-.07a36.65,36.65,0,0,1-8.06-1,9.34,9.34,0,0,1-3.55-2.23c-1.39-1.18-2.62-2.56-4-3.92a10.91,10.91,0,0,0-.68-2.63A15.91,15.91,0,0,1,92,397.3Q92,213.36,92,29.42c0-2.68,0-5.75,1.25-7.93C94.69,19,96.14,16,99.41,15.07,100.14,14.86,100.83,14.5,102,14Zm12,7H100.16c-.77,19.93-.44,336.4.34,341H313.84c.77-19.92.44-336.4-.34-341H114ZM313.92,369.15H100.1v31.74l4.4,3H309.64l4.28-3.22Z" transform="translate(-1 -1)"/><path class="cls-3" d="M300,362H114V21H300ZM187,327v-1.86l-6-.34v-.69h7l-.14-3H177.23v10.71H188a24,24,0,0,0-.23-2.49c0-.16-.53-.24-.81-.36Zm-19-3c.33.26.94.51,1,.78.08,2,0,3.91,0,5.64,1.39,2.13,3.13,1.67,4.76,1.38V320.71L168,322c-1.27-2-3.15-.42-5.14-1.37.43,2.48-.06,4-2.43,4.47l-2.58-3.87h-5.22l5.48,10.56h4.77C164.79,329.16,165.54,326,168,324Zm33,9v-2c1.86-.43.86-1.71.8-2.85H191.45l.78.7-3.64,1.7,1.73,4.38c2.59.27,5.13-.21,7.57,1.06h-8.8v2.86h10.35l2.51-1.29A5.8,5.8,0,0,0,201,333Zm-11-9c-1.86.43-.86,1.71-.8,2.85h10.33l2.46-2.32v-3l-1.42-1.42c-2.48-.26-5,.22-7.46-1.05h8.8v-2.86h-11.5c-1.37,3-1.37,3-.41,6.84Zm43.42,7.79L228,321.2h-4.7c-1.48,3.47-2.19,7.06-5.17,9.52-.33-3.27.18-6.54-.28-9.55h-5.5l-1.82,3.89-1.43-4h-5.93v9.53l1.2,1.2h2.49l.46-4.3,2.26,4.48c2.89-.56,2.88-.56,3.5-3.55,0-.14.43-.2,1-.44v3.83h8.65l1.55-1.68h3.53l.45,1.6Zm.73-.06h4v-3.8l3.65,3.87h4.06V321.2h-3.76l-.44,4.39-3.34-4.48h-4.21Zm14.93.1h3.78l.36-5.18c.86,1.31,1.45,2.23,2.06,3.13s1.29,1.89,1.45,2.12h4.09V321.1H257v4.64l-3.63-4.56h-4.25Z" transform="translate(-1 -1)"/><path class="cls-4" d="M313.92,369.15v31.57l-4.28,3.22H104.5l-4.4-3V369.15Zm-111.1,24.77V380.15c-15.77-.61-45.6-.38-49.65.33v13.44ZM133.15,399a15.92,15.92,0,0,0,7.85-7.85c-.32-4.3,1-9.09-3.32-13.21-4.13-3.94-8.73-2.54-12.19-2.87-4.33,1.67-6.66,4.24-8.49,8.3,0,1.38,0,3.7,0,6,.09,4.51,5.12,9.52,9.64,9.61C129,399,131.28,399,133.15,399Z" transform="translate(-1 -1)"/><path class="cls-5" d="M300,362V21h13.5c.78,4.6,1.11,321.08.34,341Z" transform="translate(-1 -1)"/><path class="cls-6" d="M114,21V362H100.5c-.78-4.6-1.11-321.07-.34-341Z" transform="translate(-1 -1)"/><path class="cls-7" d="M233.42,331.79h-5.15l-.45-1.6h-3.53l-1.55,1.68h-8.65V328c-.6.25-1,.31-1,.44-.62,3-.61,3-3.5,3.55l-2.26-4.48-.46,4.3h-2.49l-1.2-1.2v-9.53h5.93l1.43,4,1.82-3.89h5.5c.47,3,0,6.28.28,9.55,3-2.46,3.7-6.05,5.17-9.52H228Zm-8.05-7.56c-.16,2.71-.16,2.71.88,2.46Z" transform="translate(-1 -1)"/><path class="cls-8" d="M190,323c-1-3.83-1-3.83.41-6.84h11.5V319h-8.8c2.44,1.27,5,.79,7.46,1.05l1.42,1.42v3l-2.46,2.32H189.2c-.06-1.15-1.06-2.42.8-2.85,2.61-.18,5.29.35,7.84-1Z" transform="translate(-1 -1)"/><path class="cls-9" d="M201,333a5.8,5.8,0,0,1,.95,4.55l-2.51,1.29H189.09V336h8.8c-2.44-1.27-5-.79-7.57-1.06l-1.73-4.38,3.64-1.7-.78-.7H201.8c.06,1.15,1.06,2.42-.8,2.85-2.62.14-5.29-.29-7.89.63a24.76,24.76,0,0,0,3.84.4A37.19,37.19,0,0,1,201,333Z" transform="translate(-1 -1)"/><path class="cls-10" d="M234.15,331.72V321.1h4.21l3.34,4.48.44-4.39h3.76v10.6h-4.06l-3.65-3.87v3.8Z" transform="translate(-1 -1)"/><path class="cls-11" d="M249.08,331.83V321.18h4.25l3.63,4.56V321.1h3.86v10.79h-4.09c-.16-.23-.81-1.17-1.45-2.12s-1.19-1.81-2.06-3.13l-.36,5.18Z" transform="translate(-1 -1)"/><path class="cls-12" d="M168,324c-2.46,2-3.21,5.16-5.12,7.79h-4.77l-5.48-10.56h5.22l2.58,3.87c2.37-.42,2.86-2,2.43-4.47,2,.95,3.87-.64,5.14,1.37Z" transform="translate(-1 -1)"/><path class="cls-13" d="M187,329c.28.12.78.19.81.36a24,24,0,0,1,.23,2.49H177.23V321.14H187.9l.14,3h-7v.69l6,.34V327h-5.91v2Z" transform="translate(-1 -1)"/><path class="cls-14" d="M168,324v-2l5.76-1.29v11.09c-1.62.29-3.36.75-4.76-1.38,0-1.73,0-3.69,0-5.64C168.94,324.51,168.33,324.26,168,324Z" transform="translate(-1 -1)"/><path class="cls-15" d="M187,329h-5.91v-2H187Z" transform="translate(-1 -1)"/><path class="cls-16" d="M201,333a37.19,37.19,0,0,0-4-1,24.76,24.76,0,0,1-3.84-.4c2.59-.92,5.26-.49,7.89-.63Z" transform="translate(-1 -1)"/><path class="cls-17" d="M190,323h7.84c-2.55,1.35-5.23.82-7.84,1Z" transform="translate(-1 -1)"/><path class="cls-18" d="M202.82,393.92H153.18V380.49c4-.72,33.88-.94,49.65-.33Z" transform="translate(-1 -1)"/><path class="cls-19" d="M133.15,399c-1.87,0-4.18,0-6.5,0-4.53-.09-9.55-5.1-9.64-9.61,0-2.32,0-4.64,0-6,1.83-4.06,4.16-6.64,8.49-8.3,3.46.33,8.06-1.06,12.19,2.87,4.32,4.12,3,8.91,3.32,13.21A15.92,15.92,0,0,1,133.15,399Zm3.74-8.38c.61-5,.09-9.42-6.4-11.75-6.24-1-10.67,4-9.71,9.16,2.42,7.07,6.93,7.43,11.87,6.83Z" transform="translate(-1 -1)"/><path class="cls-20" d="M225.37,324.22l.88,2.46C225.21,326.94,225.21,326.94,225.37,324.22Z" transform="translate(-1 -1)"/><path class="cls-21" d="M136.88,390.62l-4.24,4.24c-4.94.6-9.45.24-11.87-6.83-1-5.17,3.47-10.15,9.71-9.16C137,381.2,137.49,385.65,136.88,390.62ZM130,387v-4.91h-2c0,1.68,0,3.3,0,4.91l-1.35,2.58,1.86,1.74C131.29,389.06,131.29,389.06,130,387Z" transform="translate(-1 -1)"/><path class="cls-22" d="M130,387c1.29,2.06,1.29,2.06-1.49,4.32l-1.86-1.74L128,387Z" transform="translate(-1 -1)"/><path class="cls-23" d="M130,387h-2v-4.91h2Z" transform="translate(-1 -1)"/></g></g></svg>