<?xml version="1.0" encoding="UTF-8"?>
<svg xmlns:rdf="http://www.w3.org/1999/02/22-rdf-syntax-ns#" xmlns="http://www.w3.org/2000/svg" xmlns:cc="http://creativecommons.org/ns#" xmlns:xlink="http://www.w3.org/1999/xlink" xmlns:dc="http://purl.org/dc/elements/1.1/" xmlns:svg="http://www.w3.org/2000/svg" xmlns:inkscape="http://www.inkscape.org/namespaces/inkscape" xmlns:sodipodi="http://sodipodi.sourceforge.net/DTD/sodipodi-0.dtd" xmlns:ns1="http://sozi.baierouge.fr" id="svg11525" xml:space="preserve" viewBox="0 0 146.90613 177.64208" version="1.1"><defs id="defs182"><linearGradient id="linearGradient10691"><stop id="stop10693" offset="0"/><stop id="stop10695" stop-opacity="0" offset="1"/></linearGradient><filter id="filter14190" color-interpolation-filters="sRGB"><feGaussianBlur id="feGaussianBlur14192" stdDeviation="0.78891781"/></filter><linearGradient id="linearGradient6602"><stop id="stop6604" stop-color="#fff" offset="0"/><stop id="stop6606" stop-color="#fff" stop-opacity="0" offset="1"/></linearGradient><linearGradient id="linearGradient8090"><stop id="stop8092" stop-color="#214e90" offset="0"/><stop id="stop8094" stop-color="#0d1f3a" offset="1"/></linearGradient><radialGradient id="radialGradient35696" cx="16.537" xlink:href="#linearGradient10691" gradientUnits="userSpaceOnUse" cy="31.564" r="16.336"/><radialGradient id="radialGradient35702" gradientUnits="userSpaceOnUse" cy="11.03" cx="26.443" gradientTransform="matrix(1.0416 -.012649 .010503 .84763 -.93296 3.4556)" r="15.5"><stop id="stop8920" stop-color="#abe14b" offset="0"/><stop id="stop8922" stop-color="#8cb029" offset="1"/></radialGradient><linearGradient id="linearGradient35735" x1="12.938" gradientUnits="userSpaceOnUse" y1="8.4375" gradientTransform="matrix(1.3295 0 0 1.4625 57.163 119.41)" x2="15.25" y2="19.812"><stop id="stop6594" stop-color="#fff" stop-opacity=".27451" offset="0"/><stop id="stop6596" stop-color="#fff" stop-opacity="0" offset="1"/></linearGradient><radialGradient id="radialGradient35743" xlink:href="#linearGradient6602" gradientUnits="userSpaceOnUse" cy="-.64647" cx="5.9688" gradientTransform="matrix(2.0242 -.010504 .0035088 .69990 53.941 129.27)" r="20"/><radialGradient id="radialGradient35746" gradientUnits="userSpaceOnUse" cy="-2.0645" cx="26.617" gradientTransform="matrix(-2.168e-8 -.96528 1.6648 0 103.35 171.43)" r="23"><stop id="stop2749" stop-color="#d78ec1" offset="0"/><stop id="stop2751" stop-color="#c564be" offset=".26238"/><stop id="stop2753" stop-color="#9d3ea4" offset=".66094"/><stop id="stop2755" stop-color="#5e2c73" offset="1"/></radialGradient><linearGradient id="linearGradient35748" x1="10.014" gradientUnits="userSpaceOnUse" y1="44.96" gradientTransform="matrix(1.1413 0 0 .81838 61.698 122.29)" x2="10.014" y2="2.8765"><stop id="stop2759" stop-color="#650d5c" offset="0"/><stop id="stop2761" stop-color="#ad53a5" offset="1"/></linearGradient><linearGradient id="linearGradient35751" x1="20.147" gradientUnits="userSpaceOnUse" y1="-.0004971" gradientTransform="matrix(1.3175 0 0 1.3524 57.45 120.11)" x2="20.104" y2="31.983"><stop id="stop6546" stop-color="#f0f0f0" offset="0"/><stop id="stop6548" stop-color="#d2d2d2" offset="1"/></linearGradient><radialGradient id="radialGradient35754" xlink:href="#linearGradient6602" gradientUnits="userSpaceOnUse" cy="38.641" cx="24" gradientTransform="matrix(2.2793 -6.2701e-8 0 .87380 34.369 139.89)" r="8"/><linearGradient id="linearGradient35757" x1="321.58" gradientUnits="userSpaceOnUse" y1="86.05" gradientTransform="matrix(1.2864 0 0 1.5343 -322.61 29.662)" x2="321.58" y2="95.149"><stop id="stop4924" stop-color="#787878" offset="0"/><stop id="stop4926" stop-color="#bebebe" offset=".33634"/><stop id="stop4928" stop-color="#c8c8c8" offset=".39214"/><stop id="stop4930" stop-color="#e6e6e6" offset=".50538"/><stop id="stop4932" stop-color="#8c8c8c" offset="1"/></linearGradient><linearGradient id="linearGradient35759" x1="22.452" gradientUnits="userSpaceOnUse" y1="30.05" gradientTransform="matrix(1.291 0 0 1.5341 58.091 115.59)" x2="22.452" y2="39.15"><stop id="stop4912" stop-color="#3c3c3c" offset="0"/><stop id="stop4914" stop-color="#8c8c8c" offset=".30637"/><stop id="stop4916" stop-color="#969696" offset=".37094"/><stop id="stop4918" stop-color="#bebebe" offset=".49883"/><stop id="stop4920" stop-color="#5a5a5a" offset="1"/></linearGradient><linearGradient id="linearGradient35762" x1="43.223" xlink:href="#linearGradient6602" gradientUnits="userSpaceOnUse" y1="26.509" gradientTransform="matrix(2.0174 0 0 2.0003 51.802 85.571)" x2="39.48" y2="24.55"/><linearGradient id="linearGradient35766" x1="43.774" gradientUnits="userSpaceOnUse" y1="27.865" gradientTransform="matrix(1.9396 0 0 1.6419 53.268 93.808)" x2="39.727" y2="25.092"><stop id="stop13132" stop-color="#616161" offset="0"/><stop id="stop13134" stop-opacity="0" offset="1"/></linearGradient><linearGradient id="linearGradient35771" x1="46.224" gradientUnits="userSpaceOnUse" y1="41.508" gradientTransform="matrix(1.9943 0 0 1.9943 53.174 85.905)" x2="46.164" y2="29.439"><stop id="stop3698" stop-color="#969696" offset="0"/><stop id="stop3700" stop-color="#505050" offset="1"/></linearGradient><linearGradient id="linearGradient35774" x1="136.31" gradientUnits="userSpaceOnUse" y1="29.457" gradientTransform="matrix(2.0611 0 0 2.0003 -156.49 84.816)" x2="147.19" y2="29.457"><stop id="stop3857" stop-color="#f5f5f5" offset="0"/><stop id="stop3859" stop-color="#dcdcdc" offset=".55556"/><stop id="stop3861" stop-color="#a0a0a0" offset=".55556"/><stop id="stop3863" stop-color="#bebebe" offset="1"/></linearGradient><linearGradient id="linearGradient35778" x1="139.81" xlink:href="#linearGradient8090" gradientUnits="userSpaceOnUse" y1="26.582" gradientTransform="matrix(2.2643 .76322 -.76080 2.2571 -167.04 -29.8)" x2="137.04" y2="26.142"/><linearGradient id="linearGradient35780" x1="135.06" xlink:href="#linearGradient8090" gradientUnits="userSpaceOnUse" y1="25.485" gradientTransform="matrix(2.2643 .76322 -.76080 2.2571 -167.04 -29.8)" x2="151.51" y2="24.782"/><linearGradient id="linearGradient35783" x1="29.5" xlink:href="#linearGradient6602" gradientUnits="userSpaceOnUse" y1="-1.773" gradientTransform="matrix(1.9943 0 0 1.9943 53.174 85.905)" x2="29.5" y2="31.525"/><radialGradient id="radialGradient35788" xlink:href="#linearGradient10691" gradientUnits="userSpaceOnUse" cy="73.616" cx="6.7027" gradientTransform="matrix(2.2133 0 0 .55595 74.238 132.7)" r="7.2284"/><radialGradient id="radialGradient35791" gradientUnits="userSpaceOnUse" cy="-8.7256" cx="62.2" gradientTransform="matrix(3.8695 0 0 3.8695 -128.68 138.58)" r="9.7553"><stop id="stop8649" stop-color="#8fb1dc" offset="0"/><stop id="stop8651" stop-color="#3465a4" offset="1"/></radialGradient></defs>
<g id="g35833"><g id="layer1-3-5-2" transform="matrix(.61892 0 0 .61892 436.6 -709.51)">
	<g id="g10-5-2" transform="matrix(.0423 0 0 .0423 319.39 59.128)">
		<g id="g12-4-2">
			<g id="g14-64-0">
				<path id="path16-1-5" d="m-19904 26090c55.986 91.803 38.068 4472.7-34.699 4645.1-57.115 136.58-1906.6 1673.8-2002.9 1714-1250.6-7.805-2093.6-463.49-2233.5-704.19-53.746-302.3-7.85-4963 42.525-5060.4 44.787-85.086 2410.4-932.59 2493.3-952.75 75.009-16.795 1671.5 256.38 1735.3 358.26z" fill="#c7c7c7"/>
			</g>
			<g id="g18-6-5">
				<path id="path20-8-2" d="m-19928 26105 2.242-1.121-2.242 2.24c0-1.119-1.105-1.119-1.105-1.119v-2.24l7.824-3.359-2.238 2.24-5.586 1.119 5.586-1.119-2.238 2.238-2.243 1.121zm2.242-1.121 2.238-2.238 2.238-2.24 5.611-2.24-5.611 4.48 5.611-4.48h1.107l-6.719 3.359v1.121-1.121l-4.475 3.359zm11.195-6.719h-1.107 1.107-1.107l12.305-6.717-11.197 5.598v1.119zm12.305-4.477-12.305 4.477v-1.119l12.305-3.358zm22.394-16.796c-2.238-3.359-4.479-6.719-7.826-10.078-2.24-3.359-5.611-5.598-8.959-7.836-5.609-4.469-13.434-8.947-22.393-13.426-7.826-4.479-16.783-7.838-26.873-12.316-10.066-4.48-21.262-7.838-33.59-12.316-23.504-8.957-52.615-17.916-83.967-26.873-32.459-8.959-68.291-17.916-106.36-27.994-152.25-38.057-350.41-80.605-553.06-118.66-202.63-39.189-407.52-73.898-572.09-100.76-81.727-12.316-154.52-23.512-211.61-30.23-27.98-3.359-52.613-6.719-72.77-8.957-10.066-1.121-19.023-1.121-26.871-2.242-4.48 0-7.828 0-11.199-1.117h-10.064c-3.371 0-5.611 0-7.85 1.117h-4.479c-2.24 0-3.348 0-4.479 1.121-2.24 0-4.48 1.121-7.828 2.238-2.238 0-5.586 1.121-8.957 2.24-3.348 1.119-7.826 2.24-12.305 3.359-4.479 2.24-8.957 3.359-14.566 5.6-11.199 3.359-24.635 7.836-39.18 13.436-14.566 4.479-31.352 10.076-49.266 16.795-36.939 12.316-79.488 27.98-128.75 44.777-48.137 16.795-101.88 35.83-161.22 57.094-233.98 83.977-538.52 193.7-843.03 306.76-303.4 113.08-606.81 227.28-836.31 319.08-57.094 23.514-109.73 44.787-156.73 63.811-48.16 20.156-89.576 38.07-124.28 53.746-17.916 7.838-33.592 15.676-47.027 22.395-14.545 6.707-26.873 13.424-36.939 19.035-5.609 2.227-10.088 5.586-14.566 7.824-4.48 3.359-8.959 5.6-11.197 7.84-4.479 3.359-7.826 5.598-10.066 7.836-5.609 4.48-7.85 8.959-10.088 12.318-1.109 2.24-2.24 5.598-4.48 10.076 0 3.359-1.107 6.719-1.107 10.078-1.131 3.359-1.131 7.838-2.24 12.316-1.131 4.479-1.131 8.957-2.238 14.557 0 10.076-1.131 22.381-3.371 35.818 0 14.555-1.107 30.23-2.217 47.027-2.238 34.699-4.479 77.248-6.717 124.28-2.24 48.135-4.48 101.87-5.611 161.21-7.826 238.46-15.676 564.26-21.262 934.83-12.328 741.16-21.287 1659.2-21.287 2400.4 0 344.82 2.24 652.7 5.611 885.56 1.107 58.225 2.238 111.97 3.348 160.13 1.131 48.113 3.369 91.793 4.479 128.73 1.131 38.07 3.371 69.398 4.479 95.164 1.131 13.438 2.24 24.633 3.371 33.59 1.107 5.611 1.107 10.09 1.107 14.568 1.131 3.348 2.24 7.826 2.24 11.174l1.131 4.48 2.238 4.477c10.066 16.809 22.395 33.592 36.939 51.508 15.676 17.914 33.592 35.83 53.746 54.854 39.178 35.83 89.553 73.9 151.12 113.08 119.8 78.379 278.77 159 473.58 231.77 193.7 72.77 422.09 138.8 680.71 186.96 258.62 48.137 547.48 78.355 860.94 80.619h6.719l5.588-2.264c2.238-1.107 4.477-2.215 8.957-4.479 2.238-2.217 5.609-3.348 8.957-6.695 3.371-2.262 6.719-4.479 11.197-6.74 4.479-3.348 8.957-6.695 13.436-10.066 10.09-6.695 21.287-14.545 33.592-24.609 12.305-8.959 25.74-19.047 41.416-31.352 30.244-22.395 64.943-50.375 104.12-81.727 39.201-31.352 82.859-66.074 129.89-104.12 189.19-152.28 431.02-352.67 671.73-556.43 240.7-202.65 481.42-409.76 663.9-573.24 45.896-41.418 88.443-79.465 126.51-115.3 38.07-34.723 71.662-66.074 99.643-94.055 14.545-14.545 26.873-26.873 38.068-39.178 12.307-12.305 22.395-22.395 31.354-32.484 8.957-10.064 15.676-19.023 21.264-25.719 3.369-4.477 5.609-8.957 7.848-11.219 2.24-4.479 4.457-8.957 6.695-12.305 0-2.24 1.133-5.609 2.238-8.957 1.133-3.348 2.24-5.611 3.371-10.09 1.109-6.695 2.24-14.545 3.348-24.609 2.24-8.959 3.371-19.023 4.48-31.352 1.129-12.328 2.238-24.635 3.371-39.203 2.238-27.98 4.477-61.547 7.824-99.641 1.133-38.047 3.371-80.596 5.609-126.52 8.959-185.85 15.676-437.72 21.264-725.47 11.197-577.67 17.916-1303.2 17.916-1951.4 0-435.51-3.348-836.31-8.957-1133-1.109-73.887-2.24-142.19-4.48-202.64-1.107-59.332-3.348-111.96-5.586-155.63-1.133-22.381-2.238-42.535-3.371-59.332-1.109-17.914-2.238-33.59-3.348-45.895-1.131-6.719-1.131-12.316-2.238-17.916-1.133-5.6-1.133-11.197-2.24-14.557-1.131-4.479-1.131-8.957-2.24-12.316-1.131-2.238-1.131-4.479-2.238-5.598-1.135-3.356-2.241-5.594-3.374-6.715zm-41.418 23.513 13.438-13.436-13.438 13.436zm-6.718 10.076c1.133 3.359 1.133 7.84 2.242 12.318 0 4.479 1.129 10.076 1.129 16.783 1.109 12.328 3.348 26.873 4.48 43.668 0 16.797 1.107 36.951 2.238 58.215 2.24 43.668 4.457 96.293 6.695 155.62 1.133 59.332 2.238 127.64 4.479 201.52 5.611 295.57 7.85 696.37 7.85 1131.9 0 647.1-5.609 1373.7-16.783 1950.3-6.719 287.73-13.436 538.52-21.287 723.26-2.238 47.004-4.477 88.422-6.719 126.49-2.238 36.961-4.477 70.529-6.717 98.512-1.107 13.436-2.24 26.871-4.479 38.092 0 11.174-2.238 20.131-3.348 29.088-1.133 7.852-2.238 15.676-3.371 20.156 0 3.348-1.107 4.479-1.107 6.719 0 1.107-1.131 2.238-1.131 2.238 0 1.131-1.109 2.238-2.24 4.479-1.107 1.131-3.348 4.479-4.479 6.719-5.586 6.717-11.197 14.545-19.023 23.502-7.85 7.85-17.914 19.047-29.113 30.242-11.195 11.176-23.5 23.504-38.07 38.047-27.98 26.873-60.439 58.225-98.508 92.947-36.963 34.699-79.488 73.877-125.41 114.19-182.48 163.45-422.07 369.46-662.77 573.22-240.7 202.63-482.53 403.04-669.51 554.19-47.004 38.047-90.684 72.77-129.86 104.12-39.178 31.352-73.898 58.225-104.12 81.727-14.545 11.174-29.113 22.395-41.418 31.352-11.197 8.957-22.395 16.785-31.352 23.502-4.479 3.371-8.957 6.719-13.436 8.959-3.371 2.238-6.719 4.479-8.959 6.717-2.238 1.131-4.479 2.24-5.586 3.348-309.01-2.217-591.13-32.459-845.29-79.463-255.24-47.051-480.29-111.97-671.73-183.63-189.22-71.662-344.82-150.02-462.38-226.16-57.092-36.939-105.25-73.877-143.32-108.6-19.021-16.785-34.697-33.568-48.135-49.268-11.197-13.436-21.262-25.717-29.111-38.045v-4.48c-1.109-3.371-1.109-7.848-1.109-12.328-1.131-8.957-2.238-20.131-3.369-31.352-2.24-25.719-3.348-57.07-5.588-94.031-1.131-36.961-2.238-79.486-3.371-128.75-1.107-47.004-2.238-100.75-3.348-158.98-3.369-232.85-5.609-539.62-5.609-884.45 0-741.17 7.85-1658.1 20.154-2399.2 6.719-369.45 13.438-696.37 21.287-933.71 2.238-59.346 4.479-113.08 6.717-161.22 2.24-47.016 3.348-88.445 5.588-122.02 1.131-17.916 2.238-33.592 3.371-47.027 1.107-13.436 2.238-24.633 3.348-34.699 0-4.479 1.131-8.957 1.131-12.316 1.107-4.479 1.107-6.717 2.238-10.076v-2.24c0-1.119 1.109-1.119 2.24-2.24 2.238-1.119 4.479-3.359 7.826-5.598 4.479-1.121 7.85-4.479 12.328-6.719 10.066-5.598 21.264-11.195 34.699-17.914s29.111-13.438 45.896-21.275c34.699-15.676 75.008-32.459 122.04-52.615 47.027-19.033 99.641-41.428 156.73-63.809 229.53-91.816 531.8-206 835.2-317.96 303.4-113.08 607.92-223.92 841.92-306.76 58.201-21.275 113.06-40.309 161.22-57.092 48.135-17.916 91.791-32.473 127.62-44.789 19.023-6.719 34.699-12.316 49.268-17.914 14.545-4.48 27.98-8.959 39.178-12.316 4.479-2.242 10.09-3.359 14.545-4.48 4.479-2.238 7.85-3.359 11.197-4.467 3.371-1.131 5.609-1.131 8.957-2.24l3.371-1.131-2.24-8.947 1.107 8.947h13.438c2.238 0 5.609 0 8.957 1.131 7.85 0 15.676 1.109 25.766 2.24 19.023 1.107 43.656 4.467 71.637 7.826 55.984 6.719 127.65 17.914 209.37 30.23 164.56 25.754 368.32 61.574 569.85 99.643 201.52 39.189 399.7 80.607 550.82 118.68 38.068 10.076 72.791 19.035 103.01 27.98 31.352 8.957 59.332 16.795 81.727 25.754 11.195 3.359 22.395 7.836 31.352 11.195 7.824 3.359 16.783 6.719 22.395 10.078 5.586 3.359 11.195 5.598 14.543 8.957 0 0 1.133 0 1.133 1.121 0 1.118 1.104 3.358 1.104 4.475zm-2021.9 6313.2c1.109 0 1.109-1.131 2.24-1.131h6.693v15.699l-8.933-14.568 8.934 14.568v12.283l-11.172-25.719s1.107-1.132 2.238-1.132zm-2200-690.77c1.131 1.109 1.131 3.371 2.24 4.48 1.131 1.107 1.131 3.369 1.131 4.477l-27.98 4.48 23.502-12.328 1.107-1.109-1.107 1.109 1.107-1.109h2.24-2.24zm43.68-5035.8v3.359c-1.131 0-1.131 1.119-2.238 1.119l-5.611-6.719-19.023-4.477 19.023 4.477-2.238-1.119 4.479 2.24 5.608 1.12zm-7.85-2.241 2.24 1.121-2.24-1.121zm-17.914-8.957 15.676 7.838-15.676-7.838zm15.676 7.838-11.197-12.316 11.197 12.316zm2482.1-941.55-2.24-19.033 2.24 19.033zm-4.479-19.034 4.479 19.033v1.121l-4.479-20.154z"/>
			</g>
			<g id="g22-8-9">
					<path id="path24-1-0" d="m-19994 26181-58.223 24.635-58.201 25.752-58.225 25.74-59.332 27.992-59.355 27.994-59.334 29.1-59.332 29.113-60.463 30.23-60.441 30.234-60.465 31.34-61.57 31.352-60.465 32.469-61.57 32.461-61.572 32.473-124.28 67.168-125.38 67.184-125.41 67.17-126.52 68.291-127.62 67.17-127.62 67.182-127.64 66.051-63.812 32.471-63.811 32.459-64.941 31.352-63.812 31.352-30.221-6.717-31.352-7.838-62.703-14.557-64.918-15.676-66.074-14.557-67.16-15.676-68.289-15.664-68.289-15.676-70.555-15.676-69.398-15.676-70.527-16.795-142.19-31.34-142.19-31.352-71.662-15.676-70.529-15.676-69.398-14.557-69.42-14.543-68.291-14.559-67.182-14.555-67.16-14.555-64.941-13.438-63.812-13.438-31.352-5.598-31.352-6.719-30.219-5.586-30.244-6.719-30.221-5.598-29.111-5.6-29.111-5.6-27.982-6.717-27.98-4.479-26.873-5.598-26.873-5.6-26.873-4.479-25.74-4.48-24.635-5.598-24.633-4.479-23.502-3.357-23.525-4.48-22.395-4.479 58.225 17.916 58.225 17.914 59.332 17.914 60.465 16.797 61.57 17.902 61.574 16.797 63.811 17.914 62.703 16.797 63.811 17.914 64.943 16.797 129.86 34.699 130.99 33.59 132.1 34.699 132.1 34.711 130.99 33.59 129.88 34.699 64.92 16.797 63.811 17.914 63.836 16.797 62.68 17.914 61.572 16.797 61.594 17.902 60.441 16.797 59.332 17.914 58.225 17.916 58.225 17.916 1.107 67.168 2.24 68.291 1.131 68.303 1.109 70.527 1.131 71.65 2.238 71.65 1.109 72.768 1.131 73.9 1.107 75.008 1.131 75.008 1.109 76.129v77.26l1.131 77.248 1.107 78.367 1.133 78.367v79.488l1.107 79.484v80.621l1.131 80.605 1.109 81.727 1.131 163.45 1.107 164.58v166.8l1.131 166.82 2.24 334.76 1.107 335.86 1.131 166.82 1.109 165.69 1.131 164.58 1.107 163.45 1.133 81.727v80.619l1.107 80.594 1.131 79.488v79.486l1.109 79.486 1.131 77.248 1.107 78.379v76.117l1.131 76.139 1.109 75.031 1.131 74.986 1.107 73.9 1.131 72.77 1.109 72.791 2.238 70.506 1.133 70.553 1.107 69.398 2.24 68.291 1.131 67.182 1.107-68.291 1.131-68.289v-70.553l1.109-70.506 1.131-71.662 1.107-72.768 1.131-73.902 1.109-75.008 1.131-75.031 1.107-76.117 1.133-77.246 2.238-77.248 1.109-78.379 1.131-79.465 1.107-79.51 1.109-80.617 1.131-80.596 2.238-81.727 1.107-81.727 1.133-81.75 3.348-165.67 3.371-166.82 2.238-169.04 3.348-169.09 6.719-339.21 5.609-339.21 3.348-169.09 3.371-167.92 2.238-166.81 3.348-166.81 1.133-81.738 2.238-81.727 1.109-81.727 1.131-80.607 1.107-79.486 1.131-80.619 1.109-78.367 2.238-78.367 1.131-78.367 1.109-76.129 1.131-76.139 1.107-76.127 1.133-73.891 1.107-73.887 1.131-72.781 1.109-71.648 1.131-71.648v-69.41l1.107-69.41 1.131-67.184 123.14-66.051 122.04-66.051 122.04-63.822 122.04-64.932 120.9-63.811 119.8-64.943 119.8-63.811 119.8-64.943 117.56-64.93 117.53-64.932 116.45-67.182 115.32-67.17 57.094-33.58 55.984-34.711 57.094-34.711 55.984-34.699 55.963-34.711 55.986-35.828 54.852-35.82 55.989-35.818z" stroke-opacity=".5412" fill-opacity=".5412" stroke="#fff" fill="#fff"/>
			</g>
			<g id="g28-1-8">
				<path id="path30-7-3" d="m-19994 26181c-614.63 259.75-1294.2 678.46-1979.4 1008.7-649.36-154.51-1586.4-360.51-2058.9-443.35 607.94 189.2 1407.3 366.1 2015.2 555.31 35.83 1423 17.916 3578.1 53.746 5001.1 17.893-1435.3 66.051-3625.2 83.965-5059.3 656.05-354.9 1299.8-672.86 1885.3-1062.5z" fill="none"/>
			</g>
			<g id="g32-7-8">
				<path id="path34-1-0" stroke="#fff" fill-opacity=".1608" stroke-opacity=".1608" d="m-23803 30867 11.197 15.697 11.174 14.547 12.328 14.543 13.438 14.545 13.436 13.436 13.436 13.438 15.676 13.436 14.545 13.438 15.676 13.436 16.783 12.328 16.809 12.305 17.914 12.307 16.785 12.328 19.047 11.197 17.891 11.195 19.047 12.328 20.154 10.066 20.154 11.174 20.156 10.09 20.131 8.957 21.285 10.088 21.264 8.959 21.285 8.957 21.262 8.957 44.789 16.762 44.787 15.699 45.896 13.436 45.896 12.305 47.027 11.197 45.896 10.066 47.027 8.957 45.896 6.742 45.896 6.695 45.918 3.369 23.502 2.24 22.395 1.131 21.264 1.109h66.052l21.285-1.109 21.262-1.131 20.156-1.131 21.262-1.109 19.047-2.238 20.154-3.348 19.023-2.262 19.045-3.348 19.023-4.48 17.916-4.479 16.783-4.479 16.809-4.479 16.783-5.609 16.807-5.588-2.238-1.107h-1.133l-5.586-2.264-6.719-1.107-7.848-2.24-8.959-2.238-11.197-3.371-11.195-3.348-13.438-3.348-14.545-4.479-15.676-3.371-16.783-4.479-17.916-5.586-17.916-4.48-20.152-5.586-20.156-5.609-21.262-5.611-22.395-6.695-22.395-5.609-23.523-6.719-24.611-6.717-24.633-6.719-24.635-6.719-25.74-7.826-26.873-6.74-53.746-14.545-54.854-15.654-55.984-15.697-55.986-14.545-55.961-16.807-55.984-14.545-54.855-15.676-54.875-14.568-25.742-7.803-26.873-6.742-25.742-7.826-24.633-6.717-24.633-6.719-23.502-6.719-23.525-6.719-22.395-5.609-21.264-6.695-21.262-5.609-20.154-5.609-19.047-5.588-17.916-4.479-16.783-5.586-16.783-4.48-14.568-4.479-13.436-3.371-13.438-3.369-11.195-3.324-10.066-3.371-7.826-2.24-7.85-2.24-5.588-2.238h-2.238l-2.241-1.133z"/>
			</g>
			<g id="g38-5-0">
				<path id="path40-7-9" d="m-23803 30867c225.02 323.56 932.58 482.56 1268.5 352.67-59.356-15.676-1193.5-328.01-1268.5-352.67z" fill="none"/>
			</g>
			<g id="g42-6-1">
					<path id="path44-7-9" d="m-22645 30269-1047.9-404.15-10.066 4.477-8.957 4.48-8.957 4.479-6.719 5.588-6.719 6.717-6.717 6.719-5.611 7.85-5.586 6.695-4.479 7.848-4.479 7.852-3.371 7.801-3.348 8.959-3.371 8.959-2.238 7.848-3.348 16.809-2.24 16.783-2.24 15.676v41.416l1.109 4.48v6.718l163.48 57.092 1.107 1.107 1.131 1.156 1.109 1.105 1.131 2.219 2.24 2.262 1.107 3.348 3.369 3.348 2.24 3.371 3.348 4.477 3.371 4.48 3.348 4.479 4.479 5.588 4.479 4.477 4.479 6.742 5.588 4.48 11.197 13.436 11.195 12.305 14.568 13.412 14.545 13.438 15.676 14.566 16.783 13.438 19.047 14.566 19.023 13.438 21.287 13.438 21.262 12.281 23.502 12.328 24.633 11.197 12.328 4.479 12.307 5.609 13.436 4.48 13.436 4.477 14.545 3.348 13.438 3.348 14.566 3.371 14.545 3.371 14.568 2.217 14.545 1.131 15.676 2.238 15.676 1.109h49.266l16.785-1.109 16.807-2.238 16.783-2.238 17.916-2.24 17.914-3.348 17.916-4.479 17.914-4.48 19.023-5.609 19.023-6.719h1.133l2.238 1.109h3.348l6.719 1.131 6.719 1.131 7.848 1.109 8.959 1.107 10.064 1.131 11.197 1.133 12.307 1.107 13.436 1.107 13.436 1.133h13.438l14.566 1.129h29.113l15.652-1.129 14.566-1.133 15.676-1.107 14.547-2.24 14.566-2.238 13.438-3.371 13.436-3.348 13.412-3.348 11.199-5.609 12.328-5.609 10.064-6.695 8.959-6.742 8.957-8.934 3.371-4.48 3.348-4.477 3.369-4.48 2.24-4.479 2.238-5.611 2.24-5.591z" stroke-opacity=".3882" fill-opacity=".3882" stroke="#fff" fill="#fff"/>
			</g>
			<g id="g48-57-2">
				<path id="path50-0-5" d="m-22645 30269-1047.9-404.15c-108.6 38.047-87.336 198.15-87.336 198.15l163.48 57.092s228.37 357.15 633.66 217.2 301.16 53.746 338.13-68.289z" fill="none"/>
			</g>
			<g id="g52-5-4">
				<path id="path54-7-4" d="m-22654 30132c-348.19-90.684-696.38-180.26-1044.6-270.94-13.438 49.266-14.568 119.8 6.719 156.76 52.613 25.719 158.97 45.895 211.59 71.637 152.26 146.67 285.49 158.98 528.43 138.82 94.055 19.023 188.09 34.723 281.01 53.746 29.111-57.118 36.96-80.62 16.804-150.02z" fill="#606060"/>
			</g>
			<g id="g56-7-9">
				<path id="path58-8-9" d="m-22654 30132c-348.19-90.684-696.38-180.26-1044.6-270.94-13.438 49.266-14.568 119.8 6.719 156.76 52.613 25.719 158.97 45.895 211.59 71.637 152.26 146.67 285.49 158.98 528.43 138.82 94.055 19.023 188.09 34.723 281.01 53.746 29.111-57.118 36.96-80.62 16.804-150.02z" fill="none"/>
			</g>
			<g id="g60-5-3">
					<path id="path62-2-6" d="m-19956 26150-2029.8 1138.6 7.826 5092.9 1987.2-1672.6 34.722-4558.9z" stroke-opacity=".4" fill-opacity=".4" stroke="#fff" fill="#fff"/>
			</g>
			<g id="g66-2-5">
				<path id="path68-9-0" d="m-19956 26150-2029.8 1138.6 7.826 5092.9 1987.2-1672.6 34.722-4558.9z" fill="none"/>
			</g>
			<g id="g70-9-2">
				<path id="path72-9-9" stroke="#fff" fill-opacity=".1608" stroke-opacity=".1608" d="m-23686 31190 11.197 14.566 12.328 13.438 11.197 14.566 12.305 12.305 12.33 13.438 12.305 12.305 13.436 12.328 13.436 11.174 13.438 11.221 13.438 11.174 14.543 11.221 13.438 10.064 14.566 10.066 14.545 8.957 30.221 19.023 31.352 16.807 31.352 15.676 31.352 14.568 32.459 12.305 32.482 12.307 33.568 10.088 33.592 8.936 32.482 8.957 33.568 6.74 33.59 5.588 33.592 4.479 33.592 3.371 33.59 2.217 32.461 2.262h32.459l32.482-1.131 30.221-2.24 31.352-2.238 30.221-3.348 29.111-5.611 27.982-5.609 26.871-6.695 26.873-6.74 24.635-8.936-2.24-1.131h-4.479l-4.48-2.217-5.586-1.131-6.719-2.24-8.957-2.238-8.957-2.24-10.09-2.238-11.195-3.348-11.199-3.371-12.305-3.371-13.436-3.348-14.545-4.479-14.566-3.348-15.676-4.479-16.785-4.479-16.807-4.479-16.783-5.611-17.916-4.479-17.916-5.609-19.023-4.48-20.154-5.586-39.178-11.174-40.309-11.221-42.549-11.174-42.549-11.219-42.549-12.307-85.074-23.523-41.416-11.176-41.441-12.328-40.285-11.174-19.047-4.479-19.023-5.609-19.047-5.609-17.914-4.48-17.893-5.586-16.807-4.479-16.785-4.479-15.676-4.48-15.676-4.479-14.566-4.479-13.414-3.371-12.328-3.348-13.438-3.348-11.195-3.369-10.066-3.371-8.957-2.217-8.957-3.371-7.852-1.107-6.717-2.262-5.588-2.217-4.479-1.131-3.373-1.13z"/>
			</g>
			<g id="g76-2-3">
				<path id="path78-7-5" d="m-23686 31190c234.01 309.01 701.97 361.63 963.96 267.6-43.658-11.198-906.84-248.55-963.96-267.6z" fill="none"/>
			</g>
			<g id="g80-6-1">
				<path id="path82-0-7" stroke="#fff" fill-opacity=".1608" stroke-opacity=".1608" d="m-23512 31507 13.436 16.807 13.438 15.676 14.543 15.676 15.676 13.436 15.676 14.545 15.676 12.328 16.809 12.307 17.891 12.305 16.809 10.088 19.023 10.09 17.914 10.064 19.047 7.85 20.131 7.803 19.047 7.852 20.154 5.586 20.154 5.609 20.154 5.611 21.264 3.346 20.154 4.48 21.264 2.238 20.154 2.24 21.285 1.131h42.526l20.154-1.131 21.287-2.24 20.131-2.238 21.285-3.348 20.156-4.479 20.154-4.479 20.154-5.611 19.023-6.717h-1.133l-2.238-1.109h-3.348l-4.479-1.107-3.348-1.154-5.609-2.217-5.588-1.107-6.719-2.264-6.717-1.107-6.719-2.262-7.85-2.217-8.957-2.264-8.957-2.215-8.959-3.371-10.064-2.217-10.09-2.264-21.262-6.693-22.395-5.611-24.633-6.719-24.635-6.717-25.74-6.719-25.742-7.85-53.746-14.543-53.746-14.545-25.74-7.85-25.742-6.695-25.764-6.742-23.504-6.695-23.523-6.74-21.264-6.695-10.064-2.264-10.09-3.346-10.066-2.24-8.957-2.238-8.957-2.24-7.85-2.24-7.826-2.238-6.719-2.24-6.719-2.238-5.609-2.24-5.588-1.131-5.586-1.107-3.371-1.109-3.348-1.131-3.371-1.131h-2.237z"/>
			</g>
			<g id="g86-0-3">
				<path id="path88-3-1" d="m-23512 31507c135.47 182.5 397.46 238.48 604.57 166.82-27.98-6.695-567.63-155.6-604.57-166.82z" fill="none"/>
			</g>
			<g id="g90-5-4">
					<path id="path92-9-6" d="m-23875 27096-103.01 14.547-19.023 2432.8 1595.4 446.7 39.199-129.86-1532.7-408.66 20.156-2355.6z" stroke-opacity=".4392" fill-opacity=".4392" stroke="#fff" fill="#fcfcfc"/>
			</g>
			<g id="g96-7-4">
				<path id="path98-7-2" d="m-23875 27096-103.01 14.547-19.023 2432.8 1595.4 446.7 39.199-129.86-1532.7-408.66 20.156-2355.6z" fill="none"/>
			</g>
			<g id="g100-1-2">
				<path id="path102-64-6" stroke="#fff" fill-opacity=".2314" stroke-opacity=".2314" d="m-22370 27998-2.24 68.301-1500.2-432.16 1502.5 363.86z"/>
			</g>
			<g id="g106-1-1">
				<path id="path108-3-2" stroke="#fff" fill-opacity=".2314" stroke-opacity=".2314" d="m-22348 28493-3.346 68.303-1499.1-432.16 1502.5 363.86z"/>
			</g>
			<g id="g112-9-8">
				<path id="path114-09-9" stroke="#fff" fill-opacity=".2314" stroke-opacity=".2314" d="m-22370 28951-2.24 68.291-1500.2-432.16 1502.5 363.87z"/>
			</g>
			<g id="g118-8-8">
				<path id="path120-3-8" stroke="#fff" fill-opacity=".2314" stroke-opacity=".2314" d="m-22370 29401-2.24 68.291-1500.2-433.27 1502.5 364.98z"/>
			</g>
			<g id="g124-5-6">
				<path id="path126-3-8" d="m-23869 27152 1491.3 372.81-12.328 2459.7h24.635l12.328-2468.6v-10.064l-8.959-2.24-1501.3-375.06-2.238 12.316-3.371 11.197zm1500.2 375.05-8.959-2.238v-8.959h12.307l-3.348 11.197z" fill="#9e9e9e"/>
			</g>
		</g>
	</g>
</g><g id="g35805"><path id="path7005" opacity=".5" d="m32.872 31.564c0.002 9.023-7.312 16.339-16.335 16.339-9.0235 0-16.338-7.316-16.336-16.339-0.0017-9.023 7.3125-16.339 16.336-16.339 9.023 0 16.337 7.316 16.335 16.339z" transform="matrix(1.9145 0 0 .65642 80.346 127.01)" filter="url(#filter14190)" fill="url(#radialGradient35696)"/><path id="path6495" stroke="#24549a" stroke-width="1.9943" fill="url(#radialGradient35791)" d="m143.91 122.8c0 17.624-14.287 31.911-31.909 31.911s-31.909-14.287-31.909-31.911c0-17.622 14.287-31.907 31.909-31.907s31.909 14.285 31.909 31.907z"/><path id="path2589" opacity=".5" d="m105.07 173.62c0 2.2196-7.1635 4.0185-15.998 4.0185-8.8347 0-15.998-1.7988-15.998-4.0185 0-2.2196 7.1633-4.0185 15.998-4.0185s15.998 1.7988 15.998 4.0185z" fill="url(#radialGradient35788)"/><g id="g7013" transform="matrix(2.1656 0 0 2.1875 47.771 82.067)"><path id="path7015" d="m29.661 4.4893c-1.277 0.2544-3.131 0.1759-3.941 1.1664 0.4 0.6544 1.819 1.1789 0.735 1.9898-0.253 1.0675 1.291 1.8685 1.509 0.4933 1.201-0.8301 3.163-0.8856 3.348-2.7175 0.123-0.8154-1.144-0.7695-1.651-0.932zm0.892 2.4216c-0.376 1.3403 1.863 0.0039 0.538-0.0935-0.154 0.1007-0.361 0.2582-0.538 0.0935zm-6.59-1.3105c-0.26 0.3936-1.084 0.2868-1.006 0.2695 0.101 0.5225-1.324 2.0212-0.273 1.62 0.591-1.3411 2.072-0.8987 2.849-0.1221 1.091-0.4045-0.091-0.7533-0.289-1.2363-0.402-0.2411-1.105 0.0547-1.281-0.5311zm12.604 1.339c-1.135-0.0648-3.313 1.2826-2.545 2.3493 0.853 0.5154 1.375 0.2324 1.571-0.6722 0.129-0.5218 0.879-0.8819 0.655-0.0312 1.069 0.9058-1.224 1.9847-1.91 1.4307-0.989 0.642-1.662 1.515-2.248 2.461-1.172 0.544-0.146 2.268 0.728 1.119 0.604-0.98 2.046-1.681 2.499-0.219 0.857 0.178 0.069-1.471 0.58-0.346 0.152 0.444 0.993 1.159 0.958 0.233 0.6 0.405 2.901 1.248 1.196 1.765-1.36 0.317-2.723-0.26-3.885-0.926-2.154-0.184-3.747 1.907-4.065 3.85-0.274 1.385 0.584 3.702 2.311 3.274 1.302-0.664 2.55 0.2 2.603 1.592 0.209 0.833 1.144 0.66 1.764 0.947 1.158 0.345 2.315 0.691 3.472 1.037-0.645-1.655 0.999-2.918 1.51-4.344 0.298-1.148-1.616-0.592-1.851-1.726-0.348-0.618-1.158-2.168-0.769-2.395 1.373 0.433 0.736 3.478 2.498 2.749 1.207-0.365 1.797-2.054 0.324-2.393-0.896-0.749-0.004-1.088 0.568-0.353 0.74 0.631 1.809 0.07 1.134-0.882-0.565-2.527-1.955-4.828-3.671-6.738-0.55-0.896-1.544-0.5213-2.248-0.5991-0.524-0.6722 1.058-0.4691 0.124-0.8245-0.391-0.235-0.846-0.3638-1.303-0.358zm-15.309 0.3419c-1.123 1.018-2.41 1.8839-3.207 3.2117-1.515 2.095-2.454 4.593-2.75 7.159 1.389-1.088 2.884-2.16 4.656-2.479 1.058-0.738 1.453-2.225 2.794-2.611 1.07-0.205 0.94-0.946-0.016-0.939 0.637-0.259 2.802-0.428 1.59-1.531 0.06-0.792-0.977-0.5635-1.157-1.2239-1.228-0.2484-1.063 2.5399-2.184 1.6539-0.689-0.301-1.255-1.5652-0.045-1.6089 0.582-0.2135 1.625-1.6686 0.319-1.6318zm10.791 1.1111c0.315 0.641 0.096 1.5303 0.276 2.0666 0.939-0.082 1.032-0.7831 0.4-1.3552-0.106-0.3039-0.232-0.8239-0.676-0.7114zm-0.546 0.7977c-1.078 0.0918 0.279 1.4849 0.128 0.3185l-0.06-0.1464-0.068-0.1721z" fill="url(#radialGradient35702)"/></g><path id="path6495-2" opacity=".6" d="m141.92 122.8c0 16.523-13.394 29.916-29.914 29.916-16.521 0-29.914-13.394-29.914-29.916 0-16.521 13.394-29.912 29.914-29.912 16.521 0 29.914 13.392 29.914 29.912z" stroke="url(#linearGradient35783)" stroke-width="1.9943" fill="none"/><path id="path7111" d="m135.24 138.09c-3.5518 3.0114-9.425 4.6626-12.781 5.9629l-1.5675-10.157c5.9809-1.5037 9.421-3.0034 13.834-5.6997l0.51453 9.8937z" fill-rule="evenodd" stroke="url(#linearGradient35780)" stroke-width="1.9943px" fill="url(#linearGradient35778)"/><path id="path8098" d="m134.29 137.97-8.9205-4.2658c2.9974-1.065 5.9749-2.3034 8.5017-3.855l0.4188 8.1208z" fill="#0d1f3a" fill-rule="evenodd"/><path id="path8110" d="m132.76 134.07-7.4965 2.8299v5.8453l11.667 6.6809 7.678-3.6894v-5.9968l-11.848-5.6698z" fill-rule="evenodd" stroke="#464646" stroke-width=".59829" fill="url(#linearGradient35774)"/><path id="path7035" d="m141.59 145.91c3.3205 3.8111 4.0644 19.777-2.6624 23.754-9.2515 5.4684-21.937-11.966-41.88 3.9886" stroke="url(#linearGradient35771)" stroke-linecap="round" stroke-width="2.5926" fill="none"/><path id="path8108" d="m144.21 139.95-11.667-5.584-6.98 2.792 11.367 6.1823 7.2792-3.3903z" fill="#fff" fill-rule="evenodd"/><path id="rect13100" d="m-86.514 235.04h1.3523v4.8527h-1.3523z" transform="matrix(.93865 -.34487 .89568 .44471 0 0)" fill="#f57900"/><path id="path13098" d="m131.56 135.01-2.5986 0.73191 7.5843 4.0105 2.3872-0.99516-7.3729-3.7473z" fill="url(#linearGradient35766)" fill-rule="evenodd"/><path id="rect13120" d="m-88.042 235.01h1.3878v4.8083h-1.3878z" transform="matrix(.93865 -.34487 .89568 .44471 0 0)" fill="#73d216"/><path id="path9151" d="m132.21 134.3-3.5199 1.1627 10.165 4.1062 3.1789-1.4558-9.8239-3.8131z" fill="url(#linearGradient35762)" fill-rule="evenodd"/><path id="path4675" stroke-linejoin="round" style="enable-background:new" d="m82.091 156.24v10.739c-0.02792 2.7641-2.5427 4.6028-2.5427 4.6028-0.96723 0.13561-1.4479 0.68404-1.4479 1.5356 0 0.84957 0.65014 1.5336 1.4479 1.5336h19.055c0.79572 0 1.4459-0.68404 1.4459-1.5336 0-0.85157-0.48063-1.4-1.4459-1.5356 0 0-2.5248-1.8387-2.5527-4.6028v-10.74h-13.959z" stroke-dashoffset=".5" stroke="url(#linearGradient35759)" stroke-linecap="round" stroke-width="1.9908" fill="url(#linearGradient35757)"/><path id="rect4703" opacity=".8" d="m79.986 171.66h18.17c0.49103 0 0.88634 0.44473 0.88634 0.99715s-0.39531 0.99715-0.88634 0.99715h-18.17c-0.49103 0-0.88634-0.44473-0.88634-0.99715s0.39531-0.99715 0.88634-0.99715z" style="enable-background:new" fill="url(#radialGradient35754)"/><path id="rect2722" stroke-linejoin="round" d="m59.157 120.8h59.829c0.55242 0 0.99715 0.44473 0.99715 0.99715v39.886c0 0.55242-0.44473 0.99715-0.99715 0.99715h-59.829c-0.55242 0-0.99714-0.44473-0.99714-0.99715v-39.886c0-0.55242 0.44473-0.99715 0.99714-0.99715z" stroke-dashoffset=".5" stroke="#969696" stroke-linecap="round" stroke-width="1.9943" fill="url(#linearGradient35751)"/><path id="rect2716" stroke-linejoin="round" style="color:#000000" d="m62.148 124.79h53.846v33.903h-53.846z" fill-rule="evenodd" stroke="url(#linearGradient35748)" stroke-linecap="round" stroke-width="1.9985" fill="url(#radialGradient35746)"/><path id="rect6600" opacity=".3" d="m64.143 126.79h49.857v29.914h-49.857z" stroke="url(#radialGradient35743)" stroke-linecap="square" stroke-width="1.9943" fill="none"/><path id="rect4934" opacity=".8" d="m63.146 125.79h51.852v1.9943h-51.852z" fill="#fff"/><path id="rect4936" opacity=".9" d="m70.126 141.74h11.966c0.55242 0 0.99715 0.44472 0.99715 0.99714v9.9715c0 0.55242-0.44473 0.99715-0.99715 0.99715h-11.966c-0.55242 0-0.99715-0.44473-0.99715-0.99715v-9.9715c0-0.55242 0.44473-0.99714 0.99715-0.99714z" fill="#fff"/><path id="rect4936-2" opacity=".9" d="m90.069 131.77h17.949c0.55242 0 0.99714 0.44472 0.99714 0.99714v15.954c0 0.55242-0.44472 0.99715-0.99714 0.99715h-17.949c-0.55242 0-0.99715-0.44473-0.99715-0.99715v-15.954c0-0.55242 0.44473-0.99714 0.99715-0.99714z" fill="#fff"/><path id="rect4960" opacity=".4" d="m71.123 143.74h9.9715v1.9943h-9.9715z"/><path id="rect4960-1" opacity=".4" d="m91.066 133.77h15.954v1.9943h-15.954z"/><path id="rect6588" d="m61.151 123.8h55.84v11.701l-55.84 10.237v-21.94z" fill="url(#linearGradient35735)"/></g></g><metadata><rdf:RDF><cc:Work><dc:format>image/svg+xml</dc:format><dc:type rdf:resource="http://purl.org/dc/dcmitype/StillImage"/><cc:license rdf:resource="http://creativecommons.org/licenses/publicdomain/"/><dc:publisher><cc:Agent rdf:about="http://openclipart.org/"><dc:title>Openclipart</dc:title></cc:Agent></dc:publisher><dc:title>Terminal Server</dc:title><dc:date>2013-08-30T09:28:44</dc:date><dc:description>This clipart ist based on lyte's server clipart representing a terminal server.</dc:description><dc:source>https://openclipart.org/detail/182737/terminal-server-by-ujmoser-182737</dc:source><dc:creator><cc:Agent><dc:title>ujmoser</dc:title></cc:Agent></dc:creator><dc:subject><rdf:Bag><rdf:li>ltsp</rdf:li><rdf:li>rdp</rdf:li><rdf:li>server</rdf:li><rdf:li>terminalserver</rdf:li><rdf:li>vnc</rdf:li></rdf:Bag></dc:subject></cc:Work><cc:License rdf:about="http://creativecommons.org/licenses/publicdomain/"><cc:permits rdf:resource="http://creativecommons.org/ns#Reproduction"/><cc:permits rdf:resource="http://creativecommons.org/ns#Distribution"/><cc:permits rdf:resource="http://creativecommons.org/ns#DerivativeWorks"/></cc:License></rdf:RDF></metadata></svg>