<?xml version="1.0" encoding="UTF-8" standalone="no"?>
<!-- Created with Inkscape (http://www.inkscape.org/) -->
<svg xmlns:inkscape="http://www.inkscape.org/namespaces/inkscape" xmlns:rdf="http://www.w3.org/1999/02/22-rdf-syntax-ns#" xmlns="http://www.w3.org/2000/svg" xmlns:cc="http://creativecommons.org/ns#" xmlns:dc="http://purl.org/dc/elements/1.1/" xmlns:sodipodi="http://sodipodi.sourceforge.net/DTD/sodipodi-0.dtd" id="svg1" sodipodi:docname="_svgclean2.svg" viewBox="0 0 934.41 655.49" sodipodi:version="0.32" version="1.1" inkscape:output_extension="org.inkscape.output.svg.inkscape" inkscape:version="0.48.3.1 r9886">
  <defs id="defs3">
    <linearGradient id="linearGradient4776" y2="381.12" gradientUnits="userSpaceOnUse" x2="714.12" gradientTransform="translate(-37.925 -29.916)" y1="381.12" x1="104.1" inkscape:collect="always">
      <stop id="stop4770" style="stop-color:#ffffff" offset="0"/>
      <stop id="stop4772" style="stop-color:#ffffff;stop-opacity:0" offset="1"/>
    </linearGradient>
  </defs>
  <sodipodi:namedview id="base" bordercolor="#666666" inkscape:pageshadow="2" inkscape:window-y="0" pagecolor="#ffffff" inkscape:window-maximized="0" inkscape:window-width="674" inkscape:zoom="0.5712105" inkscape:window-x="0" showgrid="false" borderopacity="1.0" inkscape:current-layer="svg1" inkscape:cx="-351.88804" inkscape:cy="78.415157" inkscape:window-height="645" inkscape:pageopacity="0.0000000"/>
  <path id="path4929" style="fill-rule:evenodd;stroke:#000000;stroke-width:3;fill:#ffcaa1;fill-opacity:.99899" d="m67.675 163.35c53.27-5.43 106.54-10.86 159.81-16.29 8.15-5.09 16.29-10.18 24.43-15.27 18.67-7.46 37.33-16.97 55.99-24.43 16.63-10.18 29.94-22.15 46.83-25.45 19.36-3.79 47.5-2.37 68.2 7.13 43.77 63.11 87.54 126.22 131.31 189.33 36.31 35.97 72.61 71.94 108.92 107.9 15.61 21.04 13.75 54.43 4.07 69.22-8.31 12.7-38.68 21.04-58.02 13.23 1.35 17.31-2.38 37.67-11.2 48.86-11.88 7.81-32.91 14.6-47.84 11.2 4.07 14.59-2.7 34.93-12.22 43.77-9.82 9.14-23.41 14.93-45.8 10.18-1.36 7.47-1.26 17.05-6.24 21.68-9.27 8.61-23.62 12.25-36.52 18.02-183.22-96.02-249.39-97.38-341-115.02-13.24-100.78-27.49-243.29-40.72-344.06z" inkscape:export-ydpi="3.4325387" sodipodi:nodetypes="ccccscccscccscsccc" inkscape:export-filename="/home/z/Zend/workspaces/DefaultWorkspace/Flotilla/templates/images/ico/handshake.png" inkscape:connector-curvature="0" inkscape:export-xdpi="3.4325387"/>
  <path id="path3183" style="fill-rule:evenodd;fill:url(#linearGradient4776)" d="m67.675 163.35c53.27-5.43 106.54-10.86 159.81-16.29 8.15-5.09 16.29-10.18 24.43-15.27 18.67-7.46 37.33-16.97 55.99-24.43 16.63-10.18 29.94-22.15 46.83-25.45 19.36-3.79 47.5-2.37 68.2 7.13 43.77 63.11 87.54 126.22 131.31 189.33 36.31 35.97 72.61 71.94 108.92 107.9 15.61 21.04 13.75 54.43 4.07 69.22-8.31 12.7-38.68 21.04-58.02 13.23 1.35 17.31-2.38 37.67-11.2 48.86-11.88 7.81-32.91 14.6-47.84 11.2 4.07 14.59-2.7 34.93-12.22 43.77-9.82 9.14-23.41 14.93-45.8 10.18-1.36 7.47-1.26 17.05-6.24 21.68-9.27 8.61-23.62 12.25-36.52 18.02-183.22-96.02-249.39-97.38-341-115.02-13.24-100.78-27.49-243.29-40.72-344.06z" inkscape:export-ydpi="3.4325387" sodipodi:nodetypes="ccccscccscccscsccc" inkscape:export-filename="/home/z/Zend/workspaces/DefaultWorkspace/Flotilla/templates/images/ico/handshake.png" inkscape:connector-curvature="0" inkscape:export-xdpi="3.4325387"/>
  <path id="path3686" style="fill-rule:evenodd;stroke:#000000;stroke-width:3;fill:#ffd8b4" d="m228.4 484.71c-7.4983 8.2124-15.589 30.479-18.714 43.187-0.47401 1.9277 5.4333-1.4215 7.1978 0 6.153 8.4156 7.8148 22.678 17.476 30.468 4.7926 3.8637 22.939 8.4018 27.87 7.2396-0.5728 7.3502 1.6175 6.5471 5.1692 14.273 3.3936 7.382 17.423 15.774 23.522 17.484 7.7228 2.1651 21.654 0.62683 21.654 0.62683s0.76377 7.2835 9.5356 17.417c6.6228 7.6509 10.191 9.8953 19.865 13.196 14.491 4.5344 17.742 4.2917 29.842 3.522 12.163-0.77372 32.531-5.0852 45.494-6.4539 11.171-1.1795 27.164-0.70807 32.782-6.3594 6.5245-6.5636 4.186-17.841 0-27.352-2.8222-6.4118-14.21-10.863-22.313-14.396 4.4828-5.5847 10.616-9.5868 10.797-15.115 0.40747-12.466 1.1625-19.022-9.6103-27.576-9.8523-7.823-30.344-11.25-45.249-6.979 3.9461-4.3385 6.0452-18.05 5.533-25.753-0.37481-5.6368-3.2707-11.019-6.6958-15.638-10.598-14.295-31.262-11.855-48.784-6.8974-29.594 8.3728-33.088 14.419-50.667 20.942-12.394 4.5992-28.864 16.353-36.709 15.115-2.2322-5.72-1.467-14.11-6.478-20.874-3.1204-4.2118-6.0587-7.143-11.517-10.077z" inkscape:export-ydpi="3.4325387" sodipodi:nodetypes="cscscsscscsssscsscsssscsc" inkscape:export-filename="/home/z/Zend/workspaces/DefaultWorkspace/Flotilla/templates/images/ico/handshake.png" inkscape:connector-curvature="0" inkscape:export-xdpi="3.4325387"/>
  <path id="path8038" style="fill-rule:evenodd;stroke:#000000;stroke-width:3;fill:#8e8e8e" d="m1.51 126.7c74.985 6.79 150.26 11.31 224.96 20.36 34.81 4.22 30.44 173.5 21.37 257.53-7.22 66.96-41.05 134.07-70.23 195.45-10.18 21.41-32.92 53.95-47.85 53.95-15.27 0-85.502-19.68-128.26-29.52l0.005-497.77z" inkscape:export-ydpi="3.4325387" sodipodi:nodetypes="csssscc" inkscape:export-filename="/home/z/Zend/workspaces/DefaultWorkspace/Flotilla/templates/images/ico/handshake.png" inkscape:connector-curvature="0" inkscape:export-xdpi="3.4325387"/>
  <path id="path13008" style="fill-rule:evenodd;stroke-opacity:0;fill:#404f60" d="m616.34 99.224-12.21 4.07-5.09 14.25 78.38 280.95 12.21 8.14 7.13 2.04 8.14-4.08 7.13-39.69-10.18-94.67-27.49-107.9-37.66-59.04-20.36-4.07z" inkscape:export-ydpi="3.4325387" inkscape:export-filename="/home/z/Zend/workspaces/DefaultWorkspace/Flotilla/templates/images/ico/handshake.png" inkscape:connector-curvature="0" inkscape:export-xdpi="3.4325387"/>
  <path id="path919" style="stroke:#000000;stroke-width:3;fill:#ffd8b4" d="m630.3 107.53c-12.22 3.06-35.18 13.66-47.45 12.05-13.4-1.77-38.75-9.31-69.32-14.45-31.15-5.23-47.22-16.09-75.32-17.23-32.55-1.33-41.74 19.46-58.03 35.75-30.19 20.69-75.4 40.96-84.48 55.98-9.85 16.29-25.11 54.29-25.45 69.22-8.49 16.29-21.44 31.45-22.57 49.58-1.65 26.5 32.13 29.73 47 23.71 10.88-4.41 17.64-12.89 26.46-19.34 25.06-9.48 42.2-39.11 60.06-65.15 18.57-5.98 29.22-12.68 42.75-24.43 7.35 7.54 18.29 5.72 28.51 1.02-1.38 17.4 83.61 54.23 103.83 65.15 35.5 37.36 70.28 69.69 107.95 106.34 1.35 4.07 5.59 11.74 6.95 15.81 5.43-3.05 14.34-4.77 18.44-9.16 5.4-5.79 8.15-14.25 12.22-21.38 20.36-5.43 40.72-10.85 61.07-16.28-27.14-90.94-54.29-181.87-81.43-272.81-17.3 9.5-33.89 16.12-51.19 25.62z" inkscape:export-ydpi="3.4325387" sodipodi:nodetypes="cszscscsscccccccscccc" inkscape:export-filename="/home/z/Zend/workspaces/DefaultWorkspace/Flotilla/templates/images/ico/handshake.png" inkscape:connector-curvature="0" inkscape:export-xdpi="3.4325387"/>
  <path id="path9902" style="fill-rule:evenodd;stroke:#000000;stroke-width:3;fill:#6e88a4" d="m594.96 117.54c-1.05-6.03 5.1-17.81 16.28-22.4 107.14-42.724 205.62-62.424 308.44-93.64l13.23 356.27c-112.95 19.04-160.76 33.05-234.13 54.97-4.24-0.09-15.69-7.02-21.37-13.23 6.45 2.03 16.53 7.07 19.34 6.1 6.03-2.07 7.01-22.33 6.11-33.59-3.85-47.78-7.38-97.48-20.36-143.53-11.79-41.83-22.89-98.83-53.95-120.11-4.5-3.08-12.19-5.42-17.31-3.9-4.04 1.2-8.22 6.11-10.18 12.04l-6.1 1.02z" inkscape:export-ydpi="3.4325387" sodipodi:nodetypes="ccccccssssscc" inkscape:export-filename="/home/z/Zend/workspaces/DefaultWorkspace/Flotilla/templates/images/ico/handshake.png" inkscape:connector-curvature="0" inkscape:export-xdpi="3.4325387"/>
  <path id="path3604" inkscape:connector-curvature="0" sodipodi:nodetypes="css" style="stroke:#000000;stroke-width:3;fill:none" d="m262.7 565.31s37.716-9.3039 65.877-17.875c24.627-7.4951 11.133-6.3705 53.756-18.799"/>
  <path id="path3604-1" inkscape:connector-curvature="0" sodipodi:nodetypes="css" style="stroke:#000000;stroke-width:3;fill:none" d="m313.38 598.26s38.527-6.5476 64.203-13.196c27.728-7.1796 15.888-4.1578 51.396-8.6474"/>
  <path id="path3604-1-7" inkscape:connector-curvature="0" sodipodi:nodetypes="css" style="stroke:#000000;stroke-width:3;fill:none" d="m515.3 391.8s29.619 23.597 50.248 38.995c22.953 17.134 12.354 16.764 42.158 36.58"/>
  <path id="path3604-1-7-4" inkscape:connector-curvature="0" sodipodi:nodetypes="css" style="stroke:#000000;stroke-width:3;fill:none" d="m459.46 453.14s29.619 23.597 50.248 38.995c22.953 17.134 12.354 16.764 42.158 36.58"/>
  <path id="path3604-1-7-9" inkscape:connector-curvature="0" sodipodi:nodetypes="css" style="stroke:#000000;stroke-width:3;fill:none" d="m412.24 510.24s23.025 15.35 41.112 33.666c21.43 21.702 16.16 10.673 39.874 38.103"/>
  <path id="path3681" inkscape:connector-curvature="0" sodipodi:nodetypes="czczsssssszcz" style="fill-opacity:.57919;stroke:#000000;stroke-width:1px;fill:#ffffff" d="m244.08 305.15m9.8259-5.029c3.9189 1.2967 12.302 2.3984 12.302 2.3984s6.4217 2.0116 13.23-3.8685c6.8085-5.8801 16.712-21.973 18.259-25.841 1.5474-3.8685 4.4874-10.213 2.6306-12.224-1.8569-2.0116-22.901-3.8685-25.996-3.2495-3.0948 0.61896-7.5048 0.46422-8.1238 1.2379-0.61896 0.77369-9.4226 14.104-12.843 23.133-3.0306 8.0001-1.6929 4.8382-2.8627 9.3617-1.1607 4.4883-1.011 4.2593 0 7.5822 2.3801 1.4974-0.51468 0.17333 3.4042 1.47z"/>
  <path id="path3681-4" inkscape:connector-curvature="0" sodipodi:nodetypes="czczsssssszzz" style="fill-opacity:.57919;stroke:#000000;stroke-width:1px;fill:#ffffff" d="m397.8 511.06m-13.076-4.1614c-0.87982-2.5481-4.8327-9.0987-4.8327-9.0987s-3.449-3.5468-12.437-3.9363c-8.9877-0.38954-23.054 4.0674-26.833 5.8217-3.7791 1.7544-7.1749 4.8198-7.203 7.5573s5.484 12.12 7.4075 14.622c2.8316 3.6834 9.6489 4.0351 10.63 3.8964 0.98107-0.13863 8.228-0.93247 17.243-4.3928 7.5373-2.8932 5.3178-1.8538 9.3546-3.7672 4.0662-1.9274 4.8196-1.2089 6.4376-3.5842s1.1124-4.5701 0.23259-7.1182z"/>
  <path id="path3681-4-4" style="fill-opacity:.57919;stroke:#000000;stroke-width:1px;fill:#ffffff" d="m446.54 568.91m-12.152-6.374c-0.42285-2.6624-3.1752-9.801-3.1752-9.801s-2.779-4.093-11.562-6.0411c-8.7827-1.9481-23.41-0.008-27.436 1.0622-4.0268 1.0698-7.9043 3.4973-8.4085 6.1881-0.50417 2.6908 3.2906 12.889 4.7492 15.688 2.1472 4.1201 8.7992 5.653 9.7895 5.6873 0.99022 0.0343 8.2647 0.51399 17.744-1.3243 7.9258-1.537 5.5593-0.89983 9.8675-2.0814 4.3396-1.1902 4.9564-0.35152 6.9632-2.4089s1.8909-4.3067 1.4681-6.969z" inkscape:transform-center-x="-5.2520043" inkscape:connector-curvature="0" sodipodi:nodetypes="czczsssssszzz"/>
  <path id="path3681-4-5" inkscape:connector-curvature="0" sodipodi:nodetypes="czczsssssszzz" style="fill-opacity:.57919;stroke:#000000;stroke-width:.79146px;fill:#ffffff" d="m460.44 618.3m-9.3519-5.9112c-0.0741-2.0334-1.6058-7.6371-1.6058-7.6371s-1.8673-3.3254-8.9-5.6066-19.279-2.1975-22.706-1.7734c-3.4266 0.42409-6.87 1.879-7.5623 3.8469-0.69229 1.9679 1.3829 9.9608 2.296 12.193 1.3442 3.2865 6.6648 5.0574 7.4768 5.1757 0.81201 0.11836 6.7538 1.1587 14.75 0.66962 6.6858-0.40896 4.6712-0.15336 8.341-0.63484 3.6966-0.48499 4.1182 0.20082 5.9828-1.152s2.0008-3.0482 1.9267-5.0816z"/>
  <metadata id="metadata24">
    <rdf:RDF>
      <cc:Work>
        <dc:format>image/svg+xml</dc:format>
        <dc:type rdf:resource="http://purl.org/dc/dcmitype/StillImage"/>
        <cc:license rdf:resource="http://creativecommons.org/licenses/publicdomain/"/>
        <dc:publisher>
          <cc:Agent rdf:about="http://openclipart.org/">
            <dc:title>Openclipart</dc:title>
          </cc:Agent>
        </dc:publisher>
      </cc:Work>
      <cc:License rdf:about="http://creativecommons.org/licenses/publicdomain/">
        <cc:permits rdf:resource="http://creativecommons.org/ns#Reproduction"/>
        <cc:permits rdf:resource="http://creativecommons.org/ns#Distribution"/>
        <cc:permits rdf:resource="http://creativecommons.org/ns#DerivativeWorks"/>
      </cc:License>
    </rdf:RDF>
  </metadata>
</svg>