<svg xmlns="http://www.w3.org/2000/svg" viewBox="-7 -7 28 28" stroke-width="0"><path fill="#fff" d="M-.93 6.166L-2.931 4.17l-3 3 4.966 5 .017-.018.017.018 9-9-3-3z"/><g stroke="#fff" fill="none"><path d="M17.746 10.704a.28.28 0 0 1-.279.28h-6.815a.28.28 0 0 1-.28-.28V3.89a.28.28 0 0 1 .28-.279h6.815a.28.28 0 0 1 .279.28v6.814z" stroke-width="1.1627125"/><path d="M16.26 6.609c-.012.095-.158.068-.213.068h-3.951c-.066 0-.134-.01-.134-.098v-.41-1.364-.425c0-.08.057-.106.126-.106H16.191c.108 0 .068.267.068.315v2.02c0 .132.204.132.204 0V4.472c0-.127.01-.272-.114-.35-.085-.055-.166-.052-.26-.052h-3.588c-.18 0-.467-.051-.629.051-.124.08-.114.224-.114.35v1.872c0 .239-.022.538.31.538h3.653c.258 0 .7.087.742-.272.015-.13-.189-.129-.204 0z" stroke-width=".36524999999999996"/><path d="M12.383 5.012h3.424c.132 0 .132-.204 0-.204h-3.424c-.132 0-.132.204 0 .204zM12.383 6.424h3.424c.132 0 .132-.204 0-.204h-3.424c-.132 0-.132.204 0 .204zM12.383 5.718h3.424c.132 0 .132-.204 0-.204h-3.424c-.132 0-.132.204 0 .204zM13.287 9.769a.222.222 0 0 1-.218.226h-.421a.222.222 0 0 1-.218-.226V8.333c0-.125.097-.226.218-.226h.421c.12 0 .218.101.218.226v1.436z" stroke-width=".36524999999999996"/><path d="M15.885 10.114c-.013.153-.16.133-.268.133h-3.293c-.147 0-.151-.12-.151-.228V8.792v-.601c0-.12-.037-.322.136-.336.217-.017.443 0 .661 0H15.738c.146 0 .147.123.147.227v2.032c0 .131.204.131.204 0V8.037c0-.183-.098-.367-.302-.383-.07-.005-.14-.003-.209-.003H12.314c-.406 0-.345.453-.345.725v1.35c0 .272-.061.725.345.725h3.43c.196 0 .33-.15.345-.337.01-.131-.194-.13-.204 0z" stroke-width=".36524999999999996"/></g></svg>