<svg width="29.265mm" height="21.205mm" version="1.1" viewBox="0 0 29.265 21.205" xmlns="http://www.w3.org/2000/svg">
 <g transform="translate(-20.904 -18.683)">
  <g>
   <path d="m26.741 26.458 1.5813-7.5757h5.6172l-0.26355 1.2661h-4.0566l-0.36173 1.7208h3.9222l-0.26355 1.2661h-3.9222l-0.47542 2.0567h4.408l-0.26872 1.2661z" style="font-variant-caps:normal;font-variant-east-asian:normal;font-variant-ligatures:normal;font-variant-numeric:normal"/>
   <path d="m34.273 26.458 1.5865-7.5757h1.5555l-1.5813 7.5757z" style="font-variant-caps:normal;font-variant-east-asian:normal;font-variant-ligatures:normal;font-variant-numeric:normal"/>
   <path d="m37.794 26.458 1.5865-7.5757h2.589q0.84232 0 1.1782 0.05168 0.5581 0.07752 0.94568 0.31006 0.38757 0.23254 0.58911 0.62012 0.20154 0.38757 0.20154 0.85783 0 0.63045-0.3514 1.0955-0.3514 0.45992-1.0852 0.69763 0.58394 0.1602 0.9095 0.57361 0.33073 0.40824 0.33073 0.92501 0 0.68213-0.38757 1.2971-0.38757 0.60978-1.0697 0.8785-0.68213 0.26872-1.8655 0.26872zm2.5011-4.5165h1.1886q0.80098 0 1.1524-0.11369 0.3514-0.11369 0.5271-0.37207 0.1757-0.25838 0.1757-0.55294 0-0.28939-0.16536-0.47542-0.16536-0.18604-0.47025-0.24805-0.17053-0.03101-0.82165-0.03101h-1.2092zm-0.68729 3.2969h1.5038q0.94568 0 1.2661-0.11886 0.32556-0.12402 0.51676-0.40308 0.19637-0.27905 0.19637-0.58911 0-0.37724-0.27905-0.62012-0.27905-0.24805-0.93017-0.24805h-1.8603z" style="font-variant-caps:normal;font-variant-east-asian:normal;font-variant-ligatures:normal;font-variant-numeric:normal"/>
   <path d="m24.609 39.687 1.5813-7.5757h1.5606l-0.67179 3.2194 3.5037-3.2194h2.0877l-3.4003 2.9714 2.496 4.6044h-1.7622l-1.8707-3.607-1.4728 1.2867-0.48576 2.3203z" style="font-variant-caps:normal;font-variant-east-asian:normal;font-variant-ligatures:normal;font-variant-numeric:normal"/>
   <path d="m38.329 39.687h-1.4521l-2.0464-5.0901-1.0645 5.0901h-1.4521l1.5813-7.5757h1.4573l2.0515 5.0694 1.0594-5.0694h1.4469z" style="font-variant-caps:normal;font-variant-east-asian:normal;font-variant-ligatures:normal;font-variant-numeric:normal"/>
   <path d="m41.182 39.687h-2.0154l3.3435-3.8344-1.881-3.7414h1.6278l0.73897 1.4211q0.03617 0.07752 0.50643 1.049 0.03101 0.05168 0.06718 0.13953 0.63045-0.76998 1.0594-1.2609l1.1937-1.3488h1.9585l-3.4675 3.9894 1.8655 3.5863h-1.757l-0.56844-1.142q-0.44442-0.90434-0.58911-1.2971-0.20154 0.30489-1.0387 1.2609z" style="font-variant-caps:normal;font-variant-east-asian:normal;font-variant-ligatures:normal;font-variant-numeric:normal"/>
  </g>
  <rect x="21.104" y="27.662" width="28.865" height="3.2072" rx="1.6221" fill="#008000"/>
 </g>
</svg>
