<?xml version="1.0" encoding="UTF-8"?>
<!DOCTYPE svg PUBLIC "-//W3C//DTD SVG 1.1//EN" "http://www.w3.org/Graphics/SVG/1.1/DTD/svg11.dtd">
<!-- Creator: CorelDRAW X6 -->
<svg xmlns="http://www.w3.org/2000/svg" xml:space="preserve" width="210mm" height="297mm" version="1.1" style="shape-rendering:geometricPrecision; text-rendering:geometricPrecision; image-rendering:optimizeQuality; fill-rule:evenodd; clip-rule:evenodd"
viewBox="0 0 21000 29700"
 xmlns:xlink="http://www.w3.org/1999/xlink">
 <defs>
  <style type="text/css">
   <![CDATA[
    .fil0 {fill:#FFED00}
   ]]>
  </style>
 </defs>
 <g id="Ebene_x0020_1">
  <metadata id="CorelCorpID_0Corel-Layer"/>
  <g id="_995002800">
   <path class="fil0" d="M8027 19227c-2,-2130 -34,-5557 -659,-5607 -47,0 -47,332 0,332 573,46 584,3359 586,5275 0,214 73,214 73,0l0 0z"/>
   <path class="fil0" d="M8172 19227c-3,-2403 -156,-5561 -804,-5607 -47,0 -47,332 0,332 604,46 728,3073 731,5275 0,214 74,214 73,0l0 0z"/>
   <path class="fil0" d="M7678 19227c-1,-1055 12,-2225 -63,-3240 -36,-478 -111,-792 -187,-1138 -33,-150 -85,82 -51,237 71,327 139,605 172,1056 71,955 55,2089 56,3085 0,214 73,214 73,0l0 0z"/>
   <path class="fil0" d="M7823 19227c-1,-1055 6,-2284 -108,-3245 -64,-541 -187,-823 -294,-1156 -39,-123 -76,164 -37,287 99,305 206,555 268,1038 113,869 97,2112 98,3076 0,214 73,214 73,0l0 0z"/>
   <path class="fil0" d="M8367 19227c1,-855 -16,-2107 108,-2835 35,-205 95,-287 101,-574 4,-213 -70,-213 -74,0 -2,110 -93,415 -110,542 -106,806 -97,1966 -98,2867 -1,214 73,214 73,0l0 0z"/>
   <path class="fil0" d="M8220 19268c27,-760 34,-1779 127,-2457 47,-346 156,-574 218,-874 32,-155 -19,-392 -52,-237 -68,332 -163,551 -224,906 -33,196 -48,455 -62,687 -36,619 -55,1261 -77,1889 -8,209 63,300 70,86l0 0z"/>
   <path class="fil0" d="M8986 19227c0,-846 -8,-1761 52,-2571 31,-414 106,-655 176,-924 36,-137 -16,-373 -52,-237 -72,283 -145,533 -183,942 -78,847 -66,1889 -66,2790 0,214 73,214 73,0z"/>
   <path class="fil0" d="M8841 19227c1,-837 -6,-1820 93,-2567 58,-446 178,-650 272,-901 41,-109 4,-396 -36,-286 -106,277 -216,500 -290,960 -121,746 -112,1921 -113,2794 0,214 73,214 74,0l0 0z"/>
   <path class="fil0" d="M9233 19227c1,-732 -10,-1811 110,-2398 36,-178 92,-219 98,-492 5,-214 -68,-214 -73,0 0,14 -96,351 -111,455 -101,660 -96,1675 -97,2435 -1,214 72,214 73,0z"/>
   <path class="fil0" d="M9086 19268c26,-614 35,-1565 127,-2075 54,-300 153,-478 218,-737 35,-146 -17,-378 -52,-237 -68,278 -166,451 -224,774 -100,555 -112,1520 -139,2189 -9,209 61,300 70,86l0 0z"/>
   <path class="fil0" d="M8733 19237c-1,-565 -3,-1207 -65,-1712 -14,-114 -33,-209 -56,-286 -15,-51 -30,-132 -28,-55 -5,-214 -78,-214 -73,0 5,200 38,241 67,355 92,369 81,1211 82,1698 0,214 73,214 73,0z"/>
   <path class="fil0" d="M8835 19196c-20,-487 -30,-1129 -96,-1548 -40,-250 -115,-378 -165,-582 -35,-142 -87,91 -52,236 46,187 105,305 149,496 24,100 33,264 42,401 23,350 36,719 51,1083 9,209 79,123 71,-86l0 0z"/>
   <path class="fil0" d="M9777 19237c2,-838 -1,-1816 100,-2554 51,-378 146,-578 218,-855 37,-137 -15,-374 -51,-237 -81,309 -170,519 -230,924 -113,751 -108,1861 -110,2722 0,214 73,214 73,0l0 0z"/>
   <path class="fil0" d="M9632 19237c2,-856 7,-1885 143,-2549 83,-401 210,-569 313,-833 41,-109 4,-396 -37,-287 -116,301 -246,492 -340,947 -143,696 -150,1830 -152,2722 0,214 73,214 73,0l0 0z"/>
   <path class="fil0" d="M9968 19209c1,-505 -10,-1279 70,-1697 26,-141 63,-178 68,-387 5,-214 -68,-210 -73,0 1,-59 -62,232 -73,309 -69,492 -65,1220 -65,1775 -1,214 72,214 73,0l0 0z"/>
   <path class="fil0" d="M9870 19255c18,-460 23,-1083 82,-1489 31,-209 103,-345 143,-523 34,-150 -17,-387 -51,-237 -46,205 -112,333 -150,565 -69,419 -76,1101 -94,1593 -8,214 62,300 70,91l0 0z"/>
   <path class="fil0" d="M9485 19223c0,-687 31,-1821 -110,-2271 -39,-123 -76,168 -37,287 21,68 29,68 40,200 44,541 34,1215 34,1784 0,214 73,214 73,0l0 0z"/>
   <path class="fil0" d="M9631 19177c-19,-505 -27,-1151 -91,-1593 -37,-254 -111,-396 -158,-605 -34,-150 -86,87 -52,237 44,191 101,318 143,514 22,105 30,278 38,414 23,369 35,747 49,1124 8,210 79,119 71,-91l0 0z"/>
   <path class="fil0" d="M17787 19227c-1,-2130 -34,-5557 -659,-5607 -47,0 -47,332 0,332 574,46 585,3359 586,5275 0,214 74,214 73,0l0 0z"/>
   <path class="fil0" d="M17933 19227c-4,-2403 -156,-5561 -805,-5607 -47,0 -47,332 0,332 604,46 728,3073 732,5275 0,214 73,214 73,0l0 0z"/>
   <path class="fil0" d="M17438 19227c0,-1055 12,-2225 -63,-3240 -35,-478 -111,-792 -186,-1138 -34,-150 -85,82 -52,237 71,327 139,605 172,1056 71,955 55,2089 56,3085 0,214 73,214 73,0l0 0z"/>
   <path class="fil0" d="M17583 19227c-1,-1055 7,-2284 -107,-3245 -64,-541 -188,-823 -295,-1156 -39,-123 -75,164 -37,287 99,305 206,555 269,1038 112,869 96,2112 97,3076 0,214 73,214 73,0l0 0z"/>
   <path class="fil0" d="M18127 19227c1,-855 -16,-2107 108,-2835 35,-205 96,-287 101,-574 4,-213 -69,-213 -73,0 -2,110 -94,415 -110,542 -106,806 -98,1966 -99,2867 0,214 73,214 73,0l0 0z"/>
   <path class="fil0" d="M17981 19268c26,-760 33,-1779 126,-2457 48,-346 156,-574 218,-874 33,-155 -19,-392 -52,-237 -68,332 -163,551 -223,906 -33,196 -48,455 -62,687 -37,619 -56,1261 -78,1889 -7,209 63,300 71,86l0 0z"/>
   <path class="fil0" d="M18746 19227c1,-846 -7,-1761 53,-2571 30,-414 106,-655 175,-924 36,-137 -16,-373 -51,-237 -73,283 -146,533 -184,942 -78,847 -65,1889 -66,2790 0,214 73,214 73,0z"/>
   <path class="fil0" d="M18601 19227c1,-837 -5,-1820 93,-2567 59,-446 178,-650 273,-901 41,-109 4,-396 -37,-286 -106,277 -216,500 -290,960 -121,746 -111,1921 -112,2794 0,214 73,214 73,0l0 0z"/>
   <path class="fil0" d="M18993 19227c1,-732 -10,-1811 110,-2398 36,-178 92,-219 99,-492 5,-214 -68,-214 -73,0 -1,14 -96,351 -112,455 -101,660 -96,1675 -97,2435 0,214 73,214 73,0z"/>
   <path class="fil0" d="M18847 19268c25,-614 34,-1565 126,-2075 55,-300 154,-478 218,-737 35,-146 -17,-378 -52,-237 -68,278 -166,451 -224,774 -100,555 -111,1520 -139,2189 -9,209 62,300 71,86l0 0z"/>
   <path class="fil0" d="M18493 19237c-1,-565 -3,-1207 -65,-1712 -13,-114 -33,-209 -55,-286 -16,-51 -30,-132 -28,-55 -5,-214 -79,-214 -73,0 4,200 37,241 67,355 91,369 80,1211 81,1698 0,214 73,214 73,0z"/>
   <path class="fil0" d="M18595 19196c-20,-487 -30,-1129 -96,-1548 -40,-250 -115,-378 -165,-582 -35,-142 -87,91 -52,236 46,187 106,305 150,496 23,100 32,264 41,401 23,350 37,719 52,1083 8,209 79,123 70,-86l0 0z"/>
   <path class="fil0" d="M19538 19237c1,-838 -2,-1816 99,-2554 52,-378 146,-578 219,-855 36,-137 -16,-374 -52,-237 -80,309 -169,519 -230,924 -113,751 -108,1861 -109,2722 -1,214 73,214 73,0l0 0z"/>
   <path class="fil0" d="M19393 19237c1,-856 6,-1885 143,-2549 82,-401 210,-569 312,-833 41,-109 5,-396 -36,-287 -117,301 -247,492 -340,947 -144,696 -151,1830 -152,2722 -1,214 72,214 73,0l0 0z"/>
   <path class="fil0" d="M19728 19209c1,-505 -10,-1279 70,-1697 27,-141 64,-178 69,-387 4,-214 -69,-210 -74,0 2,-59 -62,232 -72,309 -69,492 -65,1220 -66,1775 0,214 73,214 73,0l0 0z"/>
   <path class="fil0" d="M19631 19255c17,-460 23,-1083 82,-1489 30,-209 103,-345 143,-523 34,-150 -18,-387 -52,-237 -46,205 -111,333 -150,565 -69,419 -75,1101 -94,1593 -8,214 63,300 71,91l0 0z"/>
   <path class="fil0" d="M19246 19223c-1,-687 31,-1821 -111,-2271 -39,-123 -75,168 -37,287 22,68 29,68 40,200 44,541 34,1215 34,1784 1,214 74,214 74,0l0 0z"/>
   <path class="fil0" d="M19391 19177c-19,-505 -27,-1151 -91,-1593 -37,-254 -110,-396 -158,-605 -33,-150 -85,87 -51,237 43,191 100,318 142,514 22,105 30,278 39,414 22,369 35,747 49,1124 8,210 78,119 70,-91l0 0z"/>
   <path class="fil0" d="M10485 19227c-2,-2130 -34,-5557 -659,-5607 -47,0 -47,332 0,332 573,46 584,3359 586,5275 0,214 73,214 73,0l0 0z"/>
   <path class="fil0" d="M10630 19227c-3,-2403 -156,-5561 -804,-5607 -47,0 -47,332 0,332 604,46 728,3073 731,5275 0,214 73,214 73,0l0 0z"/>
   <path class="fil0" d="M10136 19227c-1,-1055 12,-2225 -63,-3240 -36,-478 -111,-792 -187,-1138 -33,-150 -85,82 -52,237 72,327 140,605 173,1056 71,955 55,2089 55,3085 1,214 74,214 74,0l0 0z"/>
   <path class="fil0" d="M10281 19227c-1,-1055 6,-2284 -108,-3245 -64,-541 -187,-823 -294,-1156 -39,-123 -76,164 -37,287 99,305 206,555 268,1038 113,869 97,2112 98,3076 0,214 73,214 73,0l0 0z"/>
   <path class="fil0" d="M10825 19227c1,-855 -16,-2107 108,-2835 35,-205 95,-287 100,-574 4,-213 -69,-213 -73,0 -2,110 -93,415 -110,542 -106,806 -97,1966 -98,2867 -1,214 72,214 73,0l0 0z"/>
   <path class="fil0" d="M10678 19268c27,-760 33,-1779 127,-2457 47,-346 156,-574 218,-874 32,-155 -20,-392 -52,-237 -68,332 -163,551 -224,906 -33,196 -48,455 -62,687 -36,619 -55,1261 -77,1889 -8,209 63,300 70,86l0 0z"/>
   <path class="fil0" d="M11444 19227c0,-846 -8,-1761 52,-2571 31,-414 106,-655 176,-924 36,-137 -16,-373 -52,-237 -72,283 -145,533 -183,942 -78,847 -66,1889 -66,2790 -1,214 73,214 73,0z"/>
   <path class="fil0" d="M11299 19227c1,-837 -6,-1820 92,-2567 59,-446 178,-650 273,-901 41,-109 4,-396 -37,-286 -105,277 -215,500 -289,960 -121,746 -112,1921 -113,2794 0,214 73,214 74,0l0 0z"/>
   <path class="fil0" d="M11691 19227c1,-732 -10,-1811 110,-2398 36,-178 92,-219 98,-492 5,-214 -68,-214 -73,0 0,14 -96,351 -111,455 -101,660 -96,1675 -98,2435 0,214 73,214 74,0z"/>
   <path class="fil0" d="M11544 19268c25,-614 35,-1565 127,-2075 54,-300 153,-478 218,-737 35,-146 -17,-378 -52,-237 -68,278 -166,451 -224,774 -100,555 -112,1520 -139,2189 -9,209 61,300 70,86l0 0z"/>
   <path class="fil0" d="M11191 19237c-1,-565 -3,-1207 -65,-1712 -14,-114 -33,-209 -56,-286 -16,-51 -30,-132 -28,-55 -5,-214 -78,-214 -73,0 5,200 38,241 67,355 92,369 81,1211 82,1698 0,214 73,214 73,0z"/>
   <path class="fil0" d="M11293 19196c-20,-487 -30,-1129 -96,-1548 -40,-250 -115,-378 -166,-582 -35,-142 -86,91 -51,236 46,187 105,305 149,496 24,100 33,264 41,401 24,350 37,719 52,1083 9,209 79,123 71,-86l0 0z"/>
   <path class="fil0" d="M12235 19237c2,-838 -1,-1816 100,-2554 51,-378 146,-578 218,-855 37,-137 -15,-374 -51,-237 -81,309 -170,519 -231,924 -112,751 -108,1861 -109,2722 0,214 73,214 73,0l0 0z"/>
   <path class="fil0" d="M12090 19237c2,-856 7,-1885 143,-2549 83,-401 210,-569 313,-833 41,-109 4,-396 -37,-287 -116,301 -246,492 -340,947 -144,696 -150,1830 -152,2722 0,214 73,214 73,0l0 0z"/>
   <path class="fil0" d="M12426 19209c0,-505 -10,-1279 70,-1697 26,-141 63,-178 68,-387 5,-214 -68,-210 -73,0 1,-59 -62,232 -73,309 -69,492 -65,1220 -65,1775 -1,214 72,214 73,0l0 0z"/>
   <path class="fil0" d="M12328 19255c18,-460 23,-1083 82,-1489 31,-209 103,-345 143,-523 34,-150 -18,-387 -51,-237 -46,205 -112,333 -150,565 -70,419 -76,1101 -94,1593 -8,214 62,300 70,91l0 0z"/>
   <path class="fil0" d="M11943 19223c0,-687 31,-1821 -111,-2271 -38,-123 -75,168 -37,287 22,68 30,68 41,200 44,541 33,1215 34,1784 0,214 73,214 73,0l0 0z"/>
   <path class="fil0" d="M12089 19177c-19,-505 -27,-1151 -91,-1593 -37,-254 -111,-396 -158,-605 -34,-150 -86,87 -52,237 44,191 101,318 142,514 23,105 31,278 39,414 23,369 35,747 49,1124 8,210 79,119 71,-91l0 0z"/>
   <path class="fil0" d="M2783 19227c-2,-2130 -35,-5557 -659,-5607 -48,0 -47,332 0,332 573,46 584,3359 586,5275 0,214 73,214 73,0l0 0z"/>
   <path class="fil0" d="M2928 19227c-3,-2403 -156,-5561 -804,-5607 -48,0 -47,332 0,332 603,46 728,3073 731,5275 0,214 73,214 73,0l0 0z"/>
   <path class="fil0" d="M2433 19227c0,-1055 13,-2225 -63,-3240 -35,-478 -110,-792 -186,-1138 -33,-150 -85,82 -52,237 72,327 140,605 173,1056 71,955 55,2089 55,3085 0,214 74,214 73,0l0 0z"/>
   <path class="fil0" d="M2579 19227c-1,-1055 6,-2284 -108,-3245 -64,-541 -187,-823 -294,-1156 -39,-123 -76,164 -37,287 99,305 205,555 268,1038 113,869 97,2112 98,3076 0,214 73,214 73,0l0 0z"/>
   <path class="fil0" d="M3123 19227c1,-855 -16,-2107 108,-2835 35,-205 95,-287 100,-574 4,-213 -69,-213 -73,0 -2,110 -93,415 -110,542 -106,806 -97,1966 -98,2867 -1,214 72,214 73,0l0 0z"/>
   <path class="fil0" d="M2976 19268c27,-760 33,-1779 126,-2457 48,-346 156,-574 219,-874 32,-155 -20,-392 -52,-237 -68,332 -163,551 -224,906 -33,196 -48,455 -62,687 -37,619 -55,1261 -77,1889 -8,209 63,300 70,86l0 0z"/>
   <path class="fil0" d="M3742 19227c0,-846 -8,-1761 52,-2571 30,-414 106,-655 176,-924 36,-137 -16,-373 -52,-237 -72,283 -145,533 -183,942 -78,847 -66,1889 -66,2790 -1,214 73,214 73,0z"/>
   <path class="fil0" d="M3596 19227c1,-837 -5,-1820 93,-2567 59,-446 178,-650 273,-901 41,-109 4,-396 -37,-286 -105,277 -215,500 -290,960 -120,746 -111,1921 -112,2794 0,214 73,214 73,0l0 0z"/>
   <path class="fil0" d="M3988 19227c2,-732 -9,-1811 111,-2398 36,-178 92,-219 98,-492 5,-214 -68,-214 -73,0 0,14 -96,351 -111,455 -101,660 -96,1675 -98,2435 0,214 73,214 73,0z"/>
   <path class="fil0" d="M3842 19268c25,-614 35,-1565 127,-2075 54,-300 153,-478 218,-737 35,-146 -17,-378 -52,-237 -69,278 -166,451 -224,774 -101,555 -112,1520 -140,2189 -8,209 62,300 71,86l0 0z"/>
   <path class="fil0" d="M3489 19237c-1,-565 -3,-1207 -65,-1712 -14,-114 -34,-209 -56,-286 -16,-51 -30,-132 -28,-55 -5,-214 -78,-214 -73,0 5,200 38,241 67,355 92,369 81,1211 81,1698 1,214 74,214 74,0z"/>
   <path class="fil0" d="M3591 19196c-21,-487 -30,-1129 -96,-1548 -40,-250 -115,-378 -166,-582 -35,-142 -87,91 -51,236 46,187 105,305 149,496 23,100 32,264 41,401 24,350 37,719 52,1083 9,209 79,123 71,-86l0 0z"/>
   <path class="fil0" d="M4533 19237c1,-838 -2,-1816 100,-2554 51,-378 146,-578 218,-855 36,-137 -16,-374 -51,-237 -81,309 -170,519 -231,924 -113,751 -108,1861 -109,2722 0,214 73,214 73,0l0 0z"/>
   <path class="fil0" d="M4388 19237c2,-856 6,-1885 143,-2549 82,-401 210,-569 313,-833 41,-109 4,-396 -37,-287 -116,301 -247,492 -340,947 -144,696 -150,1830 -152,2722 0,214 73,214 73,0l0 0z"/>
   <path class="fil0" d="M4724 19209c0,-505 -10,-1279 70,-1697 26,-141 63,-178 68,-387 5,-214 -68,-210 -73,0 1,-59 -62,232 -73,309 -69,492 -65,1220 -66,1775 0,214 73,214 74,0l0 0z"/>
   <path class="fil0" d="M4626 19255c18,-460 23,-1083 82,-1489 31,-209 103,-345 143,-523 34,-150 -18,-387 -51,-237 -46,205 -112,333 -150,565 -70,419 -76,1101 -94,1593 -8,214 62,300 70,91l0 0z"/>
   <path class="fil0" d="M4241 19223c-1,-687 31,-1821 -111,-2271 -38,-123 -75,168 -37,287 22,68 30,68 41,200 44,541 33,1215 34,1784 0,214 73,214 73,0l0 0z"/>
   <path class="fil0" d="M4387 19177c-19,-505 -27,-1151 -92,-1593 -37,-254 -110,-396 -157,-605 -34,-150 -86,87 -52,237 44,191 101,318 142,514 23,105 31,278 39,414 22,369 35,747 49,1124 8,210 79,119 71,-91l0 0z"/>
   <path class="fil0" d="M12943 19227c-2,-2130 -35,-5557 -659,-5607 -48,0 -47,332 0,332 573,46 584,3359 586,5275 0,214 73,214 73,0l0 0z"/>
   <path class="fil0" d="M13088 19227c-3,-2403 -156,-5561 -804,-5607 -48,0 -47,332 0,332 603,46 728,3073 731,5275 0,214 73,214 73,0l0 0z"/>
   <path class="fil0" d="M12593 19227c0,-1055 13,-2225 -62,-3240 -36,-478 -111,-792 -187,-1138 -33,-150 -85,82 -52,237 72,327 140,605 173,1056 71,955 55,2089 55,3085 0,214 74,214 73,0l0 0z"/>
   <path class="fil0" d="M12739 19227c-1,-1055 6,-2284 -108,-3245 -64,-541 -187,-823 -294,-1156 -39,-123 -76,164 -37,287 99,305 205,555 268,1038 113,869 97,2112 98,3076 0,214 73,214 73,0l0 0z"/>
   <path class="fil0" d="M13283 19227c1,-855 -16,-2107 108,-2835 35,-205 95,-287 100,-574 4,-213 -69,-213 -73,0 -2,110 -93,415 -110,542 -106,806 -97,1966 -98,2867 -1,214 72,214 73,0l0 0z"/>
   <path class="fil0" d="M13136 19268c27,-760 33,-1779 126,-2457 48,-346 156,-574 219,-874 32,-155 -20,-392 -52,-237 -68,332 -163,551 -224,906 -33,196 -48,455 -62,687 -37,619 -55,1261 -77,1889 -8,209 63,300 70,86l0 0z"/>
   <path class="fil0" d="M13902 19227c0,-846 -8,-1761 52,-2571 30,-414 106,-655 176,-924 36,-137 -16,-373 -52,-237 -72,283 -145,533 -183,942 -78,847 -66,1889 -66,2790 -1,214 73,214 73,0z"/>
   <path class="fil0" d="M13756 19227c1,-837 -5,-1820 93,-2567 59,-446 178,-650 273,-901 41,-109 4,-396 -37,-286 -105,277 -215,500 -290,960 -120,746 -111,1921 -112,2794 0,214 73,214 73,0l0 0z"/>
   <path class="fil0" d="M14148 19227c2,-732 -9,-1811 111,-2398 36,-178 92,-219 98,-492 5,-214 -68,-214 -73,0 0,14 -96,351 -111,455 -101,660 -96,1675 -98,2435 0,214 73,214 73,0z"/>
   <path class="fil0" d="M14002 19268c25,-614 35,-1565 127,-2075 54,-300 153,-478 218,-737 35,-146 -17,-378 -52,-237 -69,278 -166,451 -224,774 -101,555 -112,1520 -140,2189 -8,209 62,300 71,86l0 0z"/>
   <path class="fil0" d="M13649 19237c-1,-565 -3,-1207 -65,-1712 -14,-114 -34,-209 -56,-286 -16,-51 -30,-132 -28,-55 -5,-214 -78,-214 -73,0 5,200 38,241 67,355 92,369 81,1211 81,1698 1,214 74,214 74,0z"/>
   <path class="fil0" d="M13751 19196c-21,-487 -30,-1129 -96,-1548 -40,-250 -115,-378 -166,-582 -35,-142 -87,91 -51,236 46,187 105,305 149,496 24,100 32,264 41,401 24,350 37,719 52,1083 9,209 79,123 71,-86l0 0z"/>
   <path class="fil0" d="M14693 19237c1,-838 -2,-1816 100,-2554 51,-378 146,-578 218,-855 36,-137 -16,-374 -51,-237 -81,309 -170,519 -231,924 -112,751 -108,1861 -109,2722 0,214 73,214 73,0l0 0z"/>
   <path class="fil0" d="M14548 19237c2,-856 6,-1885 143,-2549 82,-401 210,-569 313,-833 41,-109 4,-396 -37,-287 -116,301 -247,492 -340,947 -144,696 -150,1830 -152,2722 0,214 73,214 73,0l0 0z"/>
   <path class="fil0" d="M14884 19209c0,-505 -10,-1279 70,-1697 26,-141 63,-178 68,-387 5,-214 -68,-210 -73,0 1,-59 -62,232 -73,309 -69,492 -65,1220 -66,1775 0,214 73,214 74,0l0 0z"/>
   <path class="fil0" d="M14786 19255c18,-460 23,-1083 82,-1489 31,-209 103,-345 143,-523 34,-150 -18,-387 -51,-237 -46,205 -112,333 -150,565 -70,419 -76,1101 -94,1593 -8,214 62,300 70,91l0 0z"/>
   <path class="fil0" d="M14401 19223c-1,-687 31,-1821 -111,-2271 -38,-123 -75,168 -37,287 22,68 30,68 41,200 44,541 33,1215 34,1784 0,214 73,214 73,0l0 0z"/>
   <path class="fil0" d="M14547 19177c-19,-505 -27,-1151 -92,-1593 -37,-254 -110,-396 -157,-605 -34,-150 -86,87 -52,237 44,191 101,318 142,514 23,105 31,278 39,414 22,369 35,747 49,1124 8,210 79,119 71,-91l0 0z"/>
   <path class="fil0" d="M5241 19227c-2,-2130 -35,-5557 -659,-5607 -48,0 -48,332 0,332 573,46 584,3359 586,5275 0,214 73,214 73,0l0 0z"/>
   <path class="fil0" d="M5386 19227c-3,-2403 -156,-5561 -804,-5607 -48,0 -48,332 0,332 603,46 728,3073 731,5275 0,214 73,214 73,0l0 0z"/>
   <path class="fil0" d="M4891 19227c0,-1055 13,-2225 -63,-3240 -35,-478 -110,-792 -186,-1138 -33,-150 -85,82 -52,237 72,327 139,605 173,1056 71,955 55,2089 55,3085 0,214 73,214 73,0l0 0z"/>
   <path class="fil0" d="M5037 19227c-1,-1055 6,-2284 -108,-3245 -64,-541 -187,-823 -294,-1156 -40,-123 -76,164 -37,287 98,305 205,555 268,1038 112,869 97,2112 97,3076 1,214 74,214 74,0l0 0z"/>
   <path class="fil0" d="M5581 19227c1,-855 -16,-2107 108,-2835 35,-205 95,-287 100,-574 4,-213 -69,-213 -73,0 -2,110 -93,415 -110,542 -106,806 -97,1966 -99,2867 0,214 73,214 74,0l0 0z"/>
   <path class="fil0" d="M5434 19268c27,-760 33,-1779 126,-2457 48,-346 156,-574 219,-874 32,-155 -20,-392 -52,-237 -69,332 -163,551 -224,906 -33,196 -48,455 -62,687 -37,619 -56,1261 -78,1889 -7,209 64,300 71,86l0 0z"/>
   <path class="fil0" d="M6200 19227c0,-846 -8,-1761 52,-2571 30,-414 106,-655 176,-924 36,-137 -16,-373 -52,-237 -72,283 -145,533 -183,942 -79,847 -66,1889 -67,2790 0,214 73,214 74,0z"/>
   <path class="fil0" d="M6054 19227c1,-837 -5,-1820 93,-2567 59,-446 178,-650 273,-901 41,-109 4,-396 -37,-286 -106,277 -215,500 -290,960 -121,746 -111,1921 -112,2794 0,214 73,214 73,0l0 0z"/>
   <path class="fil0" d="M6446 19227c2,-732 -9,-1811 111,-2398 36,-178 92,-219 98,-492 5,-214 -68,-214 -73,0 0,14 -96,351 -112,455 -100,660 -96,1675 -97,2435 0,214 73,214 73,0z"/>
   <path class="fil0" d="M6300 19268c25,-614 34,-1565 127,-2075 54,-300 153,-478 217,-737 36,-146 -16,-378 -51,-237 -69,278 -166,451 -225,774 -100,555 -111,1520 -139,2189 -8,209 62,300 71,86l0 0z"/>
   <path class="fil0" d="M5946 19237c-1,-565 -2,-1207 -64,-1712 -14,-114 -34,-209 -56,-286 -16,-51 -30,-132 -28,-55 -5,-214 -78,-214 -73,0 5,200 38,241 67,355 92,369 81,1211 81,1698 1,214 74,214 73,0z"/>
   <path class="fil0" d="M6048 19196c-20,-487 -29,-1129 -95,-1548 -40,-250 -115,-378 -166,-582 -35,-142 -87,91 -51,236 46,187 105,305 149,496 23,100 32,264 41,401 24,350 37,719 52,1083 9,209 79,123 70,-86l0 0z"/>
   <path class="fil0" d="M6991 19237c1,-838 -2,-1816 99,-2554 52,-378 146,-578 219,-855 36,-137 -16,-374 -52,-237 -80,309 -169,519 -230,924 -113,751 -108,1861 -109,2722 0,214 73,214 73,0l0 0z"/>
   <path class="fil0" d="M6846 19237c2,-856 6,-1885 143,-2549 82,-401 210,-569 313,-833 41,-109 4,-396 -37,-287 -116,301 -247,492 -340,947 -144,696 -150,1830 -152,2722 -1,214 73,214 73,0l0 0z"/>
   <path class="fil0" d="M7181 19209c1,-505 -9,-1279 71,-1697 26,-141 63,-178 68,-387 5,-214 -69,-210 -73,0 1,-59 -63,232 -73,309 -69,492 -65,1220 -66,1775 0,214 73,214 73,0l0 0z"/>
   <path class="fil0" d="M7084 19255c17,-460 23,-1083 82,-1489 31,-209 103,-345 143,-523 34,-150 -18,-387 -52,-237 -45,205 -111,333 -149,565 -70,419 -76,1101 -95,1593 -8,214 63,300 71,91l0 0z"/>
   <path class="fil0" d="M6699 19223c-1,-687 31,-1821 -111,-2271 -39,-123 -75,168 -37,287 22,68 30,68 40,200 45,541 34,1215 35,1784 0,214 73,214 73,0l0 0z"/>
   <path class="fil0" d="M6845 19177c-19,-505 -27,-1151 -92,-1593 -37,-254 -110,-396 -157,-605 -34,-150 -86,87 -52,237 44,191 101,318 142,514 23,105 31,278 39,414 22,369 35,747 49,1124 8,210 79,119 71,-91l0 0z"/>
   <path class="fil0" d="M15401 19227c-2,-2130 -35,-5557 -659,-5607 -48,0 -48,332 0,332 573,46 584,3359 586,5275 0,214 73,214 73,0l0 0z"/>
   <path class="fil0" d="M15546 19227c-3,-2403 -156,-5561 -804,-5607 -48,0 -48,332 0,332 603,46 728,3073 731,5275 0,214 73,214 73,0l0 0z"/>
   <path class="fil0" d="M15051 19227c0,-1055 13,-2225 -63,-3240 -35,-478 -110,-792 -186,-1138 -33,-150 -85,82 -52,237 72,327 139,605 173,1056 71,955 55,2089 55,3085 0,214 74,214 73,0l0 0z"/>
   <path class="fil0" d="M15197 19227c-1,-1055 6,-2284 -108,-3245 -64,-541 -187,-823 -294,-1156 -39,-123 -76,164 -37,287 98,305 205,555 268,1038 113,869 97,2112 97,3076 1,214 74,214 74,0l0 0z"/>
   <path class="fil0" d="M15741 19227c1,-855 -16,-2107 108,-2835 35,-205 95,-287 100,-574 4,-213 -69,-213 -73,0 -2,110 -93,415 -110,542 -106,806 -97,1966 -99,2867 0,214 73,214 74,0l0 0z"/>
   <path class="fil0" d="M15594 19268c27,-760 33,-1779 126,-2457 48,-346 156,-574 219,-874 32,-155 -20,-392 -52,-237 -69,332 -163,551 -224,906 -33,196 -48,455 -62,687 -37,619 -56,1261 -78,1889 -7,209 64,300 71,86l0 0z"/>
   <path class="fil0" d="M16360 19227c0,-846 -8,-1761 52,-2571 30,-414 106,-655 176,-924 36,-137 -16,-373 -52,-237 -72,283 -145,533 -183,942 -79,847 -66,1889 -67,2790 0,214 73,214 74,0z"/>
   <path class="fil0" d="M16214 19227c1,-837 -5,-1820 93,-2567 59,-446 178,-650 273,-901 41,-109 4,-396 -37,-286 -106,277 -215,500 -290,960 -120,746 -111,1921 -112,2794 0,214 73,214 73,0l0 0z"/>
   <path class="fil0" d="M16606 19227c2,-732 -9,-1811 111,-2398 36,-178 92,-219 98,-492 5,-214 -68,-214 -73,0 0,14 -96,351 -111,455 -101,660 -96,1675 -98,2435 0,214 73,214 73,0z"/>
   <path class="fil0" d="M16460 19268c25,-614 35,-1565 127,-2075 54,-300 153,-478 217,-737 36,-146 -16,-378 -51,-237 -69,278 -166,451 -225,774 -100,555 -111,1520 -139,2189 -8,209 62,300 71,86l0 0z"/>
   <path class="fil0" d="M16106 19237c-1,-565 -2,-1207 -64,-1712 -14,-114 -34,-209 -56,-286 -16,-51 -30,-132 -28,-55 -5,-214 -78,-214 -73,0 5,200 38,241 67,355 92,369 81,1211 81,1698 1,214 74,214 73,0z"/>
   <path class="fil0" d="M16208 19196c-20,-487 -29,-1129 -95,-1548 -40,-250 -115,-378 -166,-582 -35,-142 -87,91 -51,236 46,187 105,305 149,496 23,100 32,264 41,401 24,350 37,719 52,1083 9,209 79,123 70,-86l0 0z"/>
   <path class="fil0" d="M17151 19237c1,-838 -2,-1816 99,-2554 52,-378 147,-578 219,-855 36,-137 -16,-374 -52,-237 -80,309 -169,519 -230,924 -113,751 -108,1861 -109,2722 0,214 73,214 73,0l0 0z"/>
   <path class="fil0" d="M17006 19237c2,-856 6,-1885 143,-2549 82,-401 210,-569 313,-833 41,-109 4,-396 -37,-287 -116,301 -247,492 -340,947 -144,696 -150,1830 -152,2722 -1,214 73,214 73,0l0 0z"/>
   <path class="fil0" d="M17342 19209c0,-505 -10,-1279 70,-1697 26,-141 63,-178 68,-387 5,-214 -69,-210 -73,0 1,-59 -62,232 -73,309 -69,492 -65,1220 -66,1775 0,214 73,214 74,0l0 0z"/>
   <path class="fil0" d="M17244 19255c17,-460 23,-1083 82,-1489 31,-209 103,-345 143,-523 34,-150 -18,-387 -52,-237 -45,205 -111,333 -149,565 -70,419 -76,1101 -95,1593 -8,214 63,300 71,91l0 0z"/>
   <path class="fil0" d="M16859 19223c-1,-687 31,-1821 -111,-2271 -39,-123 -75,168 -37,287 22,68 30,68 40,200 45,541 34,1215 35,1784 0,214 73,214 73,0l0 0z"/>
   <path class="fil0" d="M17005 19177c-19,-505 -27,-1151 -92,-1593 -37,-254 -110,-396 -157,-605 -34,-150 -86,87 -52,237 44,191 101,318 142,514 23,105 31,278 39,414 22,369 35,747 49,1124 8,210 79,119 71,-91l0 0z"/>
   <path class="fil0" d="M7699 19227c-2,-2130 -35,-5557 -660,-5607 -47,0 -47,332 0,332 574,46 585,3359 587,5275 0,214 73,214 73,0l0 0z"/>
   <path class="fil0" d="M7844 19227c-3,-2403 -156,-5561 -805,-5607 -47,0 -47,332 0,332 604,46 729,3073 732,5275 0,214 73,214 73,0l0 0z"/>
   <path class="fil0" d="M7349 19227c0,-1055 13,-2225 -63,-3240 -35,-478 -110,-792 -186,-1138 -33,-150 -85,82 -52,237 72,327 139,605 173,1056 71,955 55,2089 55,3085 0,214 73,214 73,0l0 0z"/>
   <path class="fil0" d="M7495 19227c-1,-1055 6,-2284 -108,-3245 -64,-541 -187,-823 -295,-1156 -39,-123 -75,164 -36,287 98,305 205,555 268,1038 112,869 97,2112 97,3076 1,214 74,214 74,0l0 0z"/>
   <path class="fil0" d="M8038 19227c1,-855 -15,-2107 109,-2835 35,-205 95,-287 100,-574 4,-213 -69,-213 -73,0 -2,110 -94,415 -110,542 -106,806 -98,1966 -99,2867 0,214 73,214 73,0l0 0z"/>
   <path class="fil0" d="M7892 19268c27,-760 33,-1779 126,-2457 48,-346 156,-574 218,-874 33,-155 -19,-392 -51,-237 -69,332 -164,551 -224,906 -33,196 -48,455 -62,687 -37,619 -56,1261 -78,1889 -7,209 64,300 71,86l0 0z"/>
   <path class="fil0" d="M8657 19227c1,-846 -7,-1761 53,-2571 30,-414 106,-655 175,-924 36,-137 -16,-373 -51,-237 -72,283 -145,533 -183,942 -79,847 -66,1889 -67,2790 0,214 73,214 73,0z"/>
   <path class="fil0" d="M8512 19227c1,-837 -5,-1820 93,-2567 59,-446 178,-650 273,-901 41,-109 4,-396 -37,-286 -106,277 -216,500 -290,960 -121,746 -111,1921 -112,2794 0,214 73,214 73,0l0 0z"/>
   <path class="fil0" d="M8904 19227c2,-732 -9,-1811 111,-2398 36,-178 92,-219 98,-492 5,-214 -68,-214 -73,0 0,14 -96,351 -112,455 -100,660 -96,1675 -97,2435 0,214 73,214 73,0z"/>
   <path class="fil0" d="M8758 19268c25,-614 34,-1565 127,-2075 54,-300 153,-478 217,-737 36,-146 -16,-378 -51,-237 -69,278 -166,451 -225,774 -100,555 -111,1520 -139,2189 -8,209 62,300 71,86l0 0z"/>
   <path class="fil0" d="M8404 19237c-1,-565 -2,-1207 -65,-1712 -13,-114 -33,-209 -55,-286 -16,-51 -30,-132 -28,-55 -5,-214 -78,-214 -73,0 5,200 38,241 67,355 92,369 80,1211 81,1698 1,214 74,214 73,0z"/>
   <path class="fil0" d="M8506 19196c-20,-487 -29,-1129 -95,-1548 -40,-250 -115,-378 -166,-582 -35,-142 -87,91 -52,236 47,187 106,305 150,496 23,100 32,264 41,401 24,350 37,719 52,1083 9,209 79,123 70,-86l0 0z"/>
   <path class="fil0" d="M9449 19237c1,-838 -2,-1816 99,-2554 52,-378 146,-578 219,-855 36,-137 -16,-374 -52,-237 -80,309 -169,519 -230,924 -113,751 -108,1861 -109,2722 0,214 73,214 73,0l0 0z"/>
   <path class="fil0" d="M9304 19237c2,-856 6,-1885 143,-2549 82,-401 210,-569 313,-833 41,-109 4,-396 -37,-287 -117,301 -247,492 -340,947 -144,696 -151,1830 -152,2722 -1,214 73,214 73,0l0 0z"/>
   <path class="fil0" d="M9639 19209c1,-505 -9,-1279 70,-1697 27,-141 64,-178 69,-387 5,-214 -69,-210 -73,0 1,-59 -63,232 -73,309 -69,492 -65,1220 -66,1775 0,214 73,214 73,0l0 0z"/>
   <path class="fil0" d="M9542 19255c17,-460 23,-1083 82,-1489 30,-209 103,-345 143,-523 34,-150 -18,-387 -52,-237 -45,205 -111,333 -149,565 -70,419 -76,1101 -95,1593 -8,214 63,300 71,91l0 0z"/>
   <path class="fil0" d="M9157 19223c-1,-687 31,-1821 -111,-2271 -39,-123 -75,168 -37,287 22,68 30,68 40,200 44,541 34,1215 35,1784 0,214 73,214 73,0l0 0z"/>
   <path class="fil0" d="M9303 19177c-20,-505 -27,-1151 -92,-1593 -37,-254 -110,-396 -157,-605 -34,-150 -86,87 -52,237 43,191 101,318 142,514 23,105 31,278 39,414 22,369 35,747 49,1124 8,210 79,119 71,-91l0 0z"/>
  </g>
 </g>
</svg>
