<?xml version="1.0" encoding="UTF-8"?>
<!DOCTYPE svg PUBLIC "-//W3C//DTD SVG 1.1//EN" "http://www.w3.org/Graphics/SVG/1.1/DTD/svg11.dtd">
<!-- Creator: CorelDRAW X6 -->
<svg xmlns="http://www.w3.org/2000/svg" xml:space="preserve" width="210mm" height="297mm" version="1.1" style="shape-rendering:geometricPrecision; text-rendering:geometricPrecision; image-rendering:optimizeQuality; fill-rule:evenodd; clip-rule:evenodd"
viewBox="0 0 21000 29700"
 xmlns:xlink="http://www.w3.org/1999/xlink">
 <defs>
  <style type="text/css">
   <![CDATA[
    .fil0 {fill:#FFED00}
   ]]>
  </style>
 </defs>
 <g id="Ebene_x0020_1">
  <metadata id="CorelCorpID_0Corel-Layer"/>
  <g id="_836531040">
   <path class="fil0" d="M9503 19677c-2,-2130 -35,-5557 -659,-5607 -48,0 -47,332 0,332 573,46 584,3359 586,5275 0,214 73,214 73,0l0 0z"/>
   <path class="fil0" d="M9648 19677c-3,-2403 -156,-5562 -804,-5607 -48,0 -47,332 0,332 603,46 728,3072 731,5275 0,214 73,214 73,0l0 0z"/>
   <path class="fil0" d="M9153 19677c0,-1056 13,-2225 -63,-3240 -35,-478 -110,-792 -186,-1138 -33,-150 -85,82 -52,236 72,328 140,606 173,1056 71,956 55,2090 55,3086 0,214 74,214 73,0l0 0z"/>
   <path class="fil0" d="M9299 19677c-1,-1056 6,-2285 -108,-3245 -64,-542 -187,-824 -294,-1156 -39,-123 -76,164 -37,287 99,305 205,555 268,1038 113,869 97,2111 98,3076 0,214 73,214 73,0l0 0z"/>
   <path class="fil0" d="M9843 19677c1,-855 -16,-2107 108,-2835 35,-205 95,-287 100,-574 4,-214 -69,-214 -73,0 -2,109 -93,414 -110,542 -106,805 -97,1966 -98,2867 -1,214 72,214 73,0l0 0z"/>
   <path class="fil0" d="M9696 19718c27,-760 33,-1779 126,-2458 48,-345 156,-573 219,-873 32,-155 -20,-392 -52,-237 -68,332 -163,551 -224,906 -33,195 -48,455 -62,687 -37,619 -55,1261 -77,1889 -8,209 63,300 70,86l0 0z"/>
   <path class="fil0" d="M10462 19677c0,-846 -8,-1761 52,-2571 30,-414 106,-656 176,-924 36,-137 -16,-373 -52,-237 -72,282 -145,533 -183,942 -78,847 -66,1889 -66,2790 -1,214 73,214 73,0z"/>
   <path class="fil0" d="M10316 19677c1,-837 -5,-1820 93,-2567 59,-446 178,-651 273,-901 41,-109 4,-396 -37,-287 -105,278 -215,501 -290,961 -120,746 -111,1920 -112,2794 0,214 73,214 73,0l0 0z"/>
   <path class="fil0" d="M10708 19677c2,-733 -9,-1811 111,-2398 36,-178 92,-219 98,-492 5,-214 -68,-214 -73,0 0,14 -96,351 -111,455 -101,660 -96,1675 -98,2435 0,214 73,214 73,0z"/>
   <path class="fil0" d="M10562 19718c25,-614 35,-1565 127,-2075 54,-301 153,-478 218,-738 35,-145 -17,-377 -52,-236 -69,277 -166,450 -224,774 -101,555 -112,1520 -140,2189 -8,209 62,300 71,86l0 0z"/>
   <path class="fil0" d="M10209 19686c-1,-564 -3,-1206 -65,-1711 -14,-114 -34,-209 -56,-287 -16,-50 -30,-132 -28,-54 -5,-214 -78,-214 -73,0 5,200 38,241 67,355 92,368 81,1210 81,1697 1,214 74,214 74,0z"/>
   <path class="fil0" d="M10311 19645c-21,-487 -30,-1128 -96,-1547 -40,-250 -115,-378 -166,-583 -35,-141 -87,91 -51,237 46,187 105,305 149,496 23,100 32,264 41,401 24,350 37,719 52,1083 9,209 79,123 71,-87l0 0z"/>
   <path class="fil0" d="M10961 19673c-1,-688 31,-1821 -111,-2271 -38,-123 -75,168 -37,286 22,69 30,69 41,201 44,541 33,1215 34,1784 0,214 73,214 73,0l0 0z"/>
   <path class="fil0" d="M11107 19627c-19,-505 -27,-1151 -92,-1593 -37,-255 -110,-396 -157,-605 -34,-150 -86,86 -52,237 44,191 101,318 142,514 23,105 31,277 39,414 22,369 35,746 49,1124 8,210 79,119 71,-91l0 0z"/>
  </g>
 </g>
</svg>
