<svg xmlns="http://www.w3.org/2000/svg" viewBox="0 0 21000 29700">
<g fill="#fff">
   <path d="M15376 2710c-3230,0 -6460,0 -9690,0 -523,0 -1075,-50 -1569,152 -661,269 -1133,884 -1226,1591 -30,229 -21,462 -21,692 0,1734 0,3468 0,5201 0,1143 856,2054 2007,2084 516,14 1034,0 1550,0 1502,0 3003,0 4504,0 -77,-32 -154,-64 -231,-96 1343,1582 2686,3164 4029,4746 237,279 590,-32 547,-318 -239,-1582 -477,-3164 -715,-4746 -105,138 -210,276 -316,414 376,0 751,0 1126,0 704,0 1324,-368 1709,-946 412,-618 303,-1463 303,-2169 0,-1033 0,-2066 0,-3100 0,-649 85,-1379 -68,-2018 -211,-885 -1059,-1464 -1939,-1487 -422,-11 -421,643 0,654 753,20 1334,600 1353,1353 5,181 0,363 0,544 0,975 0,1950 0,2925 0,734 0,1468 0,2202 0,561 -317,1076 -845,1291 -429,175 -984,97 -1437,97 -67,0 -134,0 -202,0 -231,0 -346,208 -315,414 238,1582 477,3164 715,4746 182,-106 365,-212 547,-318 -1052,-1239 -2104,-2478 -3156,-3717 -233,-274 -465,-548 -698,-823 -118,-138 -215,-302 -422,-302 -672,0 -1344,0 -2016,0 -1021,0 -2043,0 -3064,0 -730,0 -1555,118 -2051,-553 -402,-542 -260,-1436 -260,-2071 0,-1036 0,-2072 0,-3108 0,-643 -130,-1482 213,-2058 382,-640 1068,-622 1707,-622 1854,0 3707,0 5560,0 1457,0 2914,0 4371,0 422,0 422,-654 0,-654l0 0z"/>
   <path d="M10095 5648c-200,0 -390,25 -568,75 -178,51 -376,131 -593,243l-351 -945c217,-139 473,-246 769,-321 295,-76 585,-113 869,-113 356,0 650,47 881,142 231,95 414,214 548,359 133,145 227,304 280,477 53,172 79,337 79,493 0,156 -24,299 -71,430 -47,131 -107,252 -180,364 -72,111 -156,217 -250,317 -95,100 -187,195 -276,284 -67,67 -137,138 -209,213 -72,76 -138,155 -196,238 -59,84 -108,172 -147,264 -39,92 -58,185 -58,280 0,22 0,55 0,100 0,45 3,83 8,117l-1103 0c-11,-56 -18,-118 -21,-188 -3,-70 -4,-130 -4,-180 0,-156 19,-296 59,-422 38,-125 90,-242 154,-351 64,-108 138,-210 222,-305 83,-94 169,-186 259,-276 128,-128 245,-254 351,-380 105,-125 158,-268 158,-430 0,-134 -51,-248 -154,-343 -103,-94 -255,-142 -456,-142zm777 4204c0,245 -79,434 -238,568 -159,134 -338,200 -539,200 -200,0 -380,-66 -539,-200 -159,-134 -238,-323 -238,-568 0,-246 79,-435 238,-569 159,-133 339,-200 539,-200 201,0 380,67 539,200 159,134 238,323 238,569z"/>
   <path d="M16438 21360c27,-26 54,-52 80,-78 126,-17 252,-34 378,-51 163,61 205,147 118,59 -51,-51 -102,-103 -153,-155 -81,-82 -162,-163 -243,-245 49,117 98,235 146,352 65,-548 170,-1555 -492,-1777 -288,-97 -677,-38 -974,-29 -384,10 -769,30 -1153,25 -877,-12 -1804,517 -2212,1304 -284,546 -450,1172 -576,1772 159,-120 318,-241 477,-361 -1565,0 -3130,0 -4695,0 -775,0 -1550,0 -2324,0 -59,0 -118,0 -176,0 -156,0 278,453 278,262 0,-101 0,-201 0,-302 0,-245 0,-491 0,-736 0,-71 0,-142 0,-212 0,-63 -32,168 6,5 18,-76 43,-150 69,-223 344,-986 1324,-1665 2295,-1925 854,-228 1725,-398 2591,-574 2009,-407 4025,-779 6042,-1143 220,-40 440,-80 660,-119 -85,0 -171,0 -256,0 -163,-33 -173,-410 -163,-238 3,50 6,100 9,149 10,170 19,339 29,508 30,516 59,1031 89,1546 44,771 88,1541 132,2312 37,629 1018,638 982,7 -87,-1509 -173,-3019 -260,-4528 -27,-479 -393,-779 -866,-695 -203,37 -406,73 -610,110 -890,161 -1781,324 -2670,491 -1990,372 -4005,709 -5963,1226 -1147,303 -2154,1035 -2744,2073 -244,428 -353,847 -353,1332 0,419 -128,1129 203,1456 317,313 992,200 1395,200 831,0 1663,0 2494,0 1266,0 2532,0 3799,0 210,0 431,-147 477,-362 124,-591 270,-1246 603,-1757 159,-242 619,-504 946,-578 391,-89 877,-27 1279,-39 199,-6 398,-12 596,-13 77,-1 154,0 231,2 30,1 59,3 89,5 -65,-4 -164,0 -251,-146 74,124 16,654 -6,891 -33,337 251,541 464,757 141,143 293,276 508,278 318,2 568,-284 622,-577 112,-619 -834,-882 -947,-259l0 0z"/>
   <path d="M16753 18782c13,404 26,808 39,1212 21,632 1002,640 982,7 -13,-404 -26,-808 -39,-1212 -21,-632 -1003,-640 -982,-7z"/>
   <path d="M16556 21623l-121 -30c-29,-189 -79,-369 -149,-539l94 -91c-76,-177 -173,-343 -287,-495l-127 36c-115,-146 -246,-277 -392,-392l36 -127c-152,-114 -318,-211 -495,-287l-90 94c-170,-70 -351,-121 -540,-150l-30 -120c-94,-11 -189,-17 -286,-17 -97,0 -192,6 -286,17l-27 109c-195,24 -380,75 -555,148l-78 -80c-177,75 -343,172 -495,286l34 118c-145,118 -276,253 -390,401l-127 -36c-114,152 -211,318 -286,495l96 93c-71,171 -122,351 -152,537l-120 30c-12,94 -18,189 -18,286 0,97 6,192 18,286l108 27c24,195 75,381 148,555l-80 78c75,177 172,343 286,495l118 -34c118,145 253,276 401,390l-36 127c152,114 318,211 495,287l93 -97c172,71 352,122 537,152l30 121c94,11 189,17 286,17 97,0 192,-6 286,-17l27 -108c195,-25 381,-75 556,-149l77 81c177,-76 343,-173 495,-287l-33 -118c144,-117 275,-252 389,-401l127 36c115,-152 211,-318 287,-495l-97 -93c70,-171 122,-351 151,-536l122 -31c11,-94 17,-189 17,-286 0,-97 -6,-192 -17,-286l0 0zm-2387 1401c-616,0 -1115,-499 -1115,-1115 0,-616 499,-1115 1115,-1115 616,0 1115,499 1115,1115 0,616 -499,1115 -1115,1115z"/>
   <path d="M15107 21909c0,-518 -420,-938 -938,-938 -518,0 -938,420 -938,938 0,518 420,938 938,938 518,0 938,-420 938,-938z"/>
   <path d="M11326 23367c10,-32 95,-24 19,-24 -38,0 -76,0 -114,0 -152,0 -305,0 -458,0 -471,0 -942,0 -1412,0 -895,0 -1790,0 -2685,0 -60,0 -119,0 -178,0 75,0 66,139 66,31 0,-46 0,-92 0,-138 0,-143 0,-286 0,-430 0,-45 0,-91 0,-137 0,-108 9,31 -66,31 17,0 35,0 53,0 117,0 234,0 351,0 966,0 1932,0 2898,0 469,0 937,0 1406,0 46,0 93,0 139,0 92,0 -27,-134 -27,-31 0,253 0,506 0,759 0,296 458,296 458,0 0,-310 130,-946 -194,-1135 -176,-104 -490,-51 -681,-51 -980,0 -1960,0 -2941,0 -399,0 -798,0 -1197,0 -267,0 -657,-7 -657,372 0,310 -130,946 193,1136 176,103 491,51 681,51 961,0 1921,0 2881,0 408,0 817,0 1225,0 284,0 578,27 682,-312 86,-283 -356,-403 -442,-122l0 0z"/>
   <path d="M8941 22471c17,-834 731,-1406 1405,-1771 996,-539 2178,-719 3297,-726 295,-2 295,-460 0,-458 -1267,8 -2563,242 -3677,870 -770,435 -1464,1154 -1483,2085 -6,295 452,294 458,0l0 0z"/>
   <path d="M6367 23445c0,-449 -364,-813 -813,-813 -450,0 -814,364 -814,813 0,449 364,814 814,814 449,0 813,-365 813,-814z"/>
   <path d="M5167 27257c-5,-1255 -93,-3277 -1769,-3304 -127,-2 -127,194 0,196 1539,25 1568,1980 1573,3108 0,126 196,126 196,0l0 0z"/>
   <path d="M5557 27257c-9,-1417 -419,-3278 -2159,-3304 -127,-2 -127,194 0,196 1620,25 1954,1811 1962,3108 1,126 197,126 197,0l0 0z"/>
   <path d="M4229 27257c-1,-621 33,-1311 -169,-1910 -95,-281 -297,-466 -500,-670 -89,-90 -228,49 -139,139 192,192 374,357 463,622 190,564 148,1233 149,1819 0,126 196,126 196,0l0 0z"/>
   <path d="M4619 27257c-2,-622 17,-1347 -288,-1912 -173,-319 -503,-487 -791,-683 -105,-72 -203,98 -99,169 265,181 552,327 720,613 302,512 259,1244 262,1813 0,126 196,126 196,0l0 0z"/>
   <path d="M6079 27257c2,-505 -43,-1242 290,-1672 94,-121 256,-167 270,-337 11,-126 -186,-125 -196,0 -6,66 -252,244 -296,318 -284,477 -262,1161 -265,1691 0,126 196,126 197,0l0 0z"/>
   <path d="M5685 27283c72,-450 90,-1050 340,-1449 127,-205 418,-340 585,-517 87,-92 -52,-231 -139,-138 -183,194 -438,323 -600,533 -89,115 -130,270 -167,407 -98,363 -149,741 -208,1112 -20,123 170,177 189,52l0 0z"/>
   <path d="M7740 27257c1,-497 -20,-1038 141,-1516 81,-243 284,-385 471,-544 96,-82 -43,-220 -139,-139 -194,165 -390,313 -491,554 -210,501 -177,1115 -178,1645 -1,126 196,126 196,0z"/>
   <path d="M7350 27257c3,-493 -13,-1073 250,-1511 158,-264 477,-386 732,-533 110,-64 11,-233 -99,-170 -284,164 -579,295 -778,566 -324,441 -298,1134 -301,1648 -1,126 196,126 196,0l0 0z"/>
   <path d="M8402 27257c4,-432 -26,-1068 296,-1413 97,-104 247,-130 265,-291 13,-125 -183,-124 -197,0 -1,9 -257,208 -299,268 -271,390 -258,988 -261,1436 -1,126 196,126 196,0z"/>
   <path d="M8009 27283c68,-363 93,-924 341,-1226 145,-177 411,-280 584,-434 94,-85 -45,-223 -139,-139 -183,164 -445,265 -602,456 -268,328 -299,897 -373,1291 -23,123 166,176 189,52l0 0z"/>
   <path d="M7061 27264c-3,-334 -7,-711 -174,-1011 -37,-65 -89,-122 -149,-167 -43,-31 -81,-80 -76,-34 -13,-124 -210,-126 -196,0 13,118 102,142 180,211 246,216 216,714 218,1001 1,126 198,127 197,0z"/>
   <path d="M7334 27238c-53,-287 -79,-664 -257,-910 -107,-149 -308,-224 -443,-345 -94,-84 -234,54 -139,139 124,110 283,181 401,293 63,60 87,156 111,236 62,208 98,426 138,639 24,124 213,72 189,-52l0 0z"/>
   <path d="M9865 27264c3,-495 -6,-1071 266,-1507 138,-222 392,-340 587,-503 97,-82 -43,-220 -139,-139 -216,181 -455,305 -618,543 -303,442 -289,1097 -293,1606 0,127 196,126 197,0l0 0z"/>
   <path d="M9475 27264c4,-505 17,-1111 383,-1503 222,-237 565,-335 840,-492 110,-63 11,-232 -99,-170 -312,179 -662,290 -913,559 -385,412 -403,1078 -407,1606 -2,127 195,126 196,0l0 0z"/>
   <path d="M10375 27248c2,-300 -26,-755 188,-1003 72,-82 171,-103 184,-227 12,-126 -184,-124 -197,0 4,-36 -167,138 -195,181 -185,292 -174,720 -176,1049 -1,126 195,126 196,0l0 0z"/>
   <path d="M10113 27274c47,-272 63,-638 221,-877 82,-123 277,-205 384,-309 91,-89 -48,-227 -139,-139 -122,119 -299,196 -402,333 -186,247 -203,650 -253,940 -21,123 168,176 189,52l0 0z"/>
   <path d="M9080 27255c-1,-405 84,-1073 -297,-1338 -104,-73 -202,97 -99,169 58,41 79,38 108,117 118,320 91,718 92,1052 0,127 197,127 196,0l0 0z"/>
   <path d="M9471 27229c-51,-297 -72,-681 -245,-941 -99,-150 -295,-232 -423,-356 -91,-88 -230,51 -139,139 117,114 271,188 382,304 61,62 82,164 104,245 60,216 94,440 132,661 22,125 211,72 189,-52l0 0z"/>
  </g>
</svg>
