<svg xmlns="http://www.w3.org/2000/svg" viewBox="0 0 21000 29700">
<g fill="#fff">
   <path d="M15300 17026c27,-26 54,-52 80,-78 126,-17 252,-34 378,-51 163,61 205,147 118,59 -51,-51 -102,-103 -153,-155 -81,-82 -162,-163 -243,-245 49,117 98,235 146,352 65,-548 170,-1555 -492,-1777 -288,-97 -677,-38 -974,-29 -384,10 -769,30 -1153,25 -877,-12 -1804,517 -2212,1304 -284,546 -450,1172 -576,1772 159,-120 318,-241 477,-361 -1565,0 -3130,0 -4695,0 -775,0 -1550,0 -2324,0 -59,0 -118,0 -176,0 -156,0 278,453 278,262 0,-101 0,-201 0,-302 0,-245 0,-491 0,-736 0,-71 0,-142 0,-212 0,-63 -32,168 6,5 18,-76 43,-150 69,-223 344,-986 1324,-1665 2295,-1925 854,-228 1725,-398 2591,-574 2009,-407 4025,-779 6042,-1143 220,-40 440,-80 660,-119 -85,0 -171,0 -256,0 -163,-33 -173,-410 -163,-238 3,50 6,100 9,149 10,170 19,339 29,508 30,516 59,1031 89,1546 44,771 88,1541 132,2312 37,629 1018,638 982,7 -87,-1509 -173,-3019 -260,-4528 -27,-479 -393,-779 -866,-695 -203,37 -406,73 -610,110 -890,161 -1781,324 -2670,491 -1990,372 -4005,709 -5963,1226 -1147,303 -2154,1035 -2744,2073 -244,428 -353,847 -353,1332 0,419 -128,1129 203,1456 317,313 992,200 1395,200 831,0 1663,0 2494,0 1266,0 2532,0 3799,0 210,0 431,-147 477,-362 124,-591 270,-1246 603,-1757 159,-242 619,-504 946,-578 391,-89 877,-27 1279,-39 199,-6 398,-12 596,-13 77,-1 154,0 231,2 30,1 59,3 89,5 -65,-4 -164,0 -251,-146 74,124 16,654 -6,891 -33,337 251,541 464,757 141,143 293,276 508,278 318,2 568,-284 622,-577 112,-619 -834,-882 -947,-259l0 0z"/>
   <path d="M15615 14448c13,404 26,808 39,1212 21,632 1002,640 982,7 -13,-404 -26,-808 -39,-1212 -21,-632 -1003,-640 -982,-7z"/>
   <path d="M15418 17289l-121 -30c-29,-189 -79,-369 -149,-539l94 -91c-76,-177 -173,-343 -287,-495l-127 36c-115,-146 -246,-277 -392,-392l36 -127c-152,-114 -318,-211 -495,-287l-90 94c-170,-70 -351,-121 -540,-150l-30 -120c-94,-11 -189,-17 -286,-17 -97,0 -192,6 -286,17l-27 109c-195,24 -380,75 -555,148l-78 -80c-177,75 -343,172 -495,286l34 118c-145,118 -276,253 -390,401l-127 -36c-114,152 -211,318 -286,495l96 93c-71,171 -122,351 -152,537l-120 30c-12,94 -18,189 -18,286 0,97 6,192 18,286l108 27c24,195 75,381 148,555l-80 78c75,177 172,343 286,495l118 -34c118,145 253,276 401,390l-36 127c152,114 318,211 495,287l93 -97c172,71 352,122 537,152l30 121c94,11 189,17 286,17 97,0 192,-6 286,-17l27 -108c195,-25 381,-75 556,-149l77 81c177,-76 343,-173 495,-287l-33 -118c144,-117 275,-252 389,-401l127 36c115,-152 211,-318 287,-495l-97 -93c70,-171 122,-351 151,-536l122 -31c11,-94 17,-189 17,-286 0,-97 -6,-192 -17,-286l0 0zm-2387 1401c-616,0 -1115,-499 -1115,-1115 0,-616 499,-1115 1115,-1115 616,0 1115,499 1115,1115 0,616 -499,1115 -1115,1115z"/>
   <path d="M13969 17575c0,-518 -420,-938 -938,-938 -518,0 -938,420 -938,938 0,518 420,938 938,938 518,0 938,-420 938,-938z"/>
   <path d="M10188 19033c10,-32 95,-24 19,-24 -38,0 -76,0 -114,0 -152,0 -305,0 -458,0 -471,0 -942,0 -1412,0 -895,0 -1790,0 -2685,0 -60,0 -119,0 -178,0 75,0 66,139 66,31 0,-46 0,-92 0,-138 0,-143 0,-286 0,-430 0,-45 0,-91 0,-137 0,-108 9,31 -66,31 17,0 35,0 53,0 117,0 234,0 351,0 966,0 1932,0 2898,0 469,0 937,0 1406,0 46,0 93,0 139,0 92,0 -27,-134 -27,-31 0,253 0,506 0,759 0,296 458,296 458,0 0,-310 130,-946 -194,-1135 -176,-104 -490,-51 -681,-51 -980,0 -1960,0 -2941,0 -399,0 -798,0 -1197,0 -267,0 -657,-7 -657,372 0,310 -130,946 193,1136 176,103 491,51 681,51 961,0 1921,0 2881,0 408,0 817,0 1225,0 284,0 578,27 682,-312 86,-283 -356,-403 -442,-122l0 0z"/>
   <path d="M7803 18137c17,-834 731,-1406 1405,-1771 996,-539 2178,-719 3297,-726 295,-2 295,-460 0,-458 -1267,8 -2563,242 -3677,870 -770,435 -1464,1154 -1483,2085 -6,295 452,294 458,0l0 0z"/>
   <path d="M5230 19111c0,-450 -364,-814 -814,-814 -450,0 -814,364 -814,814 0,450 364,814 814,814 450,0 814,-364 814,-814z"/>
  <polygon points="17788,17731 20219,17731 20216,19392 22650,16925 20219,14466 20219,16119 17788,16119 "/>
  <path d="M4360 13416c0,0 -4149,-297 -4108,3969l26 2725 16438 0 26 -582 -14155 -53c-141,-1852 -467,-4260 1773,-6059z"/>
</g>
</svg>
