<svg xmlns="http://www.w3.org/2000/svg" viewBox="0 0 21000 29700">
<g fill="#fff">
  <path d="M16438 16111c27,-26 54,-52 80,-78 126,-17 252,-34 378,-51 163,61 205,147 118,59 -51,-51 -102,-103 -153,-155 -81,-82 -162,-163 -243,-245 49,117 98,235 146,352 65,-548 170,-1555 -492,-1777 -288,-97 -677,-38 -974,-29 -384,10 -769,30 -1153,25 -877,-12 -1804,517 -2212,1304 -284,546 -450,1172 -576,1772 159,-120 318,-241 477,-361 -1565,0 -3130,0 -4696,0 -774,0 -1549,0 -2324,0 -58,0 -117,0 -175,0 -156,0 278,453 278,262 0,-101 0,-201 0,-302 0,-245 0,-491 0,-736 0,-71 0,-142 0,-212 0,-63 -32,168 6,5 18,-76 43,-150 69,-223 344,-986 1324,-1665 2295,-1925 854,-228 1725,-398 2591,-574 2009,-407 4025,-779 6042,-1143 220,-40 440,-80 660,-119 -85,0 -171,0 -256,0 -163,-33 -173,-410 -163,-238 3,50 6,100 9,149 10,170 19,339 29,508 30,516 59,1031 89,1546 44,771 88,1541 132,2312 37,629 1018,638 982,7 -87,-1509 -173,-3019 -260,-4528 -28,-479 -393,-779 -866,-695 -203,37 -406,73 -610,110 -890,161 -1781,324 -2671,491 -1989,372 -4004,709 -5962,1226 -1147,303 -2154,1035 -2744,2073 -244,428 -353,847 -353,1332 0,419 -128,1129 203,1456 317,313 992,200 1395,200 831,0 1663,0 2494,0 1266,0 2532,0 3799,0 210,0 431,-147 477,-362 124,-591 270,-1246 603,-1757 159,-242 619,-504 946,-578 391,-89 877,-27 1279,-39 199,-6 398,-12 596,-13 77,-1 154,0 231,2 30,1 59,3 89,5 -65,-4 -164,0 -251,-146 74,124 16,654 -6,891 -33,337 251,541 464,757 141,143 293,276 508,278 318,2 568,-284 622,-577 112,-619 -834,-882 -947,-259l0 0z"/>
  <path d="M16753 13533c13,404 26,808 39,1212 21,632 1002,640 982,7 -13,-404 -26,-808 -39,-1212 -21,-632 -1003,-640 -982,-7z"/>
  <path d="M16556 16374l-121 -30c-29,-189 -79,-369 -149,-539l94 -91c-76,-177 -173,-343 -287,-495l-127 36c-115,-146 -246,-277 -392,-392l36 -127c-152,-114 -318,-211 -495,-287l-90 94c-170,-70 -351,-121 -540,-150l-30 -120c-94,-11 -189,-17 -286,-17 -97,0 -192,6 -286,17l-27 109c-195,24 -380,75 -555,148l-78 -80c-177,75 -343,172 -495,286l34 118c-145,118 -276,253 -390,401l-127 -36c-114,152 -211,318 -286,495l96 93c-71,171 -122,351 -152,537l-121 30c-11,94 -17,189 -17,286 0,97 6,192 17,286l109 27c24,195 75,381 148,555l-80 78c75,177 172,343 286,495l118 -34c118,145 253,276 401,390l-36 127c152,114 318,211 495,287l93 -97c171,71 352,122 537,152l30 121c94,11 189,17 286,17 97,0 192,-6 286,-17l27 -108c195,-25 381,-75 556,-149l77 81c177,-76 343,-173 495,-287l-34 -118c145,-117 276,-252 390,-401l127 36c115,-152 211,-318 287,-495l-97 -93c70,-171 122,-351 151,-536l122 -31c11,-94 17,-189 17,-286 0,-97 -6,-192 -17,-286l0 0zm-2387 1401c-616,0 -1115,-499 -1115,-1115 0,-616 499,-1115 1115,-1115 616,0 1115,499 1115,1115 0,616 -499,1115 -1115,1115z"/>
  <path d="M15107 16660c0,-518 -420,-938 -938,-938 -518,0 -938,420 -938,938 0,518 420,938 938,938 518,0 938,-420 938,-938z"/>
  <path d="M11326 18118c10,-32 95,-24 19,-24 -38,0 -76,0 -114,0 -152,0 -305,0 -458,0 -471,0 -942,0 -1412,0 -895,0 -1790,0 -2685,0 -60,0 -119,0 -178,0 75,0 66,139 66,31 0,-46 0,-92 0,-138 0,-143 0,-286 0,-430 0,-45 0,-91 0,-137 0,-108 9,31 -66,31 17,0 35,0 53,0 117,0 234,0 351,0 966,0 1932,0 2898,0 469,0 937,0 1406,0 46,0 93,0 139,0 92,0 -27,-134 -27,-31 0,253 0,506 0,759 0,296 458,296 458,0 0,-310 130,-946 -194,-1135 -176,-104 -490,-51 -681,-51 -980,0 -1960,0 -2941,0 -399,0 -798,0 -1197,0 -267,0 -657,-7 -657,372 0,310 -130,946 193,1136 176,103 491,51 681,51 961,0 1921,0 2881,0 408,0 817,0 1225,0 284,0 578,27 681,-312 87,-283 -355,-403 -441,-122l0 0z"/>
  <path d="M8941 17222c17,-834 731,-1406 1405,-1771 996,-539 2178,-719 3297,-726 295,-2 295,-460 0,-458 -1267,8 -2563,242 -3677,870 -770,435 -1464,1154 -1483,2085 -6,295 452,294 458,0l0 0z"/>
  <path d="M6367 18196c0,-449 -364,-813 -813,-813 -450,0 -814,364 -814,813 0,449 364,814 814,814 449,0 813,-365 813,-814z"/>
   <path d="M8027 19364c-2,-468 -34,-1221 -659,-1232 -47,0 -47,73 0,73 573,10 584,738 586,1159 0,47 73,47 73,0l0 0z"/>
    <path d="M8172 19364c-3,-528 -156,-1222 -804,-1232 -47,0 -47,73 0,73 604,10 728,675 731,1159 0,47 74,47 73,0l0 0z"/>
    <path d="M7678 19364c-1,-232 12,-489 -63,-712 -36,-105 -111,-174 -187,-250 -33,-33 -85,18 -51,52 71,72 139,133 172,232 71,210 55,459 56,678 0,47 73,47 73,0l0 0z"/>
    <path d="M7823 19364c-1,-232 6,-502 -108,-713 -64,-119 -187,-181 -294,-254 -39,-27 -76,36 -37,63 99,67 206,122 268,228 113,191 97,464 98,676 0,47 73,47 73,0l0 0z"/>
    <path d="M8367 19364c1,-188 -16,-463 108,-623 35,-45 95,-63 101,-126 4,-47 -70,-47 -74,0 -2,24 -93,91 -110,119 -106,177 -97,432 -98,630 -1,47 73,47 73,0l0 0z"/>
    <path d="M8220 19373c27,-167 34,-391 127,-540 47,-76 156,-126 218,-192 32,-34 -19,-86 -52,-52 -68,73 -163,121 -224,199 -33,43 -48,100 -62,151 -36,136 -55,277 -77,415 -8,46 63,66 70,19l0 0z"/>
    <path d="M8986 19364c0,-186 -8,-387 52,-565 31,-91 106,-144 176,-203 36,-30 -16,-82 -52,-52 -72,62 -145,117 -183,207 -78,186 -66,415 -66,613 0,47 73,47 73,0z"/>
    <path d="M8841 19364c1,-184 -6,-400 93,-564 58,-98 178,-143 272,-198 41,-24 4,-87 -36,-63 -106,61 -216,110 -290,211 -121,164 -112,422 -113,614 0,47 73,47 74,0l0 0z"/>
    <path d="M9233 19364c1,-161 -10,-398 110,-527 36,-39 92,-48 98,-108 5,-47 -68,-47 -73,0 0,3 -96,77 -111,100 -101,145 -96,368 -97,535 -1,47 72,47 73,0z"/>
    <path d="M9086 19373c26,-135 35,-344 127,-456 54,-66 153,-105 218,-162 35,-32 -17,-83 -52,-52 -68,61 -166,99 -224,170 -100,122 -112,334 -139,481 -9,46 61,66 70,19l0 0z"/>
    <path d="M8733 19366c-1,-124 -3,-265 -65,-376 -14,-25 -33,-46 -56,-63 -15,-11 -30,-29 -28,-12 -5,-47 -78,-47 -73,0 5,44 38,53 67,78 92,81 81,266 82,373 0,47 73,47 73,0z"/>
    <path d="M8835 19357c-20,-107 -30,-248 -96,-340 -40,-55 -115,-83 -165,-128 -35,-31 -87,20 -52,52 46,41 105,67 149,109 24,22 33,58 42,88 23,77 36,158 51,238 9,46 79,27 71,-19l0 0z"/>
    <path d="M9777 19366c2,-184 -1,-399 100,-561 51,-83 146,-127 218,-188 37,-30 -15,-82 -51,-52 -81,68 -170,114 -230,203 -113,165 -108,409 -110,598 0,47 73,47 73,0l0 0z"/>
    <path d="M9632 19366c2,-188 7,-414 143,-560 83,-88 210,-125 313,-183 41,-24 4,-87 -37,-63 -116,66 -246,108 -340,208 -143,153 -150,402 -152,598 0,47 73,47 73,0l0 0z"/>
    <path d="M9968 19360c1,-111 -10,-281 70,-373 26,-31 63,-39 68,-85 5,-47 -68,-46 -73,0 1,-13 -62,51 -73,68 -69,108 -65,268 -65,390 -1,47 72,47 73,0l0 0z"/>
    <path d="M9870 19370c18,-101 23,-238 82,-327 31,-46 103,-76 143,-115 34,-33 -17,-85 -51,-52 -46,45 -112,73 -150,124 -69,92 -76,242 -94,350 -8,47 62,66 70,20l0 0z"/>
    <path d="M9485 19363c0,-151 31,-400 -110,-499 -39,-27 -76,37 -37,63 21,15 29,15 40,44 44,119 34,267 34,392 0,47 73,47 73,0l0 0z"/>
    <path d="M9631 19353c-19,-111 -27,-253 -91,-350 -37,-56 -111,-87 -158,-133 -34,-33 -86,19 -52,52 44,42 101,70 143,113 22,23 30,61 38,91 23,81 35,164 49,247 8,46 79,26 71,-20l0 0z"/>
   <path d="M17787 19364c-1,-468 -34,-1221 -659,-1232 -47,0 -47,73 0,73 574,10 585,738 586,1159 0,47 74,47 73,0l0 0z"/>
    <path d="M17933 19364c-4,-528 -156,-1222 -805,-1232 -47,0 -47,73 0,73 604,10 728,675 732,1159 0,47 73,47 73,0l0 0z"/>
    <path d="M17438 19364c0,-232 12,-489 -63,-712 -35,-105 -111,-174 -186,-250 -34,-33 -85,18 -52,52 71,72 139,133 172,232 71,210 55,459 56,678 0,47 73,47 73,0l0 0z"/>
    <path d="M17583 19364c-1,-232 7,-502 -107,-713 -64,-119 -188,-181 -295,-254 -39,-27 -75,36 -37,63 99,67 206,122 269,228 112,191 96,464 97,676 0,47 73,47 73,0l0 0z"/>
    <path d="M18127 19364c1,-188 -16,-463 108,-623 35,-45 96,-63 101,-126 4,-47 -69,-47 -73,0 -2,24 -94,91 -110,119 -106,177 -98,432 -99,630 0,47 73,47 73,0l0 0z"/>
    <path d="M17981 19373c26,-167 33,-391 126,-540 48,-76 156,-126 218,-192 33,-34 -19,-86 -52,-52 -68,73 -163,121 -223,199 -33,43 -48,100 -62,151 -37,136 -56,277 -78,415 -7,46 63,66 71,19l0 0z"/>
    <path d="M18746 19364c1,-186 -7,-387 53,-565 30,-91 106,-144 175,-203 36,-30 -16,-82 -51,-52 -73,62 -146,117 -184,207 -78,186 -65,415 -66,613 0,47 73,47 73,0z"/>
    <path d="M18601 19364c1,-184 -5,-400 93,-564 59,-98 178,-143 273,-198 41,-24 4,-87 -37,-63 -106,61 -216,110 -290,211 -121,164 -111,422 -112,614 0,47 73,47 73,0l0 0z"/>
    <path d="M18993 19364c1,-161 -10,-398 110,-527 36,-39 92,-48 99,-108 5,-47 -68,-47 -73,0 -1,3 -96,77 -112,100 -101,145 -96,368 -97,535 0,47 73,47 73,0z"/>
    <path d="M18847 19373c25,-135 34,-344 126,-456 55,-66 154,-105 218,-162 35,-32 -17,-83 -52,-52 -68,61 -166,99 -224,170 -100,122 -111,334 -139,481 -9,46 62,66 71,19l0 0z"/>
    <path d="M18493 19366c-1,-124 -3,-265 -65,-376 -13,-25 -33,-46 -55,-63 -16,-11 -30,-29 -28,-12 -5,-47 -79,-47 -73,0 4,44 37,53 67,78 91,81 80,266 81,373 0,47 73,47 73,0z"/>
    <path d="M18595 19357c-20,-107 -30,-248 -96,-340 -40,-55 -115,-83 -165,-128 -35,-31 -87,20 -52,52 46,41 106,67 150,109 23,22 32,58 41,88 23,77 37,158 52,238 8,46 79,27 70,-19l0 0z"/>
    <path d="M19538 19366c1,-184 -2,-399 99,-561 52,-83 146,-127 219,-188 36,-30 -16,-82 -52,-52 -80,68 -169,114 -230,203 -113,165 -108,409 -109,598 -1,47 73,47 73,0l0 0z"/>
    <path d="M19393 19366c1,-188 6,-414 143,-560 82,-88 210,-125 312,-183 41,-24 5,-87 -36,-63 -117,66 -247,108 -340,208 -144,153 -151,402 -152,598 -1,47 72,47 73,0l0 0z"/>
    <path d="M19728 19360c1,-111 -10,-281 70,-373 27,-31 64,-39 69,-85 4,-47 -69,-46 -74,0 2,-13 -62,51 -72,68 -69,108 -65,268 -66,390 0,47 73,47 73,0l0 0z"/>
    <path d="M19631 19370c17,-101 23,-238 82,-327 30,-46 103,-76 143,-115 34,-33 -18,-85 -52,-52 -46,45 -111,73 -150,124 -69,92 -75,242 -94,350 -8,47 63,66 71,20l0 0z"/>
    <path d="M19246 19363c-1,-151 31,-400 -111,-499 -39,-27 -75,37 -37,63 22,15 29,15 40,44 44,119 34,267 34,392 1,47 74,47 74,0l0 0z"/>
    <path d="M19391 19353c-19,-111 -27,-253 -91,-350 -37,-56 -110,-87 -158,-133 -33,-33 -85,19 -51,52 43,42 100,70 142,113 22,23 30,61 39,91 22,81 35,164 49,247 8,46 78,26 70,-20l0 0z"/>
   <path d="M10485 19364c-2,-468 -34,-1221 -659,-1232 -47,0 -47,73 0,73 573,10 584,738 586,1159 0,47 73,47 73,0l0 0z"/>
    <path d="M10630 19364c-3,-528 -156,-1222 -804,-1232 -47,0 -47,73 0,73 604,10 728,675 731,1159 0,47 73,47 73,0l0 0z"/>
    <path d="M10136 19364c-1,-232 12,-489 -63,-712 -36,-105 -111,-174 -187,-250 -33,-33 -85,18 -52,52 72,72 140,133 173,232 71,210 55,459 55,678 1,47 74,47 74,0l0 0z"/>
    <path d="M10281 19364c-1,-232 6,-502 -108,-713 -64,-119 -187,-181 -294,-254 -39,-27 -76,36 -37,63 99,67 206,122 268,228 113,191 97,464 98,676 0,47 73,47 73,0l0 0z"/>
    <path d="M10825 19364c1,-188 -16,-463 108,-623 35,-45 95,-63 100,-126 4,-47 -69,-47 -73,0 -2,24 -93,91 -110,119 -106,177 -97,432 -98,630 -1,47 72,47 73,0l0 0z"/>
    <path d="M10678 19373c27,-167 33,-391 127,-540 47,-76 156,-126 218,-192 32,-34 -20,-86 -52,-52 -68,73 -163,121 -224,199 -33,43 -48,100 -62,151 -36,136 -55,277 -77,415 -8,46 63,66 70,19l0 0z"/>
    <path d="M11444 19364c0,-186 -8,-387 52,-565 31,-91 106,-144 176,-203 36,-30 -16,-82 -52,-52 -72,62 -145,117 -183,207 -78,186 -66,415 -66,613 -1,47 73,47 73,0z"/>
    <path d="M11299 19364c1,-184 -6,-400 92,-564 59,-98 178,-143 273,-198 41,-24 4,-87 -37,-63 -105,61 -215,110 -289,211 -121,164 -112,422 -113,614 0,47 73,47 74,0l0 0z"/>
    <path d="M11691 19364c1,-161 -10,-398 110,-527 36,-39 92,-48 98,-108 5,-47 -68,-47 -73,0 0,3 -96,77 -111,100 -101,145 -96,368 -98,535 0,47 73,47 74,0z"/>
    <path d="M11544 19373c25,-135 35,-344 127,-456 54,-66 153,-105 218,-162 35,-32 -17,-83 -52,-52 -68,61 -166,99 -224,170 -100,122 -112,334 -139,481 -9,46 61,66 70,19l0 0z"/>
    <path d="M11191 19366c-1,-124 -3,-265 -65,-376 -14,-25 -33,-46 -56,-63 -16,-11 -30,-29 -28,-12 -5,-47 -78,-47 -73,0 5,44 38,53 67,78 92,81 81,266 82,373 0,47 73,47 73,0z"/>
    <path d="M11293 19357c-20,-107 -30,-248 -96,-340 -40,-55 -115,-83 -166,-128 -35,-31 -86,20 -51,52 46,41 105,67 149,109 24,22 33,58 41,88 24,77 37,158 52,238 9,46 79,27 71,-19l0 0z"/>
    <path d="M12235 19366c2,-184 -1,-399 100,-561 51,-83 146,-127 218,-188 37,-30 -15,-82 -51,-52 -81,68 -170,114 -231,203 -112,165 -108,409 -109,598 0,47 73,47 73,0l0 0z"/>
    <path d="M12090 19366c2,-188 7,-414 143,-560 83,-88 210,-125 313,-183 41,-24 4,-87 -37,-63 -116,66 -246,108 -340,208 -144,153 -150,402 -152,598 0,47 73,47 73,0l0 0z"/>
    <path d="M12426 19360c0,-111 -10,-281 70,-373 26,-31 63,-39 68,-85 5,-47 -68,-46 -73,0 1,-13 -62,51 -73,68 -69,108 -65,268 -65,390 -1,47 72,47 73,0l0 0z"/>
    <path d="M12328 19370c18,-101 23,-238 82,-327 31,-46 103,-76 143,-115 34,-33 -18,-85 -51,-52 -46,45 -112,73 -150,124 -70,92 -76,242 -94,350 -8,47 62,66 70,20l0 0z"/>
    <path d="M11943 19363c0,-151 31,-400 -111,-499 -38,-27 -75,37 -37,63 22,15 30,15 41,44 44,119 33,267 34,392 0,47 73,47 73,0l0 0z"/>
    <path d="M12089 19353c-19,-111 -27,-253 -91,-350 -37,-56 -111,-87 -158,-133 -34,-33 -86,19 -52,52 44,42 101,70 142,113 23,23 31,61 39,91 23,81 35,164 49,247 8,46 79,26 71,-20l0 0z"/>
   <path d="M2783 19364c-2,-468 -35,-1221 -659,-1232 -48,0 -47,73 0,73 573,10 584,738 586,1159 0,47 73,47 73,0l0 0z"/>
    <path d="M2928 19364c-3,-528 -156,-1222 -804,-1232 -48,0 -47,73 0,73 603,10 728,675 731,1159 0,47 73,47 73,0l0 0z"/>
    <path d="M2433 19364c0,-232 13,-489 -63,-712 -35,-105 -110,-174 -186,-250 -33,-33 -85,18 -52,52 72,72 140,133 173,232 71,210 55,459 55,678 0,47 74,47 73,0l0 0z"/>
    <path d="M2579 19364c-1,-232 6,-502 -108,-713 -64,-119 -187,-181 -294,-254 -39,-27 -76,36 -37,63 99,67 205,122 268,228 113,191 97,464 98,676 0,47 73,47 73,0l0 0z"/>
    <path d="M3123 19364c1,-188 -16,-463 108,-623 35,-45 95,-63 100,-126 4,-47 -69,-47 -73,0 -2,24 -93,91 -110,119 -106,177 -97,432 -98,630 -1,47 72,47 73,0l0 0z"/>
    <path d="M2976 19373c27,-167 33,-391 126,-540 48,-76 156,-126 219,-192 32,-34 -20,-86 -52,-52 -68,73 -163,121 -224,199 -33,43 -48,100 -62,151 -37,136 -55,277 -77,415 -8,46 63,66 70,19l0 0z"/>
    <path d="M3742 19364c0,-186 -8,-387 52,-565 30,-91 106,-144 176,-203 36,-30 -16,-82 -52,-52 -72,62 -145,117 -183,207 -78,186 -66,415 -66,613 -1,47 73,47 73,0z"/>
    <path d="M3596 19364c1,-184 -5,-400 93,-564 59,-98 178,-143 273,-198 41,-24 4,-87 -37,-63 -105,61 -215,110 -290,211 -120,164 -111,422 -112,614 0,47 73,47 73,0l0 0z"/>
    <path d="M3988 19364c2,-161 -9,-398 111,-527 36,-39 92,-48 98,-108 5,-47 -68,-47 -73,0 0,3 -96,77 -111,100 -101,145 -96,368 -98,535 0,47 73,47 73,0z"/>
    <path d="M3842 19373c25,-135 35,-344 127,-456 54,-66 153,-105 218,-162 35,-32 -17,-83 -52,-52 -69,61 -166,99 -224,170 -101,122 -112,334 -140,481 -8,46 62,66 71,19l0 0z"/>
    <path d="M3489 19366c-1,-124 -3,-265 -65,-376 -14,-25 -34,-46 -56,-63 -16,-11 -30,-29 -28,-12 -5,-47 -78,-47 -73,0 5,44 38,53 67,78 92,81 81,266 81,373 1,47 74,47 74,0z"/>
    <path d="M3591 19357c-21,-107 -30,-248 -96,-340 -40,-55 -115,-83 -166,-128 -35,-31 -87,20 -51,52 46,41 105,67 149,109 23,22 32,58 41,88 24,77 37,158 52,238 9,46 79,27 71,-19l0 0z"/>
    <path d="M4533 19366c1,-184 -2,-399 100,-561 51,-83 146,-127 218,-188 36,-30 -16,-82 -51,-52 -81,68 -170,114 -231,203 -113,165 -108,409 -109,598 0,47 73,47 73,0l0 0z"/>
    <path d="M4388 19366c2,-188 6,-414 143,-560 82,-88 210,-125 313,-183 41,-24 4,-87 -37,-63 -116,66 -247,108 -340,208 -144,153 -150,402 -152,598 0,47 73,47 73,0l0 0z"/>
    <path d="M4724 19360c0,-111 -10,-281 70,-373 26,-31 63,-39 68,-85 5,-47 -68,-46 -73,0 1,-13 -62,51 -73,68 -69,108 -65,268 -66,390 0,47 73,47 74,0l0 0z"/>
    <path d="M4626 19370c18,-101 23,-238 82,-327 31,-46 103,-76 143,-115 34,-33 -18,-85 -51,-52 -46,45 -112,73 -150,124 -70,92 -76,242 -94,350 -8,47 62,66 70,20l0 0z"/>
    <path d="M4241 19363c-1,-151 31,-400 -111,-499 -38,-27 -75,37 -37,63 22,15 30,15 41,44 44,119 33,267 34,392 0,47 73,47 73,0l0 0z"/>
    <path d="M4387 19353c-19,-111 -27,-253 -92,-350 -37,-56 -110,-87 -157,-133 -34,-33 -86,19 -52,52 44,42 101,70 142,113 23,23 31,61 39,91 22,81 35,164 49,247 8,46 79,26 71,-20l0 0z"/>
   <path d="M12943 19364c-2,-468 -35,-1221 -659,-1232 -48,0 -47,73 0,73 573,10 584,738 586,1159 0,47 73,47 73,0l0 0z"/>
    <path d="M13088 19364c-3,-528 -156,-1222 -804,-1232 -48,0 -47,73 0,73 603,10 728,675 731,1159 0,47 73,47 73,0l0 0z"/>
    <path d="M12593 19364c0,-232 13,-489 -62,-712 -36,-105 -111,-174 -187,-250 -33,-33 -85,18 -52,52 72,72 140,133 173,232 71,210 55,459 55,678 0,47 74,47 73,0l0 0z"/>
    <path d="M12739 19364c-1,-232 6,-502 -108,-713 -64,-119 -187,-181 -294,-254 -39,-27 -76,36 -37,63 99,67 205,122 268,228 113,191 97,464 98,676 0,47 73,47 73,0l0 0z"/>
    <path d="M13283 19364c1,-188 -16,-463 108,-623 35,-45 95,-63 100,-126 4,-47 -69,-47 -73,0 -2,24 -93,91 -110,119 -106,177 -97,432 -98,630 -1,47 72,47 73,0l0 0z"/>
    <path d="M13136 19373c27,-167 33,-391 126,-540 48,-76 156,-126 219,-192 32,-34 -20,-86 -52,-52 -68,73 -163,121 -224,199 -33,43 -48,100 -62,151 -37,136 -55,277 -77,415 -8,46 63,66 70,19l0 0z"/>
    <path d="M13902 19364c0,-186 -8,-387 52,-565 30,-91 106,-144 176,-203 36,-30 -16,-82 -52,-52 -72,62 -145,117 -183,207 -78,186 -66,415 -66,613 -1,47 73,47 73,0z"/>
    <path d="M13756 19364c1,-184 -5,-400 93,-564 59,-98 178,-143 273,-198 41,-24 4,-87 -37,-63 -105,61 -215,110 -290,211 -120,164 -111,422 -112,614 0,47 73,47 73,0l0 0z"/>
    <path d="M14148 19364c2,-161 -9,-398 111,-527 36,-39 92,-48 98,-108 5,-47 -68,-47 -73,0 0,3 -96,77 -111,100 -101,145 -96,368 -98,535 0,47 73,47 73,0z"/>
    <path d="M14002 19373c25,-135 35,-344 127,-456 54,-66 153,-105 218,-162 35,-32 -17,-83 -52,-52 -69,61 -166,99 -224,170 -101,122 -112,334 -140,481 -8,46 62,66 71,19l0 0z"/>
    <path d="M13649 19366c-1,-124 -3,-265 -65,-376 -14,-25 -34,-46 -56,-63 -16,-11 -30,-29 -28,-12 -5,-47 -78,-47 -73,0 5,44 38,53 67,78 92,81 81,266 81,373 1,47 74,47 74,0z"/>
    <path d="M13751 19357c-21,-107 -30,-248 -96,-340 -40,-55 -115,-83 -166,-128 -35,-31 -87,20 -51,52 46,41 105,67 149,109 24,22 32,58 41,88 24,77 37,158 52,238 9,46 79,27 71,-19l0 0z"/>
    <path d="M14693 19366c1,-184 -2,-399 100,-561 51,-83 146,-127 218,-188 36,-30 -16,-82 -51,-52 -81,68 -170,114 -231,203 -112,165 -108,409 -109,598 0,47 73,47 73,0l0 0z"/>
    <path d="M14548 19366c2,-188 6,-414 143,-560 82,-88 210,-125 313,-183 41,-24 4,-87 -37,-63 -116,66 -247,108 -340,208 -144,153 -150,402 -152,598 0,47 73,47 73,0l0 0z"/>
    <path d="M14884 19360c0,-111 -10,-281 70,-373 26,-31 63,-39 68,-85 5,-47 -68,-46 -73,0 1,-13 -62,51 -73,68 -69,108 -65,268 -66,390 0,47 73,47 74,0l0 0z"/>
    <path d="M14786 19370c18,-101 23,-238 82,-327 31,-46 103,-76 143,-115 34,-33 -18,-85 -51,-52 -46,45 -112,73 -150,124 -70,92 -76,242 -94,350 -8,47 62,66 70,20l0 0z"/>
    <path d="M14401 19363c-1,-151 31,-400 -111,-499 -38,-27 -75,37 -37,63 22,15 30,15 41,44 44,119 33,267 34,392 0,47 73,47 73,0l0 0z"/>
    <path d="M14547 19353c-19,-111 -27,-253 -92,-350 -37,-56 -110,-87 -157,-133 -34,-33 -86,19 -52,52 44,42 101,70 142,113 23,23 31,61 39,91 22,81 35,164 49,247 8,46 79,26 71,-20l0 0z"/>
   <path d="M5241 19364c-2,-468 -35,-1221 -659,-1232 -48,0 -48,73 0,73 573,10 584,738 586,1159 0,47 73,47 73,0l0 0z"/>
    <path d="M5386 19364c-3,-528 -156,-1222 -804,-1232 -48,0 -48,73 0,73 603,10 728,675 731,1159 0,47 73,47 73,0l0 0z"/>
    <path d="M4891 19364c0,-232 13,-489 -63,-712 -35,-105 -110,-174 -186,-250 -33,-33 -85,18 -52,52 72,72 139,133 173,232 71,210 55,459 55,678 0,47 73,47 73,0l0 0z"/>
    <path d="M5037 19364c-1,-232 6,-502 -108,-713 -64,-119 -187,-181 -294,-254 -40,-27 -76,36 -37,63 98,67 205,122 268,228 112,191 97,464 97,676 1,47 74,47 74,0l0 0z"/>
    <path d="M5581 19364c1,-188 -16,-463 108,-623 35,-45 95,-63 100,-126 4,-47 -69,-47 -73,0 -2,24 -93,91 -110,119 -106,177 -97,432 -99,630 0,47 73,47 74,0l0 0z"/>
    <path d="M5434 19373c27,-167 33,-391 126,-540 48,-76 156,-126 219,-192 32,-34 -20,-86 -52,-52 -69,73 -163,121 -224,199 -33,43 -48,100 -62,151 -37,136 -56,277 -78,415 -7,46 64,66 71,19l0 0z"/>
    <path d="M6200 19364c0,-186 -8,-387 52,-565 30,-91 106,-144 176,-203 36,-30 -16,-82 -52,-52 -72,62 -145,117 -183,207 -79,186 -66,415 -67,613 0,47 73,47 74,0z"/>
    <path d="M6054 19364c1,-184 -5,-400 93,-564 59,-98 178,-143 273,-198 41,-24 4,-87 -37,-63 -106,61 -215,110 -290,211 -121,164 -111,422 -112,614 0,47 73,47 73,0l0 0z"/>
    <path d="M6446 19364c2,-161 -9,-398 111,-527 36,-39 92,-48 98,-108 5,-47 -68,-47 -73,0 0,3 -96,77 -112,100 -100,145 -96,368 -97,535 0,47 73,47 73,0z"/>
    <path d="M6300 19373c25,-135 34,-344 127,-456 54,-66 153,-105 217,-162 36,-32 -16,-83 -51,-52 -69,61 -166,99 -225,170 -100,122 -111,334 -139,481 -8,46 62,66 71,19l0 0z"/>
    <path d="M5946 19366c-1,-124 -2,-265 -64,-376 -14,-25 -34,-46 -56,-63 -16,-11 -30,-29 -28,-12 -5,-47 -78,-47 -73,0 5,44 38,53 67,78 92,81 81,266 81,373 1,47 74,47 73,0z"/>
    <path d="M6048 19357c-20,-107 -29,-248 -95,-340 -40,-55 -115,-83 -166,-128 -35,-31 -87,20 -51,52 46,41 105,67 149,109 23,22 32,58 41,88 24,77 37,158 52,238 9,46 79,27 70,-19l0 0z"/>
    <path d="M6991 19366c1,-184 -2,-399 99,-561 52,-83 146,-127 219,-188 36,-30 -16,-82 -52,-52 -80,68 -169,114 -230,203 -113,165 -108,409 -109,598 0,47 73,47 73,0l0 0z"/>
    <path d="M6846 19366c2,-188 6,-414 143,-560 82,-88 210,-125 313,-183 41,-24 4,-87 -37,-63 -116,66 -247,108 -340,208 -144,153 -150,402 -152,598 -1,47 73,47 73,0l0 0z"/>
    <path d="M7181 19360c1,-111 -9,-281 71,-373 26,-31 63,-39 68,-85 5,-47 -69,-46 -73,0 1,-13 -63,51 -73,68 -69,108 -65,268 -66,390 0,47 73,47 73,0l0 0z"/>
    <path d="M7084 19370c17,-101 23,-238 82,-327 31,-46 103,-76 143,-115 34,-33 -18,-85 -52,-52 -45,45 -111,73 -149,124 -70,92 -76,242 -95,350 -8,47 63,66 71,20l0 0z"/>
    <path d="M6699 19363c-1,-151 31,-400 -111,-499 -39,-27 -75,37 -37,63 22,15 30,15 40,44 45,119 34,267 35,392 0,47 73,47 73,0l0 0z"/>
    <path d="M6845 19353c-19,-111 -27,-253 -92,-350 -37,-56 -110,-87 -157,-133 -34,-33 -86,19 -52,52 44,42 101,70 142,113 23,23 31,61 39,91 22,81 35,164 49,247 8,46 79,26 71,-20l0 0z"/>
   <path d="M15401 19364c-2,-468 -35,-1221 -659,-1232 -48,0 -48,73 0,73 573,10 584,738 586,1159 0,47 73,47 73,0l0 0z"/>
    <path d="M15546 19364c-3,-528 -156,-1222 -804,-1232 -48,0 -48,73 0,73 603,10 728,675 731,1159 0,47 73,47 73,0l0 0z"/>
    <path d="M15051 19364c0,-232 13,-489 -63,-712 -35,-105 -110,-174 -186,-250 -33,-33 -85,18 -52,52 72,72 139,133 173,232 71,210 55,459 55,678 0,47 74,47 73,0l0 0z"/>
    <path d="M15197 19364c-1,-232 6,-502 -108,-713 -64,-119 -187,-181 -294,-254 -39,-27 -76,36 -37,63 98,67 205,122 268,228 113,191 97,464 97,676 1,47 74,47 74,0l0 0z"/>
    <path d="M15741 19364c1,-188 -16,-463 108,-623 35,-45 95,-63 100,-126 4,-47 -69,-47 -73,0 -2,24 -93,91 -110,119 -106,177 -97,432 -99,630 0,47 73,47 74,0l0 0z"/>
    <path d="M15594 19373c27,-167 33,-391 126,-540 48,-76 156,-126 219,-192 32,-34 -20,-86 -52,-52 -69,73 -163,121 -224,199 -33,43 -48,100 -62,151 -37,136 -56,277 -78,415 -7,46 64,66 71,19l0 0z"/>
    <path d="M16360 19364c0,-186 -8,-387 52,-565 30,-91 106,-144 176,-203 36,-30 -16,-82 -52,-52 -72,62 -145,117 -183,207 -79,186 -66,415 -67,613 0,47 73,47 74,0z"/>
    <path d="M16214 19364c1,-184 -5,-400 93,-564 59,-98 178,-143 273,-198 41,-24 4,-87 -37,-63 -106,61 -215,110 -290,211 -120,164 -111,422 -112,614 0,47 73,47 73,0l0 0z"/>
    <path d="M16606 19364c2,-161 -9,-398 111,-527 36,-39 92,-48 98,-108 5,-47 -68,-47 -73,0 0,3 -96,77 -111,100 -101,145 -96,368 -98,535 0,47 73,47 73,0z"/>
    <path d="M16460 19373c25,-135 35,-344 127,-456 54,-66 153,-105 217,-162 36,-32 -16,-83 -51,-52 -69,61 -166,99 -225,170 -100,122 -111,334 -139,481 -8,46 62,66 71,19l0 0z"/>
    <path d="M16106 19366c-1,-124 -2,-265 -64,-376 -14,-25 -34,-46 -56,-63 -16,-11 -30,-29 -28,-12 -5,-47 -78,-47 -73,0 5,44 38,53 67,78 92,81 81,266 81,373 1,47 74,47 73,0z"/>
    <path d="M16208 19357c-20,-107 -29,-248 -95,-340 -40,-55 -115,-83 -166,-128 -35,-31 -87,20 -51,52 46,41 105,67 149,109 23,22 32,58 41,88 24,77 37,158 52,238 9,46 79,27 70,-19l0 0z"/>
    <path d="M17151 19366c1,-184 -2,-399 99,-561 52,-83 147,-127 219,-188 36,-30 -16,-82 -52,-52 -80,68 -169,114 -230,203 -113,165 -108,409 -109,598 0,47 73,47 73,0l0 0z"/>
    <path d="M17006 19366c2,-188 6,-414 143,-560 82,-88 210,-125 313,-183 41,-24 4,-87 -37,-63 -116,66 -247,108 -340,208 -144,153 -150,402 -152,598 -1,47 73,47 73,0l0 0z"/>
    <path d="M17342 19360c0,-111 -10,-281 70,-373 26,-31 63,-39 68,-85 5,-47 -69,-46 -73,0 1,-13 -62,51 -73,68 -69,108 -65,268 -66,390 0,47 73,47 74,0l0 0z"/>
    <path d="M17244 19370c17,-101 23,-238 82,-327 31,-46 103,-76 143,-115 34,-33 -18,-85 -52,-52 -45,45 -111,73 -149,124 -70,92 -76,242 -95,350 -8,47 63,66 71,20l0 0z"/>
    <path d="M16859 19363c-1,-151 31,-400 -111,-499 -39,-27 -75,37 -37,63 22,15 30,15 40,44 45,119 34,267 35,392 0,47 73,47 73,0l0 0z"/>
    <path d="M17005 19353c-19,-111 -27,-253 -92,-350 -37,-56 -110,-87 -157,-133 -34,-33 -86,19 -52,52 44,42 101,70 142,113 23,23 31,61 39,91 22,81 35,164 49,247 8,46 79,26 71,-20l0 0z"/>
   <path d="M7699 19364c-2,-468 -35,-1221 -660,-1232 -47,0 -47,73 0,73 574,10 585,738 587,1159 0,47 73,47 73,0l0 0z"/>
    <path d="M7844 19364c-3,-528 -156,-1222 -805,-1232 -47,0 -47,73 0,73 604,10 729,675 732,1159 0,47 73,47 73,0l0 0z"/>
    <path d="M7349 19364c0,-232 13,-489 -63,-712 -35,-105 -110,-174 -186,-250 -33,-33 -85,18 -52,52 72,72 139,133 173,232 71,210 55,459 55,678 0,47 73,47 73,0l0 0z"/>
    <path d="M7495 19364c-1,-232 6,-502 -108,-713 -64,-119 -187,-181 -295,-254 -39,-27 -75,36 -36,63 98,67 205,122 268,228 112,191 97,464 97,676 1,47 74,47 74,0l0 0z"/>
    <path d="M8038 19364c1,-188 -15,-463 109,-623 35,-45 95,-63 100,-126 4,-47 -69,-47 -73,0 -2,24 -94,91 -110,119 -106,177 -98,432 -99,630 0,47 73,47 73,0l0 0z"/>
    <path d="M7892 19373c27,-167 33,-391 126,-540 48,-76 156,-126 218,-192 33,-34 -19,-86 -51,-52 -69,73 -164,121 -224,199 -33,43 -48,100 -62,151 -37,136 -56,277 -78,415 -7,46 64,66 71,19l0 0z"/>
    <path d="M8657 19364c1,-186 -7,-387 53,-565 30,-91 106,-144 175,-203 36,-30 -16,-82 -51,-52 -72,62 -145,117 -183,207 -79,186 -66,415 -67,613 0,47 73,47 73,0z"/>
    <path d="M8512 19364c1,-184 -5,-400 93,-564 59,-98 178,-143 273,-198 41,-24 4,-87 -37,-63 -106,61 -216,110 -290,211 -121,164 -111,422 -112,614 0,47 73,47 73,0l0 0z"/>
    <path d="M8904 19364c2,-161 -9,-398 111,-527 36,-39 92,-48 98,-108 5,-47 -68,-47 -73,0 0,3 -96,77 -112,100 -100,145 -96,368 -97,535 0,47 73,47 73,0z"/>
    <path d="M8758 19373c25,-135 34,-344 127,-456 54,-66 153,-105 217,-162 36,-32 -16,-83 -51,-52 -69,61 -166,99 -225,170 -100,122 -111,334 -139,481 -8,46 62,66 71,19l0 0z"/>
    <path d="M8404 19366c-1,-124 -2,-265 -65,-376 -13,-25 -33,-46 -55,-63 -16,-11 -30,-29 -28,-12 -5,-47 -78,-47 -73,0 5,44 38,53 67,78 92,81 80,266 81,373 1,47 74,47 73,0z"/>
    <path d="M8506 19357c-20,-107 -29,-248 -95,-340 -40,-55 -115,-83 -166,-128 -35,-31 -87,20 -52,52 47,41 106,67 150,109 23,22 32,58 41,88 24,77 37,158 52,238 9,46 79,27 70,-19l0 0z"/>
    <path d="M9449 19366c1,-184 -2,-399 99,-561 52,-83 146,-127 219,-188 36,-30 -16,-82 -52,-52 -80,68 -169,114 -230,203 -113,165 -108,409 -109,598 0,47 73,47 73,0l0 0z"/>
    <path d="M9304 19366c2,-188 6,-414 143,-560 82,-88 210,-125 313,-183 41,-24 4,-87 -37,-63 -117,66 -247,108 -340,208 -144,153 -151,402 -152,598 -1,47 73,47 73,0l0 0z"/>
    <path d="M9639 19360c1,-111 -9,-281 70,-373 27,-31 64,-39 69,-85 5,-47 -69,-46 -73,0 1,-13 -63,51 -73,68 -69,108 -65,268 -66,390 0,47 73,47 73,0l0 0z"/>
    <path d="M9542 19370c17,-101 23,-238 82,-327 30,-46 103,-76 143,-115 34,-33 -18,-85 -52,-52 -45,45 -111,73 -149,124 -70,92 -76,242 -95,350 -8,47 63,66 71,20l0 0z"/>
    <path d="M9157 19363c-1,-151 31,-400 -111,-499 -39,-27 -75,37 -37,63 22,15 30,15 40,44 44,119 34,267 35,392 0,47 73,47 73,0l0 0z"/>
    <path d="M9303 19353c-20,-111 -27,-253 -92,-350 -37,-56 -110,-87 -157,-133 -34,-33 -86,19 -52,52 43,42 101,70 142,113 23,23 31,61 39,91 22,81 35,164 49,247 8,46 79,26 71,-20l0 0z"/>
 </g>
</svg>
