<svg width="500" height="500" version="1.2" viewBox="-.8 -.5 500 500" xml:space="preserve" xmlns="http://www.w3.org/2000/svg"><title>No Standby Logo</title>



<g transform="matrix(.82249 0 0 .82249 133.41 193.77)"><g transform="rotate(17.439 135.29 163.77)"><path transform="matrix(1.1599 -.36438 .36438 1.1599 -269.32 -128.37)" d="m263.73 232.09-0.0273 0.0801-7.5059 23.891-0.95313-0.29883 3.377-10.453-3.4023-1.0703-0.0937 0.30078-12.209 38.85 4.2734 1.3438-15.343 42.67c-2.3997 7.6398 1.8486 15.778 9.4883 18.178 7.6398 2.3997 15.778-1.8466 18.178-9.4863l15.343-42.67 3.6211 1.0371 12.273-39.057-2.873-0.9043-3.457 10.43-0.55859-0.17383 2e-3 -4e-3 -0.14062-0.0449 7.5312-23.969-2.5645-0.80664-0.0254 0.082-7.5078 23.889-1-0.31446 7.5332-23.971-2.5664-0.80664-0.0254 0.082-7.5078 23.889-1-0.31445 7.5332-23.969-2.5664-0.80664-0.0254 0.0801-7.5078 23.889-0.99805-0.3125 7.5332-23.971-2.5664-0.80664-0.0254 0.082-7.5078 23.889-1-0.31445 7.5332-23.971-2.5664-0.80664-0.0254 0.082-7.5078 23.889-0.99805-0.3125 7.5332-23.973-2.5664-0.80469-0.0254 0.0801-7.5078 23.891-1-0.31446 7.5332-23.971-2.5664-0.80664-0.0254 0.0801-7.5078 23.891-0.99805-0.3125 7.5332-23.973zm-66.236 4.2129c-2.495-0.0311-4.9825 0.53984-7.2441 1.6953-22.053 11.265-39.825 30.437-47.574 55.104-16.603 52.854 16.356 112.84 73.883 130.92 57.401 18.032 118.84-12.182 135.47-65.15 7.7487-24.667 4.1319-50.556-7.5176-72.408-4.0268-7.5543-13.416-10.414-20.971-6.3867-7.554 4.0273-10.412 13.417-6.3848 20.971 8.1815 15.347 10.384 32.34 5.2969 48.535-10.955 34.873-54.844 57.983-96.607 44.863-41.885-13.158-64.52-57.28-53.598-92.049 5.0874-16.195 16.612-28.876 32.1-36.787 7.6237-3.8939 10.646-13.232 6.752-20.855-1.8917-3.7032-5.1909-6.4904-9.1582-7.7363-1.4538-0.45652-2.9542-0.69229-4.4512-0.71094z" color="#000000" color-rendering="auto" dominant-baseline="auto" image-rendering="auto" shape-rendering="auto" solid-color="#000000" stop-color="#000000" style="font-feature-settings:normal;font-variant-alternates:normal;font-variant-caps:normal;font-variant-east-asian:normal;font-variant-ligatures:normal;font-variant-numeric:normal;font-variant-position:normal;font-variation-settings:normal;inline-size:0;isolation:auto;mix-blend-mode:normal;shape-margin:0;shape-padding:0;text-decoration-color:#000000;text-decoration-line:none;text-decoration-style:solid;text-indent:0;text-orientation:mixed;text-transform:none;white-space:normal"/><circle cx="455.1" cy="158.68" r="1.5"/><ellipse cx="136.9" cy="153.35" rx="209.84" ry="206.79" fill="none" stroke="#000" stroke-linecap="round" stroke-linejoin="round" stroke-width="10.95"/><path d="m-51.789-43.885 52.353-36.439c18.724-13.032 44.607-8.894 58.035 9.2784l-119.95 83.486c-13.428-18.172-9.1638-43.294 9.5599-56.326z" stroke="#000" stroke-linecap="round" stroke-linejoin="round" stroke-width="12.158"/><path d="m327.92-43.885-52.353-36.439c-18.724-13.032-44.607-8.894-58.035 9.2784l119.95 83.486c13.428-18.172 9.1638-43.294-9.5599-56.326z" stroke="#000" stroke-linecap="round" stroke-linejoin="round" stroke-width="12.158"/><path d="m303.28-67.632c22.71-89.282-108.57-131.72-165.21-130.1-118.2 3.3811-200 71.627-169.46 137.32" fill="none" stroke="#000" stroke-linecap="round" stroke-linejoin="round" stroke-width="12.158"/></g><path d="m-162.95 220.93 0.0297 1.827c14.448 0.14989 26.073 5.7687 29.343 10.169 3.2698 4.4004 7.3822 15.014 8.8709 24.927 2.9773 19.826 1.3864 53.57 21.781 71.161 18.637 16.075 35.388 22.096 54.053 22.212 18.664 0.1162 36.203-8.9546 52.646-24.795 0.27913-0.26858 0.54197-0.55359 0.78711-0.85351l6.043-7.4062-15.068-12.301-5.5547 6.8027c-11.055 16.156-26.813 25.176-39.113 25.947-12.854 0.80625-24.408-1.0187-43.749-11.403-12.856-6.9025-22.548-24.769-24.855-50.189-0.98949-10.9-4.6485-33.553-11.42-42.568-6.2787-8.3597-19.263-13.477-33.794-13.53z" color="#000000" color-rendering="auto" dominant-baseline="auto" fill-rule="evenodd" image-rendering="auto" shape-rendering="auto" solid-color="#000000" stop-color="#000000" style="font-feature-settings:normal;font-variant-alternates:normal;font-variant-caps:normal;font-variant-east-asian:normal;font-variant-ligatures:normal;font-variant-numeric:normal;font-variant-position:normal;font-variation-settings:normal;inline-size:0;isolation:auto;mix-blend-mode:normal;shape-margin:0;shape-padding:0;text-decoration-color:#000000;text-decoration-line:none;text-decoration-style:solid;text-indent:0;text-orientation:mixed;text-transform:none;white-space:normal"/></g></svg>
